G75*
%MOIN*%
%OFA0B0*%
%FSLAX25Y25*%
%IPPOS*%
%LPD*%
%AMOC8*
5,1,8,0,0,1.08239X$1,22.5*
%
%ADD10C,0.10000*%
%ADD11C,0.08250*%
%ADD12C,0.06000*%
%ADD13C,0.02000*%
%ADD14C,0.00600*%
%ADD15C,0.02978*%
D10*
X0244000Y0302000D02*
X0254000Y0302000D01*
X0274531Y0281500D02*
X0284531Y0281500D01*
X0284531Y0214500D02*
X0274531Y0214500D01*
X0254000Y0369000D02*
X0244000Y0369000D01*
X0274000Y0392000D02*
X0284000Y0392000D01*
X0284000Y0459000D02*
X0274000Y0459000D01*
X0399000Y0369000D02*
X0409000Y0369000D01*
X0429000Y0392000D02*
X0439000Y0392000D01*
X0439000Y0459000D02*
X0429000Y0459000D01*
X0409000Y0302000D02*
X0399000Y0302000D01*
X0429531Y0281500D02*
X0439531Y0281500D01*
X0439531Y0214500D02*
X0429531Y0214500D01*
D11*
X0425875Y0345000D02*
X0434125Y0345000D01*
X0434125Y0365000D02*
X0425875Y0365000D01*
X0189125Y0370000D02*
X0180875Y0370000D01*
X0180875Y0350000D02*
X0189125Y0350000D01*
X0189125Y0330000D02*
X0180875Y0330000D01*
X0180875Y0390000D02*
X0189125Y0390000D01*
X0189125Y0410000D02*
X0180875Y0410000D01*
X0180875Y0430000D02*
X0189125Y0430000D01*
D12*
X0160500Y0272500D02*
X0154500Y0272500D01*
X0154500Y0262500D02*
X0160500Y0262500D01*
X0160500Y0252500D02*
X0154500Y0252500D01*
X0154500Y0242500D02*
X0160500Y0242500D01*
D13*
X0157500Y0242500D02*
X0187500Y0212500D01*
X0190000Y0240000D02*
X0172500Y0240000D01*
X0160000Y0252500D01*
X0157500Y0252500D01*
X0157500Y0262500D02*
X0160000Y0262500D01*
X0180000Y0282500D01*
X0180000Y0295000D01*
X0197500Y0282500D02*
X0197500Y0262500D01*
X0225000Y0235000D01*
X0250000Y0235000D01*
X0267500Y0252500D01*
X0267500Y0380000D01*
X0277500Y0390000D01*
X0279000Y0392000D01*
X0262500Y0372500D02*
X0262500Y0252500D01*
X0252500Y0242500D01*
X0225000Y0240000D02*
X0225000Y0277500D01*
X0247500Y0300000D01*
X0249000Y0302000D01*
X0217500Y0257500D02*
X0217500Y0360000D01*
X0212500Y0365000D01*
X0225000Y0370000D02*
X0197500Y0370000D01*
X0197500Y0342500D01*
X0185000Y0330000D01*
X0185000Y0320000D01*
X0157500Y0292500D01*
X0157500Y0272500D01*
X0180000Y0320000D02*
X0172500Y0327500D01*
X0172500Y0432500D01*
X0181319Y0441319D01*
X0215000Y0441319D01*
X0220000Y0415000D02*
X0262500Y0372500D01*
X0249000Y0369000D02*
X0247500Y0370000D01*
X0225000Y0370000D01*
X0185000Y0410000D01*
X0185000Y0370000D02*
X0197500Y0370000D01*
X0405000Y0355000D02*
X0405000Y0302500D01*
X0404000Y0302000D01*
X0405000Y0355000D02*
X0432500Y0382500D01*
X0432500Y0390000D01*
X0434000Y0392000D01*
D14*
X0146300Y0472401D02*
X0146300Y0196300D01*
X0468621Y0196300D01*
X0468621Y0472401D01*
X0146300Y0472401D01*
X0146300Y0472111D02*
X0468621Y0472111D01*
X0468621Y0471512D02*
X0146300Y0471512D01*
X0146300Y0470914D02*
X0468621Y0470914D01*
X0468621Y0470315D02*
X0459313Y0470315D01*
X0458362Y0470709D02*
X0455182Y0470709D01*
X0452244Y0469493D01*
X0449996Y0467244D01*
X0448779Y0464306D01*
X0448779Y0461127D01*
X0449996Y0458189D01*
X0452244Y0455940D01*
X0455182Y0454724D01*
X0458362Y0454724D01*
X0461299Y0455940D01*
X0463548Y0458189D01*
X0464765Y0461127D01*
X0464765Y0464306D01*
X0463548Y0467244D01*
X0461299Y0469493D01*
X0458362Y0470709D01*
X0460758Y0469717D02*
X0468621Y0469717D01*
X0468621Y0469118D02*
X0461674Y0469118D01*
X0462272Y0468520D02*
X0468621Y0468520D01*
X0468621Y0467921D02*
X0462871Y0467921D01*
X0463469Y0467323D02*
X0468621Y0467323D01*
X0468621Y0466724D02*
X0463763Y0466724D01*
X0464011Y0466126D02*
X0468621Y0466126D01*
X0468621Y0465527D02*
X0464259Y0465527D01*
X0464507Y0464929D02*
X0468621Y0464929D01*
X0468621Y0464330D02*
X0464755Y0464330D01*
X0464765Y0463732D02*
X0468621Y0463732D01*
X0468621Y0463133D02*
X0464765Y0463133D01*
X0464765Y0462535D02*
X0468621Y0462535D01*
X0468621Y0461936D02*
X0464765Y0461936D01*
X0464765Y0461338D02*
X0468621Y0461338D01*
X0468621Y0460739D02*
X0464604Y0460739D01*
X0464356Y0460141D02*
X0468621Y0460141D01*
X0468621Y0459542D02*
X0464108Y0459542D01*
X0463860Y0458943D02*
X0468621Y0458943D01*
X0468621Y0458345D02*
X0463612Y0458345D01*
X0463105Y0457746D02*
X0468621Y0457746D01*
X0468621Y0457148D02*
X0462507Y0457148D01*
X0461908Y0456549D02*
X0468621Y0456549D01*
X0468621Y0455951D02*
X0461310Y0455951D01*
X0459880Y0455352D02*
X0468621Y0455352D01*
X0468621Y0454754D02*
X0458435Y0454754D01*
X0455109Y0454754D02*
X0443663Y0454754D01*
X0443065Y0454155D02*
X0468621Y0454155D01*
X0468621Y0453557D02*
X0442322Y0453557D01*
X0442569Y0453659D02*
X0444341Y0455431D01*
X0445300Y0457747D01*
X0445300Y0460253D01*
X0444341Y0462569D01*
X0442569Y0464341D01*
X0440253Y0465300D01*
X0427747Y0465300D01*
X0425431Y0464341D01*
X0423659Y0462569D01*
X0422700Y0460253D01*
X0422700Y0457747D01*
X0423659Y0455431D01*
X0425431Y0453659D01*
X0427747Y0452700D01*
X0440253Y0452700D01*
X0442569Y0453659D01*
X0440877Y0452958D02*
X0468621Y0452958D01*
X0468621Y0452360D02*
X0146300Y0452360D01*
X0146300Y0452958D02*
X0272207Y0452958D01*
X0272525Y0452855D02*
X0273504Y0452700D01*
X0278700Y0452700D01*
X0278700Y0458700D01*
X0279300Y0458700D01*
X0279300Y0459300D01*
X0278700Y0459300D01*
X0278700Y0465300D01*
X0273504Y0465300D01*
X0272525Y0465145D01*
X0271582Y0464838D01*
X0270698Y0464388D01*
X0269896Y0463805D01*
X0269195Y0463104D01*
X0268612Y0462302D01*
X0268162Y0461418D01*
X0267855Y0460475D01*
X0267700Y0459496D01*
X0267700Y0459300D01*
X0278700Y0459300D01*
X0278700Y0458700D01*
X0267700Y0458700D01*
X0267700Y0458504D01*
X0267855Y0457525D01*
X0268162Y0456582D01*
X0268612Y0455698D01*
X0269195Y0454896D01*
X0269896Y0454195D01*
X0270698Y0453612D01*
X0271582Y0453162D01*
X0272525Y0452855D01*
X0270806Y0453557D02*
X0146300Y0453557D01*
X0146300Y0454155D02*
X0269950Y0454155D01*
X0269337Y0454754D02*
X0159222Y0454754D01*
X0159149Y0454724D02*
X0162087Y0455940D01*
X0164335Y0458189D01*
X0165552Y0461127D01*
X0165552Y0464306D01*
X0164335Y0467244D01*
X0162087Y0469493D01*
X0159149Y0470709D01*
X0155969Y0470709D01*
X0153031Y0469493D01*
X0150783Y0467244D01*
X0149566Y0464306D01*
X0149566Y0461127D01*
X0150783Y0458189D01*
X0153031Y0455940D01*
X0155969Y0454724D01*
X0159149Y0454724D01*
X0160667Y0455352D02*
X0268863Y0455352D01*
X0268483Y0455951D02*
X0162097Y0455951D01*
X0162696Y0456549D02*
X0268178Y0456549D01*
X0267978Y0457148D02*
X0163294Y0457148D01*
X0163893Y0457746D02*
X0267820Y0457746D01*
X0267725Y0458345D02*
X0164400Y0458345D01*
X0164648Y0458943D02*
X0278700Y0458943D01*
X0278700Y0458345D02*
X0279300Y0458345D01*
X0279300Y0458700D02*
X0279300Y0452700D01*
X0284496Y0452700D01*
X0285475Y0452855D01*
X0286418Y0453162D01*
X0287302Y0453612D01*
X0288104Y0454195D01*
X0288805Y0454896D01*
X0289388Y0455698D01*
X0289838Y0456582D01*
X0290145Y0457525D01*
X0290300Y0458504D01*
X0290300Y0458700D01*
X0279300Y0458700D01*
X0279300Y0458943D02*
X0422700Y0458943D01*
X0422700Y0458345D02*
X0290275Y0458345D01*
X0290180Y0457746D02*
X0422700Y0457746D01*
X0422948Y0457148D02*
X0290022Y0457148D01*
X0289822Y0456549D02*
X0423196Y0456549D01*
X0423444Y0455951D02*
X0289517Y0455951D01*
X0289137Y0455352D02*
X0423738Y0455352D01*
X0424337Y0454754D02*
X0288663Y0454754D01*
X0288050Y0454155D02*
X0424935Y0454155D01*
X0425678Y0453557D02*
X0287194Y0453557D01*
X0285793Y0452958D02*
X0427123Y0452958D01*
X0422700Y0459542D02*
X0290293Y0459542D01*
X0290300Y0459496D02*
X0290145Y0460475D01*
X0289838Y0461418D01*
X0289388Y0462302D01*
X0288805Y0463104D01*
X0288104Y0463805D01*
X0287302Y0464388D01*
X0286418Y0464838D01*
X0285475Y0465145D01*
X0284496Y0465300D01*
X0279300Y0465300D01*
X0279300Y0459300D01*
X0290300Y0459300D01*
X0290300Y0459496D01*
X0290198Y0460141D02*
X0422700Y0460141D01*
X0422901Y0460739D02*
X0290059Y0460739D01*
X0289865Y0461338D02*
X0423149Y0461338D01*
X0423397Y0461936D02*
X0289575Y0461936D01*
X0289219Y0462535D02*
X0423645Y0462535D01*
X0424224Y0463133D02*
X0288776Y0463133D01*
X0288178Y0463732D02*
X0424822Y0463732D01*
X0425421Y0464330D02*
X0287382Y0464330D01*
X0286141Y0464929D02*
X0426850Y0464929D01*
X0441150Y0464929D02*
X0449036Y0464929D01*
X0449284Y0465527D02*
X0165046Y0465527D01*
X0164798Y0466126D02*
X0449532Y0466126D01*
X0449780Y0466724D02*
X0164551Y0466724D01*
X0164257Y0467323D02*
X0450074Y0467323D01*
X0450673Y0467921D02*
X0163658Y0467921D01*
X0163060Y0468520D02*
X0451271Y0468520D01*
X0451870Y0469118D02*
X0162461Y0469118D01*
X0161546Y0469717D02*
X0452785Y0469717D01*
X0454230Y0470315D02*
X0160101Y0470315D01*
X0155017Y0470315D02*
X0146300Y0470315D01*
X0146300Y0469717D02*
X0153572Y0469717D01*
X0152657Y0469118D02*
X0146300Y0469118D01*
X0146300Y0468520D02*
X0152059Y0468520D01*
X0151460Y0467921D02*
X0146300Y0467921D01*
X0146300Y0467323D02*
X0150861Y0467323D01*
X0150568Y0466724D02*
X0146300Y0466724D01*
X0146300Y0466126D02*
X0150320Y0466126D01*
X0150072Y0465527D02*
X0146300Y0465527D01*
X0146300Y0464929D02*
X0149824Y0464929D01*
X0149576Y0464330D02*
X0146300Y0464330D01*
X0146300Y0463732D02*
X0149566Y0463732D01*
X0149566Y0463133D02*
X0146300Y0463133D01*
X0146300Y0462535D02*
X0149566Y0462535D01*
X0149566Y0461936D02*
X0146300Y0461936D01*
X0146300Y0461338D02*
X0149566Y0461338D01*
X0149727Y0460739D02*
X0146300Y0460739D01*
X0146300Y0460141D02*
X0149975Y0460141D01*
X0150223Y0459542D02*
X0146300Y0459542D01*
X0146300Y0458943D02*
X0150470Y0458943D01*
X0150718Y0458345D02*
X0146300Y0458345D01*
X0146300Y0457746D02*
X0151225Y0457746D01*
X0151824Y0457148D02*
X0146300Y0457148D01*
X0146300Y0456549D02*
X0152422Y0456549D01*
X0153021Y0455951D02*
X0146300Y0455951D01*
X0146300Y0455352D02*
X0154451Y0455352D01*
X0155896Y0454754D02*
X0146300Y0454754D01*
X0146300Y0451761D02*
X0468621Y0451761D01*
X0468621Y0451163D02*
X0146300Y0451163D01*
X0146300Y0450564D02*
X0468621Y0450564D01*
X0468621Y0449966D02*
X0146300Y0449966D01*
X0146300Y0449367D02*
X0468621Y0449367D01*
X0468621Y0448769D02*
X0146300Y0448769D01*
X0146300Y0448170D02*
X0468621Y0448170D01*
X0468621Y0447572D02*
X0146300Y0447572D01*
X0146300Y0446973D02*
X0468621Y0446973D01*
X0468621Y0446375D02*
X0146300Y0446375D01*
X0146300Y0445776D02*
X0468621Y0445776D01*
X0468621Y0445178D02*
X0146300Y0445178D01*
X0146300Y0444579D02*
X0468621Y0444579D01*
X0468621Y0443981D02*
X0215862Y0443981D01*
X0215555Y0444108D02*
X0214445Y0444108D01*
X0213420Y0443683D01*
X0213356Y0443619D01*
X0180366Y0443619D01*
X0179019Y0442272D01*
X0170200Y0433453D01*
X0170200Y0326547D01*
X0171547Y0325200D01*
X0177211Y0319536D01*
X0177211Y0319445D01*
X0177636Y0318420D01*
X0178420Y0317636D01*
X0179445Y0317211D01*
X0180555Y0317211D01*
X0181580Y0317636D01*
X0182364Y0318420D01*
X0182789Y0319445D01*
X0182789Y0320555D01*
X0182364Y0321580D01*
X0181580Y0322364D01*
X0180555Y0322789D01*
X0180464Y0322789D01*
X0177523Y0325730D01*
X0178032Y0325360D01*
X0178793Y0324972D01*
X0179605Y0324709D01*
X0180448Y0324575D01*
X0184700Y0324575D01*
X0184700Y0329700D01*
X0175450Y0329700D01*
X0175450Y0329573D01*
X0175584Y0328730D01*
X0175847Y0327918D01*
X0176235Y0327157D01*
X0176605Y0326648D01*
X0174800Y0328453D01*
X0174800Y0431547D01*
X0176241Y0432988D01*
X0175450Y0431079D01*
X0175450Y0428921D01*
X0176276Y0426927D01*
X0177802Y0425401D01*
X0179796Y0424575D01*
X0190204Y0424575D01*
X0192198Y0425401D01*
X0193724Y0426927D01*
X0194550Y0428921D01*
X0194550Y0431079D01*
X0193724Y0433073D01*
X0192198Y0434599D01*
X0190204Y0435425D01*
X0179796Y0435425D01*
X0177887Y0434634D01*
X0182272Y0439019D01*
X0213356Y0439019D01*
X0213420Y0438955D01*
X0214445Y0438530D01*
X0215555Y0438530D01*
X0216580Y0438955D01*
X0217364Y0439739D01*
X0217789Y0440764D01*
X0217789Y0441874D01*
X0217364Y0442899D01*
X0216580Y0443683D01*
X0215555Y0444108D01*
X0214138Y0443981D02*
X0146300Y0443981D01*
X0146300Y0443382D02*
X0180130Y0443382D01*
X0179531Y0442784D02*
X0146300Y0442784D01*
X0146300Y0442185D02*
X0178932Y0442185D01*
X0178334Y0441587D02*
X0146300Y0441587D01*
X0146300Y0440988D02*
X0177735Y0440988D01*
X0177137Y0440390D02*
X0146300Y0440390D01*
X0146300Y0439791D02*
X0176538Y0439791D01*
X0175940Y0439193D02*
X0146300Y0439193D01*
X0146300Y0438594D02*
X0175341Y0438594D01*
X0174743Y0437996D02*
X0146300Y0437996D01*
X0146300Y0437397D02*
X0174144Y0437397D01*
X0173546Y0436799D02*
X0146300Y0436799D01*
X0146300Y0436200D02*
X0172947Y0436200D01*
X0172349Y0435602D02*
X0146300Y0435602D01*
X0146300Y0435003D02*
X0171750Y0435003D01*
X0171152Y0434405D02*
X0146300Y0434405D01*
X0146300Y0433806D02*
X0170553Y0433806D01*
X0170200Y0433208D02*
X0146300Y0433208D01*
X0146300Y0432609D02*
X0170200Y0432609D01*
X0170200Y0432010D02*
X0146300Y0432010D01*
X0146300Y0431412D02*
X0170200Y0431412D01*
X0170200Y0430813D02*
X0146300Y0430813D01*
X0146300Y0430215D02*
X0170200Y0430215D01*
X0170200Y0429616D02*
X0146300Y0429616D01*
X0146300Y0429018D02*
X0170200Y0429018D01*
X0170200Y0428419D02*
X0146300Y0428419D01*
X0146300Y0427821D02*
X0170200Y0427821D01*
X0170200Y0427222D02*
X0146300Y0427222D01*
X0146300Y0426624D02*
X0170200Y0426624D01*
X0170200Y0426025D02*
X0146300Y0426025D01*
X0146300Y0425427D02*
X0170200Y0425427D01*
X0170200Y0424828D02*
X0146300Y0424828D01*
X0146300Y0424230D02*
X0170200Y0424230D01*
X0170200Y0423631D02*
X0146300Y0423631D01*
X0146300Y0423033D02*
X0170200Y0423033D01*
X0170200Y0422434D02*
X0146300Y0422434D01*
X0146300Y0421836D02*
X0170200Y0421836D01*
X0170200Y0421237D02*
X0146300Y0421237D01*
X0146300Y0420639D02*
X0170200Y0420639D01*
X0170200Y0420040D02*
X0146300Y0420040D01*
X0146300Y0419442D02*
X0170200Y0419442D01*
X0170200Y0418843D02*
X0146300Y0418843D01*
X0146300Y0418245D02*
X0170200Y0418245D01*
X0170200Y0417646D02*
X0146300Y0417646D01*
X0146300Y0417048D02*
X0170200Y0417048D01*
X0170200Y0416449D02*
X0146300Y0416449D01*
X0146300Y0415851D02*
X0170200Y0415851D01*
X0170200Y0415252D02*
X0146300Y0415252D01*
X0146300Y0414654D02*
X0170200Y0414654D01*
X0170200Y0414055D02*
X0146300Y0414055D01*
X0146300Y0413457D02*
X0170200Y0413457D01*
X0170200Y0412858D02*
X0146300Y0412858D01*
X0146300Y0412260D02*
X0170200Y0412260D01*
X0170200Y0411661D02*
X0146300Y0411661D01*
X0146300Y0411063D02*
X0170200Y0411063D01*
X0170200Y0410464D02*
X0146300Y0410464D01*
X0146300Y0409866D02*
X0170200Y0409866D01*
X0170200Y0409267D02*
X0146300Y0409267D01*
X0146300Y0408669D02*
X0170200Y0408669D01*
X0170200Y0408070D02*
X0146300Y0408070D01*
X0146300Y0407472D02*
X0170200Y0407472D01*
X0170200Y0406873D02*
X0146300Y0406873D01*
X0146300Y0406274D02*
X0170200Y0406274D01*
X0170200Y0405676D02*
X0146300Y0405676D01*
X0146300Y0405077D02*
X0170200Y0405077D01*
X0170200Y0404479D02*
X0146300Y0404479D01*
X0146300Y0403880D02*
X0170200Y0403880D01*
X0170200Y0403282D02*
X0146300Y0403282D01*
X0146300Y0402683D02*
X0170200Y0402683D01*
X0170200Y0402085D02*
X0146300Y0402085D01*
X0146300Y0401486D02*
X0170200Y0401486D01*
X0170200Y0400888D02*
X0146300Y0400888D01*
X0146300Y0400289D02*
X0170200Y0400289D01*
X0170200Y0399691D02*
X0146300Y0399691D01*
X0146300Y0399092D02*
X0170200Y0399092D01*
X0170200Y0398494D02*
X0146300Y0398494D01*
X0146300Y0397895D02*
X0170200Y0397895D01*
X0170200Y0397297D02*
X0146300Y0397297D01*
X0146300Y0396698D02*
X0170200Y0396698D01*
X0170200Y0396100D02*
X0146300Y0396100D01*
X0146300Y0395501D02*
X0170200Y0395501D01*
X0170200Y0394903D02*
X0146300Y0394903D01*
X0146300Y0394304D02*
X0170200Y0394304D01*
X0170200Y0393706D02*
X0146300Y0393706D01*
X0146300Y0393107D02*
X0170200Y0393107D01*
X0170200Y0392509D02*
X0146300Y0392509D01*
X0146300Y0391910D02*
X0170200Y0391910D01*
X0170200Y0391312D02*
X0146300Y0391312D01*
X0146300Y0390713D02*
X0170200Y0390713D01*
X0170200Y0390115D02*
X0146300Y0390115D01*
X0146300Y0389516D02*
X0170200Y0389516D01*
X0170200Y0388918D02*
X0146300Y0388918D01*
X0146300Y0388319D02*
X0170200Y0388319D01*
X0170200Y0387721D02*
X0146300Y0387721D01*
X0146300Y0387122D02*
X0170200Y0387122D01*
X0170200Y0386524D02*
X0146300Y0386524D01*
X0146300Y0385925D02*
X0170200Y0385925D01*
X0170200Y0385327D02*
X0146300Y0385327D01*
X0146300Y0384728D02*
X0170200Y0384728D01*
X0170200Y0384130D02*
X0146300Y0384130D01*
X0146300Y0383531D02*
X0170200Y0383531D01*
X0170200Y0382933D02*
X0146300Y0382933D01*
X0146300Y0382334D02*
X0170200Y0382334D01*
X0170200Y0381736D02*
X0146300Y0381736D01*
X0146300Y0381137D02*
X0170200Y0381137D01*
X0170200Y0380539D02*
X0146300Y0380539D01*
X0146300Y0379940D02*
X0170200Y0379940D01*
X0170200Y0379341D02*
X0146300Y0379341D01*
X0146300Y0378743D02*
X0170200Y0378743D01*
X0170200Y0378144D02*
X0146300Y0378144D01*
X0146300Y0377546D02*
X0170200Y0377546D01*
X0170200Y0376947D02*
X0146300Y0376947D01*
X0146300Y0376349D02*
X0170200Y0376349D01*
X0170200Y0375750D02*
X0146300Y0375750D01*
X0146300Y0375152D02*
X0170200Y0375152D01*
X0170200Y0374553D02*
X0146300Y0374553D01*
X0146300Y0373955D02*
X0170200Y0373955D01*
X0170200Y0373356D02*
X0146300Y0373356D01*
X0146300Y0372758D02*
X0170200Y0372758D01*
X0170200Y0372159D02*
X0146300Y0372159D01*
X0146300Y0371561D02*
X0170200Y0371561D01*
X0170200Y0370962D02*
X0146300Y0370962D01*
X0146300Y0370364D02*
X0170200Y0370364D01*
X0170200Y0369765D02*
X0146300Y0369765D01*
X0146300Y0369167D02*
X0170200Y0369167D01*
X0170200Y0368568D02*
X0146300Y0368568D01*
X0146300Y0367970D02*
X0170200Y0367970D01*
X0170200Y0367371D02*
X0146300Y0367371D01*
X0146300Y0366773D02*
X0170200Y0366773D01*
X0170200Y0366174D02*
X0146300Y0366174D01*
X0146300Y0365576D02*
X0170200Y0365576D01*
X0170200Y0364977D02*
X0146300Y0364977D01*
X0146300Y0364379D02*
X0170200Y0364379D01*
X0170200Y0363780D02*
X0146300Y0363780D01*
X0146300Y0363182D02*
X0170200Y0363182D01*
X0170200Y0362583D02*
X0146300Y0362583D01*
X0146300Y0361985D02*
X0170200Y0361985D01*
X0170200Y0361386D02*
X0146300Y0361386D01*
X0146300Y0360788D02*
X0170200Y0360788D01*
X0170200Y0360189D02*
X0146300Y0360189D01*
X0146300Y0359591D02*
X0170200Y0359591D01*
X0170200Y0358992D02*
X0146300Y0358992D01*
X0146300Y0358394D02*
X0170200Y0358394D01*
X0170200Y0357795D02*
X0146300Y0357795D01*
X0146300Y0357197D02*
X0170200Y0357197D01*
X0170200Y0356598D02*
X0146300Y0356598D01*
X0146300Y0356000D02*
X0170200Y0356000D01*
X0170200Y0355401D02*
X0146300Y0355401D01*
X0146300Y0354803D02*
X0170200Y0354803D01*
X0170200Y0354204D02*
X0146300Y0354204D01*
X0146300Y0353605D02*
X0170200Y0353605D01*
X0170200Y0353007D02*
X0146300Y0353007D01*
X0146300Y0352408D02*
X0170200Y0352408D01*
X0170200Y0351810D02*
X0146300Y0351810D01*
X0146300Y0351211D02*
X0170200Y0351211D01*
X0170200Y0350613D02*
X0146300Y0350613D01*
X0146300Y0350014D02*
X0170200Y0350014D01*
X0170200Y0349416D02*
X0146300Y0349416D01*
X0146300Y0348817D02*
X0170200Y0348817D01*
X0170200Y0348219D02*
X0146300Y0348219D01*
X0146300Y0347620D02*
X0170200Y0347620D01*
X0170200Y0347022D02*
X0146300Y0347022D01*
X0146300Y0346423D02*
X0170200Y0346423D01*
X0170200Y0345825D02*
X0146300Y0345825D01*
X0146300Y0345226D02*
X0170200Y0345226D01*
X0170200Y0344628D02*
X0146300Y0344628D01*
X0146300Y0344029D02*
X0170200Y0344029D01*
X0170200Y0343431D02*
X0146300Y0343431D01*
X0146300Y0342832D02*
X0170200Y0342832D01*
X0170200Y0342234D02*
X0146300Y0342234D01*
X0146300Y0341635D02*
X0170200Y0341635D01*
X0170200Y0341037D02*
X0146300Y0341037D01*
X0146300Y0340438D02*
X0170200Y0340438D01*
X0170200Y0339840D02*
X0146300Y0339840D01*
X0146300Y0339241D02*
X0170200Y0339241D01*
X0170200Y0338643D02*
X0146300Y0338643D01*
X0146300Y0338044D02*
X0170200Y0338044D01*
X0170200Y0337446D02*
X0146300Y0337446D01*
X0146300Y0336847D02*
X0170200Y0336847D01*
X0170200Y0336249D02*
X0146300Y0336249D01*
X0146300Y0335650D02*
X0170200Y0335650D01*
X0170200Y0335052D02*
X0146300Y0335052D01*
X0146300Y0334453D02*
X0170200Y0334453D01*
X0170200Y0333855D02*
X0146300Y0333855D01*
X0146300Y0333256D02*
X0170200Y0333256D01*
X0170200Y0332658D02*
X0146300Y0332658D01*
X0146300Y0332059D02*
X0170200Y0332059D01*
X0170200Y0331461D02*
X0146300Y0331461D01*
X0146300Y0330862D02*
X0170200Y0330862D01*
X0170200Y0330264D02*
X0146300Y0330264D01*
X0146300Y0329665D02*
X0170200Y0329665D01*
X0170200Y0329067D02*
X0146300Y0329067D01*
X0146300Y0328468D02*
X0170200Y0328468D01*
X0170200Y0327870D02*
X0146300Y0327870D01*
X0146300Y0327271D02*
X0170200Y0327271D01*
X0170200Y0326672D02*
X0146300Y0326672D01*
X0146300Y0326074D02*
X0170673Y0326074D01*
X0171272Y0325475D02*
X0146300Y0325475D01*
X0146300Y0324877D02*
X0171870Y0324877D01*
X0172469Y0324278D02*
X0146300Y0324278D01*
X0146300Y0323680D02*
X0173067Y0323680D01*
X0173666Y0323081D02*
X0146300Y0323081D01*
X0146300Y0322483D02*
X0174264Y0322483D01*
X0174863Y0321884D02*
X0146300Y0321884D01*
X0146300Y0321286D02*
X0175461Y0321286D01*
X0176060Y0320687D02*
X0146300Y0320687D01*
X0146300Y0320089D02*
X0176658Y0320089D01*
X0177211Y0319490D02*
X0146300Y0319490D01*
X0146300Y0318892D02*
X0177440Y0318892D01*
X0177762Y0318293D02*
X0146300Y0318293D01*
X0146300Y0317695D02*
X0178361Y0317695D01*
X0181639Y0317695D02*
X0215200Y0317695D01*
X0215200Y0318293D02*
X0182238Y0318293D01*
X0182560Y0318892D02*
X0215200Y0318892D01*
X0215200Y0319490D02*
X0182789Y0319490D01*
X0182789Y0320089D02*
X0215200Y0320089D01*
X0215200Y0320687D02*
X0182734Y0320687D01*
X0182486Y0321286D02*
X0215200Y0321286D01*
X0215200Y0321884D02*
X0182060Y0321884D01*
X0181294Y0322483D02*
X0215200Y0322483D01*
X0215200Y0323081D02*
X0180171Y0323081D01*
X0179573Y0323680D02*
X0215200Y0323680D01*
X0215200Y0324278D02*
X0178974Y0324278D01*
X0179086Y0324877D02*
X0178376Y0324877D01*
X0177873Y0325475D02*
X0177777Y0325475D01*
X0176587Y0326672D02*
X0176580Y0326672D01*
X0176177Y0327271D02*
X0175982Y0327271D01*
X0175872Y0327870D02*
X0175383Y0327870D01*
X0175669Y0328468D02*
X0174800Y0328468D01*
X0174800Y0329067D02*
X0175530Y0329067D01*
X0175450Y0329665D02*
X0174800Y0329665D01*
X0174800Y0330264D02*
X0184700Y0330264D01*
X0184700Y0330300D02*
X0184700Y0329700D01*
X0185300Y0329700D01*
X0185300Y0330300D01*
X0184700Y0330300D01*
X0184700Y0335425D01*
X0180448Y0335425D01*
X0179605Y0335291D01*
X0178793Y0335028D01*
X0178032Y0334640D01*
X0177341Y0334138D01*
X0176737Y0333534D01*
X0176235Y0332843D01*
X0175847Y0332082D01*
X0175584Y0331270D01*
X0175450Y0330427D01*
X0175450Y0330300D01*
X0184700Y0330300D01*
X0184700Y0330862D02*
X0185300Y0330862D01*
X0185300Y0330300D02*
X0185300Y0335425D01*
X0189552Y0335425D01*
X0190395Y0335291D01*
X0191207Y0335028D01*
X0191968Y0334640D01*
X0192659Y0334138D01*
X0193263Y0333534D01*
X0193765Y0332843D01*
X0194153Y0332082D01*
X0194416Y0331270D01*
X0194550Y0330427D01*
X0194550Y0330300D01*
X0185300Y0330300D01*
X0185300Y0330264D02*
X0215200Y0330264D01*
X0215200Y0330862D02*
X0194481Y0330862D01*
X0194355Y0331461D02*
X0215200Y0331461D01*
X0215200Y0332059D02*
X0194160Y0332059D01*
X0193859Y0332658D02*
X0215200Y0332658D01*
X0215200Y0333256D02*
X0193465Y0333256D01*
X0192942Y0333855D02*
X0215200Y0333855D01*
X0215200Y0334453D02*
X0192225Y0334453D01*
X0191133Y0335052D02*
X0215200Y0335052D01*
X0215200Y0335650D02*
X0174800Y0335650D01*
X0174800Y0335052D02*
X0178867Y0335052D01*
X0177775Y0334453D02*
X0174800Y0334453D01*
X0174800Y0333855D02*
X0177058Y0333855D01*
X0176535Y0333256D02*
X0174800Y0333256D01*
X0174800Y0332658D02*
X0176141Y0332658D01*
X0175840Y0332059D02*
X0174800Y0332059D01*
X0174800Y0331461D02*
X0175645Y0331461D01*
X0175519Y0330862D02*
X0174800Y0330862D01*
X0174800Y0336249D02*
X0215200Y0336249D01*
X0215200Y0336847D02*
X0174800Y0336847D01*
X0174800Y0337446D02*
X0215200Y0337446D01*
X0215200Y0338044D02*
X0174800Y0338044D01*
X0174800Y0338643D02*
X0215200Y0338643D01*
X0215200Y0339241D02*
X0174800Y0339241D01*
X0174800Y0339840D02*
X0215200Y0339840D01*
X0215200Y0340438D02*
X0174800Y0340438D01*
X0174800Y0341037D02*
X0215200Y0341037D01*
X0215200Y0341635D02*
X0174800Y0341635D01*
X0174800Y0342234D02*
X0215200Y0342234D01*
X0215200Y0342832D02*
X0174800Y0342832D01*
X0174800Y0343431D02*
X0215200Y0343431D01*
X0215200Y0344029D02*
X0174800Y0344029D01*
X0174800Y0344628D02*
X0179668Y0344628D01*
X0179796Y0344575D02*
X0190204Y0344575D01*
X0192198Y0345401D01*
X0193724Y0346927D01*
X0194550Y0348921D01*
X0194550Y0351079D01*
X0193724Y0353073D01*
X0192198Y0354599D01*
X0190204Y0355425D01*
X0179796Y0355425D01*
X0177802Y0354599D01*
X0176276Y0353073D01*
X0175450Y0351079D01*
X0175450Y0348921D01*
X0176276Y0346927D01*
X0177802Y0345401D01*
X0179796Y0344575D01*
X0178223Y0345226D02*
X0174800Y0345226D01*
X0174800Y0345825D02*
X0177378Y0345825D01*
X0176780Y0346423D02*
X0174800Y0346423D01*
X0174800Y0347022D02*
X0176237Y0347022D01*
X0175989Y0347620D02*
X0174800Y0347620D01*
X0174800Y0348219D02*
X0175741Y0348219D01*
X0175493Y0348817D02*
X0174800Y0348817D01*
X0174800Y0349416D02*
X0175450Y0349416D01*
X0175450Y0350014D02*
X0174800Y0350014D01*
X0174800Y0350613D02*
X0175450Y0350613D01*
X0175505Y0351211D02*
X0174800Y0351211D01*
X0174800Y0351810D02*
X0175753Y0351810D01*
X0176001Y0352408D02*
X0174800Y0352408D01*
X0174800Y0353007D02*
X0176249Y0353007D01*
X0176808Y0353605D02*
X0174800Y0353605D01*
X0174800Y0354204D02*
X0177407Y0354204D01*
X0178293Y0354803D02*
X0174800Y0354803D01*
X0174800Y0355401D02*
X0179738Y0355401D01*
X0174800Y0356000D02*
X0215200Y0356000D01*
X0215200Y0356598D02*
X0174800Y0356598D01*
X0174800Y0357197D02*
X0215200Y0357197D01*
X0215200Y0357795D02*
X0174800Y0357795D01*
X0174800Y0358394D02*
X0215200Y0358394D01*
X0215200Y0358992D02*
X0174800Y0358992D01*
X0174800Y0359591D02*
X0214657Y0359591D01*
X0215200Y0359047D02*
X0215200Y0259144D01*
X0215136Y0259080D01*
X0214711Y0258055D01*
X0214711Y0256945D01*
X0215136Y0255920D01*
X0215920Y0255136D01*
X0216945Y0254711D01*
X0218055Y0254711D01*
X0219080Y0255136D01*
X0219864Y0255920D01*
X0220289Y0256945D01*
X0220289Y0258055D01*
X0219864Y0259080D01*
X0219800Y0259144D01*
X0219800Y0359047D01*
X0219800Y0360953D01*
X0215289Y0365464D01*
X0215289Y0365555D01*
X0214864Y0366580D01*
X0214080Y0367364D01*
X0213055Y0367789D01*
X0211945Y0367789D01*
X0210920Y0367364D01*
X0210136Y0366580D01*
X0209711Y0365555D01*
X0209711Y0364445D01*
X0210136Y0363420D01*
X0210920Y0362636D01*
X0211945Y0362211D01*
X0212036Y0362211D01*
X0215200Y0359047D01*
X0214058Y0360189D02*
X0174800Y0360189D01*
X0174800Y0360788D02*
X0213460Y0360788D01*
X0212861Y0361386D02*
X0174800Y0361386D01*
X0174800Y0361985D02*
X0212263Y0361985D01*
X0211047Y0362583D02*
X0174800Y0362583D01*
X0174800Y0363182D02*
X0210374Y0363182D01*
X0209986Y0363780D02*
X0174800Y0363780D01*
X0174800Y0364379D02*
X0209739Y0364379D01*
X0209711Y0364977D02*
X0191217Y0364977D01*
X0191207Y0364972D02*
X0191968Y0365360D01*
X0192659Y0365862D01*
X0193263Y0366466D01*
X0193765Y0367157D01*
X0194153Y0367918D01*
X0194416Y0368730D01*
X0194550Y0369573D01*
X0194550Y0369700D01*
X0185300Y0369700D01*
X0185300Y0370300D01*
X0184700Y0370300D01*
X0184700Y0375425D01*
X0180448Y0375425D01*
X0179605Y0375291D01*
X0178793Y0375028D01*
X0178032Y0374640D01*
X0177341Y0374138D01*
X0176737Y0373534D01*
X0176235Y0372843D01*
X0175847Y0372082D01*
X0175584Y0371270D01*
X0175450Y0370427D01*
X0175450Y0370300D01*
X0184700Y0370300D01*
X0184700Y0369700D01*
X0185300Y0369700D01*
X0185300Y0364575D01*
X0189552Y0364575D01*
X0190395Y0364709D01*
X0191207Y0364972D01*
X0192265Y0365576D02*
X0209720Y0365576D01*
X0209968Y0366174D02*
X0192971Y0366174D01*
X0193486Y0366773D02*
X0210329Y0366773D01*
X0210937Y0367371D02*
X0193874Y0367371D01*
X0194170Y0367970D02*
X0237785Y0367970D01*
X0237855Y0367525D02*
X0238162Y0366582D01*
X0238612Y0365698D01*
X0239195Y0364896D01*
X0239896Y0364195D01*
X0240698Y0363612D01*
X0241582Y0363162D01*
X0242525Y0362855D01*
X0243504Y0362700D01*
X0248700Y0362700D01*
X0248700Y0368700D01*
X0249300Y0368700D01*
X0249300Y0362700D01*
X0254496Y0362700D01*
X0255475Y0362855D01*
X0256418Y0363162D01*
X0257302Y0363612D01*
X0258104Y0364195D01*
X0258805Y0364896D01*
X0259388Y0365698D01*
X0259838Y0366582D01*
X0260145Y0367525D01*
X0260200Y0367873D01*
X0260200Y0303495D01*
X0259341Y0305569D01*
X0257569Y0307341D01*
X0255253Y0308300D01*
X0242747Y0308300D01*
X0240431Y0307341D01*
X0238659Y0305569D01*
X0237700Y0303253D01*
X0237700Y0300747D01*
X0238659Y0298431D01*
X0240431Y0296659D01*
X0240767Y0296520D01*
X0222700Y0278453D01*
X0222700Y0241644D01*
X0222636Y0241580D01*
X0222354Y0240899D01*
X0199800Y0263453D01*
X0199800Y0280856D01*
X0199864Y0280920D01*
X0200289Y0281945D01*
X0200289Y0283055D01*
X0199864Y0284080D01*
X0199080Y0284864D01*
X0198055Y0285289D01*
X0196945Y0285289D01*
X0195920Y0284864D01*
X0195136Y0284080D01*
X0194711Y0283055D01*
X0194711Y0281945D01*
X0195136Y0280920D01*
X0195200Y0280856D01*
X0195200Y0261547D01*
X0222700Y0234047D01*
X0224047Y0232700D01*
X0250953Y0232700D01*
X0268453Y0250200D01*
X0269800Y0251547D01*
X0269800Y0277322D01*
X0270427Y0276695D01*
X0271230Y0276112D01*
X0272113Y0275662D01*
X0273056Y0275355D01*
X0274036Y0275200D01*
X0279231Y0275200D01*
X0279231Y0281200D01*
X0279831Y0281200D01*
X0279831Y0275200D01*
X0285027Y0275200D01*
X0286007Y0275355D01*
X0286950Y0275662D01*
X0287833Y0276112D01*
X0288636Y0276695D01*
X0289337Y0277396D01*
X0289920Y0278198D01*
X0290370Y0279082D01*
X0290676Y0280025D01*
X0290831Y0281004D01*
X0290831Y0281200D01*
X0279832Y0281200D01*
X0279832Y0281800D01*
X0290831Y0281800D01*
X0290831Y0281996D01*
X0290676Y0282975D01*
X0290370Y0283918D01*
X0289920Y0284802D01*
X0289337Y0285604D01*
X0288636Y0286305D01*
X0287833Y0286888D01*
X0286950Y0287338D01*
X0286007Y0287645D01*
X0285027Y0287800D01*
X0279831Y0287800D01*
X0279831Y0281800D01*
X0279231Y0281800D01*
X0279231Y0287800D01*
X0274036Y0287800D01*
X0273056Y0287645D01*
X0272113Y0287338D01*
X0271230Y0286888D01*
X0270427Y0286305D01*
X0269800Y0285678D01*
X0269800Y0379047D01*
X0276453Y0385700D01*
X0285253Y0385700D01*
X0287569Y0386659D01*
X0289341Y0388431D01*
X0290300Y0390747D01*
X0290300Y0393253D01*
X0289341Y0395569D01*
X0287569Y0397341D01*
X0285253Y0398300D01*
X0272747Y0398300D01*
X0270431Y0397341D01*
X0268659Y0395569D01*
X0267700Y0393253D01*
X0267700Y0390747D01*
X0268659Y0388431D01*
X0270431Y0386659D01*
X0270767Y0386520D01*
X0265200Y0380953D01*
X0265200Y0253453D01*
X0264800Y0253053D01*
X0264800Y0373453D01*
X0263453Y0374800D01*
X0222789Y0415464D01*
X0222789Y0415555D01*
X0222364Y0416580D01*
X0221580Y0417364D01*
X0220555Y0417789D01*
X0219445Y0417789D01*
X0218420Y0417364D01*
X0217636Y0416580D01*
X0217211Y0415555D01*
X0217211Y0414445D01*
X0217636Y0413420D01*
X0218420Y0412636D01*
X0219445Y0412211D01*
X0219536Y0412211D01*
X0257511Y0374236D01*
X0257302Y0374388D01*
X0256418Y0374838D01*
X0255475Y0375145D01*
X0254496Y0375300D01*
X0249300Y0375300D01*
X0249300Y0369300D01*
X0248700Y0369300D01*
X0248700Y0375300D01*
X0243504Y0375300D01*
X0242525Y0375145D01*
X0241582Y0374838D01*
X0240698Y0374388D01*
X0239896Y0373805D01*
X0239195Y0373104D01*
X0238612Y0372302D01*
X0238162Y0371418D01*
X0237855Y0370475D01*
X0237700Y0369496D01*
X0237700Y0369300D01*
X0248700Y0369300D01*
X0248700Y0368700D01*
X0237700Y0368700D01*
X0237700Y0368504D01*
X0237855Y0367525D01*
X0237905Y0367371D02*
X0214063Y0367371D01*
X0214671Y0366773D02*
X0238099Y0366773D01*
X0238369Y0366174D02*
X0215032Y0366174D01*
X0215280Y0365576D02*
X0238701Y0365576D01*
X0239135Y0364977D02*
X0215775Y0364977D01*
X0216374Y0364379D02*
X0239712Y0364379D01*
X0240466Y0363780D02*
X0216972Y0363780D01*
X0217571Y0363182D02*
X0241542Y0363182D01*
X0237700Y0368568D02*
X0194364Y0368568D01*
X0194486Y0369167D02*
X0248700Y0369167D01*
X0248700Y0369765D02*
X0249300Y0369765D01*
X0249300Y0370364D02*
X0248700Y0370364D01*
X0248700Y0370962D02*
X0249300Y0370962D01*
X0249300Y0371561D02*
X0248700Y0371561D01*
X0248700Y0372159D02*
X0249300Y0372159D01*
X0249300Y0372758D02*
X0248700Y0372758D01*
X0248700Y0373356D02*
X0249300Y0373356D01*
X0249300Y0373955D02*
X0248700Y0373955D01*
X0248700Y0374553D02*
X0249300Y0374553D01*
X0249300Y0375152D02*
X0248700Y0375152D01*
X0252406Y0379341D02*
X0174800Y0379341D01*
X0174800Y0378743D02*
X0253004Y0378743D01*
X0253603Y0378144D02*
X0174800Y0378144D01*
X0174800Y0377546D02*
X0254201Y0377546D01*
X0254800Y0376947D02*
X0174800Y0376947D01*
X0174800Y0376349D02*
X0255398Y0376349D01*
X0255997Y0375750D02*
X0174800Y0375750D01*
X0174800Y0375152D02*
X0179175Y0375152D01*
X0177913Y0374553D02*
X0174800Y0374553D01*
X0174800Y0373955D02*
X0177158Y0373955D01*
X0176608Y0373356D02*
X0174800Y0373356D01*
X0174800Y0372758D02*
X0176192Y0372758D01*
X0175887Y0372159D02*
X0174800Y0372159D01*
X0174800Y0371561D02*
X0175678Y0371561D01*
X0175535Y0370962D02*
X0174800Y0370962D01*
X0174800Y0370364D02*
X0175450Y0370364D01*
X0175450Y0369700D02*
X0175450Y0369573D01*
X0175584Y0368730D01*
X0175847Y0367918D01*
X0176235Y0367157D01*
X0176737Y0366466D01*
X0177341Y0365862D01*
X0178032Y0365360D01*
X0178793Y0364972D01*
X0179605Y0364709D01*
X0180448Y0364575D01*
X0184700Y0364575D01*
X0184700Y0369700D01*
X0175450Y0369700D01*
X0175514Y0369167D02*
X0174800Y0369167D01*
X0174800Y0369765D02*
X0184700Y0369765D01*
X0184700Y0369167D02*
X0185300Y0369167D01*
X0185300Y0369765D02*
X0237743Y0369765D01*
X0237837Y0370364D02*
X0194550Y0370364D01*
X0194550Y0370427D02*
X0194416Y0371270D01*
X0194153Y0372082D01*
X0193765Y0372843D01*
X0193263Y0373534D01*
X0192659Y0374138D01*
X0191968Y0374640D01*
X0191207Y0375028D01*
X0190395Y0375291D01*
X0189552Y0375425D01*
X0185300Y0375425D01*
X0185300Y0370300D01*
X0194550Y0370300D01*
X0194550Y0370427D01*
X0194465Y0370962D02*
X0238013Y0370962D01*
X0238234Y0371561D02*
X0194322Y0371561D01*
X0194113Y0372159D02*
X0238539Y0372159D01*
X0238943Y0372758D02*
X0193808Y0372758D01*
X0193392Y0373356D02*
X0239447Y0373356D01*
X0240102Y0373955D02*
X0192842Y0373955D01*
X0192087Y0374553D02*
X0241022Y0374553D01*
X0242569Y0375152D02*
X0190825Y0375152D01*
X0185300Y0375152D02*
X0184700Y0375152D01*
X0184700Y0374553D02*
X0185300Y0374553D01*
X0185300Y0373955D02*
X0184700Y0373955D01*
X0184700Y0373356D02*
X0185300Y0373356D01*
X0185300Y0372758D02*
X0184700Y0372758D01*
X0184700Y0372159D02*
X0185300Y0372159D01*
X0185300Y0371561D02*
X0184700Y0371561D01*
X0184700Y0370962D02*
X0185300Y0370962D01*
X0185300Y0370364D02*
X0184700Y0370364D01*
X0184700Y0368568D02*
X0185300Y0368568D01*
X0185300Y0367970D02*
X0184700Y0367970D01*
X0184700Y0367371D02*
X0185300Y0367371D01*
X0185300Y0366773D02*
X0184700Y0366773D01*
X0184700Y0366174D02*
X0185300Y0366174D01*
X0185300Y0365576D02*
X0184700Y0365576D01*
X0184700Y0364977D02*
X0185300Y0364977D01*
X0178783Y0364977D02*
X0174800Y0364977D01*
X0174800Y0365576D02*
X0177735Y0365576D01*
X0177029Y0366174D02*
X0174800Y0366174D01*
X0174800Y0366773D02*
X0176514Y0366773D01*
X0176126Y0367371D02*
X0174800Y0367371D01*
X0174800Y0367970D02*
X0175830Y0367970D01*
X0175636Y0368568D02*
X0174800Y0368568D01*
X0174800Y0379940D02*
X0251807Y0379940D01*
X0251209Y0380539D02*
X0174800Y0380539D01*
X0174800Y0381137D02*
X0250610Y0381137D01*
X0250012Y0381736D02*
X0174800Y0381736D01*
X0174800Y0382334D02*
X0249413Y0382334D01*
X0248815Y0382933D02*
X0174800Y0382933D01*
X0174800Y0383531D02*
X0248216Y0383531D01*
X0247618Y0384130D02*
X0174800Y0384130D01*
X0174800Y0384728D02*
X0179426Y0384728D01*
X0179796Y0384575D02*
X0177802Y0385401D01*
X0176276Y0386927D01*
X0175450Y0388921D01*
X0175450Y0391079D01*
X0176276Y0393073D01*
X0177802Y0394599D01*
X0179796Y0395425D01*
X0190204Y0395425D01*
X0192198Y0394599D01*
X0193724Y0393073D01*
X0194550Y0391079D01*
X0194550Y0388921D01*
X0193724Y0386927D01*
X0192198Y0385401D01*
X0190204Y0384575D01*
X0179796Y0384575D01*
X0177981Y0385327D02*
X0174800Y0385327D01*
X0174800Y0385925D02*
X0177278Y0385925D01*
X0176679Y0386524D02*
X0174800Y0386524D01*
X0174800Y0387122D02*
X0176195Y0387122D01*
X0175947Y0387721D02*
X0174800Y0387721D01*
X0174800Y0388319D02*
X0175699Y0388319D01*
X0175451Y0388918D02*
X0174800Y0388918D01*
X0174800Y0389516D02*
X0175450Y0389516D01*
X0175450Y0390115D02*
X0174800Y0390115D01*
X0174800Y0390713D02*
X0175450Y0390713D01*
X0175546Y0391312D02*
X0174800Y0391312D01*
X0174800Y0391910D02*
X0175794Y0391910D01*
X0176042Y0392509D02*
X0174800Y0392509D01*
X0174800Y0393107D02*
X0176310Y0393107D01*
X0176909Y0393706D02*
X0174800Y0393706D01*
X0174800Y0394304D02*
X0177507Y0394304D01*
X0178535Y0394903D02*
X0174800Y0394903D01*
X0174800Y0395501D02*
X0236246Y0395501D01*
X0236845Y0394903D02*
X0191465Y0394903D01*
X0192493Y0394304D02*
X0237443Y0394304D01*
X0238042Y0393706D02*
X0193091Y0393706D01*
X0193690Y0393107D02*
X0238640Y0393107D01*
X0239239Y0392509D02*
X0193958Y0392509D01*
X0194206Y0391910D02*
X0239837Y0391910D01*
X0240436Y0391312D02*
X0194454Y0391312D01*
X0194550Y0390713D02*
X0241034Y0390713D01*
X0241633Y0390115D02*
X0194550Y0390115D01*
X0194550Y0389516D02*
X0242231Y0389516D01*
X0242830Y0388918D02*
X0194549Y0388918D01*
X0194301Y0388319D02*
X0243428Y0388319D01*
X0244027Y0387721D02*
X0194053Y0387721D01*
X0193805Y0387122D02*
X0244625Y0387122D01*
X0245224Y0386524D02*
X0193321Y0386524D01*
X0192722Y0385925D02*
X0245822Y0385925D01*
X0246421Y0385327D02*
X0192019Y0385327D01*
X0190574Y0384728D02*
X0247019Y0384728D01*
X0250532Y0387721D02*
X0269370Y0387721D01*
X0268771Y0388319D02*
X0249934Y0388319D01*
X0249335Y0388918D02*
X0268458Y0388918D01*
X0268210Y0389516D02*
X0248736Y0389516D01*
X0248138Y0390115D02*
X0267962Y0390115D01*
X0267714Y0390713D02*
X0247539Y0390713D01*
X0246941Y0391312D02*
X0267700Y0391312D01*
X0267700Y0391910D02*
X0246342Y0391910D01*
X0245744Y0392509D02*
X0267700Y0392509D01*
X0267700Y0393107D02*
X0245145Y0393107D01*
X0244547Y0393706D02*
X0267887Y0393706D01*
X0268135Y0394304D02*
X0243948Y0394304D01*
X0243350Y0394903D02*
X0268383Y0394903D01*
X0268631Y0395501D02*
X0242751Y0395501D01*
X0242153Y0396100D02*
X0269190Y0396100D01*
X0269789Y0396698D02*
X0241554Y0396698D01*
X0240956Y0397297D02*
X0270387Y0397297D01*
X0271770Y0397895D02*
X0240357Y0397895D01*
X0239759Y0398494D02*
X0468621Y0398494D01*
X0468621Y0399092D02*
X0239160Y0399092D01*
X0238562Y0399691D02*
X0468621Y0399691D01*
X0468621Y0400289D02*
X0237963Y0400289D01*
X0237365Y0400888D02*
X0468621Y0400888D01*
X0468621Y0401486D02*
X0236766Y0401486D01*
X0236168Y0402085D02*
X0468621Y0402085D01*
X0468621Y0402683D02*
X0235569Y0402683D01*
X0234971Y0403282D02*
X0468621Y0403282D01*
X0468621Y0403880D02*
X0234372Y0403880D01*
X0233774Y0404479D02*
X0468621Y0404479D01*
X0468621Y0405077D02*
X0233175Y0405077D01*
X0232577Y0405676D02*
X0468621Y0405676D01*
X0468621Y0406274D02*
X0231978Y0406274D01*
X0231380Y0406873D02*
X0468621Y0406873D01*
X0468621Y0407472D02*
X0230781Y0407472D01*
X0230183Y0408070D02*
X0468621Y0408070D01*
X0468621Y0408669D02*
X0229584Y0408669D01*
X0228986Y0409267D02*
X0468621Y0409267D01*
X0468621Y0409866D02*
X0228387Y0409866D01*
X0227789Y0410464D02*
X0468621Y0410464D01*
X0468621Y0411063D02*
X0227190Y0411063D01*
X0226592Y0411661D02*
X0468621Y0411661D01*
X0468621Y0412260D02*
X0225993Y0412260D01*
X0225395Y0412858D02*
X0468621Y0412858D01*
X0468621Y0413457D02*
X0224796Y0413457D01*
X0224198Y0414055D02*
X0468621Y0414055D01*
X0468621Y0414654D02*
X0223599Y0414654D01*
X0223001Y0415252D02*
X0468621Y0415252D01*
X0468621Y0415851D02*
X0222666Y0415851D01*
X0222418Y0416449D02*
X0468621Y0416449D01*
X0468621Y0417048D02*
X0221896Y0417048D01*
X0220899Y0417646D02*
X0468621Y0417646D01*
X0468621Y0418245D02*
X0174800Y0418245D01*
X0174800Y0418843D02*
X0468621Y0418843D01*
X0468621Y0419442D02*
X0174800Y0419442D01*
X0174800Y0420040D02*
X0468621Y0420040D01*
X0468621Y0420639D02*
X0174800Y0420639D01*
X0174800Y0421237D02*
X0468621Y0421237D01*
X0468621Y0421836D02*
X0174800Y0421836D01*
X0174800Y0422434D02*
X0468621Y0422434D01*
X0468621Y0423033D02*
X0174800Y0423033D01*
X0174800Y0423631D02*
X0468621Y0423631D01*
X0468621Y0424230D02*
X0174800Y0424230D01*
X0174800Y0424828D02*
X0179184Y0424828D01*
X0177776Y0425427D02*
X0174800Y0425427D01*
X0174800Y0426025D02*
X0177178Y0426025D01*
X0176579Y0426624D02*
X0174800Y0426624D01*
X0174800Y0427222D02*
X0176154Y0427222D01*
X0175906Y0427821D02*
X0174800Y0427821D01*
X0174800Y0428419D02*
X0175658Y0428419D01*
X0175450Y0429018D02*
X0174800Y0429018D01*
X0174800Y0429616D02*
X0175450Y0429616D01*
X0175450Y0430215D02*
X0174800Y0430215D01*
X0174800Y0430813D02*
X0175450Y0430813D01*
X0175588Y0431412D02*
X0174800Y0431412D01*
X0175263Y0432010D02*
X0175836Y0432010D01*
X0175862Y0432609D02*
X0176084Y0432609D01*
X0178256Y0435003D02*
X0178777Y0435003D01*
X0178854Y0435602D02*
X0468621Y0435602D01*
X0468621Y0436200D02*
X0179453Y0436200D01*
X0180051Y0436799D02*
X0468621Y0436799D01*
X0468621Y0437397D02*
X0180650Y0437397D01*
X0181248Y0437996D02*
X0468621Y0437996D01*
X0468621Y0438594D02*
X0215710Y0438594D01*
X0216818Y0439193D02*
X0468621Y0439193D01*
X0468621Y0439791D02*
X0217386Y0439791D01*
X0217634Y0440390D02*
X0468621Y0440390D01*
X0468621Y0440988D02*
X0217789Y0440988D01*
X0217789Y0441587D02*
X0468621Y0441587D01*
X0468621Y0442185D02*
X0217660Y0442185D01*
X0217412Y0442784D02*
X0468621Y0442784D01*
X0468621Y0443382D02*
X0216881Y0443382D01*
X0214290Y0438594D02*
X0181847Y0438594D01*
X0191223Y0435003D02*
X0468621Y0435003D01*
X0468621Y0434405D02*
X0192393Y0434405D01*
X0192991Y0433806D02*
X0468621Y0433806D01*
X0468621Y0433208D02*
X0193590Y0433208D01*
X0193916Y0432609D02*
X0468621Y0432609D01*
X0468621Y0432010D02*
X0194164Y0432010D01*
X0194412Y0431412D02*
X0468621Y0431412D01*
X0468621Y0430813D02*
X0194550Y0430813D01*
X0194550Y0430215D02*
X0468621Y0430215D01*
X0468621Y0429616D02*
X0194550Y0429616D01*
X0194550Y0429018D02*
X0468621Y0429018D01*
X0468621Y0428419D02*
X0194342Y0428419D01*
X0194094Y0427821D02*
X0468621Y0427821D01*
X0468621Y0427222D02*
X0193846Y0427222D01*
X0193421Y0426624D02*
X0468621Y0426624D01*
X0468621Y0426025D02*
X0192822Y0426025D01*
X0192224Y0425427D02*
X0468621Y0425427D01*
X0468621Y0424828D02*
X0190816Y0424828D01*
X0189552Y0415425D02*
X0185300Y0415425D01*
X0185300Y0410300D01*
X0184700Y0410300D01*
X0184700Y0415425D01*
X0180448Y0415425D01*
X0179605Y0415291D01*
X0178793Y0415028D01*
X0178032Y0414640D01*
X0177341Y0414138D01*
X0176737Y0413534D01*
X0176235Y0412843D01*
X0175847Y0412082D01*
X0175584Y0411270D01*
X0175450Y0410427D01*
X0175450Y0410300D01*
X0184700Y0410300D01*
X0184700Y0409700D01*
X0185300Y0409700D01*
X0185300Y0410300D01*
X0194550Y0410300D01*
X0194550Y0410427D01*
X0194416Y0411270D01*
X0194153Y0412082D01*
X0193765Y0412843D01*
X0193263Y0413534D01*
X0192659Y0414138D01*
X0191968Y0414640D01*
X0191207Y0415028D01*
X0190395Y0415291D01*
X0189552Y0415425D01*
X0190516Y0415252D02*
X0217211Y0415252D01*
X0217211Y0414654D02*
X0191941Y0414654D01*
X0192742Y0414055D02*
X0217373Y0414055D01*
X0217621Y0413457D02*
X0193319Y0413457D01*
X0193754Y0412858D02*
X0218198Y0412858D01*
X0219328Y0412260D02*
X0194062Y0412260D01*
X0194289Y0411661D02*
X0220086Y0411661D01*
X0220685Y0411063D02*
X0194449Y0411063D01*
X0194544Y0410464D02*
X0221283Y0410464D01*
X0221882Y0409866D02*
X0185300Y0409866D01*
X0185300Y0409700D02*
X0194550Y0409700D01*
X0194550Y0409573D01*
X0194416Y0408730D01*
X0194153Y0407918D01*
X0193765Y0407157D01*
X0193263Y0406466D01*
X0192659Y0405862D01*
X0191968Y0405360D01*
X0191207Y0404972D01*
X0190395Y0404709D01*
X0189552Y0404575D01*
X0185300Y0404575D01*
X0185300Y0409700D01*
X0185300Y0409267D02*
X0184700Y0409267D01*
X0184700Y0409700D02*
X0184700Y0404575D01*
X0180448Y0404575D01*
X0179605Y0404709D01*
X0178793Y0404972D01*
X0178032Y0405360D01*
X0177341Y0405862D01*
X0176737Y0406466D01*
X0176235Y0407157D01*
X0175847Y0407918D01*
X0175584Y0408730D01*
X0175450Y0409573D01*
X0175450Y0409700D01*
X0184700Y0409700D01*
X0184700Y0409866D02*
X0174800Y0409866D01*
X0174800Y0410464D02*
X0175456Y0410464D01*
X0175551Y0411063D02*
X0174800Y0411063D01*
X0174800Y0411661D02*
X0175711Y0411661D01*
X0175938Y0412260D02*
X0174800Y0412260D01*
X0174800Y0412858D02*
X0176246Y0412858D01*
X0176681Y0413457D02*
X0174800Y0413457D01*
X0174800Y0414055D02*
X0177258Y0414055D01*
X0178059Y0414654D02*
X0174800Y0414654D01*
X0174800Y0415252D02*
X0179484Y0415252D01*
X0174800Y0415851D02*
X0217334Y0415851D01*
X0217582Y0416449D02*
X0174800Y0416449D01*
X0174800Y0417048D02*
X0218103Y0417048D01*
X0219101Y0417646D02*
X0174800Y0417646D01*
X0174800Y0409267D02*
X0175498Y0409267D01*
X0175603Y0408669D02*
X0174800Y0408669D01*
X0174800Y0408070D02*
X0175798Y0408070D01*
X0176075Y0407472D02*
X0174800Y0407472D01*
X0174800Y0406873D02*
X0176441Y0406873D01*
X0176928Y0406274D02*
X0174800Y0406274D01*
X0174800Y0405676D02*
X0177597Y0405676D01*
X0178586Y0405077D02*
X0174800Y0405077D01*
X0174800Y0404479D02*
X0227268Y0404479D01*
X0226670Y0405077D02*
X0191414Y0405077D01*
X0192403Y0405676D02*
X0226071Y0405676D01*
X0225473Y0406274D02*
X0193072Y0406274D01*
X0193559Y0406873D02*
X0224874Y0406873D01*
X0224276Y0407472D02*
X0193925Y0407472D01*
X0194202Y0408070D02*
X0223677Y0408070D01*
X0223079Y0408669D02*
X0194397Y0408669D01*
X0194502Y0409267D02*
X0222480Y0409267D01*
X0227867Y0403880D02*
X0174800Y0403880D01*
X0174800Y0403282D02*
X0228465Y0403282D01*
X0229064Y0402683D02*
X0174800Y0402683D01*
X0174800Y0402085D02*
X0229662Y0402085D01*
X0230261Y0401486D02*
X0174800Y0401486D01*
X0174800Y0400888D02*
X0230859Y0400888D01*
X0231458Y0400289D02*
X0174800Y0400289D01*
X0174800Y0399691D02*
X0232056Y0399691D01*
X0232655Y0399092D02*
X0174800Y0399092D01*
X0174800Y0398494D02*
X0233253Y0398494D01*
X0233852Y0397895D02*
X0174800Y0397895D01*
X0174800Y0397297D02*
X0234450Y0397297D01*
X0235049Y0396698D02*
X0174800Y0396698D01*
X0174800Y0396100D02*
X0235648Y0396100D01*
X0251131Y0387122D02*
X0269968Y0387122D01*
X0270758Y0386524D02*
X0251729Y0386524D01*
X0252328Y0385925D02*
X0270172Y0385925D01*
X0269574Y0385327D02*
X0252926Y0385327D01*
X0253525Y0384728D02*
X0268975Y0384728D01*
X0268377Y0384130D02*
X0254123Y0384130D01*
X0254722Y0383531D02*
X0267778Y0383531D01*
X0267180Y0382933D02*
X0255320Y0382933D01*
X0255919Y0382334D02*
X0266581Y0382334D01*
X0265983Y0381736D02*
X0256517Y0381736D01*
X0257116Y0381137D02*
X0265384Y0381137D01*
X0265200Y0380539D02*
X0257714Y0380539D01*
X0258313Y0379940D02*
X0265200Y0379940D01*
X0265200Y0379341D02*
X0258911Y0379341D01*
X0259510Y0378743D02*
X0265200Y0378743D01*
X0265200Y0378144D02*
X0260108Y0378144D01*
X0260707Y0377546D02*
X0265200Y0377546D01*
X0265200Y0376947D02*
X0261305Y0376947D01*
X0261904Y0376349D02*
X0265200Y0376349D01*
X0265200Y0375750D02*
X0262502Y0375750D01*
X0263101Y0375152D02*
X0265200Y0375152D01*
X0265200Y0374553D02*
X0263699Y0374553D01*
X0264298Y0373955D02*
X0265200Y0373955D01*
X0265200Y0373356D02*
X0264800Y0373356D01*
X0264800Y0372758D02*
X0265200Y0372758D01*
X0265200Y0372159D02*
X0264800Y0372159D01*
X0264800Y0371561D02*
X0265200Y0371561D01*
X0265200Y0370962D02*
X0264800Y0370962D01*
X0264800Y0370364D02*
X0265200Y0370364D01*
X0265200Y0369765D02*
X0264800Y0369765D01*
X0264800Y0369167D02*
X0265200Y0369167D01*
X0265200Y0368568D02*
X0264800Y0368568D01*
X0264800Y0367970D02*
X0265200Y0367970D01*
X0265200Y0367371D02*
X0264800Y0367371D01*
X0264800Y0366773D02*
X0265200Y0366773D01*
X0265200Y0366174D02*
X0264800Y0366174D01*
X0264800Y0365576D02*
X0265200Y0365576D01*
X0265200Y0364977D02*
X0264800Y0364977D01*
X0264800Y0364379D02*
X0265200Y0364379D01*
X0265200Y0363780D02*
X0264800Y0363780D01*
X0264800Y0363182D02*
X0265200Y0363182D01*
X0265200Y0362583D02*
X0264800Y0362583D01*
X0264800Y0361985D02*
X0265200Y0361985D01*
X0265200Y0361386D02*
X0264800Y0361386D01*
X0264800Y0360788D02*
X0265200Y0360788D01*
X0265200Y0360189D02*
X0264800Y0360189D01*
X0264800Y0359591D02*
X0265200Y0359591D01*
X0265200Y0358992D02*
X0264800Y0358992D01*
X0264800Y0358394D02*
X0265200Y0358394D01*
X0265200Y0357795D02*
X0264800Y0357795D01*
X0264800Y0357197D02*
X0265200Y0357197D01*
X0265200Y0356598D02*
X0264800Y0356598D01*
X0264800Y0356000D02*
X0265200Y0356000D01*
X0265200Y0355401D02*
X0264800Y0355401D01*
X0264800Y0354803D02*
X0265200Y0354803D01*
X0265200Y0354204D02*
X0264800Y0354204D01*
X0264800Y0353605D02*
X0265200Y0353605D01*
X0265200Y0353007D02*
X0264800Y0353007D01*
X0264800Y0352408D02*
X0265200Y0352408D01*
X0265200Y0351810D02*
X0264800Y0351810D01*
X0264800Y0351211D02*
X0265200Y0351211D01*
X0265200Y0350613D02*
X0264800Y0350613D01*
X0264800Y0350014D02*
X0265200Y0350014D01*
X0265200Y0349416D02*
X0264800Y0349416D01*
X0264800Y0348817D02*
X0265200Y0348817D01*
X0265200Y0348219D02*
X0264800Y0348219D01*
X0264800Y0347620D02*
X0265200Y0347620D01*
X0265200Y0347022D02*
X0264800Y0347022D01*
X0264800Y0346423D02*
X0265200Y0346423D01*
X0265200Y0345825D02*
X0264800Y0345825D01*
X0264800Y0345226D02*
X0265200Y0345226D01*
X0265200Y0344628D02*
X0264800Y0344628D01*
X0264800Y0344029D02*
X0265200Y0344029D01*
X0265200Y0343431D02*
X0264800Y0343431D01*
X0264800Y0342832D02*
X0265200Y0342832D01*
X0265200Y0342234D02*
X0264800Y0342234D01*
X0264800Y0341635D02*
X0265200Y0341635D01*
X0265200Y0341037D02*
X0264800Y0341037D01*
X0264800Y0340438D02*
X0265200Y0340438D01*
X0265200Y0339840D02*
X0264800Y0339840D01*
X0264800Y0339241D02*
X0265200Y0339241D01*
X0265200Y0338643D02*
X0264800Y0338643D01*
X0264800Y0338044D02*
X0265200Y0338044D01*
X0265200Y0337446D02*
X0264800Y0337446D01*
X0264800Y0336847D02*
X0265200Y0336847D01*
X0265200Y0336249D02*
X0264800Y0336249D01*
X0264800Y0335650D02*
X0265200Y0335650D01*
X0265200Y0335052D02*
X0264800Y0335052D01*
X0264800Y0334453D02*
X0265200Y0334453D01*
X0265200Y0333855D02*
X0264800Y0333855D01*
X0264800Y0333256D02*
X0265200Y0333256D01*
X0265200Y0332658D02*
X0264800Y0332658D01*
X0264800Y0332059D02*
X0265200Y0332059D01*
X0265200Y0331461D02*
X0264800Y0331461D01*
X0264800Y0330862D02*
X0265200Y0330862D01*
X0265200Y0330264D02*
X0264800Y0330264D01*
X0264800Y0329665D02*
X0265200Y0329665D01*
X0265200Y0329067D02*
X0264800Y0329067D01*
X0264800Y0328468D02*
X0265200Y0328468D01*
X0265200Y0327870D02*
X0264800Y0327870D01*
X0264800Y0327271D02*
X0265200Y0327271D01*
X0265200Y0326672D02*
X0264800Y0326672D01*
X0264800Y0326074D02*
X0265200Y0326074D01*
X0265200Y0325475D02*
X0264800Y0325475D01*
X0264800Y0324877D02*
X0265200Y0324877D01*
X0265200Y0324278D02*
X0264800Y0324278D01*
X0264800Y0323680D02*
X0265200Y0323680D01*
X0265200Y0323081D02*
X0264800Y0323081D01*
X0264800Y0322483D02*
X0265200Y0322483D01*
X0265200Y0321884D02*
X0264800Y0321884D01*
X0264800Y0321286D02*
X0265200Y0321286D01*
X0265200Y0320687D02*
X0264800Y0320687D01*
X0264800Y0320089D02*
X0265200Y0320089D01*
X0265200Y0319490D02*
X0264800Y0319490D01*
X0264800Y0318892D02*
X0265200Y0318892D01*
X0265200Y0318293D02*
X0264800Y0318293D01*
X0264800Y0317695D02*
X0265200Y0317695D01*
X0265200Y0317096D02*
X0264800Y0317096D01*
X0264800Y0316498D02*
X0265200Y0316498D01*
X0265200Y0315899D02*
X0264800Y0315899D01*
X0264800Y0315301D02*
X0265200Y0315301D01*
X0265200Y0314702D02*
X0264800Y0314702D01*
X0264800Y0314104D02*
X0265200Y0314104D01*
X0265200Y0313505D02*
X0264800Y0313505D01*
X0264800Y0312907D02*
X0265200Y0312907D01*
X0265200Y0312308D02*
X0264800Y0312308D01*
X0264800Y0311710D02*
X0265200Y0311710D01*
X0265200Y0311111D02*
X0264800Y0311111D01*
X0264800Y0310513D02*
X0265200Y0310513D01*
X0265200Y0309914D02*
X0264800Y0309914D01*
X0264800Y0309316D02*
X0265200Y0309316D01*
X0265200Y0308717D02*
X0264800Y0308717D01*
X0264800Y0308119D02*
X0265200Y0308119D01*
X0265200Y0307520D02*
X0264800Y0307520D01*
X0264800Y0306922D02*
X0265200Y0306922D01*
X0265200Y0306323D02*
X0264800Y0306323D01*
X0264800Y0305725D02*
X0265200Y0305725D01*
X0265200Y0305126D02*
X0264800Y0305126D01*
X0264800Y0304528D02*
X0265200Y0304528D01*
X0265200Y0303929D02*
X0264800Y0303929D01*
X0264800Y0303331D02*
X0265200Y0303331D01*
X0265200Y0302732D02*
X0264800Y0302732D01*
X0264800Y0302134D02*
X0265200Y0302134D01*
X0265200Y0301535D02*
X0264800Y0301535D01*
X0264800Y0300937D02*
X0265200Y0300937D01*
X0265200Y0300338D02*
X0264800Y0300338D01*
X0264800Y0299739D02*
X0265200Y0299739D01*
X0265200Y0299141D02*
X0264800Y0299141D01*
X0264800Y0298542D02*
X0265200Y0298542D01*
X0265200Y0297944D02*
X0264800Y0297944D01*
X0264800Y0297345D02*
X0265200Y0297345D01*
X0265200Y0296747D02*
X0264800Y0296747D01*
X0264800Y0296148D02*
X0265200Y0296148D01*
X0265200Y0295550D02*
X0264800Y0295550D01*
X0264800Y0294951D02*
X0265200Y0294951D01*
X0265200Y0294353D02*
X0264800Y0294353D01*
X0264800Y0293754D02*
X0265200Y0293754D01*
X0265200Y0293156D02*
X0264800Y0293156D01*
X0264800Y0292557D02*
X0265200Y0292557D01*
X0265200Y0291959D02*
X0264800Y0291959D01*
X0264800Y0291360D02*
X0265200Y0291360D01*
X0265200Y0290762D02*
X0264800Y0290762D01*
X0264800Y0290163D02*
X0265200Y0290163D01*
X0265200Y0289565D02*
X0264800Y0289565D01*
X0264800Y0288966D02*
X0265200Y0288966D01*
X0265200Y0288368D02*
X0264800Y0288368D01*
X0264800Y0287769D02*
X0265200Y0287769D01*
X0265200Y0287171D02*
X0264800Y0287171D01*
X0264800Y0286572D02*
X0265200Y0286572D01*
X0265200Y0285974D02*
X0264800Y0285974D01*
X0264800Y0285375D02*
X0265200Y0285375D01*
X0265200Y0284777D02*
X0264800Y0284777D01*
X0264800Y0284178D02*
X0265200Y0284178D01*
X0265200Y0283580D02*
X0264800Y0283580D01*
X0264800Y0282981D02*
X0265200Y0282981D01*
X0265200Y0282383D02*
X0264800Y0282383D01*
X0264800Y0281784D02*
X0265200Y0281784D01*
X0265200Y0281186D02*
X0264800Y0281186D01*
X0264800Y0280587D02*
X0265200Y0280587D01*
X0265200Y0279989D02*
X0264800Y0279989D01*
X0264800Y0279390D02*
X0265200Y0279390D01*
X0265200Y0278792D02*
X0264800Y0278792D01*
X0264800Y0278193D02*
X0265200Y0278193D01*
X0265200Y0277595D02*
X0264800Y0277595D01*
X0264800Y0276996D02*
X0265200Y0276996D01*
X0265200Y0276398D02*
X0264800Y0276398D01*
X0264800Y0275799D02*
X0265200Y0275799D01*
X0265200Y0275201D02*
X0264800Y0275201D01*
X0264800Y0274602D02*
X0265200Y0274602D01*
X0265200Y0274003D02*
X0264800Y0274003D01*
X0264800Y0273405D02*
X0265200Y0273405D01*
X0265200Y0272806D02*
X0264800Y0272806D01*
X0264800Y0272208D02*
X0265200Y0272208D01*
X0265200Y0271609D02*
X0264800Y0271609D01*
X0264800Y0271011D02*
X0265200Y0271011D01*
X0265200Y0270412D02*
X0264800Y0270412D01*
X0264800Y0269814D02*
X0265200Y0269814D01*
X0265200Y0269215D02*
X0264800Y0269215D01*
X0264800Y0268617D02*
X0265200Y0268617D01*
X0265200Y0268018D02*
X0264800Y0268018D01*
X0264800Y0267420D02*
X0265200Y0267420D01*
X0265200Y0266821D02*
X0264800Y0266821D01*
X0264800Y0266223D02*
X0265200Y0266223D01*
X0265200Y0265624D02*
X0264800Y0265624D01*
X0264800Y0265026D02*
X0265200Y0265026D01*
X0265200Y0264427D02*
X0264800Y0264427D01*
X0264800Y0263829D02*
X0265200Y0263829D01*
X0265200Y0263230D02*
X0264800Y0263230D01*
X0264800Y0262632D02*
X0265200Y0262632D01*
X0265200Y0262033D02*
X0264800Y0262033D01*
X0264800Y0261435D02*
X0265200Y0261435D01*
X0265200Y0260836D02*
X0264800Y0260836D01*
X0264800Y0260238D02*
X0265200Y0260238D01*
X0265200Y0259639D02*
X0264800Y0259639D01*
X0264800Y0259041D02*
X0265200Y0259041D01*
X0265200Y0258442D02*
X0264800Y0258442D01*
X0264800Y0257844D02*
X0265200Y0257844D01*
X0265200Y0257245D02*
X0264800Y0257245D01*
X0264800Y0256647D02*
X0265200Y0256647D01*
X0265200Y0256048D02*
X0264800Y0256048D01*
X0264800Y0255450D02*
X0265200Y0255450D01*
X0265200Y0254851D02*
X0264800Y0254851D01*
X0264800Y0254253D02*
X0265200Y0254253D01*
X0265200Y0253654D02*
X0264800Y0253654D01*
X0264800Y0253056D02*
X0264803Y0253056D01*
X0268316Y0250063D02*
X0468621Y0250063D01*
X0468621Y0249465D02*
X0267717Y0249465D01*
X0267119Y0248866D02*
X0468621Y0248866D01*
X0468621Y0248268D02*
X0266520Y0248268D01*
X0265922Y0247669D02*
X0468621Y0247669D01*
X0468621Y0247070D02*
X0265323Y0247070D01*
X0264725Y0246472D02*
X0468621Y0246472D01*
X0468621Y0245873D02*
X0264126Y0245873D01*
X0263528Y0245275D02*
X0468621Y0245275D01*
X0468621Y0244676D02*
X0262929Y0244676D01*
X0262331Y0244078D02*
X0468621Y0244078D01*
X0468621Y0243479D02*
X0261732Y0243479D01*
X0261134Y0242881D02*
X0468621Y0242881D01*
X0468621Y0242282D02*
X0260535Y0242282D01*
X0259937Y0241684D02*
X0468621Y0241684D01*
X0468621Y0241085D02*
X0259338Y0241085D01*
X0258740Y0240487D02*
X0468621Y0240487D01*
X0468621Y0239888D02*
X0258141Y0239888D01*
X0257543Y0239290D02*
X0468621Y0239290D01*
X0468621Y0238691D02*
X0256944Y0238691D01*
X0256345Y0238093D02*
X0468621Y0238093D01*
X0468621Y0237494D02*
X0255747Y0237494D01*
X0255148Y0236896D02*
X0468621Y0236896D01*
X0468621Y0236297D02*
X0254550Y0236297D01*
X0253951Y0235699D02*
X0468621Y0235699D01*
X0468621Y0235100D02*
X0253353Y0235100D01*
X0252754Y0234502D02*
X0468621Y0234502D01*
X0468621Y0233903D02*
X0252156Y0233903D01*
X0251557Y0233305D02*
X0468621Y0233305D01*
X0468621Y0232706D02*
X0250959Y0232706D01*
X0269191Y0218069D02*
X0268231Y0215753D01*
X0268231Y0213247D01*
X0269191Y0210931D01*
X0270963Y0209159D01*
X0273278Y0208200D01*
X0285785Y0208200D01*
X0288100Y0209159D01*
X0289872Y0210931D01*
X0290831Y0213247D01*
X0290831Y0215753D01*
X0289872Y0218069D01*
X0288100Y0219841D01*
X0285785Y0220800D01*
X0273278Y0220800D01*
X0270963Y0219841D01*
X0269191Y0218069D01*
X0269056Y0217743D02*
X0185509Y0217743D01*
X0186108Y0217145D02*
X0268808Y0217145D01*
X0268560Y0216546D02*
X0186706Y0216546D01*
X0187305Y0215948D02*
X0268312Y0215948D01*
X0268231Y0215349D02*
X0187903Y0215349D01*
X0187964Y0215289D02*
X0163667Y0239586D01*
X0164145Y0240064D01*
X0164800Y0241645D01*
X0164800Y0243355D01*
X0164145Y0244936D01*
X0162936Y0246145D01*
X0161355Y0246800D01*
X0153645Y0246800D01*
X0152064Y0246145D01*
X0150855Y0244936D01*
X0150200Y0243355D01*
X0150200Y0241645D01*
X0150855Y0240064D01*
X0152064Y0238855D01*
X0153645Y0238200D01*
X0158547Y0238200D01*
X0184711Y0212036D01*
X0184711Y0211945D01*
X0185136Y0210920D01*
X0185920Y0210136D01*
X0186945Y0209711D01*
X0188055Y0209711D01*
X0189080Y0210136D01*
X0189864Y0210920D01*
X0190289Y0211945D01*
X0190289Y0213055D01*
X0189864Y0214080D01*
X0189080Y0214864D01*
X0188055Y0215289D01*
X0187964Y0215289D01*
X0189193Y0214751D02*
X0268231Y0214751D01*
X0268231Y0214152D02*
X0189792Y0214152D01*
X0190082Y0213554D02*
X0268231Y0213554D01*
X0268352Y0212955D02*
X0190289Y0212955D01*
X0190289Y0212357D02*
X0268600Y0212357D01*
X0268848Y0211758D02*
X0190212Y0211758D01*
X0189964Y0211160D02*
X0269096Y0211160D01*
X0269561Y0210561D02*
X0189505Y0210561D01*
X0188663Y0209963D02*
X0270159Y0209963D01*
X0270758Y0209364D02*
X0165153Y0209364D01*
X0165401Y0208766D02*
X0271912Y0208766D01*
X0269464Y0218342D02*
X0184911Y0218342D01*
X0184312Y0218940D02*
X0270062Y0218940D01*
X0270661Y0219539D02*
X0183714Y0219539D01*
X0183115Y0220137D02*
X0271679Y0220137D01*
X0273124Y0220736D02*
X0182517Y0220736D01*
X0181918Y0221334D02*
X0468621Y0221334D01*
X0468621Y0220736D02*
X0440939Y0220736D01*
X0440785Y0220800D02*
X0443100Y0219841D01*
X0444872Y0218069D01*
X0445831Y0215753D01*
X0445831Y0213247D01*
X0444872Y0210931D01*
X0443100Y0209159D01*
X0440785Y0208200D01*
X0428278Y0208200D01*
X0425963Y0209159D01*
X0424191Y0210931D01*
X0423231Y0213247D01*
X0423231Y0215753D01*
X0424191Y0218069D01*
X0425963Y0219841D01*
X0428278Y0220800D01*
X0440785Y0220800D01*
X0442384Y0220137D02*
X0468621Y0220137D01*
X0468621Y0219539D02*
X0443402Y0219539D01*
X0444001Y0218940D02*
X0468621Y0218940D01*
X0468621Y0218342D02*
X0444599Y0218342D01*
X0445007Y0217743D02*
X0468621Y0217743D01*
X0468621Y0217145D02*
X0445255Y0217145D01*
X0445503Y0216546D02*
X0468621Y0216546D01*
X0468621Y0215948D02*
X0445751Y0215948D01*
X0445831Y0215349D02*
X0468621Y0215349D01*
X0468621Y0214751D02*
X0458490Y0214751D01*
X0458362Y0214804D02*
X0455182Y0214804D01*
X0452244Y0213587D01*
X0449996Y0211339D01*
X0448779Y0208401D01*
X0448779Y0205221D01*
X0449996Y0202283D01*
X0452244Y0200035D01*
X0455182Y0198818D01*
X0458362Y0198818D01*
X0461299Y0200035D01*
X0463548Y0202283D01*
X0464765Y0205221D01*
X0464765Y0208401D01*
X0463548Y0211339D01*
X0461299Y0213587D01*
X0458362Y0214804D01*
X0459935Y0214152D02*
X0468621Y0214152D01*
X0468621Y0213554D02*
X0461333Y0213554D01*
X0461931Y0212955D02*
X0468621Y0212955D01*
X0468621Y0212357D02*
X0462530Y0212357D01*
X0463128Y0211758D02*
X0468621Y0211758D01*
X0468621Y0211160D02*
X0463622Y0211160D01*
X0463870Y0210561D02*
X0468621Y0210561D01*
X0468621Y0209963D02*
X0464118Y0209963D01*
X0464366Y0209364D02*
X0468621Y0209364D01*
X0468621Y0208766D02*
X0464613Y0208766D01*
X0464765Y0208167D02*
X0468621Y0208167D01*
X0468621Y0207569D02*
X0464765Y0207569D01*
X0464765Y0206970D02*
X0468621Y0206970D01*
X0468621Y0206372D02*
X0464765Y0206372D01*
X0464765Y0205773D02*
X0468621Y0205773D01*
X0468621Y0205175D02*
X0464745Y0205175D01*
X0464497Y0204576D02*
X0468621Y0204576D01*
X0468621Y0203978D02*
X0464249Y0203978D01*
X0464002Y0203379D02*
X0468621Y0203379D01*
X0468621Y0202781D02*
X0463754Y0202781D01*
X0463446Y0202182D02*
X0468621Y0202182D01*
X0468621Y0201584D02*
X0462848Y0201584D01*
X0462249Y0200985D02*
X0468621Y0200985D01*
X0468621Y0200387D02*
X0461651Y0200387D01*
X0460703Y0199788D02*
X0468621Y0199788D01*
X0468621Y0199190D02*
X0459258Y0199190D01*
X0454285Y0199190D02*
X0160046Y0199190D01*
X0159149Y0198818D02*
X0162087Y0200035D01*
X0164335Y0202283D01*
X0165552Y0205221D01*
X0165552Y0208401D01*
X0164335Y0211339D01*
X0162087Y0213587D01*
X0159149Y0214804D01*
X0155969Y0214804D01*
X0153031Y0213587D01*
X0150783Y0211339D01*
X0149566Y0208401D01*
X0149566Y0205221D01*
X0150783Y0202283D01*
X0153031Y0200035D01*
X0155969Y0198818D01*
X0159149Y0198818D01*
X0161491Y0199788D02*
X0452840Y0199788D01*
X0451892Y0200387D02*
X0162438Y0200387D01*
X0163037Y0200985D02*
X0451294Y0200985D01*
X0450695Y0201584D02*
X0163635Y0201584D01*
X0164234Y0202182D02*
X0450097Y0202182D01*
X0449790Y0202781D02*
X0164541Y0202781D01*
X0164789Y0203379D02*
X0449542Y0203379D01*
X0449294Y0203978D02*
X0165037Y0203978D01*
X0165285Y0204576D02*
X0449046Y0204576D01*
X0448798Y0205175D02*
X0165533Y0205175D01*
X0165552Y0205773D02*
X0448779Y0205773D01*
X0448779Y0206372D02*
X0165552Y0206372D01*
X0165552Y0206970D02*
X0448779Y0206970D01*
X0448779Y0207569D02*
X0165552Y0207569D01*
X0165552Y0208167D02*
X0448779Y0208167D01*
X0448930Y0208766D02*
X0442151Y0208766D01*
X0443305Y0209364D02*
X0449178Y0209364D01*
X0449426Y0209963D02*
X0443904Y0209963D01*
X0444502Y0210561D02*
X0449674Y0210561D01*
X0449922Y0211160D02*
X0444967Y0211160D01*
X0445215Y0211758D02*
X0450415Y0211758D01*
X0451014Y0212357D02*
X0445463Y0212357D01*
X0445711Y0212955D02*
X0451612Y0212955D01*
X0452211Y0213554D02*
X0445831Y0213554D01*
X0445831Y0214152D02*
X0453609Y0214152D01*
X0455054Y0214751D02*
X0445831Y0214751D01*
X0428124Y0220736D02*
X0285939Y0220736D01*
X0287384Y0220137D02*
X0426679Y0220137D01*
X0425661Y0219539D02*
X0288402Y0219539D01*
X0289001Y0218940D02*
X0425062Y0218940D01*
X0424464Y0218342D02*
X0289599Y0218342D01*
X0290007Y0217743D02*
X0424056Y0217743D01*
X0423808Y0217145D02*
X0290255Y0217145D01*
X0290503Y0216546D02*
X0423560Y0216546D01*
X0423312Y0215948D02*
X0290751Y0215948D01*
X0290831Y0215349D02*
X0423231Y0215349D01*
X0423231Y0214751D02*
X0290831Y0214751D01*
X0290831Y0214152D02*
X0423231Y0214152D01*
X0423231Y0213554D02*
X0290831Y0213554D01*
X0290711Y0212955D02*
X0423352Y0212955D01*
X0423600Y0212357D02*
X0290463Y0212357D01*
X0290215Y0211758D02*
X0423848Y0211758D01*
X0424096Y0211160D02*
X0289967Y0211160D01*
X0289502Y0210561D02*
X0424561Y0210561D01*
X0425159Y0209963D02*
X0288904Y0209963D01*
X0288305Y0209364D02*
X0425758Y0209364D01*
X0426912Y0208766D02*
X0287151Y0208766D01*
X0268914Y0250662D02*
X0468621Y0250662D01*
X0468621Y0251260D02*
X0269513Y0251260D01*
X0269800Y0251859D02*
X0468621Y0251859D01*
X0468621Y0252457D02*
X0269800Y0252457D01*
X0269800Y0253056D02*
X0468621Y0253056D01*
X0468621Y0253654D02*
X0269800Y0253654D01*
X0269800Y0254253D02*
X0468621Y0254253D01*
X0468621Y0254851D02*
X0269800Y0254851D01*
X0269800Y0255450D02*
X0468621Y0255450D01*
X0468621Y0256048D02*
X0269800Y0256048D01*
X0269800Y0256647D02*
X0468621Y0256647D01*
X0468621Y0257245D02*
X0269800Y0257245D01*
X0269800Y0257844D02*
X0468621Y0257844D01*
X0468621Y0258442D02*
X0269800Y0258442D01*
X0269800Y0259041D02*
X0468621Y0259041D01*
X0468621Y0259639D02*
X0269800Y0259639D01*
X0269800Y0260238D02*
X0468621Y0260238D01*
X0468621Y0260836D02*
X0269800Y0260836D01*
X0269800Y0261435D02*
X0468621Y0261435D01*
X0468621Y0262033D02*
X0269800Y0262033D01*
X0269800Y0262632D02*
X0468621Y0262632D01*
X0468621Y0263230D02*
X0269800Y0263230D01*
X0269800Y0263829D02*
X0468621Y0263829D01*
X0468621Y0264427D02*
X0269800Y0264427D01*
X0269800Y0265026D02*
X0468621Y0265026D01*
X0468621Y0265624D02*
X0269800Y0265624D01*
X0269800Y0266223D02*
X0468621Y0266223D01*
X0468621Y0266821D02*
X0269800Y0266821D01*
X0269800Y0267420D02*
X0468621Y0267420D01*
X0468621Y0268018D02*
X0269800Y0268018D01*
X0269800Y0268617D02*
X0468621Y0268617D01*
X0468621Y0269215D02*
X0269800Y0269215D01*
X0269800Y0269814D02*
X0468621Y0269814D01*
X0468621Y0270412D02*
X0269800Y0270412D01*
X0269800Y0271011D02*
X0468621Y0271011D01*
X0468621Y0271609D02*
X0269800Y0271609D01*
X0269800Y0272208D02*
X0468621Y0272208D01*
X0468621Y0272806D02*
X0269800Y0272806D01*
X0269800Y0273405D02*
X0468621Y0273405D01*
X0468621Y0274003D02*
X0269800Y0274003D01*
X0269800Y0274602D02*
X0468621Y0274602D01*
X0468621Y0275201D02*
X0440786Y0275201D01*
X0440785Y0275200D02*
X0443100Y0276159D01*
X0444872Y0277931D01*
X0445831Y0280247D01*
X0445831Y0282753D01*
X0444872Y0285069D01*
X0443100Y0286841D01*
X0440785Y0287800D01*
X0428278Y0287800D01*
X0425963Y0286841D01*
X0424191Y0285069D01*
X0423231Y0282753D01*
X0423231Y0280247D01*
X0424191Y0277931D01*
X0425963Y0276159D01*
X0428278Y0275200D01*
X0440785Y0275200D01*
X0442231Y0275799D02*
X0468621Y0275799D01*
X0468621Y0276398D02*
X0443339Y0276398D01*
X0443937Y0276996D02*
X0468621Y0276996D01*
X0468621Y0277595D02*
X0444536Y0277595D01*
X0444981Y0278193D02*
X0468621Y0278193D01*
X0468621Y0278792D02*
X0445229Y0278792D01*
X0445477Y0279390D02*
X0468621Y0279390D01*
X0468621Y0279989D02*
X0445725Y0279989D01*
X0445831Y0280587D02*
X0468621Y0280587D01*
X0468621Y0281186D02*
X0445831Y0281186D01*
X0445831Y0281784D02*
X0468621Y0281784D01*
X0468621Y0282383D02*
X0445831Y0282383D01*
X0445737Y0282981D02*
X0468621Y0282981D01*
X0468621Y0283580D02*
X0445489Y0283580D01*
X0445241Y0284178D02*
X0468621Y0284178D01*
X0468621Y0284777D02*
X0444993Y0284777D01*
X0444566Y0285375D02*
X0468621Y0285375D01*
X0468621Y0285974D02*
X0443967Y0285974D01*
X0443369Y0286572D02*
X0468621Y0286572D01*
X0468621Y0287171D02*
X0442304Y0287171D01*
X0440859Y0287769D02*
X0468621Y0287769D01*
X0468621Y0288368D02*
X0269800Y0288368D01*
X0269800Y0288966D02*
X0468621Y0288966D01*
X0468621Y0289565D02*
X0269800Y0289565D01*
X0269800Y0290163D02*
X0468621Y0290163D01*
X0468621Y0290762D02*
X0269800Y0290762D01*
X0269800Y0291360D02*
X0468621Y0291360D01*
X0468621Y0291959D02*
X0269800Y0291959D01*
X0269800Y0292557D02*
X0468621Y0292557D01*
X0468621Y0293156D02*
X0269800Y0293156D01*
X0269800Y0293754D02*
X0468621Y0293754D01*
X0468621Y0294353D02*
X0269800Y0294353D01*
X0269800Y0294951D02*
X0468621Y0294951D01*
X0468621Y0295550D02*
X0269800Y0295550D01*
X0269800Y0296148D02*
X0396664Y0296148D01*
X0397747Y0295700D02*
X0395431Y0296659D01*
X0393659Y0298431D01*
X0392700Y0300747D01*
X0392700Y0303253D01*
X0393659Y0305569D01*
X0395431Y0307341D01*
X0397747Y0308300D01*
X0402700Y0308300D01*
X0402700Y0355953D01*
X0404047Y0357300D01*
X0409447Y0362700D01*
X0397747Y0362700D01*
X0395431Y0363659D01*
X0393659Y0365431D01*
X0392700Y0367747D01*
X0392700Y0370253D01*
X0393659Y0372569D01*
X0395431Y0374341D01*
X0397747Y0375300D01*
X0410253Y0375300D01*
X0412569Y0374341D01*
X0414341Y0372569D01*
X0415300Y0370253D01*
X0415300Y0368553D01*
X0430200Y0383453D01*
X0430200Y0385700D01*
X0427747Y0385700D01*
X0425431Y0386659D01*
X0423659Y0388431D01*
X0422700Y0390747D01*
X0422700Y0393253D01*
X0423659Y0395569D01*
X0425431Y0397341D01*
X0427747Y0398300D01*
X0440253Y0398300D01*
X0442569Y0397341D01*
X0444341Y0395569D01*
X0445300Y0393253D01*
X0445300Y0390747D01*
X0444341Y0388431D01*
X0442569Y0386659D01*
X0440253Y0385700D01*
X0434800Y0385700D01*
X0434800Y0381547D01*
X0422887Y0369634D01*
X0424796Y0370425D01*
X0435204Y0370425D01*
X0437198Y0369599D01*
X0438724Y0368073D01*
X0439550Y0366079D01*
X0439550Y0363921D01*
X0438724Y0361927D01*
X0437198Y0360401D01*
X0435204Y0359575D01*
X0424796Y0359575D01*
X0422802Y0360401D01*
X0421276Y0361927D01*
X0420450Y0363921D01*
X0420450Y0366079D01*
X0421241Y0367988D01*
X0407300Y0354047D01*
X0407300Y0308300D01*
X0410253Y0308300D01*
X0412569Y0307341D01*
X0414341Y0305569D01*
X0415300Y0303253D01*
X0415300Y0300747D01*
X0414341Y0298431D01*
X0412569Y0296659D01*
X0410253Y0295700D01*
X0397747Y0295700D01*
X0395344Y0296747D02*
X0269800Y0296747D01*
X0269800Y0297345D02*
X0394745Y0297345D01*
X0394147Y0297944D02*
X0269800Y0297944D01*
X0269800Y0298542D02*
X0393613Y0298542D01*
X0393365Y0299141D02*
X0269800Y0299141D01*
X0269800Y0299739D02*
X0393117Y0299739D01*
X0392869Y0300338D02*
X0269800Y0300338D01*
X0269800Y0300937D02*
X0392700Y0300937D01*
X0392700Y0301535D02*
X0269800Y0301535D01*
X0269800Y0302134D02*
X0392700Y0302134D01*
X0392700Y0302732D02*
X0269800Y0302732D01*
X0269800Y0303331D02*
X0392732Y0303331D01*
X0392980Y0303929D02*
X0269800Y0303929D01*
X0269800Y0304528D02*
X0393228Y0304528D01*
X0393476Y0305126D02*
X0269800Y0305126D01*
X0269800Y0305725D02*
X0393815Y0305725D01*
X0394414Y0306323D02*
X0269800Y0306323D01*
X0269800Y0306922D02*
X0395012Y0306922D01*
X0395864Y0307520D02*
X0269800Y0307520D01*
X0269800Y0308119D02*
X0397309Y0308119D01*
X0402700Y0308717D02*
X0269800Y0308717D01*
X0269800Y0309316D02*
X0402700Y0309316D01*
X0402700Y0309914D02*
X0269800Y0309914D01*
X0269800Y0310513D02*
X0402700Y0310513D01*
X0402700Y0311111D02*
X0269800Y0311111D01*
X0269800Y0311710D02*
X0402700Y0311710D01*
X0402700Y0312308D02*
X0269800Y0312308D01*
X0269800Y0312907D02*
X0402700Y0312907D01*
X0402700Y0313505D02*
X0269800Y0313505D01*
X0269800Y0314104D02*
X0402700Y0314104D01*
X0402700Y0314702D02*
X0269800Y0314702D01*
X0269800Y0315301D02*
X0402700Y0315301D01*
X0402700Y0315899D02*
X0269800Y0315899D01*
X0269800Y0316498D02*
X0402700Y0316498D01*
X0402700Y0317096D02*
X0269800Y0317096D01*
X0269800Y0317695D02*
X0402700Y0317695D01*
X0402700Y0318293D02*
X0269800Y0318293D01*
X0269800Y0318892D02*
X0402700Y0318892D01*
X0402700Y0319490D02*
X0269800Y0319490D01*
X0269800Y0320089D02*
X0402700Y0320089D01*
X0402700Y0320687D02*
X0269800Y0320687D01*
X0269800Y0321286D02*
X0402700Y0321286D01*
X0402700Y0321884D02*
X0269800Y0321884D01*
X0269800Y0322483D02*
X0402700Y0322483D01*
X0402700Y0323081D02*
X0269800Y0323081D01*
X0269800Y0323680D02*
X0402700Y0323680D01*
X0402700Y0324278D02*
X0269800Y0324278D01*
X0269800Y0324877D02*
X0402700Y0324877D01*
X0402700Y0325475D02*
X0269800Y0325475D01*
X0269800Y0326074D02*
X0402700Y0326074D01*
X0402700Y0326672D02*
X0269800Y0326672D01*
X0269800Y0327271D02*
X0402700Y0327271D01*
X0402700Y0327870D02*
X0269800Y0327870D01*
X0269800Y0328468D02*
X0402700Y0328468D01*
X0402700Y0329067D02*
X0269800Y0329067D01*
X0269800Y0329665D02*
X0402700Y0329665D01*
X0402700Y0330264D02*
X0269800Y0330264D01*
X0269800Y0330862D02*
X0402700Y0330862D01*
X0402700Y0331461D02*
X0269800Y0331461D01*
X0269800Y0332059D02*
X0402700Y0332059D01*
X0402700Y0332658D02*
X0269800Y0332658D01*
X0269800Y0333256D02*
X0402700Y0333256D01*
X0402700Y0333855D02*
X0269800Y0333855D01*
X0269800Y0334453D02*
X0402700Y0334453D01*
X0402700Y0335052D02*
X0269800Y0335052D01*
X0269800Y0335650D02*
X0402700Y0335650D01*
X0402700Y0336249D02*
X0269800Y0336249D01*
X0269800Y0336847D02*
X0402700Y0336847D01*
X0402700Y0337446D02*
X0269800Y0337446D01*
X0269800Y0338044D02*
X0402700Y0338044D01*
X0402700Y0338643D02*
X0269800Y0338643D01*
X0269800Y0339241D02*
X0402700Y0339241D01*
X0402700Y0339840D02*
X0269800Y0339840D01*
X0269800Y0340438D02*
X0402700Y0340438D01*
X0402700Y0341037D02*
X0269800Y0341037D01*
X0269800Y0341635D02*
X0402700Y0341635D01*
X0402700Y0342234D02*
X0269800Y0342234D01*
X0269800Y0342832D02*
X0402700Y0342832D01*
X0402700Y0343431D02*
X0269800Y0343431D01*
X0269800Y0344029D02*
X0402700Y0344029D01*
X0402700Y0344628D02*
X0269800Y0344628D01*
X0269800Y0345226D02*
X0402700Y0345226D01*
X0402700Y0345825D02*
X0269800Y0345825D01*
X0269800Y0346423D02*
X0402700Y0346423D01*
X0402700Y0347022D02*
X0269800Y0347022D01*
X0269800Y0347620D02*
X0402700Y0347620D01*
X0402700Y0348219D02*
X0269800Y0348219D01*
X0269800Y0348817D02*
X0402700Y0348817D01*
X0402700Y0349416D02*
X0269800Y0349416D01*
X0269800Y0350014D02*
X0402700Y0350014D01*
X0402700Y0350613D02*
X0269800Y0350613D01*
X0269800Y0351211D02*
X0402700Y0351211D01*
X0402700Y0351810D02*
X0269800Y0351810D01*
X0269800Y0352408D02*
X0402700Y0352408D01*
X0402700Y0353007D02*
X0269800Y0353007D01*
X0269800Y0353605D02*
X0402700Y0353605D01*
X0402700Y0354204D02*
X0269800Y0354204D01*
X0269800Y0354803D02*
X0402700Y0354803D01*
X0402700Y0355401D02*
X0269800Y0355401D01*
X0269800Y0356000D02*
X0402747Y0356000D01*
X0403345Y0356598D02*
X0269800Y0356598D01*
X0269800Y0357197D02*
X0403944Y0357197D01*
X0404542Y0357795D02*
X0269800Y0357795D01*
X0269800Y0358394D02*
X0405141Y0358394D01*
X0405739Y0358992D02*
X0269800Y0358992D01*
X0269800Y0359591D02*
X0406338Y0359591D01*
X0406936Y0360189D02*
X0269800Y0360189D01*
X0269800Y0360788D02*
X0407535Y0360788D01*
X0408133Y0361386D02*
X0269800Y0361386D01*
X0269800Y0361985D02*
X0408732Y0361985D01*
X0409330Y0362583D02*
X0269800Y0362583D01*
X0269800Y0363182D02*
X0396584Y0363182D01*
X0395310Y0363780D02*
X0269800Y0363780D01*
X0269800Y0364379D02*
X0394712Y0364379D01*
X0394113Y0364977D02*
X0269800Y0364977D01*
X0269800Y0365576D02*
X0393599Y0365576D01*
X0393351Y0366174D02*
X0269800Y0366174D01*
X0269800Y0366773D02*
X0393103Y0366773D01*
X0392856Y0367371D02*
X0269800Y0367371D01*
X0269800Y0367970D02*
X0392700Y0367970D01*
X0392700Y0368568D02*
X0269800Y0368568D01*
X0269800Y0369167D02*
X0392700Y0369167D01*
X0392700Y0369765D02*
X0269800Y0369765D01*
X0269800Y0370364D02*
X0392746Y0370364D01*
X0392994Y0370962D02*
X0269800Y0370962D01*
X0269800Y0371561D02*
X0393242Y0371561D01*
X0393490Y0372159D02*
X0269800Y0372159D01*
X0269800Y0372758D02*
X0393848Y0372758D01*
X0394447Y0373356D02*
X0269800Y0373356D01*
X0269800Y0373955D02*
X0395045Y0373955D01*
X0395944Y0374553D02*
X0269800Y0374553D01*
X0269800Y0375152D02*
X0397389Y0375152D01*
X0410611Y0375152D02*
X0421899Y0375152D01*
X0421301Y0374553D02*
X0412056Y0374553D01*
X0412955Y0373955D02*
X0420702Y0373955D01*
X0420104Y0373356D02*
X0413553Y0373356D01*
X0414152Y0372758D02*
X0419505Y0372758D01*
X0418907Y0372159D02*
X0414510Y0372159D01*
X0414758Y0371561D02*
X0418308Y0371561D01*
X0417710Y0370962D02*
X0415006Y0370962D01*
X0415254Y0370364D02*
X0417111Y0370364D01*
X0416513Y0369765D02*
X0415300Y0369765D01*
X0415300Y0369167D02*
X0415914Y0369167D01*
X0415316Y0368568D02*
X0415300Y0368568D01*
X0418828Y0365576D02*
X0420450Y0365576D01*
X0420450Y0364977D02*
X0418230Y0364977D01*
X0417631Y0364379D02*
X0420450Y0364379D01*
X0420508Y0363780D02*
X0417033Y0363780D01*
X0416434Y0363182D02*
X0420756Y0363182D01*
X0421004Y0362583D02*
X0415836Y0362583D01*
X0415237Y0361985D02*
X0421252Y0361985D01*
X0421817Y0361386D02*
X0414639Y0361386D01*
X0414040Y0360788D02*
X0422415Y0360788D01*
X0423313Y0360189D02*
X0413442Y0360189D01*
X0412843Y0359591D02*
X0424758Y0359591D01*
X0420489Y0366174D02*
X0419427Y0366174D01*
X0420025Y0366773D02*
X0420737Y0366773D01*
X0420624Y0367371D02*
X0420985Y0367371D01*
X0421222Y0367970D02*
X0421233Y0367970D01*
X0423018Y0369765D02*
X0423203Y0369765D01*
X0423616Y0370364D02*
X0424648Y0370364D01*
X0424215Y0370962D02*
X0468621Y0370962D01*
X0468621Y0370364D02*
X0435352Y0370364D01*
X0436797Y0369765D02*
X0468621Y0369765D01*
X0468621Y0369167D02*
X0437630Y0369167D01*
X0438229Y0368568D02*
X0468621Y0368568D01*
X0468621Y0367970D02*
X0438767Y0367970D01*
X0439015Y0367371D02*
X0468621Y0367371D01*
X0468621Y0366773D02*
X0439263Y0366773D01*
X0439511Y0366174D02*
X0468621Y0366174D01*
X0468621Y0365576D02*
X0439550Y0365576D01*
X0439550Y0364977D02*
X0468621Y0364977D01*
X0468621Y0364379D02*
X0439550Y0364379D01*
X0439492Y0363780D02*
X0468621Y0363780D01*
X0468621Y0363182D02*
X0439244Y0363182D01*
X0438996Y0362583D02*
X0468621Y0362583D01*
X0468621Y0361985D02*
X0438748Y0361985D01*
X0438183Y0361386D02*
X0468621Y0361386D01*
X0468621Y0360788D02*
X0437585Y0360788D01*
X0436687Y0360189D02*
X0468621Y0360189D01*
X0468621Y0359591D02*
X0435242Y0359591D01*
X0435204Y0350425D02*
X0424796Y0350425D01*
X0422802Y0349599D01*
X0421276Y0348073D01*
X0420450Y0346079D01*
X0420450Y0343921D01*
X0421276Y0341927D01*
X0422802Y0340401D01*
X0424796Y0339575D01*
X0435204Y0339575D01*
X0437198Y0340401D01*
X0438724Y0341927D01*
X0439550Y0343921D01*
X0439550Y0346079D01*
X0438724Y0348073D01*
X0437198Y0349599D01*
X0435204Y0350425D01*
X0436195Y0350014D02*
X0468621Y0350014D01*
X0468621Y0349416D02*
X0437381Y0349416D01*
X0437980Y0348817D02*
X0468621Y0348817D01*
X0468621Y0348219D02*
X0438578Y0348219D01*
X0438912Y0347620D02*
X0468621Y0347620D01*
X0468621Y0347022D02*
X0439159Y0347022D01*
X0439407Y0346423D02*
X0468621Y0346423D01*
X0468621Y0345825D02*
X0439550Y0345825D01*
X0439550Y0345226D02*
X0468621Y0345226D01*
X0468621Y0344628D02*
X0439550Y0344628D01*
X0439550Y0344029D02*
X0468621Y0344029D01*
X0468621Y0343431D02*
X0439347Y0343431D01*
X0439099Y0342832D02*
X0468621Y0342832D01*
X0468621Y0342234D02*
X0438851Y0342234D01*
X0438432Y0341635D02*
X0468621Y0341635D01*
X0468621Y0341037D02*
X0437834Y0341037D01*
X0437235Y0340438D02*
X0468621Y0340438D01*
X0468621Y0339840D02*
X0435843Y0339840D01*
X0424157Y0339840D02*
X0407300Y0339840D01*
X0407300Y0340438D02*
X0422765Y0340438D01*
X0422166Y0341037D02*
X0407300Y0341037D01*
X0407300Y0341635D02*
X0421568Y0341635D01*
X0421149Y0342234D02*
X0407300Y0342234D01*
X0407300Y0342832D02*
X0420901Y0342832D01*
X0420653Y0343431D02*
X0407300Y0343431D01*
X0407300Y0344029D02*
X0420450Y0344029D01*
X0420450Y0344628D02*
X0407300Y0344628D01*
X0407300Y0345226D02*
X0420450Y0345226D01*
X0420450Y0345825D02*
X0407300Y0345825D01*
X0407300Y0346423D02*
X0420593Y0346423D01*
X0420841Y0347022D02*
X0407300Y0347022D01*
X0407300Y0347620D02*
X0421088Y0347620D01*
X0421422Y0348219D02*
X0407300Y0348219D01*
X0407300Y0348817D02*
X0422020Y0348817D01*
X0422619Y0349416D02*
X0407300Y0349416D01*
X0407300Y0350014D02*
X0423805Y0350014D01*
X0412245Y0358992D02*
X0468621Y0358992D01*
X0468621Y0358394D02*
X0411646Y0358394D01*
X0411048Y0357795D02*
X0468621Y0357795D01*
X0468621Y0357197D02*
X0410449Y0357197D01*
X0409851Y0356598D02*
X0468621Y0356598D01*
X0468621Y0356000D02*
X0409252Y0356000D01*
X0408654Y0355401D02*
X0468621Y0355401D01*
X0468621Y0354803D02*
X0408055Y0354803D01*
X0407457Y0354204D02*
X0468621Y0354204D01*
X0468621Y0353605D02*
X0407300Y0353605D01*
X0407300Y0353007D02*
X0468621Y0353007D01*
X0468621Y0352408D02*
X0407300Y0352408D01*
X0407300Y0351810D02*
X0468621Y0351810D01*
X0468621Y0351211D02*
X0407300Y0351211D01*
X0407300Y0350613D02*
X0468621Y0350613D01*
X0468621Y0339241D02*
X0407300Y0339241D01*
X0407300Y0338643D02*
X0468621Y0338643D01*
X0468621Y0338044D02*
X0407300Y0338044D01*
X0407300Y0337446D02*
X0468621Y0337446D01*
X0468621Y0336847D02*
X0407300Y0336847D01*
X0407300Y0336249D02*
X0468621Y0336249D01*
X0468621Y0335650D02*
X0407300Y0335650D01*
X0407300Y0335052D02*
X0468621Y0335052D01*
X0468621Y0334453D02*
X0407300Y0334453D01*
X0407300Y0333855D02*
X0468621Y0333855D01*
X0468621Y0333256D02*
X0407300Y0333256D01*
X0407300Y0332658D02*
X0468621Y0332658D01*
X0468621Y0332059D02*
X0407300Y0332059D01*
X0407300Y0331461D02*
X0468621Y0331461D01*
X0468621Y0330862D02*
X0407300Y0330862D01*
X0407300Y0330264D02*
X0468621Y0330264D01*
X0468621Y0329665D02*
X0407300Y0329665D01*
X0407300Y0329067D02*
X0468621Y0329067D01*
X0468621Y0328468D02*
X0407300Y0328468D01*
X0407300Y0327870D02*
X0468621Y0327870D01*
X0468621Y0327271D02*
X0407300Y0327271D01*
X0407300Y0326672D02*
X0468621Y0326672D01*
X0468621Y0326074D02*
X0407300Y0326074D01*
X0407300Y0325475D02*
X0468621Y0325475D01*
X0468621Y0324877D02*
X0407300Y0324877D01*
X0407300Y0324278D02*
X0468621Y0324278D01*
X0468621Y0323680D02*
X0407300Y0323680D01*
X0407300Y0323081D02*
X0468621Y0323081D01*
X0468621Y0322483D02*
X0407300Y0322483D01*
X0407300Y0321884D02*
X0468621Y0321884D01*
X0468621Y0321286D02*
X0407300Y0321286D01*
X0407300Y0320687D02*
X0468621Y0320687D01*
X0468621Y0320089D02*
X0407300Y0320089D01*
X0407300Y0319490D02*
X0468621Y0319490D01*
X0468621Y0318892D02*
X0407300Y0318892D01*
X0407300Y0318293D02*
X0468621Y0318293D01*
X0468621Y0317695D02*
X0407300Y0317695D01*
X0407300Y0317096D02*
X0468621Y0317096D01*
X0468621Y0316498D02*
X0407300Y0316498D01*
X0407300Y0315899D02*
X0468621Y0315899D01*
X0468621Y0315301D02*
X0407300Y0315301D01*
X0407300Y0314702D02*
X0468621Y0314702D01*
X0468621Y0314104D02*
X0407300Y0314104D01*
X0407300Y0313505D02*
X0468621Y0313505D01*
X0468621Y0312907D02*
X0407300Y0312907D01*
X0407300Y0312308D02*
X0468621Y0312308D01*
X0468621Y0311710D02*
X0407300Y0311710D01*
X0407300Y0311111D02*
X0468621Y0311111D01*
X0468621Y0310513D02*
X0407300Y0310513D01*
X0407300Y0309914D02*
X0468621Y0309914D01*
X0468621Y0309316D02*
X0407300Y0309316D01*
X0407300Y0308717D02*
X0468621Y0308717D01*
X0468621Y0308119D02*
X0410691Y0308119D01*
X0412136Y0307520D02*
X0468621Y0307520D01*
X0468621Y0306922D02*
X0412988Y0306922D01*
X0413586Y0306323D02*
X0468621Y0306323D01*
X0468621Y0305725D02*
X0414185Y0305725D01*
X0414524Y0305126D02*
X0468621Y0305126D01*
X0468621Y0304528D02*
X0414772Y0304528D01*
X0415020Y0303929D02*
X0468621Y0303929D01*
X0468621Y0303331D02*
X0415268Y0303331D01*
X0415300Y0302732D02*
X0468621Y0302732D01*
X0468621Y0302134D02*
X0415300Y0302134D01*
X0415300Y0301535D02*
X0468621Y0301535D01*
X0468621Y0300937D02*
X0415300Y0300937D01*
X0415131Y0300338D02*
X0468621Y0300338D01*
X0468621Y0299739D02*
X0414883Y0299739D01*
X0414635Y0299141D02*
X0468621Y0299141D01*
X0468621Y0298542D02*
X0414387Y0298542D01*
X0413853Y0297944D02*
X0468621Y0297944D01*
X0468621Y0297345D02*
X0413255Y0297345D01*
X0412656Y0296747D02*
X0468621Y0296747D01*
X0468621Y0296148D02*
X0411336Y0296148D01*
X0424497Y0285375D02*
X0289503Y0285375D01*
X0289933Y0284777D02*
X0424070Y0284777D01*
X0423822Y0284178D02*
X0290238Y0284178D01*
X0290480Y0283580D02*
X0423574Y0283580D01*
X0423326Y0282981D02*
X0290674Y0282981D01*
X0290770Y0282383D02*
X0423231Y0282383D01*
X0423231Y0281784D02*
X0279832Y0281784D01*
X0279831Y0281186D02*
X0279231Y0281186D01*
X0279231Y0280587D02*
X0279831Y0280587D01*
X0279831Y0279989D02*
X0279231Y0279989D01*
X0279231Y0279390D02*
X0279831Y0279390D01*
X0279831Y0278792D02*
X0279231Y0278792D01*
X0279231Y0278193D02*
X0279831Y0278193D01*
X0279831Y0277595D02*
X0279231Y0277595D01*
X0279231Y0276996D02*
X0279831Y0276996D01*
X0279831Y0276398D02*
X0279231Y0276398D01*
X0279231Y0275799D02*
X0279831Y0275799D01*
X0279831Y0275201D02*
X0279231Y0275201D01*
X0274032Y0275201D02*
X0269800Y0275201D01*
X0269800Y0275799D02*
X0271843Y0275799D01*
X0270836Y0276398D02*
X0269800Y0276398D01*
X0269800Y0276996D02*
X0270126Y0276996D01*
X0270096Y0285974D02*
X0269800Y0285974D01*
X0269800Y0286572D02*
X0270795Y0286572D01*
X0271784Y0287171D02*
X0269800Y0287171D01*
X0269800Y0287769D02*
X0273842Y0287769D01*
X0279231Y0287769D02*
X0279831Y0287769D01*
X0279831Y0287171D02*
X0279231Y0287171D01*
X0279231Y0286572D02*
X0279831Y0286572D01*
X0279831Y0285974D02*
X0279231Y0285974D01*
X0279231Y0285375D02*
X0279831Y0285375D01*
X0279831Y0284777D02*
X0279231Y0284777D01*
X0279231Y0284178D02*
X0279831Y0284178D01*
X0279831Y0283580D02*
X0279231Y0283580D01*
X0279231Y0282981D02*
X0279831Y0282981D01*
X0279831Y0282383D02*
X0279231Y0282383D01*
X0285221Y0287769D02*
X0428204Y0287769D01*
X0426759Y0287171D02*
X0287279Y0287171D01*
X0288268Y0286572D02*
X0425694Y0286572D01*
X0425096Y0285974D02*
X0288967Y0285974D01*
X0290831Y0281186D02*
X0423231Y0281186D01*
X0423231Y0280587D02*
X0290765Y0280587D01*
X0290665Y0279989D02*
X0423338Y0279989D01*
X0423586Y0279390D02*
X0290470Y0279390D01*
X0290222Y0278792D02*
X0423834Y0278792D01*
X0424082Y0278193D02*
X0289916Y0278193D01*
X0289481Y0277595D02*
X0424527Y0277595D01*
X0425126Y0276996D02*
X0288937Y0276996D01*
X0288227Y0276398D02*
X0425724Y0276398D01*
X0426832Y0275799D02*
X0287220Y0275799D01*
X0285031Y0275201D02*
X0428277Y0275201D01*
X0468621Y0232108D02*
X0171145Y0232108D01*
X0170546Y0232706D02*
X0224041Y0232706D01*
X0223443Y0233305D02*
X0169948Y0233305D01*
X0169349Y0233903D02*
X0222844Y0233903D01*
X0222246Y0234502D02*
X0168751Y0234502D01*
X0168152Y0235100D02*
X0221647Y0235100D01*
X0221049Y0235699D02*
X0167554Y0235699D01*
X0166955Y0236297D02*
X0220450Y0236297D01*
X0219852Y0236896D02*
X0166357Y0236896D01*
X0165758Y0237494D02*
X0188761Y0237494D01*
X0188420Y0237636D02*
X0189445Y0237211D01*
X0190555Y0237211D01*
X0191580Y0237636D01*
X0192364Y0238420D01*
X0192789Y0239445D01*
X0192789Y0240555D01*
X0192364Y0241580D01*
X0191580Y0242364D01*
X0190555Y0242789D01*
X0189445Y0242789D01*
X0188420Y0242364D01*
X0188356Y0242300D01*
X0173453Y0242300D01*
X0164597Y0251155D01*
X0164800Y0251645D01*
X0164800Y0253355D01*
X0164145Y0254936D01*
X0162936Y0256145D01*
X0161355Y0256800D01*
X0153645Y0256800D01*
X0152064Y0256145D01*
X0150855Y0254936D01*
X0150200Y0253355D01*
X0150200Y0251645D01*
X0150855Y0250064D01*
X0152064Y0248855D01*
X0153645Y0248200D01*
X0161047Y0248200D01*
X0171547Y0237700D01*
X0188356Y0237700D01*
X0188420Y0237636D01*
X0191239Y0237494D02*
X0219253Y0237494D01*
X0218654Y0238093D02*
X0192037Y0238093D01*
X0192477Y0238691D02*
X0218056Y0238691D01*
X0217457Y0239290D02*
X0192725Y0239290D01*
X0192789Y0239888D02*
X0216859Y0239888D01*
X0216260Y0240487D02*
X0192789Y0240487D01*
X0192569Y0241085D02*
X0215662Y0241085D01*
X0215063Y0241684D02*
X0192260Y0241684D01*
X0191662Y0242282D02*
X0214465Y0242282D01*
X0213866Y0242881D02*
X0172872Y0242881D01*
X0172273Y0243479D02*
X0213268Y0243479D01*
X0212669Y0244078D02*
X0171675Y0244078D01*
X0171076Y0244676D02*
X0212071Y0244676D01*
X0211472Y0245275D02*
X0170478Y0245275D01*
X0169879Y0245873D02*
X0210874Y0245873D01*
X0210275Y0246472D02*
X0169281Y0246472D01*
X0168682Y0247070D02*
X0209677Y0247070D01*
X0209078Y0247669D02*
X0168084Y0247669D01*
X0167485Y0248268D02*
X0208480Y0248268D01*
X0207881Y0248866D02*
X0166887Y0248866D01*
X0166288Y0249465D02*
X0207283Y0249465D01*
X0206684Y0250063D02*
X0165690Y0250063D01*
X0165091Y0250662D02*
X0206086Y0250662D01*
X0205487Y0251260D02*
X0164641Y0251260D01*
X0164800Y0251859D02*
X0204889Y0251859D01*
X0204290Y0252457D02*
X0164800Y0252457D01*
X0164800Y0253056D02*
X0203692Y0253056D01*
X0203093Y0253654D02*
X0164676Y0253654D01*
X0164428Y0254253D02*
X0202495Y0254253D01*
X0201896Y0254851D02*
X0164180Y0254851D01*
X0163631Y0255450D02*
X0201298Y0255450D01*
X0200699Y0256048D02*
X0163033Y0256048D01*
X0161725Y0256647D02*
X0200101Y0256647D01*
X0199502Y0257245D02*
X0146300Y0257245D01*
X0146300Y0256647D02*
X0153275Y0256647D01*
X0151967Y0256048D02*
X0146300Y0256048D01*
X0146300Y0255450D02*
X0151369Y0255450D01*
X0150820Y0254851D02*
X0146300Y0254851D01*
X0146300Y0254253D02*
X0150572Y0254253D01*
X0150324Y0253654D02*
X0146300Y0253654D01*
X0146300Y0253056D02*
X0150200Y0253056D01*
X0150200Y0252457D02*
X0146300Y0252457D01*
X0146300Y0251859D02*
X0150200Y0251859D01*
X0150359Y0251260D02*
X0146300Y0251260D01*
X0146300Y0250662D02*
X0150607Y0250662D01*
X0150856Y0250063D02*
X0146300Y0250063D01*
X0146300Y0249465D02*
X0151454Y0249465D01*
X0152053Y0248866D02*
X0146300Y0248866D01*
X0146300Y0248268D02*
X0153482Y0248268D01*
X0152853Y0246472D02*
X0146300Y0246472D01*
X0146300Y0247070D02*
X0162177Y0247070D01*
X0162147Y0246472D02*
X0162775Y0246472D01*
X0163208Y0245873D02*
X0163374Y0245873D01*
X0163806Y0245275D02*
X0163972Y0245275D01*
X0164253Y0244676D02*
X0164571Y0244676D01*
X0164501Y0244078D02*
X0165169Y0244078D01*
X0164749Y0243479D02*
X0165768Y0243479D01*
X0166366Y0242881D02*
X0164800Y0242881D01*
X0164800Y0242282D02*
X0166965Y0242282D01*
X0167563Y0241684D02*
X0164800Y0241684D01*
X0164568Y0241085D02*
X0168162Y0241085D01*
X0168760Y0240487D02*
X0164320Y0240487D01*
X0163969Y0239888D02*
X0169359Y0239888D01*
X0169957Y0239290D02*
X0163963Y0239290D01*
X0164561Y0238691D02*
X0170556Y0238691D01*
X0171154Y0238093D02*
X0165160Y0238093D01*
X0161647Y0235100D02*
X0146300Y0235100D01*
X0146300Y0234502D02*
X0162246Y0234502D01*
X0162844Y0233903D02*
X0146300Y0233903D01*
X0146300Y0233305D02*
X0163443Y0233305D01*
X0164041Y0232706D02*
X0146300Y0232706D01*
X0146300Y0232108D02*
X0164640Y0232108D01*
X0165238Y0231509D02*
X0146300Y0231509D01*
X0146300Y0230911D02*
X0165837Y0230911D01*
X0166435Y0230312D02*
X0146300Y0230312D01*
X0146300Y0229714D02*
X0167034Y0229714D01*
X0167632Y0229115D02*
X0146300Y0229115D01*
X0146300Y0228517D02*
X0168231Y0228517D01*
X0168829Y0227918D02*
X0146300Y0227918D01*
X0146300Y0227320D02*
X0169428Y0227320D01*
X0170026Y0226721D02*
X0146300Y0226721D01*
X0146300Y0226123D02*
X0170625Y0226123D01*
X0171223Y0225524D02*
X0146300Y0225524D01*
X0146300Y0224926D02*
X0171822Y0224926D01*
X0172420Y0224327D02*
X0146300Y0224327D01*
X0146300Y0223729D02*
X0173019Y0223729D01*
X0173617Y0223130D02*
X0146300Y0223130D01*
X0146300Y0222532D02*
X0174216Y0222532D01*
X0174814Y0221933D02*
X0146300Y0221933D01*
X0146300Y0221334D02*
X0175413Y0221334D01*
X0176011Y0220736D02*
X0146300Y0220736D01*
X0146300Y0220137D02*
X0176610Y0220137D01*
X0177208Y0219539D02*
X0146300Y0219539D01*
X0146300Y0218940D02*
X0177807Y0218940D01*
X0178405Y0218342D02*
X0146300Y0218342D01*
X0146300Y0217743D02*
X0179004Y0217743D01*
X0179602Y0217145D02*
X0146300Y0217145D01*
X0146300Y0216546D02*
X0180201Y0216546D01*
X0180799Y0215948D02*
X0146300Y0215948D01*
X0146300Y0215349D02*
X0181398Y0215349D01*
X0181996Y0214751D02*
X0159277Y0214751D01*
X0160722Y0214152D02*
X0182595Y0214152D01*
X0183193Y0213554D02*
X0162120Y0213554D01*
X0162718Y0212955D02*
X0183792Y0212955D01*
X0184390Y0212357D02*
X0163317Y0212357D01*
X0163915Y0211758D02*
X0184788Y0211758D01*
X0185036Y0211160D02*
X0164409Y0211160D01*
X0164657Y0210561D02*
X0185494Y0210561D01*
X0186337Y0209963D02*
X0164905Y0209963D01*
X0155841Y0214751D02*
X0146300Y0214751D01*
X0146300Y0214152D02*
X0154396Y0214152D01*
X0152998Y0213554D02*
X0146300Y0213554D01*
X0146300Y0212955D02*
X0152400Y0212955D01*
X0151801Y0212357D02*
X0146300Y0212357D01*
X0146300Y0211758D02*
X0151203Y0211758D01*
X0150709Y0211160D02*
X0146300Y0211160D01*
X0146300Y0210561D02*
X0150461Y0210561D01*
X0150213Y0209963D02*
X0146300Y0209963D01*
X0146300Y0209364D02*
X0149965Y0209364D01*
X0149717Y0208766D02*
X0146300Y0208766D01*
X0146300Y0208167D02*
X0149566Y0208167D01*
X0149566Y0207569D02*
X0146300Y0207569D01*
X0146300Y0206970D02*
X0149566Y0206970D01*
X0149566Y0206372D02*
X0146300Y0206372D01*
X0146300Y0205773D02*
X0149566Y0205773D01*
X0149585Y0205175D02*
X0146300Y0205175D01*
X0146300Y0204576D02*
X0149833Y0204576D01*
X0150081Y0203978D02*
X0146300Y0203978D01*
X0146300Y0203379D02*
X0150329Y0203379D01*
X0150577Y0202781D02*
X0146300Y0202781D01*
X0146300Y0202182D02*
X0150884Y0202182D01*
X0151483Y0201584D02*
X0146300Y0201584D01*
X0146300Y0200985D02*
X0152081Y0200985D01*
X0152680Y0200387D02*
X0146300Y0200387D01*
X0146300Y0199788D02*
X0153627Y0199788D01*
X0155072Y0199190D02*
X0146300Y0199190D01*
X0146300Y0198591D02*
X0468621Y0198591D01*
X0468621Y0197993D02*
X0146300Y0197993D01*
X0146300Y0197394D02*
X0468621Y0197394D01*
X0468621Y0196796D02*
X0146300Y0196796D01*
X0176532Y0226721D02*
X0468621Y0226721D01*
X0468621Y0226123D02*
X0177130Y0226123D01*
X0177729Y0225524D02*
X0468621Y0225524D01*
X0468621Y0224926D02*
X0178327Y0224926D01*
X0178926Y0224327D02*
X0468621Y0224327D01*
X0468621Y0223729D02*
X0179524Y0223729D01*
X0180123Y0223130D02*
X0468621Y0223130D01*
X0468621Y0222532D02*
X0180721Y0222532D01*
X0181320Y0221933D02*
X0468621Y0221933D01*
X0468621Y0227320D02*
X0175933Y0227320D01*
X0175335Y0227918D02*
X0468621Y0227918D01*
X0468621Y0228517D02*
X0174736Y0228517D01*
X0174138Y0229115D02*
X0468621Y0229115D01*
X0468621Y0229714D02*
X0173539Y0229714D01*
X0172940Y0230312D02*
X0468621Y0230312D01*
X0468621Y0230911D02*
X0172342Y0230911D01*
X0171743Y0231509D02*
X0468621Y0231509D01*
X0468621Y0371561D02*
X0424814Y0371561D01*
X0425412Y0372159D02*
X0468621Y0372159D01*
X0468621Y0372758D02*
X0426011Y0372758D01*
X0426609Y0373356D02*
X0468621Y0373356D01*
X0468621Y0373955D02*
X0427208Y0373955D01*
X0427806Y0374553D02*
X0468621Y0374553D01*
X0468621Y0375152D02*
X0428405Y0375152D01*
X0429003Y0375750D02*
X0468621Y0375750D01*
X0468621Y0376349D02*
X0429602Y0376349D01*
X0430200Y0376947D02*
X0468621Y0376947D01*
X0468621Y0377546D02*
X0430799Y0377546D01*
X0431397Y0378144D02*
X0468621Y0378144D01*
X0468621Y0378743D02*
X0431996Y0378743D01*
X0432594Y0379341D02*
X0468621Y0379341D01*
X0468621Y0379940D02*
X0433193Y0379940D01*
X0433791Y0380539D02*
X0468621Y0380539D01*
X0468621Y0381137D02*
X0434390Y0381137D01*
X0434800Y0381736D02*
X0468621Y0381736D01*
X0468621Y0382334D02*
X0434800Y0382334D01*
X0434800Y0382933D02*
X0468621Y0382933D01*
X0468621Y0383531D02*
X0434800Y0383531D01*
X0434800Y0384130D02*
X0468621Y0384130D01*
X0468621Y0384728D02*
X0434800Y0384728D01*
X0434800Y0385327D02*
X0468621Y0385327D01*
X0468621Y0385925D02*
X0440797Y0385925D01*
X0442242Y0386524D02*
X0468621Y0386524D01*
X0468621Y0387122D02*
X0443032Y0387122D01*
X0443630Y0387721D02*
X0468621Y0387721D01*
X0468621Y0388319D02*
X0444229Y0388319D01*
X0444542Y0388918D02*
X0468621Y0388918D01*
X0468621Y0389516D02*
X0444790Y0389516D01*
X0445038Y0390115D02*
X0468621Y0390115D01*
X0468621Y0390713D02*
X0445286Y0390713D01*
X0445300Y0391312D02*
X0468621Y0391312D01*
X0468621Y0391910D02*
X0445300Y0391910D01*
X0445300Y0392509D02*
X0468621Y0392509D01*
X0468621Y0393107D02*
X0445300Y0393107D01*
X0445113Y0393706D02*
X0468621Y0393706D01*
X0468621Y0394304D02*
X0444865Y0394304D01*
X0444617Y0394903D02*
X0468621Y0394903D01*
X0468621Y0395501D02*
X0444369Y0395501D01*
X0443810Y0396100D02*
X0468621Y0396100D01*
X0468621Y0396698D02*
X0443211Y0396698D01*
X0442613Y0397297D02*
X0468621Y0397297D01*
X0468621Y0397895D02*
X0441230Y0397895D01*
X0430200Y0385327D02*
X0276079Y0385327D01*
X0275481Y0384728D02*
X0430200Y0384728D01*
X0430200Y0384130D02*
X0274882Y0384130D01*
X0274284Y0383531D02*
X0430200Y0383531D01*
X0429680Y0382933D02*
X0273685Y0382933D01*
X0273087Y0382334D02*
X0429081Y0382334D01*
X0428483Y0381736D02*
X0272488Y0381736D01*
X0271890Y0381137D02*
X0427884Y0381137D01*
X0427286Y0380539D02*
X0271291Y0380539D01*
X0270693Y0379940D02*
X0426687Y0379940D01*
X0426089Y0379341D02*
X0270094Y0379341D01*
X0269800Y0378743D02*
X0425490Y0378743D01*
X0424892Y0378144D02*
X0269800Y0378144D01*
X0269800Y0377546D02*
X0424293Y0377546D01*
X0423695Y0376947D02*
X0269800Y0376947D01*
X0269800Y0376349D02*
X0423096Y0376349D01*
X0422498Y0375750D02*
X0269800Y0375750D01*
X0257194Y0374553D02*
X0256978Y0374553D01*
X0256595Y0375152D02*
X0255431Y0375152D01*
X0249300Y0368568D02*
X0248700Y0368568D01*
X0248700Y0367970D02*
X0249300Y0367970D01*
X0249300Y0367371D02*
X0248700Y0367371D01*
X0248700Y0366773D02*
X0249300Y0366773D01*
X0249300Y0366174D02*
X0248700Y0366174D01*
X0248700Y0365576D02*
X0249300Y0365576D01*
X0249300Y0364977D02*
X0248700Y0364977D01*
X0248700Y0364379D02*
X0249300Y0364379D01*
X0249300Y0363780D02*
X0248700Y0363780D01*
X0248700Y0363182D02*
X0249300Y0363182D01*
X0256458Y0363182D02*
X0260200Y0363182D01*
X0260200Y0363780D02*
X0257534Y0363780D01*
X0258288Y0364379D02*
X0260200Y0364379D01*
X0260200Y0364977D02*
X0258864Y0364977D01*
X0259299Y0365576D02*
X0260200Y0365576D01*
X0260200Y0366174D02*
X0259631Y0366174D01*
X0259901Y0366773D02*
X0260200Y0366773D01*
X0260200Y0367371D02*
X0260095Y0367371D01*
X0260200Y0362583D02*
X0218170Y0362583D01*
X0218768Y0361985D02*
X0260200Y0361985D01*
X0260200Y0361386D02*
X0219367Y0361386D01*
X0219800Y0360788D02*
X0260200Y0360788D01*
X0260200Y0360189D02*
X0219800Y0360189D01*
X0219800Y0359591D02*
X0260200Y0359591D01*
X0260200Y0358992D02*
X0219800Y0358992D01*
X0219800Y0358394D02*
X0260200Y0358394D01*
X0260200Y0357795D02*
X0219800Y0357795D01*
X0219800Y0357197D02*
X0260200Y0357197D01*
X0260200Y0356598D02*
X0219800Y0356598D01*
X0219800Y0356000D02*
X0260200Y0356000D01*
X0260200Y0355401D02*
X0219800Y0355401D01*
X0219800Y0354803D02*
X0260200Y0354803D01*
X0260200Y0354204D02*
X0219800Y0354204D01*
X0219800Y0353605D02*
X0260200Y0353605D01*
X0260200Y0353007D02*
X0219800Y0353007D01*
X0219800Y0352408D02*
X0260200Y0352408D01*
X0260200Y0351810D02*
X0219800Y0351810D01*
X0219800Y0351211D02*
X0260200Y0351211D01*
X0260200Y0350613D02*
X0219800Y0350613D01*
X0219800Y0350014D02*
X0260200Y0350014D01*
X0260200Y0349416D02*
X0219800Y0349416D01*
X0219800Y0348817D02*
X0260200Y0348817D01*
X0260200Y0348219D02*
X0219800Y0348219D01*
X0219800Y0347620D02*
X0260200Y0347620D01*
X0260200Y0347022D02*
X0219800Y0347022D01*
X0219800Y0346423D02*
X0260200Y0346423D01*
X0260200Y0345825D02*
X0219800Y0345825D01*
X0219800Y0345226D02*
X0260200Y0345226D01*
X0260200Y0344628D02*
X0219800Y0344628D01*
X0219800Y0344029D02*
X0260200Y0344029D01*
X0260200Y0343431D02*
X0219800Y0343431D01*
X0219800Y0342832D02*
X0260200Y0342832D01*
X0260200Y0342234D02*
X0219800Y0342234D01*
X0219800Y0341635D02*
X0260200Y0341635D01*
X0260200Y0341037D02*
X0219800Y0341037D01*
X0219800Y0340438D02*
X0260200Y0340438D01*
X0260200Y0339840D02*
X0219800Y0339840D01*
X0219800Y0339241D02*
X0260200Y0339241D01*
X0260200Y0338643D02*
X0219800Y0338643D01*
X0219800Y0338044D02*
X0260200Y0338044D01*
X0260200Y0337446D02*
X0219800Y0337446D01*
X0219800Y0336847D02*
X0260200Y0336847D01*
X0260200Y0336249D02*
X0219800Y0336249D01*
X0219800Y0335650D02*
X0260200Y0335650D01*
X0260200Y0335052D02*
X0219800Y0335052D01*
X0219800Y0334453D02*
X0260200Y0334453D01*
X0260200Y0333855D02*
X0219800Y0333855D01*
X0219800Y0333256D02*
X0260200Y0333256D01*
X0260200Y0332658D02*
X0219800Y0332658D01*
X0219800Y0332059D02*
X0260200Y0332059D01*
X0260200Y0331461D02*
X0219800Y0331461D01*
X0219800Y0330862D02*
X0260200Y0330862D01*
X0260200Y0330264D02*
X0219800Y0330264D01*
X0219800Y0329665D02*
X0260200Y0329665D01*
X0260200Y0329067D02*
X0219800Y0329067D01*
X0219800Y0328468D02*
X0260200Y0328468D01*
X0260200Y0327870D02*
X0219800Y0327870D01*
X0219800Y0327271D02*
X0260200Y0327271D01*
X0260200Y0326672D02*
X0219800Y0326672D01*
X0219800Y0326074D02*
X0260200Y0326074D01*
X0260200Y0325475D02*
X0219800Y0325475D01*
X0219800Y0324877D02*
X0260200Y0324877D01*
X0260200Y0324278D02*
X0219800Y0324278D01*
X0219800Y0323680D02*
X0260200Y0323680D01*
X0260200Y0323081D02*
X0219800Y0323081D01*
X0219800Y0322483D02*
X0260200Y0322483D01*
X0260200Y0321884D02*
X0219800Y0321884D01*
X0219800Y0321286D02*
X0260200Y0321286D01*
X0260200Y0320687D02*
X0219800Y0320687D01*
X0219800Y0320089D02*
X0260200Y0320089D01*
X0260200Y0319490D02*
X0219800Y0319490D01*
X0219800Y0318892D02*
X0260200Y0318892D01*
X0260200Y0318293D02*
X0219800Y0318293D01*
X0219800Y0317695D02*
X0260200Y0317695D01*
X0260200Y0317096D02*
X0219800Y0317096D01*
X0219800Y0316498D02*
X0260200Y0316498D01*
X0260200Y0315899D02*
X0219800Y0315899D01*
X0219800Y0315301D02*
X0260200Y0315301D01*
X0260200Y0314702D02*
X0219800Y0314702D01*
X0219800Y0314104D02*
X0260200Y0314104D01*
X0260200Y0313505D02*
X0219800Y0313505D01*
X0219800Y0312907D02*
X0260200Y0312907D01*
X0260200Y0312308D02*
X0219800Y0312308D01*
X0219800Y0311710D02*
X0260200Y0311710D01*
X0260200Y0311111D02*
X0219800Y0311111D01*
X0219800Y0310513D02*
X0260200Y0310513D01*
X0260200Y0309914D02*
X0219800Y0309914D01*
X0219800Y0309316D02*
X0260200Y0309316D01*
X0260200Y0308717D02*
X0219800Y0308717D01*
X0219800Y0308119D02*
X0242309Y0308119D01*
X0240864Y0307520D02*
X0219800Y0307520D01*
X0219800Y0306922D02*
X0240012Y0306922D01*
X0239414Y0306323D02*
X0219800Y0306323D01*
X0219800Y0305725D02*
X0238815Y0305725D01*
X0238476Y0305126D02*
X0219800Y0305126D01*
X0219800Y0304528D02*
X0238228Y0304528D01*
X0237980Y0303929D02*
X0219800Y0303929D01*
X0219800Y0303331D02*
X0237732Y0303331D01*
X0237700Y0302732D02*
X0219800Y0302732D01*
X0219800Y0302134D02*
X0237700Y0302134D01*
X0237700Y0301535D02*
X0219800Y0301535D01*
X0219800Y0300937D02*
X0237700Y0300937D01*
X0237869Y0300338D02*
X0219800Y0300338D01*
X0219800Y0299739D02*
X0238117Y0299739D01*
X0238365Y0299141D02*
X0219800Y0299141D01*
X0219800Y0298542D02*
X0238613Y0298542D01*
X0239147Y0297944D02*
X0219800Y0297944D01*
X0219800Y0297345D02*
X0239745Y0297345D01*
X0240344Y0296747D02*
X0219800Y0296747D01*
X0219800Y0296148D02*
X0240396Y0296148D01*
X0239797Y0295550D02*
X0219800Y0295550D01*
X0219800Y0294951D02*
X0239199Y0294951D01*
X0238600Y0294353D02*
X0219800Y0294353D01*
X0219800Y0293754D02*
X0238002Y0293754D01*
X0237403Y0293156D02*
X0219800Y0293156D01*
X0219800Y0292557D02*
X0236805Y0292557D01*
X0236206Y0291959D02*
X0219800Y0291959D01*
X0219800Y0291360D02*
X0235608Y0291360D01*
X0235009Y0290762D02*
X0219800Y0290762D01*
X0219800Y0290163D02*
X0234411Y0290163D01*
X0233812Y0289565D02*
X0219800Y0289565D01*
X0219800Y0288966D02*
X0233214Y0288966D01*
X0232615Y0288368D02*
X0219800Y0288368D01*
X0219800Y0287769D02*
X0232017Y0287769D01*
X0231418Y0287171D02*
X0219800Y0287171D01*
X0219800Y0286572D02*
X0230820Y0286572D01*
X0230221Y0285974D02*
X0219800Y0285974D01*
X0219800Y0285375D02*
X0229623Y0285375D01*
X0229024Y0284777D02*
X0219800Y0284777D01*
X0219800Y0284178D02*
X0228426Y0284178D01*
X0227827Y0283580D02*
X0219800Y0283580D01*
X0219800Y0282981D02*
X0227228Y0282981D01*
X0226630Y0282383D02*
X0219800Y0282383D01*
X0219800Y0281784D02*
X0226031Y0281784D01*
X0225433Y0281186D02*
X0219800Y0281186D01*
X0219800Y0280587D02*
X0224834Y0280587D01*
X0224236Y0279989D02*
X0219800Y0279989D01*
X0219800Y0279390D02*
X0223637Y0279390D01*
X0223039Y0278792D02*
X0219800Y0278792D01*
X0219800Y0278193D02*
X0222700Y0278193D01*
X0222700Y0277595D02*
X0219800Y0277595D01*
X0219800Y0276996D02*
X0222700Y0276996D01*
X0222700Y0276398D02*
X0219800Y0276398D01*
X0219800Y0275799D02*
X0222700Y0275799D01*
X0222700Y0275201D02*
X0219800Y0275201D01*
X0219800Y0274602D02*
X0222700Y0274602D01*
X0222700Y0274003D02*
X0219800Y0274003D01*
X0219800Y0273405D02*
X0222700Y0273405D01*
X0222700Y0272806D02*
X0219800Y0272806D01*
X0219800Y0272208D02*
X0222700Y0272208D01*
X0222700Y0271609D02*
X0219800Y0271609D01*
X0219800Y0271011D02*
X0222700Y0271011D01*
X0222700Y0270412D02*
X0219800Y0270412D01*
X0219800Y0269814D02*
X0222700Y0269814D01*
X0222700Y0269215D02*
X0219800Y0269215D01*
X0219800Y0268617D02*
X0222700Y0268617D01*
X0222700Y0268018D02*
X0219800Y0268018D01*
X0219800Y0267420D02*
X0222700Y0267420D01*
X0222700Y0266821D02*
X0219800Y0266821D01*
X0219800Y0266223D02*
X0222700Y0266223D01*
X0222700Y0265624D02*
X0219800Y0265624D01*
X0219800Y0265026D02*
X0222700Y0265026D01*
X0222700Y0264427D02*
X0219800Y0264427D01*
X0219800Y0263829D02*
X0222700Y0263829D01*
X0222700Y0263230D02*
X0219800Y0263230D01*
X0219800Y0262632D02*
X0222700Y0262632D01*
X0222700Y0262033D02*
X0219800Y0262033D01*
X0219800Y0261435D02*
X0222700Y0261435D01*
X0222700Y0260836D02*
X0219800Y0260836D01*
X0219800Y0260238D02*
X0222700Y0260238D01*
X0222700Y0259639D02*
X0219800Y0259639D01*
X0219881Y0259041D02*
X0222700Y0259041D01*
X0222700Y0258442D02*
X0220128Y0258442D01*
X0220289Y0257844D02*
X0222700Y0257844D01*
X0222700Y0257245D02*
X0220289Y0257245D01*
X0220165Y0256647D02*
X0222700Y0256647D01*
X0222700Y0256048D02*
X0219917Y0256048D01*
X0219394Y0255450D02*
X0222700Y0255450D01*
X0222700Y0254851D02*
X0218393Y0254851D01*
X0216607Y0254851D02*
X0208402Y0254851D01*
X0209000Y0254253D02*
X0222700Y0254253D01*
X0222700Y0253654D02*
X0209599Y0253654D01*
X0210197Y0253056D02*
X0222700Y0253056D01*
X0222700Y0252457D02*
X0210796Y0252457D01*
X0211394Y0251859D02*
X0222700Y0251859D01*
X0222700Y0251260D02*
X0211993Y0251260D01*
X0212591Y0250662D02*
X0222700Y0250662D01*
X0222700Y0250063D02*
X0213190Y0250063D01*
X0213788Y0249465D02*
X0222700Y0249465D01*
X0222700Y0248866D02*
X0214387Y0248866D01*
X0214985Y0248268D02*
X0222700Y0248268D01*
X0222700Y0247669D02*
X0215584Y0247669D01*
X0216182Y0247070D02*
X0222700Y0247070D01*
X0222700Y0246472D02*
X0216781Y0246472D01*
X0217379Y0245873D02*
X0222700Y0245873D01*
X0222700Y0245275D02*
X0217978Y0245275D01*
X0218576Y0244676D02*
X0222700Y0244676D01*
X0222700Y0244078D02*
X0219175Y0244078D01*
X0219773Y0243479D02*
X0222700Y0243479D01*
X0222700Y0242881D02*
X0220372Y0242881D01*
X0220970Y0242282D02*
X0222700Y0242282D01*
X0222700Y0241684D02*
X0221569Y0241684D01*
X0222167Y0241085D02*
X0222431Y0241085D01*
X0215606Y0255450D02*
X0207803Y0255450D01*
X0207205Y0256048D02*
X0215083Y0256048D01*
X0214835Y0256647D02*
X0206606Y0256647D01*
X0206007Y0257245D02*
X0214711Y0257245D01*
X0214711Y0257844D02*
X0205409Y0257844D01*
X0204810Y0258442D02*
X0214872Y0258442D01*
X0215119Y0259041D02*
X0204212Y0259041D01*
X0203613Y0259639D02*
X0215200Y0259639D01*
X0215200Y0260238D02*
X0203015Y0260238D01*
X0202416Y0260836D02*
X0215200Y0260836D01*
X0215200Y0261435D02*
X0201818Y0261435D01*
X0201219Y0262033D02*
X0215200Y0262033D01*
X0215200Y0262632D02*
X0200621Y0262632D01*
X0200022Y0263230D02*
X0215200Y0263230D01*
X0215200Y0263829D02*
X0199800Y0263829D01*
X0199800Y0264427D02*
X0215200Y0264427D01*
X0215200Y0265026D02*
X0199800Y0265026D01*
X0199800Y0265624D02*
X0215200Y0265624D01*
X0215200Y0266223D02*
X0199800Y0266223D01*
X0199800Y0266821D02*
X0215200Y0266821D01*
X0215200Y0267420D02*
X0199800Y0267420D01*
X0199800Y0268018D02*
X0215200Y0268018D01*
X0215200Y0268617D02*
X0199800Y0268617D01*
X0199800Y0269215D02*
X0215200Y0269215D01*
X0215200Y0269814D02*
X0199800Y0269814D01*
X0199800Y0270412D02*
X0215200Y0270412D01*
X0215200Y0271011D02*
X0199800Y0271011D01*
X0199800Y0271609D02*
X0215200Y0271609D01*
X0215200Y0272208D02*
X0199800Y0272208D01*
X0199800Y0272806D02*
X0215200Y0272806D01*
X0215200Y0273405D02*
X0199800Y0273405D01*
X0199800Y0274003D02*
X0215200Y0274003D01*
X0215200Y0274602D02*
X0199800Y0274602D01*
X0199800Y0275201D02*
X0215200Y0275201D01*
X0215200Y0275799D02*
X0199800Y0275799D01*
X0199800Y0276398D02*
X0215200Y0276398D01*
X0215200Y0276996D02*
X0199800Y0276996D01*
X0199800Y0277595D02*
X0215200Y0277595D01*
X0215200Y0278193D02*
X0199800Y0278193D01*
X0199800Y0278792D02*
X0215200Y0278792D01*
X0215200Y0279390D02*
X0199800Y0279390D01*
X0199800Y0279989D02*
X0215200Y0279989D01*
X0215200Y0280587D02*
X0199800Y0280587D01*
X0199974Y0281186D02*
X0215200Y0281186D01*
X0215200Y0281784D02*
X0200222Y0281784D01*
X0200289Y0282383D02*
X0215200Y0282383D01*
X0215200Y0282981D02*
X0200289Y0282981D01*
X0200072Y0283580D02*
X0215200Y0283580D01*
X0215200Y0284178D02*
X0199766Y0284178D01*
X0199167Y0284777D02*
X0215200Y0284777D01*
X0215200Y0285375D02*
X0182300Y0285375D01*
X0182300Y0284777D02*
X0195832Y0284777D01*
X0195234Y0284178D02*
X0182300Y0284178D01*
X0182300Y0283580D02*
X0194928Y0283580D01*
X0194711Y0282981D02*
X0182300Y0282981D01*
X0182300Y0282383D02*
X0194711Y0282383D01*
X0194778Y0281784D02*
X0182300Y0281784D01*
X0182300Y0281547D02*
X0182300Y0293356D01*
X0182364Y0293420D01*
X0182789Y0294445D01*
X0182789Y0295555D01*
X0182364Y0296580D01*
X0181580Y0297364D01*
X0180555Y0297789D01*
X0179445Y0297789D01*
X0178420Y0297364D01*
X0177636Y0296580D01*
X0177211Y0295555D01*
X0177211Y0294445D01*
X0177636Y0293420D01*
X0177700Y0293356D01*
X0177700Y0283453D01*
X0161047Y0266800D01*
X0153645Y0266800D01*
X0152064Y0266145D01*
X0150855Y0264936D01*
X0150200Y0263355D01*
X0150200Y0261645D01*
X0150855Y0260064D01*
X0152064Y0258855D01*
X0153645Y0258200D01*
X0161355Y0258200D01*
X0162936Y0258855D01*
X0164145Y0260064D01*
X0164800Y0261645D01*
X0164800Y0263355D01*
X0164597Y0263845D01*
X0182300Y0281547D01*
X0181938Y0281186D02*
X0195026Y0281186D01*
X0195200Y0280587D02*
X0181340Y0280587D01*
X0180741Y0279989D02*
X0195200Y0279989D01*
X0195200Y0279390D02*
X0180143Y0279390D01*
X0179544Y0278792D02*
X0195200Y0278792D01*
X0195200Y0278193D02*
X0178946Y0278193D01*
X0178347Y0277595D02*
X0195200Y0277595D01*
X0195200Y0276996D02*
X0177749Y0276996D01*
X0177150Y0276398D02*
X0195200Y0276398D01*
X0195200Y0275799D02*
X0176552Y0275799D01*
X0175953Y0275201D02*
X0195200Y0275201D01*
X0195200Y0274602D02*
X0175355Y0274602D01*
X0174756Y0274003D02*
X0195200Y0274003D01*
X0195200Y0273405D02*
X0174158Y0273405D01*
X0173559Y0272806D02*
X0195200Y0272806D01*
X0195200Y0272208D02*
X0172961Y0272208D01*
X0172362Y0271609D02*
X0195200Y0271609D01*
X0195200Y0271011D02*
X0171764Y0271011D01*
X0171165Y0270412D02*
X0195200Y0270412D01*
X0195200Y0269814D02*
X0170567Y0269814D01*
X0169968Y0269215D02*
X0195200Y0269215D01*
X0195200Y0268617D02*
X0169370Y0268617D01*
X0168771Y0268018D02*
X0195200Y0268018D01*
X0195200Y0267420D02*
X0168173Y0267420D01*
X0167574Y0266821D02*
X0195200Y0266821D01*
X0195200Y0266223D02*
X0166976Y0266223D01*
X0166377Y0265624D02*
X0195200Y0265624D01*
X0195200Y0265026D02*
X0165779Y0265026D01*
X0165180Y0264427D02*
X0195200Y0264427D01*
X0195200Y0263829D02*
X0164604Y0263829D01*
X0164800Y0263230D02*
X0195200Y0263230D01*
X0195200Y0262632D02*
X0164800Y0262632D01*
X0164800Y0262033D02*
X0195200Y0262033D01*
X0195313Y0261435D02*
X0164713Y0261435D01*
X0164465Y0260836D02*
X0195911Y0260836D01*
X0196510Y0260238D02*
X0164217Y0260238D01*
X0163720Y0259639D02*
X0197108Y0259639D01*
X0197707Y0259041D02*
X0163122Y0259041D01*
X0161940Y0258442D02*
X0198305Y0258442D01*
X0198904Y0257844D02*
X0146300Y0257844D01*
X0146300Y0258442D02*
X0153060Y0258442D01*
X0151878Y0259041D02*
X0146300Y0259041D01*
X0146300Y0259639D02*
X0151280Y0259639D01*
X0150783Y0260238D02*
X0146300Y0260238D01*
X0146300Y0260836D02*
X0150535Y0260836D01*
X0150287Y0261435D02*
X0146300Y0261435D01*
X0146300Y0262033D02*
X0150200Y0262033D01*
X0150200Y0262632D02*
X0146300Y0262632D01*
X0146300Y0263230D02*
X0150200Y0263230D01*
X0150396Y0263829D02*
X0146300Y0263829D01*
X0146300Y0264427D02*
X0150644Y0264427D01*
X0150945Y0265026D02*
X0146300Y0265026D01*
X0146300Y0265624D02*
X0151543Y0265624D01*
X0152251Y0266223D02*
X0146300Y0266223D01*
X0146300Y0266821D02*
X0161069Y0266821D01*
X0161667Y0267420D02*
X0146300Y0267420D01*
X0146300Y0268018D02*
X0162266Y0268018D01*
X0162151Y0268515D02*
X0162754Y0268822D01*
X0163301Y0269220D01*
X0163780Y0269699D01*
X0164178Y0270246D01*
X0164485Y0270849D01*
X0164694Y0271493D01*
X0164800Y0272162D01*
X0164800Y0272200D01*
X0157800Y0272200D01*
X0157800Y0272800D01*
X0157200Y0272800D01*
X0157200Y0276800D01*
X0154162Y0276800D01*
X0153493Y0276694D01*
X0152849Y0276485D01*
X0152246Y0276178D01*
X0151699Y0275780D01*
X0151220Y0275301D01*
X0150822Y0274754D01*
X0150515Y0274151D01*
X0150306Y0273507D01*
X0150200Y0272838D01*
X0150200Y0272800D01*
X0157200Y0272800D01*
X0157200Y0272200D01*
X0157800Y0272200D01*
X0157800Y0268200D01*
X0160838Y0268200D01*
X0161507Y0268306D01*
X0162151Y0268515D01*
X0162351Y0268617D02*
X0162864Y0268617D01*
X0163295Y0269215D02*
X0163463Y0269215D01*
X0163864Y0269814D02*
X0164061Y0269814D01*
X0164262Y0270412D02*
X0164660Y0270412D01*
X0164537Y0271011D02*
X0165258Y0271011D01*
X0164713Y0271609D02*
X0165857Y0271609D01*
X0166455Y0272208D02*
X0157800Y0272208D01*
X0157800Y0272800D02*
X0164800Y0272800D01*
X0164800Y0272838D01*
X0164694Y0273507D01*
X0164485Y0274151D01*
X0164178Y0274754D01*
X0163780Y0275301D01*
X0163301Y0275780D01*
X0162754Y0276178D01*
X0162151Y0276485D01*
X0161507Y0276694D01*
X0160838Y0276800D01*
X0157800Y0276800D01*
X0157800Y0272800D01*
X0157800Y0272806D02*
X0157200Y0272806D01*
X0157200Y0272208D02*
X0146300Y0272208D01*
X0146300Y0272806D02*
X0150200Y0272806D01*
X0150290Y0273405D02*
X0146300Y0273405D01*
X0146300Y0274003D02*
X0150467Y0274003D01*
X0150745Y0274602D02*
X0146300Y0274602D01*
X0146300Y0275201D02*
X0151147Y0275201D01*
X0151725Y0275799D02*
X0146300Y0275799D01*
X0146300Y0276398D02*
X0152678Y0276398D01*
X0157200Y0276398D02*
X0157800Y0276398D01*
X0157800Y0275799D02*
X0157200Y0275799D01*
X0157200Y0275201D02*
X0157800Y0275201D01*
X0157800Y0274602D02*
X0157200Y0274602D01*
X0157200Y0274003D02*
X0157800Y0274003D01*
X0157800Y0273405D02*
X0157200Y0273405D01*
X0157200Y0272200D02*
X0150200Y0272200D01*
X0150200Y0272162D01*
X0150306Y0271493D01*
X0150515Y0270849D01*
X0150822Y0270246D01*
X0151220Y0269699D01*
X0151699Y0269220D01*
X0152246Y0268822D01*
X0152849Y0268515D01*
X0153493Y0268306D01*
X0154162Y0268200D01*
X0157200Y0268200D01*
X0157200Y0272200D01*
X0157200Y0271609D02*
X0157800Y0271609D01*
X0157800Y0271011D02*
X0157200Y0271011D01*
X0157200Y0270412D02*
X0157800Y0270412D01*
X0157800Y0269814D02*
X0157200Y0269814D01*
X0157200Y0269215D02*
X0157800Y0269215D01*
X0157800Y0268617D02*
X0157200Y0268617D01*
X0152649Y0268617D02*
X0146300Y0268617D01*
X0146300Y0269215D02*
X0151705Y0269215D01*
X0151136Y0269814D02*
X0146300Y0269814D01*
X0146300Y0270412D02*
X0150738Y0270412D01*
X0150463Y0271011D02*
X0146300Y0271011D01*
X0146300Y0271609D02*
X0150287Y0271609D01*
X0146300Y0276996D02*
X0171243Y0276996D01*
X0170645Y0276398D02*
X0162322Y0276398D01*
X0163275Y0275799D02*
X0170046Y0275799D01*
X0169448Y0275201D02*
X0163853Y0275201D01*
X0164255Y0274602D02*
X0168849Y0274602D01*
X0168251Y0274003D02*
X0164533Y0274003D01*
X0164710Y0273405D02*
X0167652Y0273405D01*
X0167054Y0272806D02*
X0164800Y0272806D01*
X0171842Y0277595D02*
X0146300Y0277595D01*
X0146300Y0278193D02*
X0172440Y0278193D01*
X0173039Y0278792D02*
X0146300Y0278792D01*
X0146300Y0279390D02*
X0173637Y0279390D01*
X0174236Y0279989D02*
X0146300Y0279989D01*
X0146300Y0280587D02*
X0174834Y0280587D01*
X0175433Y0281186D02*
X0146300Y0281186D01*
X0146300Y0281784D02*
X0176031Y0281784D01*
X0176630Y0282383D02*
X0146300Y0282383D01*
X0146300Y0282981D02*
X0177228Y0282981D01*
X0177700Y0283580D02*
X0146300Y0283580D01*
X0146300Y0284178D02*
X0177700Y0284178D01*
X0177700Y0284777D02*
X0146300Y0284777D01*
X0146300Y0285375D02*
X0177700Y0285375D01*
X0177700Y0285974D02*
X0146300Y0285974D01*
X0146300Y0286572D02*
X0177700Y0286572D01*
X0177700Y0287171D02*
X0146300Y0287171D01*
X0146300Y0287769D02*
X0177700Y0287769D01*
X0177700Y0288368D02*
X0146300Y0288368D01*
X0146300Y0288966D02*
X0177700Y0288966D01*
X0177700Y0289565D02*
X0146300Y0289565D01*
X0146300Y0290163D02*
X0177700Y0290163D01*
X0177700Y0290762D02*
X0146300Y0290762D01*
X0146300Y0291360D02*
X0177700Y0291360D01*
X0177700Y0291959D02*
X0146300Y0291959D01*
X0146300Y0292557D02*
X0177700Y0292557D01*
X0177700Y0293156D02*
X0146300Y0293156D01*
X0146300Y0293754D02*
X0177497Y0293754D01*
X0177249Y0294353D02*
X0146300Y0294353D01*
X0146300Y0294951D02*
X0177211Y0294951D01*
X0177211Y0295550D02*
X0146300Y0295550D01*
X0146300Y0296148D02*
X0177457Y0296148D01*
X0177803Y0296747D02*
X0146300Y0296747D01*
X0146300Y0297345D02*
X0178401Y0297345D01*
X0181599Y0297345D02*
X0215200Y0297345D01*
X0215200Y0296747D02*
X0182197Y0296747D01*
X0182543Y0296148D02*
X0215200Y0296148D01*
X0215200Y0295550D02*
X0182789Y0295550D01*
X0182789Y0294951D02*
X0215200Y0294951D01*
X0215200Y0294353D02*
X0182751Y0294353D01*
X0182503Y0293754D02*
X0215200Y0293754D01*
X0215200Y0293156D02*
X0182300Y0293156D01*
X0182300Y0292557D02*
X0215200Y0292557D01*
X0215200Y0291959D02*
X0182300Y0291959D01*
X0182300Y0291360D02*
X0215200Y0291360D01*
X0215200Y0290762D02*
X0182300Y0290762D01*
X0182300Y0290163D02*
X0215200Y0290163D01*
X0215200Y0289565D02*
X0182300Y0289565D01*
X0182300Y0288966D02*
X0215200Y0288966D01*
X0215200Y0288368D02*
X0182300Y0288368D01*
X0182300Y0287769D02*
X0215200Y0287769D01*
X0215200Y0287171D02*
X0182300Y0287171D01*
X0182300Y0286572D02*
X0215200Y0286572D01*
X0215200Y0285974D02*
X0182300Y0285974D01*
X0185300Y0324575D02*
X0189552Y0324575D01*
X0190395Y0324709D01*
X0191207Y0324972D01*
X0191968Y0325360D01*
X0192659Y0325862D01*
X0193263Y0326466D01*
X0193765Y0327157D01*
X0194153Y0327918D01*
X0194416Y0328730D01*
X0194550Y0329573D01*
X0194550Y0329700D01*
X0185300Y0329700D01*
X0185300Y0324575D01*
X0185300Y0324877D02*
X0184700Y0324877D01*
X0184700Y0325475D02*
X0185300Y0325475D01*
X0185300Y0326074D02*
X0184700Y0326074D01*
X0184700Y0326672D02*
X0185300Y0326672D01*
X0185300Y0327271D02*
X0184700Y0327271D01*
X0184700Y0327870D02*
X0185300Y0327870D01*
X0185300Y0328468D02*
X0184700Y0328468D01*
X0184700Y0329067D02*
X0185300Y0329067D01*
X0185300Y0329665D02*
X0184700Y0329665D01*
X0184700Y0331461D02*
X0185300Y0331461D01*
X0185300Y0332059D02*
X0184700Y0332059D01*
X0184700Y0332658D02*
X0185300Y0332658D01*
X0185300Y0333256D02*
X0184700Y0333256D01*
X0184700Y0333855D02*
X0185300Y0333855D01*
X0185300Y0334453D02*
X0184700Y0334453D01*
X0184700Y0335052D02*
X0185300Y0335052D01*
X0190332Y0344628D02*
X0215200Y0344628D01*
X0215200Y0345226D02*
X0191777Y0345226D01*
X0192622Y0345825D02*
X0215200Y0345825D01*
X0215200Y0346423D02*
X0193220Y0346423D01*
X0193763Y0347022D02*
X0215200Y0347022D01*
X0215200Y0347620D02*
X0194011Y0347620D01*
X0194259Y0348219D02*
X0215200Y0348219D01*
X0215200Y0348817D02*
X0194507Y0348817D01*
X0194550Y0349416D02*
X0215200Y0349416D01*
X0215200Y0350014D02*
X0194550Y0350014D01*
X0194550Y0350613D02*
X0215200Y0350613D01*
X0215200Y0351211D02*
X0194495Y0351211D01*
X0194247Y0351810D02*
X0215200Y0351810D01*
X0215200Y0352408D02*
X0193999Y0352408D01*
X0193751Y0353007D02*
X0215200Y0353007D01*
X0215200Y0353605D02*
X0193192Y0353605D01*
X0192593Y0354204D02*
X0215200Y0354204D01*
X0215200Y0354803D02*
X0191707Y0354803D01*
X0190262Y0355401D02*
X0215200Y0355401D01*
X0215200Y0329665D02*
X0194550Y0329665D01*
X0194470Y0329067D02*
X0215200Y0329067D01*
X0215200Y0328468D02*
X0194331Y0328468D01*
X0194128Y0327870D02*
X0215200Y0327870D01*
X0215200Y0327271D02*
X0193823Y0327271D01*
X0193413Y0326672D02*
X0215200Y0326672D01*
X0215200Y0326074D02*
X0192871Y0326074D01*
X0192127Y0325475D02*
X0215200Y0325475D01*
X0215200Y0324877D02*
X0190914Y0324877D01*
X0215200Y0317096D02*
X0146300Y0317096D01*
X0146300Y0316498D02*
X0215200Y0316498D01*
X0215200Y0315899D02*
X0146300Y0315899D01*
X0146300Y0315301D02*
X0215200Y0315301D01*
X0215200Y0314702D02*
X0146300Y0314702D01*
X0146300Y0314104D02*
X0215200Y0314104D01*
X0215200Y0313505D02*
X0146300Y0313505D01*
X0146300Y0312907D02*
X0215200Y0312907D01*
X0215200Y0312308D02*
X0146300Y0312308D01*
X0146300Y0311710D02*
X0215200Y0311710D01*
X0215200Y0311111D02*
X0146300Y0311111D01*
X0146300Y0310513D02*
X0215200Y0310513D01*
X0215200Y0309914D02*
X0146300Y0309914D01*
X0146300Y0309316D02*
X0215200Y0309316D01*
X0215200Y0308717D02*
X0146300Y0308717D01*
X0146300Y0308119D02*
X0215200Y0308119D01*
X0215200Y0307520D02*
X0146300Y0307520D01*
X0146300Y0306922D02*
X0215200Y0306922D01*
X0215200Y0306323D02*
X0146300Y0306323D01*
X0146300Y0305725D02*
X0215200Y0305725D01*
X0215200Y0305126D02*
X0146300Y0305126D01*
X0146300Y0304528D02*
X0215200Y0304528D01*
X0215200Y0303929D02*
X0146300Y0303929D01*
X0146300Y0303331D02*
X0215200Y0303331D01*
X0215200Y0302732D02*
X0146300Y0302732D01*
X0146300Y0302134D02*
X0215200Y0302134D01*
X0215200Y0301535D02*
X0146300Y0301535D01*
X0146300Y0300937D02*
X0215200Y0300937D01*
X0215200Y0300338D02*
X0146300Y0300338D01*
X0146300Y0299739D02*
X0215200Y0299739D01*
X0215200Y0299141D02*
X0146300Y0299141D01*
X0146300Y0298542D02*
X0215200Y0298542D01*
X0215200Y0297944D02*
X0146300Y0297944D01*
X0146300Y0247669D02*
X0161578Y0247669D01*
X0151792Y0245873D02*
X0146300Y0245873D01*
X0146300Y0245275D02*
X0151194Y0245275D01*
X0150747Y0244676D02*
X0146300Y0244676D01*
X0146300Y0244078D02*
X0150499Y0244078D01*
X0150251Y0243479D02*
X0146300Y0243479D01*
X0146300Y0242881D02*
X0150200Y0242881D01*
X0150200Y0242282D02*
X0146300Y0242282D01*
X0146300Y0241684D02*
X0150200Y0241684D01*
X0150432Y0241085D02*
X0146300Y0241085D01*
X0146300Y0240487D02*
X0150680Y0240487D01*
X0151031Y0239888D02*
X0146300Y0239888D01*
X0146300Y0239290D02*
X0151629Y0239290D01*
X0152459Y0238691D02*
X0146300Y0238691D01*
X0146300Y0238093D02*
X0158655Y0238093D01*
X0159253Y0237494D02*
X0146300Y0237494D01*
X0146300Y0236896D02*
X0159852Y0236896D01*
X0160450Y0236297D02*
X0146300Y0236297D01*
X0146300Y0235699D02*
X0161049Y0235699D01*
X0255691Y0308119D02*
X0260200Y0308119D01*
X0260200Y0307520D02*
X0257136Y0307520D01*
X0257988Y0306922D02*
X0260200Y0306922D01*
X0260200Y0306323D02*
X0258586Y0306323D01*
X0259185Y0305725D02*
X0260200Y0305725D01*
X0260200Y0305126D02*
X0259524Y0305126D01*
X0259772Y0304528D02*
X0260200Y0304528D01*
X0260200Y0303929D02*
X0260020Y0303929D01*
X0285797Y0385925D02*
X0427203Y0385925D01*
X0425758Y0386524D02*
X0287242Y0386524D01*
X0288032Y0387122D02*
X0424968Y0387122D01*
X0424370Y0387721D02*
X0288630Y0387721D01*
X0289229Y0388319D02*
X0423771Y0388319D01*
X0423458Y0388918D02*
X0289542Y0388918D01*
X0289790Y0389516D02*
X0423210Y0389516D01*
X0422962Y0390115D02*
X0290038Y0390115D01*
X0290286Y0390713D02*
X0422714Y0390713D01*
X0422700Y0391312D02*
X0290300Y0391312D01*
X0290300Y0391910D02*
X0422700Y0391910D01*
X0422700Y0392509D02*
X0290300Y0392509D01*
X0290300Y0393107D02*
X0422700Y0393107D01*
X0422887Y0393706D02*
X0290113Y0393706D01*
X0289865Y0394304D02*
X0423135Y0394304D01*
X0423383Y0394903D02*
X0289617Y0394903D01*
X0289369Y0395501D02*
X0423631Y0395501D01*
X0424190Y0396100D02*
X0288810Y0396100D01*
X0288211Y0396698D02*
X0424789Y0396698D01*
X0425387Y0397297D02*
X0287613Y0397297D01*
X0286230Y0397895D02*
X0426770Y0397895D01*
X0444262Y0455352D02*
X0453664Y0455352D01*
X0452234Y0455951D02*
X0444556Y0455951D01*
X0444804Y0456549D02*
X0451635Y0456549D01*
X0451037Y0457148D02*
X0445052Y0457148D01*
X0445300Y0457746D02*
X0450438Y0457746D01*
X0449931Y0458345D02*
X0445300Y0458345D01*
X0445300Y0458943D02*
X0449683Y0458943D01*
X0449435Y0459542D02*
X0445300Y0459542D01*
X0445300Y0460141D02*
X0449187Y0460141D01*
X0448939Y0460739D02*
X0445099Y0460739D01*
X0444851Y0461338D02*
X0448779Y0461338D01*
X0448779Y0461936D02*
X0444603Y0461936D01*
X0444355Y0462535D02*
X0448779Y0462535D01*
X0448779Y0463133D02*
X0443776Y0463133D01*
X0443178Y0463732D02*
X0448779Y0463732D01*
X0448789Y0464330D02*
X0442579Y0464330D01*
X0279300Y0464330D02*
X0278700Y0464330D01*
X0278700Y0463732D02*
X0279300Y0463732D01*
X0279300Y0463133D02*
X0278700Y0463133D01*
X0278700Y0462535D02*
X0279300Y0462535D01*
X0279300Y0461936D02*
X0278700Y0461936D01*
X0278700Y0461338D02*
X0279300Y0461338D01*
X0279300Y0460739D02*
X0278700Y0460739D01*
X0278700Y0460141D02*
X0279300Y0460141D01*
X0279300Y0459542D02*
X0278700Y0459542D01*
X0278700Y0457746D02*
X0279300Y0457746D01*
X0279300Y0457148D02*
X0278700Y0457148D01*
X0278700Y0456549D02*
X0279300Y0456549D01*
X0279300Y0455951D02*
X0278700Y0455951D01*
X0278700Y0455352D02*
X0279300Y0455352D01*
X0279300Y0454754D02*
X0278700Y0454754D01*
X0278700Y0454155D02*
X0279300Y0454155D01*
X0279300Y0453557D02*
X0278700Y0453557D01*
X0278700Y0452958D02*
X0279300Y0452958D01*
X0279300Y0464929D02*
X0278700Y0464929D01*
X0271859Y0464929D02*
X0165294Y0464929D01*
X0165542Y0464330D02*
X0270618Y0464330D01*
X0269822Y0463732D02*
X0165552Y0463732D01*
X0165552Y0463133D02*
X0269224Y0463133D01*
X0268781Y0462535D02*
X0165552Y0462535D01*
X0165552Y0461936D02*
X0268425Y0461936D01*
X0268135Y0461338D02*
X0165552Y0461338D01*
X0165391Y0460739D02*
X0267941Y0460739D01*
X0267802Y0460141D02*
X0165143Y0460141D01*
X0164896Y0459542D02*
X0267707Y0459542D01*
X0185300Y0415252D02*
X0184700Y0415252D01*
X0184700Y0414654D02*
X0185300Y0414654D01*
X0185300Y0414055D02*
X0184700Y0414055D01*
X0184700Y0413457D02*
X0185300Y0413457D01*
X0185300Y0412858D02*
X0184700Y0412858D01*
X0184700Y0412260D02*
X0185300Y0412260D01*
X0185300Y0411661D02*
X0184700Y0411661D01*
X0184700Y0411063D02*
X0185300Y0411063D01*
X0185300Y0410464D02*
X0184700Y0410464D01*
X0184700Y0408669D02*
X0185300Y0408669D01*
X0185300Y0408070D02*
X0184700Y0408070D01*
X0184700Y0407472D02*
X0185300Y0407472D01*
X0185300Y0406873D02*
X0184700Y0406873D01*
X0184700Y0406274D02*
X0185300Y0406274D01*
X0185300Y0405676D02*
X0184700Y0405676D01*
X0184700Y0405077D02*
X0185300Y0405077D01*
D15*
X0212500Y0365000D03*
X0220000Y0415000D03*
X0215000Y0441319D03*
X0180000Y0320000D03*
X0180000Y0295000D03*
X0197500Y0282500D03*
X0217500Y0257500D03*
X0225000Y0240000D03*
X0252500Y0242500D03*
X0190000Y0240000D03*
X0187500Y0212500D03*
M02*
