G75*
%MOIN*%
%OFA0B0*%
%FSLAX25Y25*%
%IPPOS*%
%LPD*%
%AMOC8*
5,1,8,0,0,1.08239X$1,22.5*
%
%ADD10C,0.14186*%
%ADD11C,0.10800*%
%ADD12C,0.09050*%
%ADD13C,0.06800*%
%ADD14C,0.03778*%
D10*
X0157559Y0206811D03*
X0157559Y0462717D03*
X0456772Y0462717D03*
X0456772Y0206811D03*
D11*
X0439531Y0214500D02*
X0429531Y0214500D01*
X0429531Y0281500D02*
X0439531Y0281500D01*
X0409000Y0302000D02*
X0399000Y0302000D01*
X0399000Y0369000D02*
X0409000Y0369000D01*
X0429000Y0392000D02*
X0439000Y0392000D01*
X0439000Y0459000D02*
X0429000Y0459000D01*
X0284000Y0459000D02*
X0274000Y0459000D01*
X0274000Y0392000D02*
X0284000Y0392000D01*
X0254000Y0369000D02*
X0244000Y0369000D01*
X0244000Y0302000D02*
X0254000Y0302000D01*
X0274531Y0281500D02*
X0284531Y0281500D01*
X0284531Y0214500D02*
X0274531Y0214500D01*
D12*
X0189125Y0330000D02*
X0180875Y0330000D01*
X0180875Y0350000D02*
X0189125Y0350000D01*
X0189125Y0370000D02*
X0180875Y0370000D01*
X0180875Y0390000D02*
X0189125Y0390000D01*
X0189125Y0410000D02*
X0180875Y0410000D01*
X0180875Y0430000D02*
X0189125Y0430000D01*
X0425875Y0365000D02*
X0434125Y0365000D01*
X0434125Y0345000D02*
X0425875Y0345000D01*
D13*
X0160500Y0272500D02*
X0154500Y0272500D01*
X0154500Y0262500D02*
X0160500Y0262500D01*
X0160500Y0252500D02*
X0154500Y0252500D01*
X0154500Y0242500D02*
X0160500Y0242500D01*
D14*
X0187500Y0212500D03*
X0190000Y0240000D03*
X0217500Y0257500D03*
X0225000Y0240000D03*
X0252500Y0242500D03*
X0197500Y0282500D03*
X0180000Y0295000D03*
X0180000Y0320000D03*
X0212500Y0365000D03*
X0220000Y0415000D03*
X0215000Y0441319D03*
M02*
