%
M48
M72
T01C0.01378
T02C0.04000
T03C0.05500
T04C0.06000
T05C0.13386
%
T01
X187500Y212500
X190000Y240000
X217500Y257500
X225000Y240000
X252500Y242500
X197500Y282500
X180000Y295000
X180000Y320000
X212500Y365000
X220000Y415000
X215000Y441319
T02
X157500Y272500
X157500Y262500
X157500Y252500
X157500Y242500
T03
X185000Y330000
X185000Y350000
X185000Y370000
X185000Y390000
X185000Y410000
X185000Y430000
X430000Y365000
X430000Y345000
T04
X404000Y369000
X434000Y392000
X434000Y459000
X404000Y302000
X434531Y281500
X434531Y214500
X279531Y214500
X279531Y281500
X249000Y302000
X249000Y369000
X279000Y392000
X279000Y459000
T05
X157559Y206811
X157559Y462717
X456772Y462717
X456772Y206811
M30
