G75*
%MOIN*%
%OFA0B0*%
%FSLAX25Y25*%
%IPPOS*%
%LPD*%
%AMOC8*
5,1,8,0,0,1.08239X$1,22.5*
%
%ADD10C,0.00000*%
%ADD11C,0.00512*%
%ADD12C,0.00600*%
D10*
X0145000Y0195000D02*
X0145000Y0473701D01*
X0469921Y0473701D01*
X0469921Y0195000D01*
X0145000Y0195000D01*
X0150866Y0206811D02*
X0150868Y0206975D01*
X0150874Y0207139D01*
X0150884Y0207303D01*
X0150898Y0207467D01*
X0150916Y0207630D01*
X0150938Y0207793D01*
X0150965Y0207955D01*
X0150995Y0208117D01*
X0151029Y0208277D01*
X0151067Y0208437D01*
X0151108Y0208596D01*
X0151154Y0208754D01*
X0151204Y0208910D01*
X0151257Y0209066D01*
X0151314Y0209220D01*
X0151375Y0209372D01*
X0151440Y0209523D01*
X0151509Y0209673D01*
X0151581Y0209820D01*
X0151656Y0209966D01*
X0151736Y0210110D01*
X0151818Y0210252D01*
X0151904Y0210392D01*
X0151994Y0210529D01*
X0152087Y0210665D01*
X0152183Y0210798D01*
X0152283Y0210929D01*
X0152385Y0211057D01*
X0152491Y0211183D01*
X0152600Y0211306D01*
X0152712Y0211426D01*
X0152826Y0211544D01*
X0152944Y0211658D01*
X0153064Y0211770D01*
X0153187Y0211879D01*
X0153313Y0211985D01*
X0153441Y0212087D01*
X0153572Y0212187D01*
X0153705Y0212283D01*
X0153841Y0212376D01*
X0153978Y0212466D01*
X0154118Y0212552D01*
X0154260Y0212634D01*
X0154404Y0212714D01*
X0154550Y0212789D01*
X0154697Y0212861D01*
X0154847Y0212930D01*
X0154998Y0212995D01*
X0155150Y0213056D01*
X0155304Y0213113D01*
X0155460Y0213166D01*
X0155616Y0213216D01*
X0155774Y0213262D01*
X0155933Y0213303D01*
X0156093Y0213341D01*
X0156253Y0213375D01*
X0156415Y0213405D01*
X0156577Y0213432D01*
X0156740Y0213454D01*
X0156903Y0213472D01*
X0157067Y0213486D01*
X0157231Y0213496D01*
X0157395Y0213502D01*
X0157559Y0213504D01*
X0157723Y0213502D01*
X0157887Y0213496D01*
X0158051Y0213486D01*
X0158215Y0213472D01*
X0158378Y0213454D01*
X0158541Y0213432D01*
X0158703Y0213405D01*
X0158865Y0213375D01*
X0159025Y0213341D01*
X0159185Y0213303D01*
X0159344Y0213262D01*
X0159502Y0213216D01*
X0159658Y0213166D01*
X0159814Y0213113D01*
X0159968Y0213056D01*
X0160120Y0212995D01*
X0160271Y0212930D01*
X0160421Y0212861D01*
X0160568Y0212789D01*
X0160714Y0212714D01*
X0160858Y0212634D01*
X0161000Y0212552D01*
X0161140Y0212466D01*
X0161277Y0212376D01*
X0161413Y0212283D01*
X0161546Y0212187D01*
X0161677Y0212087D01*
X0161805Y0211985D01*
X0161931Y0211879D01*
X0162054Y0211770D01*
X0162174Y0211658D01*
X0162292Y0211544D01*
X0162406Y0211426D01*
X0162518Y0211306D01*
X0162627Y0211183D01*
X0162733Y0211057D01*
X0162835Y0210929D01*
X0162935Y0210798D01*
X0163031Y0210665D01*
X0163124Y0210529D01*
X0163214Y0210392D01*
X0163300Y0210252D01*
X0163382Y0210110D01*
X0163462Y0209966D01*
X0163537Y0209820D01*
X0163609Y0209673D01*
X0163678Y0209523D01*
X0163743Y0209372D01*
X0163804Y0209220D01*
X0163861Y0209066D01*
X0163914Y0208910D01*
X0163964Y0208754D01*
X0164010Y0208596D01*
X0164051Y0208437D01*
X0164089Y0208277D01*
X0164123Y0208117D01*
X0164153Y0207955D01*
X0164180Y0207793D01*
X0164202Y0207630D01*
X0164220Y0207467D01*
X0164234Y0207303D01*
X0164244Y0207139D01*
X0164250Y0206975D01*
X0164252Y0206811D01*
X0164250Y0206647D01*
X0164244Y0206483D01*
X0164234Y0206319D01*
X0164220Y0206155D01*
X0164202Y0205992D01*
X0164180Y0205829D01*
X0164153Y0205667D01*
X0164123Y0205505D01*
X0164089Y0205345D01*
X0164051Y0205185D01*
X0164010Y0205026D01*
X0163964Y0204868D01*
X0163914Y0204712D01*
X0163861Y0204556D01*
X0163804Y0204402D01*
X0163743Y0204250D01*
X0163678Y0204099D01*
X0163609Y0203949D01*
X0163537Y0203802D01*
X0163462Y0203656D01*
X0163382Y0203512D01*
X0163300Y0203370D01*
X0163214Y0203230D01*
X0163124Y0203093D01*
X0163031Y0202957D01*
X0162935Y0202824D01*
X0162835Y0202693D01*
X0162733Y0202565D01*
X0162627Y0202439D01*
X0162518Y0202316D01*
X0162406Y0202196D01*
X0162292Y0202078D01*
X0162174Y0201964D01*
X0162054Y0201852D01*
X0161931Y0201743D01*
X0161805Y0201637D01*
X0161677Y0201535D01*
X0161546Y0201435D01*
X0161413Y0201339D01*
X0161277Y0201246D01*
X0161140Y0201156D01*
X0161000Y0201070D01*
X0160858Y0200988D01*
X0160714Y0200908D01*
X0160568Y0200833D01*
X0160421Y0200761D01*
X0160271Y0200692D01*
X0160120Y0200627D01*
X0159968Y0200566D01*
X0159814Y0200509D01*
X0159658Y0200456D01*
X0159502Y0200406D01*
X0159344Y0200360D01*
X0159185Y0200319D01*
X0159025Y0200281D01*
X0158865Y0200247D01*
X0158703Y0200217D01*
X0158541Y0200190D01*
X0158378Y0200168D01*
X0158215Y0200150D01*
X0158051Y0200136D01*
X0157887Y0200126D01*
X0157723Y0200120D01*
X0157559Y0200118D01*
X0157395Y0200120D01*
X0157231Y0200126D01*
X0157067Y0200136D01*
X0156903Y0200150D01*
X0156740Y0200168D01*
X0156577Y0200190D01*
X0156415Y0200217D01*
X0156253Y0200247D01*
X0156093Y0200281D01*
X0155933Y0200319D01*
X0155774Y0200360D01*
X0155616Y0200406D01*
X0155460Y0200456D01*
X0155304Y0200509D01*
X0155150Y0200566D01*
X0154998Y0200627D01*
X0154847Y0200692D01*
X0154697Y0200761D01*
X0154550Y0200833D01*
X0154404Y0200908D01*
X0154260Y0200988D01*
X0154118Y0201070D01*
X0153978Y0201156D01*
X0153841Y0201246D01*
X0153705Y0201339D01*
X0153572Y0201435D01*
X0153441Y0201535D01*
X0153313Y0201637D01*
X0153187Y0201743D01*
X0153064Y0201852D01*
X0152944Y0201964D01*
X0152826Y0202078D01*
X0152712Y0202196D01*
X0152600Y0202316D01*
X0152491Y0202439D01*
X0152385Y0202565D01*
X0152283Y0202693D01*
X0152183Y0202824D01*
X0152087Y0202957D01*
X0151994Y0203093D01*
X0151904Y0203230D01*
X0151818Y0203370D01*
X0151736Y0203512D01*
X0151656Y0203656D01*
X0151581Y0203802D01*
X0151509Y0203949D01*
X0151440Y0204099D01*
X0151375Y0204250D01*
X0151314Y0204402D01*
X0151257Y0204556D01*
X0151204Y0204712D01*
X0151154Y0204868D01*
X0151108Y0205026D01*
X0151067Y0205185D01*
X0151029Y0205345D01*
X0150995Y0205505D01*
X0150965Y0205667D01*
X0150938Y0205829D01*
X0150916Y0205992D01*
X0150898Y0206155D01*
X0150884Y0206319D01*
X0150874Y0206483D01*
X0150868Y0206647D01*
X0150866Y0206811D01*
X0150866Y0462717D02*
X0150868Y0462881D01*
X0150874Y0463045D01*
X0150884Y0463209D01*
X0150898Y0463373D01*
X0150916Y0463536D01*
X0150938Y0463699D01*
X0150965Y0463861D01*
X0150995Y0464023D01*
X0151029Y0464183D01*
X0151067Y0464343D01*
X0151108Y0464502D01*
X0151154Y0464660D01*
X0151204Y0464816D01*
X0151257Y0464972D01*
X0151314Y0465126D01*
X0151375Y0465278D01*
X0151440Y0465429D01*
X0151509Y0465579D01*
X0151581Y0465726D01*
X0151656Y0465872D01*
X0151736Y0466016D01*
X0151818Y0466158D01*
X0151904Y0466298D01*
X0151994Y0466435D01*
X0152087Y0466571D01*
X0152183Y0466704D01*
X0152283Y0466835D01*
X0152385Y0466963D01*
X0152491Y0467089D01*
X0152600Y0467212D01*
X0152712Y0467332D01*
X0152826Y0467450D01*
X0152944Y0467564D01*
X0153064Y0467676D01*
X0153187Y0467785D01*
X0153313Y0467891D01*
X0153441Y0467993D01*
X0153572Y0468093D01*
X0153705Y0468189D01*
X0153841Y0468282D01*
X0153978Y0468372D01*
X0154118Y0468458D01*
X0154260Y0468540D01*
X0154404Y0468620D01*
X0154550Y0468695D01*
X0154697Y0468767D01*
X0154847Y0468836D01*
X0154998Y0468901D01*
X0155150Y0468962D01*
X0155304Y0469019D01*
X0155460Y0469072D01*
X0155616Y0469122D01*
X0155774Y0469168D01*
X0155933Y0469209D01*
X0156093Y0469247D01*
X0156253Y0469281D01*
X0156415Y0469311D01*
X0156577Y0469338D01*
X0156740Y0469360D01*
X0156903Y0469378D01*
X0157067Y0469392D01*
X0157231Y0469402D01*
X0157395Y0469408D01*
X0157559Y0469410D01*
X0157723Y0469408D01*
X0157887Y0469402D01*
X0158051Y0469392D01*
X0158215Y0469378D01*
X0158378Y0469360D01*
X0158541Y0469338D01*
X0158703Y0469311D01*
X0158865Y0469281D01*
X0159025Y0469247D01*
X0159185Y0469209D01*
X0159344Y0469168D01*
X0159502Y0469122D01*
X0159658Y0469072D01*
X0159814Y0469019D01*
X0159968Y0468962D01*
X0160120Y0468901D01*
X0160271Y0468836D01*
X0160421Y0468767D01*
X0160568Y0468695D01*
X0160714Y0468620D01*
X0160858Y0468540D01*
X0161000Y0468458D01*
X0161140Y0468372D01*
X0161277Y0468282D01*
X0161413Y0468189D01*
X0161546Y0468093D01*
X0161677Y0467993D01*
X0161805Y0467891D01*
X0161931Y0467785D01*
X0162054Y0467676D01*
X0162174Y0467564D01*
X0162292Y0467450D01*
X0162406Y0467332D01*
X0162518Y0467212D01*
X0162627Y0467089D01*
X0162733Y0466963D01*
X0162835Y0466835D01*
X0162935Y0466704D01*
X0163031Y0466571D01*
X0163124Y0466435D01*
X0163214Y0466298D01*
X0163300Y0466158D01*
X0163382Y0466016D01*
X0163462Y0465872D01*
X0163537Y0465726D01*
X0163609Y0465579D01*
X0163678Y0465429D01*
X0163743Y0465278D01*
X0163804Y0465126D01*
X0163861Y0464972D01*
X0163914Y0464816D01*
X0163964Y0464660D01*
X0164010Y0464502D01*
X0164051Y0464343D01*
X0164089Y0464183D01*
X0164123Y0464023D01*
X0164153Y0463861D01*
X0164180Y0463699D01*
X0164202Y0463536D01*
X0164220Y0463373D01*
X0164234Y0463209D01*
X0164244Y0463045D01*
X0164250Y0462881D01*
X0164252Y0462717D01*
X0164250Y0462553D01*
X0164244Y0462389D01*
X0164234Y0462225D01*
X0164220Y0462061D01*
X0164202Y0461898D01*
X0164180Y0461735D01*
X0164153Y0461573D01*
X0164123Y0461411D01*
X0164089Y0461251D01*
X0164051Y0461091D01*
X0164010Y0460932D01*
X0163964Y0460774D01*
X0163914Y0460618D01*
X0163861Y0460462D01*
X0163804Y0460308D01*
X0163743Y0460156D01*
X0163678Y0460005D01*
X0163609Y0459855D01*
X0163537Y0459708D01*
X0163462Y0459562D01*
X0163382Y0459418D01*
X0163300Y0459276D01*
X0163214Y0459136D01*
X0163124Y0458999D01*
X0163031Y0458863D01*
X0162935Y0458730D01*
X0162835Y0458599D01*
X0162733Y0458471D01*
X0162627Y0458345D01*
X0162518Y0458222D01*
X0162406Y0458102D01*
X0162292Y0457984D01*
X0162174Y0457870D01*
X0162054Y0457758D01*
X0161931Y0457649D01*
X0161805Y0457543D01*
X0161677Y0457441D01*
X0161546Y0457341D01*
X0161413Y0457245D01*
X0161277Y0457152D01*
X0161140Y0457062D01*
X0161000Y0456976D01*
X0160858Y0456894D01*
X0160714Y0456814D01*
X0160568Y0456739D01*
X0160421Y0456667D01*
X0160271Y0456598D01*
X0160120Y0456533D01*
X0159968Y0456472D01*
X0159814Y0456415D01*
X0159658Y0456362D01*
X0159502Y0456312D01*
X0159344Y0456266D01*
X0159185Y0456225D01*
X0159025Y0456187D01*
X0158865Y0456153D01*
X0158703Y0456123D01*
X0158541Y0456096D01*
X0158378Y0456074D01*
X0158215Y0456056D01*
X0158051Y0456042D01*
X0157887Y0456032D01*
X0157723Y0456026D01*
X0157559Y0456024D01*
X0157395Y0456026D01*
X0157231Y0456032D01*
X0157067Y0456042D01*
X0156903Y0456056D01*
X0156740Y0456074D01*
X0156577Y0456096D01*
X0156415Y0456123D01*
X0156253Y0456153D01*
X0156093Y0456187D01*
X0155933Y0456225D01*
X0155774Y0456266D01*
X0155616Y0456312D01*
X0155460Y0456362D01*
X0155304Y0456415D01*
X0155150Y0456472D01*
X0154998Y0456533D01*
X0154847Y0456598D01*
X0154697Y0456667D01*
X0154550Y0456739D01*
X0154404Y0456814D01*
X0154260Y0456894D01*
X0154118Y0456976D01*
X0153978Y0457062D01*
X0153841Y0457152D01*
X0153705Y0457245D01*
X0153572Y0457341D01*
X0153441Y0457441D01*
X0153313Y0457543D01*
X0153187Y0457649D01*
X0153064Y0457758D01*
X0152944Y0457870D01*
X0152826Y0457984D01*
X0152712Y0458102D01*
X0152600Y0458222D01*
X0152491Y0458345D01*
X0152385Y0458471D01*
X0152283Y0458599D01*
X0152183Y0458730D01*
X0152087Y0458863D01*
X0151994Y0458999D01*
X0151904Y0459136D01*
X0151818Y0459276D01*
X0151736Y0459418D01*
X0151656Y0459562D01*
X0151581Y0459708D01*
X0151509Y0459855D01*
X0151440Y0460005D01*
X0151375Y0460156D01*
X0151314Y0460308D01*
X0151257Y0460462D01*
X0151204Y0460618D01*
X0151154Y0460774D01*
X0151108Y0460932D01*
X0151067Y0461091D01*
X0151029Y0461251D01*
X0150995Y0461411D01*
X0150965Y0461573D01*
X0150938Y0461735D01*
X0150916Y0461898D01*
X0150898Y0462061D01*
X0150884Y0462225D01*
X0150874Y0462389D01*
X0150868Y0462553D01*
X0150866Y0462717D01*
X0450079Y0462717D02*
X0450081Y0462881D01*
X0450087Y0463045D01*
X0450097Y0463209D01*
X0450111Y0463373D01*
X0450129Y0463536D01*
X0450151Y0463699D01*
X0450178Y0463861D01*
X0450208Y0464023D01*
X0450242Y0464183D01*
X0450280Y0464343D01*
X0450321Y0464502D01*
X0450367Y0464660D01*
X0450417Y0464816D01*
X0450470Y0464972D01*
X0450527Y0465126D01*
X0450588Y0465278D01*
X0450653Y0465429D01*
X0450722Y0465579D01*
X0450794Y0465726D01*
X0450869Y0465872D01*
X0450949Y0466016D01*
X0451031Y0466158D01*
X0451117Y0466298D01*
X0451207Y0466435D01*
X0451300Y0466571D01*
X0451396Y0466704D01*
X0451496Y0466835D01*
X0451598Y0466963D01*
X0451704Y0467089D01*
X0451813Y0467212D01*
X0451925Y0467332D01*
X0452039Y0467450D01*
X0452157Y0467564D01*
X0452277Y0467676D01*
X0452400Y0467785D01*
X0452526Y0467891D01*
X0452654Y0467993D01*
X0452785Y0468093D01*
X0452918Y0468189D01*
X0453054Y0468282D01*
X0453191Y0468372D01*
X0453331Y0468458D01*
X0453473Y0468540D01*
X0453617Y0468620D01*
X0453763Y0468695D01*
X0453910Y0468767D01*
X0454060Y0468836D01*
X0454211Y0468901D01*
X0454363Y0468962D01*
X0454517Y0469019D01*
X0454673Y0469072D01*
X0454829Y0469122D01*
X0454987Y0469168D01*
X0455146Y0469209D01*
X0455306Y0469247D01*
X0455466Y0469281D01*
X0455628Y0469311D01*
X0455790Y0469338D01*
X0455953Y0469360D01*
X0456116Y0469378D01*
X0456280Y0469392D01*
X0456444Y0469402D01*
X0456608Y0469408D01*
X0456772Y0469410D01*
X0456936Y0469408D01*
X0457100Y0469402D01*
X0457264Y0469392D01*
X0457428Y0469378D01*
X0457591Y0469360D01*
X0457754Y0469338D01*
X0457916Y0469311D01*
X0458078Y0469281D01*
X0458238Y0469247D01*
X0458398Y0469209D01*
X0458557Y0469168D01*
X0458715Y0469122D01*
X0458871Y0469072D01*
X0459027Y0469019D01*
X0459181Y0468962D01*
X0459333Y0468901D01*
X0459484Y0468836D01*
X0459634Y0468767D01*
X0459781Y0468695D01*
X0459927Y0468620D01*
X0460071Y0468540D01*
X0460213Y0468458D01*
X0460353Y0468372D01*
X0460490Y0468282D01*
X0460626Y0468189D01*
X0460759Y0468093D01*
X0460890Y0467993D01*
X0461018Y0467891D01*
X0461144Y0467785D01*
X0461267Y0467676D01*
X0461387Y0467564D01*
X0461505Y0467450D01*
X0461619Y0467332D01*
X0461731Y0467212D01*
X0461840Y0467089D01*
X0461946Y0466963D01*
X0462048Y0466835D01*
X0462148Y0466704D01*
X0462244Y0466571D01*
X0462337Y0466435D01*
X0462427Y0466298D01*
X0462513Y0466158D01*
X0462595Y0466016D01*
X0462675Y0465872D01*
X0462750Y0465726D01*
X0462822Y0465579D01*
X0462891Y0465429D01*
X0462956Y0465278D01*
X0463017Y0465126D01*
X0463074Y0464972D01*
X0463127Y0464816D01*
X0463177Y0464660D01*
X0463223Y0464502D01*
X0463264Y0464343D01*
X0463302Y0464183D01*
X0463336Y0464023D01*
X0463366Y0463861D01*
X0463393Y0463699D01*
X0463415Y0463536D01*
X0463433Y0463373D01*
X0463447Y0463209D01*
X0463457Y0463045D01*
X0463463Y0462881D01*
X0463465Y0462717D01*
X0463463Y0462553D01*
X0463457Y0462389D01*
X0463447Y0462225D01*
X0463433Y0462061D01*
X0463415Y0461898D01*
X0463393Y0461735D01*
X0463366Y0461573D01*
X0463336Y0461411D01*
X0463302Y0461251D01*
X0463264Y0461091D01*
X0463223Y0460932D01*
X0463177Y0460774D01*
X0463127Y0460618D01*
X0463074Y0460462D01*
X0463017Y0460308D01*
X0462956Y0460156D01*
X0462891Y0460005D01*
X0462822Y0459855D01*
X0462750Y0459708D01*
X0462675Y0459562D01*
X0462595Y0459418D01*
X0462513Y0459276D01*
X0462427Y0459136D01*
X0462337Y0458999D01*
X0462244Y0458863D01*
X0462148Y0458730D01*
X0462048Y0458599D01*
X0461946Y0458471D01*
X0461840Y0458345D01*
X0461731Y0458222D01*
X0461619Y0458102D01*
X0461505Y0457984D01*
X0461387Y0457870D01*
X0461267Y0457758D01*
X0461144Y0457649D01*
X0461018Y0457543D01*
X0460890Y0457441D01*
X0460759Y0457341D01*
X0460626Y0457245D01*
X0460490Y0457152D01*
X0460353Y0457062D01*
X0460213Y0456976D01*
X0460071Y0456894D01*
X0459927Y0456814D01*
X0459781Y0456739D01*
X0459634Y0456667D01*
X0459484Y0456598D01*
X0459333Y0456533D01*
X0459181Y0456472D01*
X0459027Y0456415D01*
X0458871Y0456362D01*
X0458715Y0456312D01*
X0458557Y0456266D01*
X0458398Y0456225D01*
X0458238Y0456187D01*
X0458078Y0456153D01*
X0457916Y0456123D01*
X0457754Y0456096D01*
X0457591Y0456074D01*
X0457428Y0456056D01*
X0457264Y0456042D01*
X0457100Y0456032D01*
X0456936Y0456026D01*
X0456772Y0456024D01*
X0456608Y0456026D01*
X0456444Y0456032D01*
X0456280Y0456042D01*
X0456116Y0456056D01*
X0455953Y0456074D01*
X0455790Y0456096D01*
X0455628Y0456123D01*
X0455466Y0456153D01*
X0455306Y0456187D01*
X0455146Y0456225D01*
X0454987Y0456266D01*
X0454829Y0456312D01*
X0454673Y0456362D01*
X0454517Y0456415D01*
X0454363Y0456472D01*
X0454211Y0456533D01*
X0454060Y0456598D01*
X0453910Y0456667D01*
X0453763Y0456739D01*
X0453617Y0456814D01*
X0453473Y0456894D01*
X0453331Y0456976D01*
X0453191Y0457062D01*
X0453054Y0457152D01*
X0452918Y0457245D01*
X0452785Y0457341D01*
X0452654Y0457441D01*
X0452526Y0457543D01*
X0452400Y0457649D01*
X0452277Y0457758D01*
X0452157Y0457870D01*
X0452039Y0457984D01*
X0451925Y0458102D01*
X0451813Y0458222D01*
X0451704Y0458345D01*
X0451598Y0458471D01*
X0451496Y0458599D01*
X0451396Y0458730D01*
X0451300Y0458863D01*
X0451207Y0458999D01*
X0451117Y0459136D01*
X0451031Y0459276D01*
X0450949Y0459418D01*
X0450869Y0459562D01*
X0450794Y0459708D01*
X0450722Y0459855D01*
X0450653Y0460005D01*
X0450588Y0460156D01*
X0450527Y0460308D01*
X0450470Y0460462D01*
X0450417Y0460618D01*
X0450367Y0460774D01*
X0450321Y0460932D01*
X0450280Y0461091D01*
X0450242Y0461251D01*
X0450208Y0461411D01*
X0450178Y0461573D01*
X0450151Y0461735D01*
X0450129Y0461898D01*
X0450111Y0462061D01*
X0450097Y0462225D01*
X0450087Y0462389D01*
X0450081Y0462553D01*
X0450079Y0462717D01*
X0450079Y0206811D02*
X0450081Y0206975D01*
X0450087Y0207139D01*
X0450097Y0207303D01*
X0450111Y0207467D01*
X0450129Y0207630D01*
X0450151Y0207793D01*
X0450178Y0207955D01*
X0450208Y0208117D01*
X0450242Y0208277D01*
X0450280Y0208437D01*
X0450321Y0208596D01*
X0450367Y0208754D01*
X0450417Y0208910D01*
X0450470Y0209066D01*
X0450527Y0209220D01*
X0450588Y0209372D01*
X0450653Y0209523D01*
X0450722Y0209673D01*
X0450794Y0209820D01*
X0450869Y0209966D01*
X0450949Y0210110D01*
X0451031Y0210252D01*
X0451117Y0210392D01*
X0451207Y0210529D01*
X0451300Y0210665D01*
X0451396Y0210798D01*
X0451496Y0210929D01*
X0451598Y0211057D01*
X0451704Y0211183D01*
X0451813Y0211306D01*
X0451925Y0211426D01*
X0452039Y0211544D01*
X0452157Y0211658D01*
X0452277Y0211770D01*
X0452400Y0211879D01*
X0452526Y0211985D01*
X0452654Y0212087D01*
X0452785Y0212187D01*
X0452918Y0212283D01*
X0453054Y0212376D01*
X0453191Y0212466D01*
X0453331Y0212552D01*
X0453473Y0212634D01*
X0453617Y0212714D01*
X0453763Y0212789D01*
X0453910Y0212861D01*
X0454060Y0212930D01*
X0454211Y0212995D01*
X0454363Y0213056D01*
X0454517Y0213113D01*
X0454673Y0213166D01*
X0454829Y0213216D01*
X0454987Y0213262D01*
X0455146Y0213303D01*
X0455306Y0213341D01*
X0455466Y0213375D01*
X0455628Y0213405D01*
X0455790Y0213432D01*
X0455953Y0213454D01*
X0456116Y0213472D01*
X0456280Y0213486D01*
X0456444Y0213496D01*
X0456608Y0213502D01*
X0456772Y0213504D01*
X0456936Y0213502D01*
X0457100Y0213496D01*
X0457264Y0213486D01*
X0457428Y0213472D01*
X0457591Y0213454D01*
X0457754Y0213432D01*
X0457916Y0213405D01*
X0458078Y0213375D01*
X0458238Y0213341D01*
X0458398Y0213303D01*
X0458557Y0213262D01*
X0458715Y0213216D01*
X0458871Y0213166D01*
X0459027Y0213113D01*
X0459181Y0213056D01*
X0459333Y0212995D01*
X0459484Y0212930D01*
X0459634Y0212861D01*
X0459781Y0212789D01*
X0459927Y0212714D01*
X0460071Y0212634D01*
X0460213Y0212552D01*
X0460353Y0212466D01*
X0460490Y0212376D01*
X0460626Y0212283D01*
X0460759Y0212187D01*
X0460890Y0212087D01*
X0461018Y0211985D01*
X0461144Y0211879D01*
X0461267Y0211770D01*
X0461387Y0211658D01*
X0461505Y0211544D01*
X0461619Y0211426D01*
X0461731Y0211306D01*
X0461840Y0211183D01*
X0461946Y0211057D01*
X0462048Y0210929D01*
X0462148Y0210798D01*
X0462244Y0210665D01*
X0462337Y0210529D01*
X0462427Y0210392D01*
X0462513Y0210252D01*
X0462595Y0210110D01*
X0462675Y0209966D01*
X0462750Y0209820D01*
X0462822Y0209673D01*
X0462891Y0209523D01*
X0462956Y0209372D01*
X0463017Y0209220D01*
X0463074Y0209066D01*
X0463127Y0208910D01*
X0463177Y0208754D01*
X0463223Y0208596D01*
X0463264Y0208437D01*
X0463302Y0208277D01*
X0463336Y0208117D01*
X0463366Y0207955D01*
X0463393Y0207793D01*
X0463415Y0207630D01*
X0463433Y0207467D01*
X0463447Y0207303D01*
X0463457Y0207139D01*
X0463463Y0206975D01*
X0463465Y0206811D01*
X0463463Y0206647D01*
X0463457Y0206483D01*
X0463447Y0206319D01*
X0463433Y0206155D01*
X0463415Y0205992D01*
X0463393Y0205829D01*
X0463366Y0205667D01*
X0463336Y0205505D01*
X0463302Y0205345D01*
X0463264Y0205185D01*
X0463223Y0205026D01*
X0463177Y0204868D01*
X0463127Y0204712D01*
X0463074Y0204556D01*
X0463017Y0204402D01*
X0462956Y0204250D01*
X0462891Y0204099D01*
X0462822Y0203949D01*
X0462750Y0203802D01*
X0462675Y0203656D01*
X0462595Y0203512D01*
X0462513Y0203370D01*
X0462427Y0203230D01*
X0462337Y0203093D01*
X0462244Y0202957D01*
X0462148Y0202824D01*
X0462048Y0202693D01*
X0461946Y0202565D01*
X0461840Y0202439D01*
X0461731Y0202316D01*
X0461619Y0202196D01*
X0461505Y0202078D01*
X0461387Y0201964D01*
X0461267Y0201852D01*
X0461144Y0201743D01*
X0461018Y0201637D01*
X0460890Y0201535D01*
X0460759Y0201435D01*
X0460626Y0201339D01*
X0460490Y0201246D01*
X0460353Y0201156D01*
X0460213Y0201070D01*
X0460071Y0200988D01*
X0459927Y0200908D01*
X0459781Y0200833D01*
X0459634Y0200761D01*
X0459484Y0200692D01*
X0459333Y0200627D01*
X0459181Y0200566D01*
X0459027Y0200509D01*
X0458871Y0200456D01*
X0458715Y0200406D01*
X0458557Y0200360D01*
X0458398Y0200319D01*
X0458238Y0200281D01*
X0458078Y0200247D01*
X0457916Y0200217D01*
X0457754Y0200190D01*
X0457591Y0200168D01*
X0457428Y0200150D01*
X0457264Y0200136D01*
X0457100Y0200126D01*
X0456936Y0200120D01*
X0456772Y0200118D01*
X0456608Y0200120D01*
X0456444Y0200126D01*
X0456280Y0200136D01*
X0456116Y0200150D01*
X0455953Y0200168D01*
X0455790Y0200190D01*
X0455628Y0200217D01*
X0455466Y0200247D01*
X0455306Y0200281D01*
X0455146Y0200319D01*
X0454987Y0200360D01*
X0454829Y0200406D01*
X0454673Y0200456D01*
X0454517Y0200509D01*
X0454363Y0200566D01*
X0454211Y0200627D01*
X0454060Y0200692D01*
X0453910Y0200761D01*
X0453763Y0200833D01*
X0453617Y0200908D01*
X0453473Y0200988D01*
X0453331Y0201070D01*
X0453191Y0201156D01*
X0453054Y0201246D01*
X0452918Y0201339D01*
X0452785Y0201435D01*
X0452654Y0201535D01*
X0452526Y0201637D01*
X0452400Y0201743D01*
X0452277Y0201852D01*
X0452157Y0201964D01*
X0452039Y0202078D01*
X0451925Y0202196D01*
X0451813Y0202316D01*
X0451704Y0202439D01*
X0451598Y0202565D01*
X0451496Y0202693D01*
X0451396Y0202824D01*
X0451300Y0202957D01*
X0451207Y0203093D01*
X0451117Y0203230D01*
X0451031Y0203370D01*
X0450949Y0203512D01*
X0450869Y0203656D01*
X0450794Y0203802D01*
X0450722Y0203949D01*
X0450653Y0204099D01*
X0450588Y0204250D01*
X0450527Y0204402D01*
X0450470Y0204556D01*
X0450417Y0204712D01*
X0450367Y0204868D01*
X0450321Y0205026D01*
X0450280Y0205185D01*
X0450242Y0205345D01*
X0450208Y0205505D01*
X0450178Y0205667D01*
X0450151Y0205829D01*
X0450129Y0205992D01*
X0450111Y0206155D01*
X0450097Y0206319D01*
X0450087Y0206483D01*
X0450081Y0206647D01*
X0450079Y0206811D01*
D11*
X0145000Y0195000D02*
X0122323Y0195000D01*
X0130000Y0195256D02*
X0128976Y0205236D01*
X0128743Y0205236D02*
X0131257Y0205236D01*
X0130000Y0195256D01*
X0131024Y0205236D01*
X0130512Y0205236D02*
X0130000Y0195256D01*
X0129488Y0205236D01*
X0128743Y0205236D02*
X0130000Y0195256D01*
X0130000Y0473445D01*
X0131024Y0463465D01*
X0131257Y0463465D02*
X0130000Y0473445D01*
X0128976Y0463465D01*
X0128743Y0463465D02*
X0131257Y0463465D01*
X0130512Y0463465D02*
X0130000Y0473445D01*
X0129488Y0463465D01*
X0128743Y0463465D02*
X0130000Y0473445D01*
X0122323Y0473701D02*
X0145000Y0473701D01*
X0145000Y0492677D01*
X0145256Y0485000D02*
X0155236Y0483976D01*
X0155236Y0483743D02*
X0145256Y0485000D01*
X0155236Y0486024D01*
X0155236Y0486257D02*
X0155236Y0483743D01*
X0155236Y0484488D02*
X0145256Y0485000D01*
X0155236Y0485512D01*
X0155236Y0486257D02*
X0145256Y0485000D01*
X0469665Y0485000D01*
X0459685Y0483976D01*
X0459685Y0483743D02*
X0469665Y0485000D01*
X0459685Y0486024D01*
X0459685Y0486257D02*
X0459685Y0483743D01*
X0459685Y0484488D02*
X0469665Y0485000D01*
X0459685Y0485512D01*
X0459685Y0486257D02*
X0469665Y0485000D01*
X0469921Y0492677D02*
X0469921Y0473701D01*
D12*
X0316334Y0488984D02*
X0316334Y0489695D01*
X0316332Y0489769D01*
X0316326Y0489844D01*
X0316316Y0489917D01*
X0316303Y0489991D01*
X0316286Y0490063D01*
X0316264Y0490134D01*
X0316240Y0490205D01*
X0316211Y0490273D01*
X0316179Y0490341D01*
X0316143Y0490406D01*
X0316105Y0490469D01*
X0316062Y0490531D01*
X0316017Y0490590D01*
X0315969Y0490647D01*
X0315918Y0490701D01*
X0315864Y0490752D01*
X0315807Y0490800D01*
X0315748Y0490845D01*
X0315686Y0490888D01*
X0315623Y0490926D01*
X0315558Y0490962D01*
X0315490Y0490994D01*
X0315422Y0491023D01*
X0315351Y0491047D01*
X0315280Y0491069D01*
X0315208Y0491086D01*
X0315134Y0491099D01*
X0315061Y0491109D01*
X0314986Y0491115D01*
X0314912Y0491117D01*
X0312779Y0491117D01*
X0312779Y0493962D01*
X0316334Y0493962D01*
X0316334Y0488984D02*
X0316332Y0488910D01*
X0316326Y0488835D01*
X0316316Y0488762D01*
X0316303Y0488688D01*
X0316286Y0488616D01*
X0316264Y0488545D01*
X0316240Y0488474D01*
X0316211Y0488406D01*
X0316179Y0488338D01*
X0316143Y0488273D01*
X0316105Y0488210D01*
X0316062Y0488148D01*
X0316017Y0488089D01*
X0315969Y0488032D01*
X0315918Y0487978D01*
X0315864Y0487927D01*
X0315807Y0487879D01*
X0315748Y0487834D01*
X0315686Y0487791D01*
X0315623Y0487753D01*
X0315558Y0487717D01*
X0315490Y0487685D01*
X0315422Y0487656D01*
X0315351Y0487632D01*
X0315280Y0487610D01*
X0315208Y0487593D01*
X0315134Y0487580D01*
X0315061Y0487570D01*
X0314986Y0487564D01*
X0314912Y0487562D01*
X0312779Y0487562D01*
X0310426Y0487562D02*
X0310071Y0487562D01*
X0310071Y0487917D01*
X0310426Y0487917D01*
X0310426Y0487562D01*
X0307719Y0487562D02*
X0304163Y0487562D01*
X0307185Y0491117D01*
X0306119Y0493962D02*
X0306030Y0493960D01*
X0305941Y0493954D01*
X0305852Y0493945D01*
X0305764Y0493931D01*
X0305677Y0493914D01*
X0305590Y0493893D01*
X0305504Y0493868D01*
X0305420Y0493840D01*
X0305337Y0493807D01*
X0305255Y0493772D01*
X0305175Y0493732D01*
X0305097Y0493690D01*
X0305020Y0493644D01*
X0304946Y0493595D01*
X0304874Y0493542D01*
X0304804Y0493487D01*
X0304737Y0493428D01*
X0304672Y0493367D01*
X0304610Y0493303D01*
X0304551Y0493236D01*
X0304495Y0493167D01*
X0304442Y0493095D01*
X0304392Y0493021D01*
X0304345Y0492945D01*
X0304302Y0492868D01*
X0304262Y0492788D01*
X0304225Y0492707D01*
X0304192Y0492624D01*
X0304163Y0492539D01*
X0307186Y0491117D02*
X0307243Y0491175D01*
X0307299Y0491236D01*
X0307351Y0491299D01*
X0307400Y0491364D01*
X0307446Y0491432D01*
X0307488Y0491502D01*
X0307528Y0491574D01*
X0307563Y0491647D01*
X0307596Y0491723D01*
X0307624Y0491799D01*
X0307649Y0491877D01*
X0307670Y0491956D01*
X0307688Y0492036D01*
X0307701Y0492117D01*
X0307711Y0492198D01*
X0307717Y0492280D01*
X0307719Y0492362D01*
X0307717Y0492441D01*
X0307711Y0492519D01*
X0307702Y0492597D01*
X0307688Y0492674D01*
X0307671Y0492751D01*
X0307650Y0492826D01*
X0307625Y0492901D01*
X0307597Y0492974D01*
X0307565Y0493046D01*
X0307530Y0493116D01*
X0307491Y0493185D01*
X0307449Y0493251D01*
X0307404Y0493315D01*
X0307356Y0493377D01*
X0307305Y0493436D01*
X0307250Y0493493D01*
X0307193Y0493548D01*
X0307134Y0493599D01*
X0307072Y0493647D01*
X0307008Y0493692D01*
X0306942Y0493734D01*
X0306873Y0493773D01*
X0306803Y0493808D01*
X0306731Y0493840D01*
X0306658Y0493868D01*
X0306583Y0493893D01*
X0306508Y0493914D01*
X0306431Y0493931D01*
X0306354Y0493945D01*
X0306276Y0493954D01*
X0306198Y0493960D01*
X0306119Y0493962D01*
X0301209Y0492540D02*
X0301207Y0492466D01*
X0301201Y0492391D01*
X0301191Y0492318D01*
X0301178Y0492244D01*
X0301161Y0492172D01*
X0301139Y0492101D01*
X0301115Y0492030D01*
X0301086Y0491962D01*
X0301054Y0491894D01*
X0301018Y0491829D01*
X0300980Y0491766D01*
X0300937Y0491704D01*
X0300892Y0491645D01*
X0300844Y0491588D01*
X0300793Y0491534D01*
X0300739Y0491483D01*
X0300682Y0491435D01*
X0300623Y0491390D01*
X0300561Y0491347D01*
X0300498Y0491309D01*
X0300433Y0491273D01*
X0300365Y0491241D01*
X0300297Y0491212D01*
X0300226Y0491188D01*
X0300155Y0491166D01*
X0300083Y0491149D01*
X0300009Y0491136D01*
X0299936Y0491126D01*
X0299861Y0491120D01*
X0299787Y0491118D01*
X0299713Y0491120D01*
X0299638Y0491126D01*
X0299565Y0491136D01*
X0299491Y0491149D01*
X0299419Y0491166D01*
X0299348Y0491188D01*
X0299277Y0491212D01*
X0299209Y0491241D01*
X0299141Y0491273D01*
X0299076Y0491309D01*
X0299013Y0491347D01*
X0298951Y0491390D01*
X0298892Y0491435D01*
X0298835Y0491483D01*
X0298781Y0491534D01*
X0298730Y0491588D01*
X0298682Y0491645D01*
X0298637Y0491704D01*
X0298594Y0491766D01*
X0298556Y0491829D01*
X0298520Y0491894D01*
X0298488Y0491962D01*
X0298459Y0492030D01*
X0298435Y0492101D01*
X0298413Y0492172D01*
X0298396Y0492244D01*
X0298383Y0492318D01*
X0298373Y0492391D01*
X0298367Y0492466D01*
X0298365Y0492540D01*
X0298367Y0492614D01*
X0298373Y0492689D01*
X0298383Y0492762D01*
X0298396Y0492836D01*
X0298413Y0492908D01*
X0298435Y0492979D01*
X0298459Y0493050D01*
X0298488Y0493118D01*
X0298520Y0493186D01*
X0298556Y0493251D01*
X0298594Y0493314D01*
X0298637Y0493376D01*
X0298682Y0493435D01*
X0298730Y0493492D01*
X0298781Y0493546D01*
X0298835Y0493597D01*
X0298892Y0493645D01*
X0298951Y0493690D01*
X0299013Y0493733D01*
X0299076Y0493771D01*
X0299141Y0493807D01*
X0299209Y0493839D01*
X0299277Y0493868D01*
X0299348Y0493892D01*
X0299419Y0493914D01*
X0299491Y0493931D01*
X0299565Y0493944D01*
X0299638Y0493954D01*
X0299713Y0493960D01*
X0299787Y0493962D01*
X0299861Y0493960D01*
X0299936Y0493954D01*
X0300009Y0493944D01*
X0300083Y0493931D01*
X0300155Y0493914D01*
X0300226Y0493892D01*
X0300297Y0493868D01*
X0300365Y0493839D01*
X0300433Y0493807D01*
X0300498Y0493771D01*
X0300561Y0493733D01*
X0300623Y0493690D01*
X0300682Y0493645D01*
X0300739Y0493597D01*
X0300793Y0493546D01*
X0300844Y0493492D01*
X0300892Y0493435D01*
X0300937Y0493376D01*
X0300980Y0493314D01*
X0301018Y0493251D01*
X0301054Y0493186D01*
X0301086Y0493118D01*
X0301115Y0493050D01*
X0301139Y0492979D01*
X0301161Y0492908D01*
X0301178Y0492836D01*
X0301191Y0492762D01*
X0301201Y0492689D01*
X0301207Y0492614D01*
X0301209Y0492540D01*
X0301565Y0489340D02*
X0301563Y0489257D01*
X0301557Y0489174D01*
X0301547Y0489091D01*
X0301534Y0489008D01*
X0301516Y0488927D01*
X0301495Y0488846D01*
X0301470Y0488767D01*
X0301441Y0488689D01*
X0301409Y0488612D01*
X0301373Y0488537D01*
X0301334Y0488463D01*
X0301291Y0488392D01*
X0301245Y0488322D01*
X0301195Y0488255D01*
X0301143Y0488190D01*
X0301088Y0488128D01*
X0301029Y0488068D01*
X0300968Y0488011D01*
X0300905Y0487957D01*
X0300839Y0487906D01*
X0300770Y0487859D01*
X0300700Y0487814D01*
X0300627Y0487773D01*
X0300553Y0487736D01*
X0300477Y0487701D01*
X0300399Y0487671D01*
X0300321Y0487644D01*
X0300240Y0487621D01*
X0300159Y0487601D01*
X0300077Y0487586D01*
X0299995Y0487574D01*
X0299912Y0487566D01*
X0299829Y0487562D01*
X0299745Y0487562D01*
X0299662Y0487566D01*
X0299579Y0487574D01*
X0299497Y0487586D01*
X0299415Y0487601D01*
X0299334Y0487621D01*
X0299253Y0487644D01*
X0299175Y0487671D01*
X0299097Y0487701D01*
X0299021Y0487736D01*
X0298947Y0487773D01*
X0298874Y0487814D01*
X0298804Y0487859D01*
X0298735Y0487906D01*
X0298669Y0487957D01*
X0298606Y0488011D01*
X0298545Y0488068D01*
X0298486Y0488128D01*
X0298431Y0488190D01*
X0298379Y0488255D01*
X0298329Y0488322D01*
X0298283Y0488392D01*
X0298240Y0488463D01*
X0298201Y0488537D01*
X0298165Y0488612D01*
X0298133Y0488689D01*
X0298104Y0488767D01*
X0298079Y0488846D01*
X0298058Y0488927D01*
X0298040Y0489008D01*
X0298027Y0489091D01*
X0298017Y0489174D01*
X0298011Y0489257D01*
X0298009Y0489340D01*
X0298011Y0489423D01*
X0298017Y0489506D01*
X0298027Y0489589D01*
X0298040Y0489672D01*
X0298058Y0489753D01*
X0298079Y0489834D01*
X0298104Y0489913D01*
X0298133Y0489991D01*
X0298165Y0490068D01*
X0298201Y0490143D01*
X0298240Y0490217D01*
X0298283Y0490288D01*
X0298329Y0490358D01*
X0298379Y0490425D01*
X0298431Y0490490D01*
X0298486Y0490552D01*
X0298545Y0490612D01*
X0298606Y0490669D01*
X0298669Y0490723D01*
X0298735Y0490774D01*
X0298804Y0490821D01*
X0298874Y0490866D01*
X0298947Y0490907D01*
X0299021Y0490944D01*
X0299097Y0490979D01*
X0299175Y0491009D01*
X0299253Y0491036D01*
X0299334Y0491059D01*
X0299415Y0491079D01*
X0299497Y0491094D01*
X0299579Y0491106D01*
X0299662Y0491114D01*
X0299745Y0491118D01*
X0299829Y0491118D01*
X0299912Y0491114D01*
X0299995Y0491106D01*
X0300077Y0491094D01*
X0300159Y0491079D01*
X0300240Y0491059D01*
X0300321Y0491036D01*
X0300399Y0491009D01*
X0300477Y0490979D01*
X0300553Y0490944D01*
X0300627Y0490907D01*
X0300700Y0490866D01*
X0300770Y0490821D01*
X0300839Y0490774D01*
X0300905Y0490723D01*
X0300968Y0490669D01*
X0301029Y0490612D01*
X0301088Y0490552D01*
X0301143Y0490490D01*
X0301195Y0490425D01*
X0301245Y0490358D01*
X0301291Y0490288D01*
X0301334Y0490217D01*
X0301373Y0490143D01*
X0301409Y0490068D01*
X0301441Y0489991D01*
X0301470Y0489913D01*
X0301495Y0489834D01*
X0301516Y0489753D01*
X0301534Y0489672D01*
X0301547Y0489589D01*
X0301557Y0489506D01*
X0301563Y0489423D01*
X0301565Y0489340D01*
X0125660Y0343224D02*
X0125743Y0343222D01*
X0125826Y0343216D01*
X0125909Y0343206D01*
X0125992Y0343193D01*
X0126073Y0343175D01*
X0126154Y0343154D01*
X0126233Y0343129D01*
X0126311Y0343100D01*
X0126388Y0343068D01*
X0126463Y0343032D01*
X0126537Y0342993D01*
X0126608Y0342950D01*
X0126678Y0342904D01*
X0126745Y0342854D01*
X0126810Y0342802D01*
X0126872Y0342747D01*
X0126932Y0342688D01*
X0126989Y0342627D01*
X0127043Y0342564D01*
X0127094Y0342498D01*
X0127141Y0342429D01*
X0127186Y0342359D01*
X0127227Y0342286D01*
X0127264Y0342212D01*
X0127299Y0342136D01*
X0127329Y0342058D01*
X0127356Y0341980D01*
X0127379Y0341899D01*
X0127399Y0341818D01*
X0127414Y0341736D01*
X0127426Y0341654D01*
X0127434Y0341571D01*
X0127438Y0341488D01*
X0127438Y0341404D01*
X0127434Y0341321D01*
X0127426Y0341238D01*
X0127414Y0341156D01*
X0127399Y0341074D01*
X0127379Y0340993D01*
X0127356Y0340912D01*
X0127329Y0340834D01*
X0127299Y0340756D01*
X0127264Y0340680D01*
X0127227Y0340606D01*
X0127186Y0340533D01*
X0127141Y0340463D01*
X0127094Y0340394D01*
X0127043Y0340328D01*
X0126989Y0340265D01*
X0126932Y0340204D01*
X0126872Y0340145D01*
X0126810Y0340090D01*
X0126745Y0340038D01*
X0126678Y0339988D01*
X0126608Y0339942D01*
X0126537Y0339899D01*
X0126463Y0339860D01*
X0126388Y0339824D01*
X0126311Y0339792D01*
X0126233Y0339763D01*
X0126154Y0339738D01*
X0126073Y0339717D01*
X0125992Y0339699D01*
X0125909Y0339686D01*
X0125826Y0339676D01*
X0125743Y0339670D01*
X0125660Y0339668D01*
X0125577Y0339670D01*
X0125494Y0339676D01*
X0125411Y0339686D01*
X0125328Y0339699D01*
X0125247Y0339717D01*
X0125166Y0339738D01*
X0125087Y0339763D01*
X0125009Y0339792D01*
X0124932Y0339824D01*
X0124857Y0339860D01*
X0124783Y0339899D01*
X0124712Y0339942D01*
X0124642Y0339988D01*
X0124575Y0340038D01*
X0124510Y0340090D01*
X0124448Y0340145D01*
X0124388Y0340204D01*
X0124331Y0340265D01*
X0124277Y0340328D01*
X0124226Y0340394D01*
X0124179Y0340463D01*
X0124134Y0340533D01*
X0124093Y0340606D01*
X0124056Y0340680D01*
X0124021Y0340756D01*
X0123991Y0340834D01*
X0123964Y0340912D01*
X0123941Y0340993D01*
X0123921Y0341074D01*
X0123906Y0341156D01*
X0123894Y0341238D01*
X0123886Y0341321D01*
X0123882Y0341404D01*
X0123882Y0341488D01*
X0123886Y0341571D01*
X0123894Y0341654D01*
X0123906Y0341736D01*
X0123921Y0341818D01*
X0123941Y0341899D01*
X0123964Y0341980D01*
X0123991Y0342058D01*
X0124021Y0342136D01*
X0124056Y0342212D01*
X0124093Y0342286D01*
X0124134Y0342359D01*
X0124179Y0342429D01*
X0124226Y0342498D01*
X0124277Y0342564D01*
X0124331Y0342627D01*
X0124388Y0342688D01*
X0124448Y0342747D01*
X0124510Y0342802D01*
X0124575Y0342854D01*
X0124642Y0342904D01*
X0124712Y0342950D01*
X0124783Y0342993D01*
X0124857Y0343032D01*
X0124932Y0343068D01*
X0125009Y0343100D01*
X0125087Y0343129D01*
X0125166Y0343154D01*
X0125247Y0343175D01*
X0125328Y0343193D01*
X0125411Y0343206D01*
X0125494Y0343216D01*
X0125577Y0343222D01*
X0125660Y0343224D01*
X0122460Y0342868D02*
X0122534Y0342866D01*
X0122609Y0342860D01*
X0122682Y0342850D01*
X0122756Y0342837D01*
X0122828Y0342820D01*
X0122899Y0342798D01*
X0122970Y0342774D01*
X0123038Y0342745D01*
X0123106Y0342713D01*
X0123171Y0342677D01*
X0123234Y0342639D01*
X0123296Y0342596D01*
X0123355Y0342551D01*
X0123412Y0342503D01*
X0123466Y0342452D01*
X0123517Y0342398D01*
X0123565Y0342341D01*
X0123610Y0342282D01*
X0123653Y0342220D01*
X0123691Y0342157D01*
X0123727Y0342092D01*
X0123759Y0342024D01*
X0123788Y0341956D01*
X0123812Y0341885D01*
X0123834Y0341814D01*
X0123851Y0341742D01*
X0123864Y0341668D01*
X0123874Y0341595D01*
X0123880Y0341520D01*
X0123882Y0341446D01*
X0123880Y0341372D01*
X0123874Y0341297D01*
X0123864Y0341224D01*
X0123851Y0341150D01*
X0123834Y0341078D01*
X0123812Y0341007D01*
X0123788Y0340936D01*
X0123759Y0340868D01*
X0123727Y0340800D01*
X0123691Y0340735D01*
X0123653Y0340672D01*
X0123610Y0340610D01*
X0123565Y0340551D01*
X0123517Y0340494D01*
X0123466Y0340440D01*
X0123412Y0340389D01*
X0123355Y0340341D01*
X0123296Y0340296D01*
X0123234Y0340253D01*
X0123171Y0340215D01*
X0123106Y0340179D01*
X0123038Y0340147D01*
X0122970Y0340118D01*
X0122899Y0340094D01*
X0122828Y0340072D01*
X0122756Y0340055D01*
X0122682Y0340042D01*
X0122609Y0340032D01*
X0122534Y0340026D01*
X0122460Y0340024D01*
X0122386Y0340026D01*
X0122311Y0340032D01*
X0122238Y0340042D01*
X0122164Y0340055D01*
X0122092Y0340072D01*
X0122021Y0340094D01*
X0121950Y0340118D01*
X0121882Y0340147D01*
X0121814Y0340179D01*
X0121749Y0340215D01*
X0121686Y0340253D01*
X0121624Y0340296D01*
X0121565Y0340341D01*
X0121508Y0340389D01*
X0121454Y0340440D01*
X0121403Y0340494D01*
X0121355Y0340551D01*
X0121310Y0340610D01*
X0121267Y0340672D01*
X0121229Y0340735D01*
X0121193Y0340800D01*
X0121161Y0340868D01*
X0121132Y0340936D01*
X0121108Y0341007D01*
X0121086Y0341078D01*
X0121069Y0341150D01*
X0121056Y0341224D01*
X0121046Y0341297D01*
X0121040Y0341372D01*
X0121038Y0341446D01*
X0121040Y0341520D01*
X0121046Y0341595D01*
X0121056Y0341668D01*
X0121069Y0341742D01*
X0121086Y0341814D01*
X0121108Y0341885D01*
X0121132Y0341956D01*
X0121161Y0342024D01*
X0121193Y0342092D01*
X0121229Y0342157D01*
X0121267Y0342220D01*
X0121310Y0342282D01*
X0121355Y0342341D01*
X0121403Y0342398D01*
X0121454Y0342452D01*
X0121508Y0342503D01*
X0121565Y0342551D01*
X0121624Y0342596D01*
X0121686Y0342639D01*
X0121749Y0342677D01*
X0121814Y0342713D01*
X0121882Y0342745D01*
X0121950Y0342774D01*
X0122021Y0342798D01*
X0122092Y0342820D01*
X0122164Y0342837D01*
X0122238Y0342850D01*
X0122311Y0342860D01*
X0122386Y0342866D01*
X0122460Y0342868D01*
X0124238Y0331053D02*
X0124379Y0331055D01*
X0124519Y0331061D01*
X0124660Y0331070D01*
X0124800Y0331083D01*
X0124940Y0331100D01*
X0125079Y0331120D01*
X0125217Y0331145D01*
X0125355Y0331173D01*
X0125492Y0331204D01*
X0125629Y0331240D01*
X0125764Y0331279D01*
X0125898Y0331321D01*
X0126031Y0331367D01*
X0126163Y0331417D01*
X0126293Y0331470D01*
X0126422Y0331526D01*
X0126549Y0331586D01*
X0126016Y0331408D02*
X0122460Y0334253D01*
X0121927Y0334075D02*
X0121861Y0334050D01*
X0121796Y0334022D01*
X0121732Y0333990D01*
X0121671Y0333955D01*
X0121611Y0333916D01*
X0121553Y0333875D01*
X0121498Y0333830D01*
X0121446Y0333782D01*
X0121396Y0333732D01*
X0121348Y0333679D01*
X0121304Y0333624D01*
X0121263Y0333566D01*
X0121225Y0333506D01*
X0121190Y0333444D01*
X0121159Y0333380D01*
X0121131Y0333315D01*
X0121106Y0333248D01*
X0121086Y0333181D01*
X0121069Y0333112D01*
X0121055Y0333042D01*
X0121046Y0332972D01*
X0121040Y0332901D01*
X0121038Y0332830D01*
X0121040Y0332759D01*
X0121046Y0332688D01*
X0121055Y0332618D01*
X0121069Y0332548D01*
X0121086Y0332479D01*
X0121106Y0332412D01*
X0121131Y0332345D01*
X0121159Y0332280D01*
X0121190Y0332216D01*
X0121225Y0332154D01*
X0121263Y0332094D01*
X0121304Y0332036D01*
X0121348Y0331981D01*
X0121396Y0331928D01*
X0121446Y0331878D01*
X0121498Y0331830D01*
X0121553Y0331785D01*
X0121611Y0331744D01*
X0121671Y0331705D01*
X0121732Y0331670D01*
X0121796Y0331638D01*
X0121861Y0331610D01*
X0121927Y0331585D01*
X0121927Y0334075D02*
X0122054Y0334135D01*
X0122183Y0334191D01*
X0122313Y0334244D01*
X0122445Y0334294D01*
X0122578Y0334340D01*
X0122712Y0334382D01*
X0122847Y0334421D01*
X0122984Y0334457D01*
X0123121Y0334488D01*
X0123259Y0334516D01*
X0123397Y0334541D01*
X0123536Y0334561D01*
X0123676Y0334578D01*
X0123816Y0334591D01*
X0123957Y0334600D01*
X0124097Y0334606D01*
X0124238Y0334608D01*
X0124238Y0331053D02*
X0124097Y0331055D01*
X0123957Y0331061D01*
X0123816Y0331070D01*
X0123676Y0331083D01*
X0123536Y0331100D01*
X0123397Y0331120D01*
X0123259Y0331145D01*
X0123121Y0331173D01*
X0122984Y0331204D01*
X0122847Y0331240D01*
X0122712Y0331279D01*
X0122578Y0331321D01*
X0122445Y0331367D01*
X0122313Y0331417D01*
X0122183Y0331470D01*
X0122054Y0331526D01*
X0121927Y0331586D01*
X0124238Y0334608D02*
X0124379Y0334606D01*
X0124519Y0334600D01*
X0124660Y0334591D01*
X0124800Y0334578D01*
X0124940Y0334561D01*
X0125079Y0334541D01*
X0125217Y0334516D01*
X0125355Y0334488D01*
X0125492Y0334457D01*
X0125629Y0334421D01*
X0125764Y0334382D01*
X0125898Y0334340D01*
X0126031Y0334294D01*
X0126163Y0334244D01*
X0126293Y0334191D01*
X0126422Y0334135D01*
X0126549Y0334075D01*
X0127439Y0332830D02*
X0127437Y0332759D01*
X0127431Y0332688D01*
X0127422Y0332618D01*
X0127408Y0332548D01*
X0127391Y0332479D01*
X0127371Y0332412D01*
X0127346Y0332345D01*
X0127318Y0332280D01*
X0127287Y0332216D01*
X0127252Y0332154D01*
X0127214Y0332094D01*
X0127173Y0332036D01*
X0127129Y0331981D01*
X0127081Y0331928D01*
X0127031Y0331878D01*
X0126979Y0331830D01*
X0126924Y0331785D01*
X0126866Y0331744D01*
X0126806Y0331705D01*
X0126745Y0331670D01*
X0126681Y0331638D01*
X0126616Y0331610D01*
X0126550Y0331585D01*
X0127439Y0332830D02*
X0127437Y0332901D01*
X0127431Y0332972D01*
X0127422Y0333042D01*
X0127408Y0333112D01*
X0127391Y0333181D01*
X0127371Y0333248D01*
X0127346Y0333315D01*
X0127318Y0333380D01*
X0127287Y0333444D01*
X0127252Y0333506D01*
X0127214Y0333566D01*
X0127173Y0333623D01*
X0127129Y0333679D01*
X0127081Y0333732D01*
X0127031Y0333782D01*
X0126979Y0333830D01*
X0126924Y0333875D01*
X0126866Y0333916D01*
X0126806Y0333955D01*
X0126745Y0333990D01*
X0126681Y0334022D01*
X0126616Y0334050D01*
X0126550Y0334075D01*
X0127083Y0336961D02*
X0127083Y0337316D01*
X0127438Y0337316D01*
X0127438Y0336961D01*
X0127083Y0336961D01*
X0127438Y0326676D02*
X0121038Y0328454D01*
X0121038Y0324899D01*
X0121749Y0324899D01*
M02*
