G75*
%MOIN*%
%OFA0B0*%
%FSLAX25Y25*%
%IPPOS*%
%LPD*%
%AMOC8*
5,1,8,0,0,1.08239X$1,22.5*
%
%ADD10C,0.00800*%
%ADD11C,0.00500*%
%ADD12C,0.00400*%
%ADD13C,0.00600*%
%ADD14C,0.00700*%
D10*
X0208031Y0395039D02*
X0208031Y0399961D01*
X0211457Y0399961D02*
X0218543Y0399961D01*
X0218543Y0395039D02*
X0211457Y0395039D01*
X0211457Y0407539D02*
X0218543Y0407539D01*
X0218543Y0412461D02*
X0211457Y0412461D01*
X0208031Y0412461D02*
X0208031Y0407539D01*
X0208031Y0420039D02*
X0208031Y0424961D01*
X0211457Y0424961D02*
X0218543Y0424961D01*
X0218543Y0420039D02*
X0211457Y0420039D01*
X0211457Y0432539D02*
X0218543Y0432539D01*
X0218543Y0437461D02*
X0211457Y0437461D01*
X0208031Y0437461D02*
X0208031Y0432539D01*
X0208031Y0445039D02*
X0208031Y0449961D01*
X0211457Y0449961D02*
X0218543Y0449961D01*
X0218543Y0445039D02*
X0211457Y0445039D01*
X0211457Y0457539D02*
X0218543Y0457539D01*
X0218543Y0462461D02*
X0211457Y0462461D01*
X0208031Y0462461D02*
X0208031Y0457539D01*
D11*
X0213356Y0452650D02*
X0213884Y0452650D01*
X0213356Y0452650D02*
X0213356Y0450750D01*
X0213884Y0450750D01*
X0213928Y0450752D01*
X0213971Y0450757D01*
X0214014Y0450766D01*
X0214055Y0450779D01*
X0214096Y0450794D01*
X0214135Y0450814D01*
X0214173Y0450836D01*
X0214208Y0450861D01*
X0214242Y0450890D01*
X0214272Y0450920D01*
X0214301Y0450954D01*
X0214326Y0450989D01*
X0214348Y0451027D01*
X0214368Y0451066D01*
X0214383Y0451107D01*
X0214396Y0451148D01*
X0214405Y0451191D01*
X0214410Y0451234D01*
X0214412Y0451278D01*
X0214412Y0452122D01*
X0214410Y0452166D01*
X0214405Y0452209D01*
X0214396Y0452252D01*
X0214383Y0452293D01*
X0214368Y0452334D01*
X0214348Y0452373D01*
X0214326Y0452411D01*
X0214301Y0452446D01*
X0214272Y0452480D01*
X0214242Y0452510D01*
X0214208Y0452539D01*
X0214173Y0452564D01*
X0214135Y0452586D01*
X0214096Y0452606D01*
X0214055Y0452621D01*
X0214014Y0452634D01*
X0213971Y0452643D01*
X0213928Y0452648D01*
X0213884Y0452650D01*
X0216010Y0452650D02*
X0215588Y0451172D01*
X0216644Y0451172D01*
X0216327Y0451594D02*
X0216327Y0450750D01*
X0213884Y0440150D02*
X0213356Y0440150D01*
X0213356Y0438250D01*
X0213884Y0438250D01*
X0213928Y0438252D01*
X0213971Y0438257D01*
X0214014Y0438266D01*
X0214055Y0438279D01*
X0214096Y0438294D01*
X0214135Y0438314D01*
X0214173Y0438336D01*
X0214208Y0438361D01*
X0214242Y0438390D01*
X0214272Y0438420D01*
X0214301Y0438454D01*
X0214326Y0438489D01*
X0214348Y0438527D01*
X0214368Y0438566D01*
X0214383Y0438607D01*
X0214396Y0438648D01*
X0214405Y0438691D01*
X0214410Y0438734D01*
X0214412Y0438778D01*
X0214412Y0439622D01*
X0214410Y0439666D01*
X0214405Y0439709D01*
X0214396Y0439752D01*
X0214383Y0439793D01*
X0214368Y0439834D01*
X0214348Y0439873D01*
X0214326Y0439911D01*
X0214301Y0439946D01*
X0214272Y0439980D01*
X0214242Y0440010D01*
X0214208Y0440039D01*
X0214173Y0440064D01*
X0214135Y0440086D01*
X0214096Y0440106D01*
X0214055Y0440121D01*
X0214014Y0440134D01*
X0213971Y0440143D01*
X0213928Y0440148D01*
X0213884Y0440150D01*
X0216486Y0439306D02*
X0216514Y0439335D01*
X0216541Y0439367D01*
X0216564Y0439401D01*
X0216585Y0439437D01*
X0216603Y0439474D01*
X0216617Y0439513D01*
X0216629Y0439552D01*
X0216637Y0439593D01*
X0216642Y0439634D01*
X0216644Y0439675D01*
X0216485Y0439306D02*
X0215588Y0438250D01*
X0216644Y0438250D01*
X0215589Y0439728D02*
X0215605Y0439773D01*
X0215625Y0439816D01*
X0215649Y0439858D01*
X0215675Y0439898D01*
X0215705Y0439936D01*
X0215737Y0439971D01*
X0215773Y0440004D01*
X0215810Y0440033D01*
X0215850Y0440060D01*
X0215892Y0440083D01*
X0215935Y0440103D01*
X0215980Y0440120D01*
X0216026Y0440133D01*
X0216074Y0440142D01*
X0216121Y0440148D01*
X0216169Y0440150D01*
X0216210Y0440148D01*
X0216251Y0440143D01*
X0216292Y0440134D01*
X0216331Y0440121D01*
X0216370Y0440105D01*
X0216407Y0440086D01*
X0216441Y0440064D01*
X0216474Y0440039D01*
X0216505Y0440011D01*
X0216533Y0439980D01*
X0216558Y0439947D01*
X0216580Y0439913D01*
X0216599Y0439876D01*
X0216615Y0439837D01*
X0216628Y0439798D01*
X0216637Y0439757D01*
X0216642Y0439716D01*
X0216644Y0439675D01*
X0216222Y0427650D02*
X0215588Y0427650D01*
X0216222Y0427650D02*
X0216262Y0427648D01*
X0216302Y0427642D01*
X0216341Y0427633D01*
X0216379Y0427620D01*
X0216415Y0427603D01*
X0216450Y0427583D01*
X0216483Y0427560D01*
X0216513Y0427533D01*
X0216541Y0427504D01*
X0216566Y0427473D01*
X0216587Y0427439D01*
X0216606Y0427403D01*
X0216621Y0427366D01*
X0216632Y0427327D01*
X0216640Y0427288D01*
X0216644Y0427248D01*
X0216644Y0427208D01*
X0216640Y0427168D01*
X0216632Y0427129D01*
X0216621Y0427090D01*
X0216606Y0427053D01*
X0216587Y0427017D01*
X0216566Y0426983D01*
X0216541Y0426952D01*
X0216513Y0426923D01*
X0216483Y0426896D01*
X0216450Y0426873D01*
X0216415Y0426853D01*
X0216379Y0426836D01*
X0216341Y0426823D01*
X0216302Y0426814D01*
X0216262Y0426808D01*
X0216222Y0426806D01*
X0215799Y0426806D01*
X0216116Y0426806D02*
X0216161Y0426804D01*
X0216205Y0426798D01*
X0216249Y0426789D01*
X0216292Y0426776D01*
X0216333Y0426759D01*
X0216374Y0426739D01*
X0216412Y0426715D01*
X0216448Y0426689D01*
X0216481Y0426659D01*
X0216512Y0426627D01*
X0216541Y0426592D01*
X0216566Y0426555D01*
X0216587Y0426516D01*
X0216606Y0426475D01*
X0216621Y0426433D01*
X0216632Y0426389D01*
X0216640Y0426345D01*
X0216644Y0426300D01*
X0216644Y0426256D01*
X0216640Y0426211D01*
X0216632Y0426167D01*
X0216621Y0426123D01*
X0216606Y0426081D01*
X0216587Y0426040D01*
X0216566Y0426001D01*
X0216541Y0425964D01*
X0216512Y0425929D01*
X0216481Y0425897D01*
X0216448Y0425867D01*
X0216412Y0425841D01*
X0216374Y0425817D01*
X0216333Y0425797D01*
X0216292Y0425780D01*
X0216249Y0425767D01*
X0216205Y0425758D01*
X0216161Y0425752D01*
X0216116Y0425750D01*
X0215588Y0425750D01*
X0214412Y0426278D02*
X0214412Y0427122D01*
X0214410Y0427166D01*
X0214405Y0427209D01*
X0214396Y0427252D01*
X0214383Y0427293D01*
X0214368Y0427334D01*
X0214348Y0427373D01*
X0214326Y0427411D01*
X0214301Y0427446D01*
X0214272Y0427480D01*
X0214242Y0427510D01*
X0214208Y0427539D01*
X0214173Y0427564D01*
X0214135Y0427586D01*
X0214096Y0427606D01*
X0214055Y0427621D01*
X0214014Y0427634D01*
X0213971Y0427643D01*
X0213928Y0427648D01*
X0213884Y0427650D01*
X0213356Y0427650D01*
X0213356Y0425750D01*
X0213884Y0425750D01*
X0213928Y0425752D01*
X0213971Y0425757D01*
X0214014Y0425766D01*
X0214055Y0425779D01*
X0214096Y0425794D01*
X0214135Y0425814D01*
X0214173Y0425836D01*
X0214208Y0425861D01*
X0214242Y0425890D01*
X0214272Y0425920D01*
X0214301Y0425954D01*
X0214326Y0425989D01*
X0214348Y0426027D01*
X0214368Y0426066D01*
X0214383Y0426107D01*
X0214396Y0426148D01*
X0214405Y0426191D01*
X0214410Y0426234D01*
X0214412Y0426278D01*
X0213884Y0415150D02*
X0213356Y0415150D01*
X0213356Y0413250D01*
X0213884Y0413250D01*
X0213928Y0413252D01*
X0213971Y0413257D01*
X0214014Y0413266D01*
X0214055Y0413279D01*
X0214096Y0413294D01*
X0214135Y0413314D01*
X0214173Y0413336D01*
X0214208Y0413361D01*
X0214242Y0413390D01*
X0214272Y0413420D01*
X0214301Y0413454D01*
X0214326Y0413489D01*
X0214348Y0413527D01*
X0214368Y0413566D01*
X0214383Y0413607D01*
X0214396Y0413648D01*
X0214405Y0413691D01*
X0214410Y0413734D01*
X0214412Y0413778D01*
X0214412Y0414622D01*
X0214410Y0414666D01*
X0214405Y0414709D01*
X0214396Y0414752D01*
X0214383Y0414793D01*
X0214368Y0414834D01*
X0214348Y0414873D01*
X0214326Y0414911D01*
X0214301Y0414946D01*
X0214272Y0414980D01*
X0214242Y0415010D01*
X0214208Y0415039D01*
X0214173Y0415064D01*
X0214135Y0415086D01*
X0214096Y0415106D01*
X0214055Y0415121D01*
X0214014Y0415134D01*
X0213971Y0415143D01*
X0213928Y0415148D01*
X0213884Y0415150D01*
X0215588Y0415150D02*
X0216644Y0415150D01*
X0216222Y0414306D02*
X0215588Y0414306D01*
X0215588Y0415150D01*
X0216222Y0414305D02*
X0216261Y0414303D01*
X0216300Y0414298D01*
X0216337Y0414289D01*
X0216374Y0414277D01*
X0216410Y0414261D01*
X0216444Y0414242D01*
X0216476Y0414220D01*
X0216506Y0414195D01*
X0216534Y0414167D01*
X0216559Y0414137D01*
X0216581Y0414105D01*
X0216600Y0414071D01*
X0216616Y0414035D01*
X0216628Y0413998D01*
X0216637Y0413961D01*
X0216642Y0413922D01*
X0216644Y0413883D01*
X0216644Y0413672D01*
X0216642Y0413633D01*
X0216637Y0413594D01*
X0216628Y0413557D01*
X0216616Y0413520D01*
X0216600Y0413484D01*
X0216581Y0413450D01*
X0216559Y0413418D01*
X0216534Y0413388D01*
X0216506Y0413360D01*
X0216476Y0413335D01*
X0216444Y0413313D01*
X0216410Y0413294D01*
X0216374Y0413278D01*
X0216337Y0413266D01*
X0216300Y0413257D01*
X0216261Y0413252D01*
X0216222Y0413250D01*
X0215588Y0413250D01*
X0216116Y0402650D02*
X0216116Y0400750D01*
X0215588Y0400750D02*
X0216644Y0400750D01*
X0215588Y0402228D02*
X0216116Y0402650D01*
X0214412Y0402122D02*
X0214412Y0401278D01*
X0214410Y0401234D01*
X0214405Y0401191D01*
X0214396Y0401148D01*
X0214383Y0401107D01*
X0214368Y0401066D01*
X0214348Y0401027D01*
X0214326Y0400989D01*
X0214301Y0400954D01*
X0214272Y0400920D01*
X0214242Y0400890D01*
X0214208Y0400861D01*
X0214173Y0400836D01*
X0214135Y0400814D01*
X0214096Y0400794D01*
X0214055Y0400779D01*
X0214014Y0400766D01*
X0213971Y0400757D01*
X0213928Y0400752D01*
X0213884Y0400750D01*
X0213356Y0400750D01*
X0213356Y0402650D01*
X0213884Y0402650D01*
X0213928Y0402648D01*
X0213971Y0402643D01*
X0214014Y0402634D01*
X0214055Y0402621D01*
X0214096Y0402606D01*
X0214135Y0402586D01*
X0214173Y0402564D01*
X0214208Y0402539D01*
X0214242Y0402510D01*
X0214272Y0402480D01*
X0214301Y0402446D01*
X0214326Y0402411D01*
X0214348Y0402373D01*
X0214368Y0402334D01*
X0214383Y0402293D01*
X0214396Y0402252D01*
X0214405Y0402209D01*
X0214410Y0402166D01*
X0214412Y0402122D01*
X0187250Y0397500D02*
X0187250Y0396250D01*
X0187250Y0397500D02*
X0187248Y0397569D01*
X0187242Y0397638D01*
X0187233Y0397706D01*
X0187220Y0397773D01*
X0187203Y0397840D01*
X0187182Y0397906D01*
X0187158Y0397970D01*
X0187130Y0398033D01*
X0187099Y0398095D01*
X0187065Y0398155D01*
X0187027Y0398212D01*
X0186986Y0398268D01*
X0186943Y0398321D01*
X0186896Y0398372D01*
X0186847Y0398420D01*
X0186795Y0398465D01*
X0186740Y0398507D01*
X0186684Y0398546D01*
X0186625Y0398583D01*
X0186564Y0398615D01*
X0186502Y0398645D01*
X0186438Y0398671D01*
X0186373Y0398693D01*
X0186307Y0398712D01*
X0186240Y0398727D01*
X0186172Y0398738D01*
X0186103Y0398746D01*
X0186034Y0398750D01*
X0185966Y0398750D01*
X0185897Y0398746D01*
X0185828Y0398738D01*
X0185760Y0398727D01*
X0185693Y0398712D01*
X0185627Y0398693D01*
X0185562Y0398671D01*
X0185498Y0398645D01*
X0185436Y0398615D01*
X0185375Y0398583D01*
X0185316Y0398546D01*
X0185260Y0398507D01*
X0185205Y0398465D01*
X0185153Y0398420D01*
X0185104Y0398372D01*
X0185057Y0398321D01*
X0185014Y0398268D01*
X0184973Y0398212D01*
X0184935Y0398155D01*
X0184901Y0398095D01*
X0184870Y0398033D01*
X0184842Y0397970D01*
X0184818Y0397906D01*
X0184797Y0397840D01*
X0184780Y0397773D01*
X0184767Y0397706D01*
X0184758Y0397638D01*
X0184752Y0397569D01*
X0184750Y0397500D01*
X0184750Y0397750D02*
X0184750Y0396750D01*
X0184750Y0397750D02*
X0184748Y0397812D01*
X0184742Y0397873D01*
X0184733Y0397934D01*
X0184720Y0397994D01*
X0184703Y0398053D01*
X0184682Y0398111D01*
X0184658Y0398168D01*
X0184631Y0398223D01*
X0184600Y0398276D01*
X0184566Y0398328D01*
X0184529Y0398377D01*
X0184489Y0398424D01*
X0184446Y0398468D01*
X0184401Y0398509D01*
X0184353Y0398548D01*
X0184302Y0398584D01*
X0184250Y0398616D01*
X0184196Y0398645D01*
X0184140Y0398671D01*
X0184082Y0398693D01*
X0184024Y0398712D01*
X0183964Y0398727D01*
X0183903Y0398738D01*
X0183842Y0398746D01*
X0183781Y0398750D01*
X0183719Y0398750D01*
X0183658Y0398746D01*
X0183597Y0398738D01*
X0183536Y0398727D01*
X0183476Y0398712D01*
X0183418Y0398693D01*
X0183360Y0398671D01*
X0183304Y0398645D01*
X0183250Y0398616D01*
X0183198Y0398584D01*
X0183147Y0398548D01*
X0183099Y0398509D01*
X0183054Y0398468D01*
X0183011Y0398424D01*
X0182971Y0398377D01*
X0182934Y0398328D01*
X0182900Y0398276D01*
X0182869Y0398223D01*
X0182842Y0398168D01*
X0182818Y0398111D01*
X0182797Y0398053D01*
X0182780Y0397994D01*
X0182767Y0397934D01*
X0182758Y0397873D01*
X0182752Y0397812D01*
X0182750Y0397750D01*
X0182750Y0396250D01*
X0186250Y0378750D02*
X0186250Y0376250D01*
X0182750Y0377250D01*
X0185250Y0378000D02*
X0187250Y0378000D01*
X0186250Y0358750D02*
X0185750Y0358750D01*
X0185690Y0358748D01*
X0185629Y0358743D01*
X0185570Y0358734D01*
X0185511Y0358721D01*
X0185452Y0358705D01*
X0185395Y0358685D01*
X0185340Y0358662D01*
X0185285Y0358635D01*
X0185233Y0358606D01*
X0185182Y0358573D01*
X0185133Y0358537D01*
X0185087Y0358499D01*
X0185043Y0358457D01*
X0185001Y0358413D01*
X0184963Y0358367D01*
X0184927Y0358318D01*
X0184894Y0358267D01*
X0184865Y0358215D01*
X0184838Y0358160D01*
X0184815Y0358105D01*
X0184795Y0358048D01*
X0184779Y0357989D01*
X0184766Y0357930D01*
X0184757Y0357871D01*
X0184752Y0357810D01*
X0184750Y0357750D01*
X0184750Y0356250D01*
X0182750Y0356250D01*
X0182750Y0358750D01*
X0186250Y0358750D02*
X0186310Y0358748D01*
X0186371Y0358743D01*
X0186430Y0358734D01*
X0186489Y0358721D01*
X0186548Y0358705D01*
X0186605Y0358685D01*
X0186660Y0358662D01*
X0186715Y0358635D01*
X0186767Y0358606D01*
X0186818Y0358573D01*
X0186867Y0358537D01*
X0186913Y0358499D01*
X0186957Y0358457D01*
X0186999Y0358413D01*
X0187037Y0358367D01*
X0187073Y0358318D01*
X0187106Y0358267D01*
X0187135Y0358215D01*
X0187162Y0358160D01*
X0187185Y0358105D01*
X0187205Y0358048D01*
X0187221Y0357989D01*
X0187234Y0357930D01*
X0187243Y0357871D01*
X0187248Y0357810D01*
X0187250Y0357750D01*
X0187250Y0356250D01*
X0186000Y0338750D02*
X0185750Y0338750D01*
X0185690Y0338748D01*
X0185629Y0338743D01*
X0185570Y0338734D01*
X0185511Y0338721D01*
X0185452Y0338705D01*
X0185395Y0338685D01*
X0185340Y0338662D01*
X0185285Y0338635D01*
X0185233Y0338606D01*
X0185182Y0338573D01*
X0185133Y0338537D01*
X0185087Y0338499D01*
X0185043Y0338457D01*
X0185001Y0338413D01*
X0184963Y0338367D01*
X0184927Y0338318D01*
X0184894Y0338267D01*
X0184865Y0338215D01*
X0184838Y0338160D01*
X0184815Y0338105D01*
X0184795Y0338048D01*
X0184779Y0337989D01*
X0184766Y0337930D01*
X0184757Y0337871D01*
X0184752Y0337810D01*
X0184750Y0337750D01*
X0184750Y0336250D01*
X0186000Y0336250D01*
X0186069Y0336252D01*
X0186138Y0336258D01*
X0186206Y0336267D01*
X0186273Y0336280D01*
X0186340Y0336297D01*
X0186406Y0336318D01*
X0186470Y0336342D01*
X0186533Y0336370D01*
X0186595Y0336401D01*
X0186655Y0336435D01*
X0186712Y0336473D01*
X0186768Y0336514D01*
X0186821Y0336557D01*
X0186872Y0336604D01*
X0186920Y0336653D01*
X0186965Y0336705D01*
X0187007Y0336760D01*
X0187046Y0336816D01*
X0187083Y0336875D01*
X0187115Y0336936D01*
X0187145Y0336998D01*
X0187171Y0337062D01*
X0187193Y0337127D01*
X0187212Y0337193D01*
X0187227Y0337260D01*
X0187238Y0337328D01*
X0187246Y0337397D01*
X0187250Y0337466D01*
X0187250Y0337534D01*
X0187246Y0337603D01*
X0187238Y0337672D01*
X0187227Y0337740D01*
X0187212Y0337807D01*
X0187193Y0337873D01*
X0187171Y0337938D01*
X0187145Y0338002D01*
X0187115Y0338064D01*
X0187083Y0338125D01*
X0187046Y0338184D01*
X0187007Y0338240D01*
X0186965Y0338295D01*
X0186920Y0338347D01*
X0186872Y0338396D01*
X0186821Y0338443D01*
X0186768Y0338486D01*
X0186712Y0338527D01*
X0186655Y0338565D01*
X0186595Y0338599D01*
X0186533Y0338630D01*
X0186470Y0338658D01*
X0186406Y0338682D01*
X0186340Y0338703D01*
X0186273Y0338720D01*
X0186206Y0338733D01*
X0186138Y0338742D01*
X0186069Y0338748D01*
X0186000Y0338750D01*
X0184750Y0336250D02*
X0184663Y0336252D01*
X0184576Y0336258D01*
X0184489Y0336267D01*
X0184403Y0336280D01*
X0184317Y0336297D01*
X0184232Y0336318D01*
X0184149Y0336343D01*
X0184066Y0336371D01*
X0183985Y0336402D01*
X0183905Y0336437D01*
X0183827Y0336476D01*
X0183750Y0336518D01*
X0183675Y0336563D01*
X0183603Y0336612D01*
X0183532Y0336663D01*
X0183464Y0336718D01*
X0183399Y0336775D01*
X0183336Y0336836D01*
X0183275Y0336899D01*
X0183218Y0336964D01*
X0183163Y0337032D01*
X0183112Y0337103D01*
X0183063Y0337175D01*
X0183018Y0337250D01*
X0182976Y0337327D01*
X0182937Y0337405D01*
X0182902Y0337485D01*
X0182871Y0337566D01*
X0182843Y0337649D01*
X0182818Y0337732D01*
X0182797Y0337817D01*
X0182780Y0337903D01*
X0182767Y0337989D01*
X0182758Y0338076D01*
X0182752Y0338163D01*
X0182750Y0338250D01*
X0177126Y0307303D02*
X0177126Y0287618D01*
X0192874Y0287618D01*
X0192874Y0307303D01*
X0177126Y0307303D01*
X0148800Y0262929D02*
X0146800Y0262929D01*
X0146732Y0262927D01*
X0146665Y0262922D01*
X0146598Y0262913D01*
X0146531Y0262900D01*
X0146466Y0262883D01*
X0146401Y0262864D01*
X0146337Y0262840D01*
X0146275Y0262813D01*
X0146214Y0262783D01*
X0146156Y0262750D01*
X0146099Y0262714D01*
X0146044Y0262674D01*
X0145991Y0262632D01*
X0145940Y0262586D01*
X0145893Y0262539D01*
X0145847Y0262488D01*
X0145805Y0262435D01*
X0145765Y0262380D01*
X0145729Y0262323D01*
X0145696Y0262265D01*
X0145666Y0262204D01*
X0145639Y0262142D01*
X0145615Y0262078D01*
X0145596Y0262013D01*
X0145579Y0261948D01*
X0145566Y0261881D01*
X0145557Y0261814D01*
X0145552Y0261747D01*
X0145550Y0261679D01*
X0145550Y0260429D01*
X0150050Y0260429D01*
X0150050Y0261679D01*
X0150048Y0261747D01*
X0150043Y0261814D01*
X0150034Y0261881D01*
X0150021Y0261948D01*
X0150004Y0262013D01*
X0149985Y0262078D01*
X0149961Y0262142D01*
X0149934Y0262204D01*
X0149904Y0262265D01*
X0149871Y0262323D01*
X0149835Y0262380D01*
X0149795Y0262435D01*
X0149753Y0262488D01*
X0149707Y0262539D01*
X0149660Y0262586D01*
X0149609Y0262632D01*
X0149556Y0262674D01*
X0149501Y0262714D01*
X0149444Y0262750D01*
X0149386Y0262783D01*
X0149325Y0262813D01*
X0149263Y0262840D01*
X0149199Y0262864D01*
X0149134Y0262883D01*
X0149069Y0262900D01*
X0149002Y0262913D01*
X0148935Y0262922D01*
X0148868Y0262927D01*
X0148800Y0262929D01*
X0150050Y0258079D02*
X0145550Y0258079D01*
X0148050Y0256579D01*
X0145550Y0255079D01*
X0150050Y0255079D01*
X0150050Y0252729D02*
X0150050Y0251229D01*
X0150048Y0251169D01*
X0150043Y0251108D01*
X0150034Y0251049D01*
X0150021Y0250990D01*
X0150005Y0250931D01*
X0149985Y0250874D01*
X0149962Y0250819D01*
X0149935Y0250764D01*
X0149906Y0250712D01*
X0149873Y0250661D01*
X0149837Y0250612D01*
X0149799Y0250566D01*
X0149757Y0250522D01*
X0149713Y0250480D01*
X0149667Y0250442D01*
X0149618Y0250406D01*
X0149567Y0250373D01*
X0149515Y0250344D01*
X0149460Y0250317D01*
X0149405Y0250294D01*
X0149348Y0250274D01*
X0149289Y0250258D01*
X0149230Y0250245D01*
X0149171Y0250236D01*
X0149110Y0250231D01*
X0149050Y0250229D01*
X0146550Y0250229D01*
X0146490Y0250231D01*
X0146429Y0250236D01*
X0146370Y0250245D01*
X0146311Y0250258D01*
X0146252Y0250274D01*
X0146195Y0250294D01*
X0146140Y0250317D01*
X0146085Y0250344D01*
X0146033Y0250373D01*
X0145982Y0250406D01*
X0145933Y0250442D01*
X0145887Y0250480D01*
X0145843Y0250522D01*
X0145801Y0250566D01*
X0145763Y0250612D01*
X0145727Y0250661D01*
X0145694Y0250712D01*
X0145665Y0250764D01*
X0145638Y0250819D01*
X0145615Y0250874D01*
X0145595Y0250931D01*
X0145579Y0250990D01*
X0145566Y0251049D01*
X0145557Y0251108D01*
X0145552Y0251169D01*
X0145550Y0251229D01*
X0145550Y0252729D01*
X0147550Y0252729D02*
X0150050Y0252729D01*
X0147550Y0252729D02*
X0147550Y0251979D01*
X0147550Y0247704D02*
X0150050Y0245579D01*
X0150050Y0248079D01*
X0146550Y0245579D02*
X0146481Y0245603D01*
X0146414Y0245631D01*
X0146348Y0245662D01*
X0146284Y0245696D01*
X0146222Y0245733D01*
X0146161Y0245774D01*
X0146103Y0245817D01*
X0146047Y0245863D01*
X0145993Y0245913D01*
X0145942Y0245964D01*
X0145894Y0246018D01*
X0145848Y0246075D01*
X0145805Y0246134D01*
X0145766Y0246195D01*
X0145729Y0246257D01*
X0145696Y0246322D01*
X0145665Y0246388D01*
X0145639Y0246456D01*
X0145615Y0246524D01*
X0145595Y0246594D01*
X0145579Y0246665D01*
X0145566Y0246737D01*
X0145557Y0246809D01*
X0145552Y0246881D01*
X0145550Y0246954D01*
X0145552Y0247019D01*
X0145558Y0247085D01*
X0145567Y0247149D01*
X0145580Y0247213D01*
X0145597Y0247277D01*
X0145618Y0247339D01*
X0145642Y0247400D01*
X0145670Y0247459D01*
X0145701Y0247517D01*
X0145735Y0247572D01*
X0145773Y0247626D01*
X0145813Y0247677D01*
X0145857Y0247726D01*
X0145903Y0247772D01*
X0145952Y0247816D01*
X0146003Y0247856D01*
X0146057Y0247894D01*
X0146113Y0247928D01*
X0146170Y0247959D01*
X0146229Y0247987D01*
X0146290Y0248011D01*
X0146352Y0248032D01*
X0146416Y0248049D01*
X0146480Y0248062D01*
X0146544Y0248071D01*
X0146610Y0248077D01*
X0146675Y0248079D01*
X0146740Y0248077D01*
X0146805Y0248072D01*
X0146870Y0248063D01*
X0146934Y0248051D01*
X0146997Y0248035D01*
X0147059Y0248016D01*
X0147121Y0247994D01*
X0147181Y0247968D01*
X0147239Y0247939D01*
X0147296Y0247907D01*
X0147351Y0247872D01*
X0147404Y0247834D01*
X0147455Y0247794D01*
X0147504Y0247750D01*
X0147550Y0247704D01*
X0148050Y0242554D02*
X0148050Y0241304D01*
X0148050Y0242554D02*
X0148048Y0242623D01*
X0148042Y0242692D01*
X0148033Y0242760D01*
X0148020Y0242827D01*
X0148003Y0242894D01*
X0147982Y0242960D01*
X0147958Y0243024D01*
X0147930Y0243087D01*
X0147899Y0243149D01*
X0147865Y0243209D01*
X0147827Y0243266D01*
X0147786Y0243322D01*
X0147743Y0243375D01*
X0147696Y0243426D01*
X0147647Y0243474D01*
X0147595Y0243519D01*
X0147540Y0243561D01*
X0147484Y0243600D01*
X0147425Y0243637D01*
X0147364Y0243669D01*
X0147302Y0243699D01*
X0147238Y0243725D01*
X0147173Y0243747D01*
X0147107Y0243766D01*
X0147040Y0243781D01*
X0146972Y0243792D01*
X0146903Y0243800D01*
X0146834Y0243804D01*
X0146766Y0243804D01*
X0146697Y0243800D01*
X0146628Y0243792D01*
X0146560Y0243781D01*
X0146493Y0243766D01*
X0146427Y0243747D01*
X0146362Y0243725D01*
X0146298Y0243699D01*
X0146236Y0243669D01*
X0146175Y0243637D01*
X0146116Y0243600D01*
X0146060Y0243561D01*
X0146005Y0243519D01*
X0145953Y0243474D01*
X0145904Y0243426D01*
X0145857Y0243375D01*
X0145814Y0243322D01*
X0145773Y0243266D01*
X0145735Y0243209D01*
X0145701Y0243149D01*
X0145670Y0243087D01*
X0145642Y0243024D01*
X0145618Y0242960D01*
X0145597Y0242894D01*
X0145580Y0242827D01*
X0145567Y0242760D01*
X0145558Y0242692D01*
X0145552Y0242623D01*
X0145550Y0242554D01*
X0145550Y0241304D01*
X0150050Y0241304D01*
X0149050Y0238950D02*
X0145550Y0238950D01*
X0149050Y0238950D02*
X0149110Y0238948D01*
X0149171Y0238943D01*
X0149230Y0238934D01*
X0149289Y0238921D01*
X0149348Y0238905D01*
X0149405Y0238885D01*
X0149460Y0238862D01*
X0149515Y0238835D01*
X0149567Y0238806D01*
X0149618Y0238773D01*
X0149667Y0238737D01*
X0149713Y0238699D01*
X0149757Y0238657D01*
X0149799Y0238613D01*
X0149837Y0238567D01*
X0149873Y0238518D01*
X0149906Y0238467D01*
X0149935Y0238415D01*
X0149962Y0238360D01*
X0149985Y0238305D01*
X0150005Y0238248D01*
X0150021Y0238189D01*
X0150034Y0238130D01*
X0150043Y0238071D01*
X0150048Y0238010D01*
X0150050Y0237950D01*
X0150050Y0237450D01*
X0199626Y0232618D02*
X0199626Y0252303D01*
X0215374Y0252303D01*
X0215374Y0232618D01*
X0199626Y0232618D01*
X0199626Y0224803D02*
X0199626Y0205118D01*
X0215374Y0205118D01*
X0215374Y0224803D01*
X0199626Y0224803D01*
X0187250Y0416250D02*
X0187250Y0418750D01*
X0187250Y0416250D02*
X0184750Y0418375D01*
X0182750Y0417625D02*
X0182752Y0417552D01*
X0182757Y0417480D01*
X0182766Y0417408D01*
X0182779Y0417336D01*
X0182795Y0417265D01*
X0182815Y0417195D01*
X0182839Y0417127D01*
X0182865Y0417059D01*
X0182896Y0416993D01*
X0182929Y0416928D01*
X0182966Y0416866D01*
X0183005Y0416805D01*
X0183048Y0416746D01*
X0183094Y0416689D01*
X0183142Y0416635D01*
X0183193Y0416584D01*
X0183247Y0416534D01*
X0183303Y0416488D01*
X0183361Y0416445D01*
X0183422Y0416404D01*
X0183484Y0416367D01*
X0183548Y0416333D01*
X0183614Y0416302D01*
X0183681Y0416274D01*
X0183750Y0416250D01*
X0184750Y0418375D02*
X0184704Y0418421D01*
X0184655Y0418465D01*
X0184604Y0418505D01*
X0184551Y0418543D01*
X0184496Y0418578D01*
X0184439Y0418610D01*
X0184381Y0418639D01*
X0184321Y0418665D01*
X0184259Y0418687D01*
X0184197Y0418706D01*
X0184134Y0418722D01*
X0184070Y0418734D01*
X0184005Y0418743D01*
X0183940Y0418748D01*
X0183875Y0418750D01*
X0183810Y0418748D01*
X0183744Y0418742D01*
X0183680Y0418733D01*
X0183616Y0418720D01*
X0183552Y0418703D01*
X0183490Y0418682D01*
X0183429Y0418658D01*
X0183370Y0418630D01*
X0183313Y0418599D01*
X0183257Y0418565D01*
X0183203Y0418527D01*
X0183152Y0418487D01*
X0183103Y0418443D01*
X0183057Y0418397D01*
X0183013Y0418348D01*
X0182973Y0418297D01*
X0182935Y0418243D01*
X0182901Y0418188D01*
X0182870Y0418130D01*
X0182842Y0418071D01*
X0182818Y0418010D01*
X0182797Y0417948D01*
X0182780Y0417884D01*
X0182767Y0417820D01*
X0182758Y0417756D01*
X0182752Y0417690D01*
X0182750Y0417625D01*
X0183750Y0435250D02*
X0182750Y0436500D01*
X0187250Y0436500D01*
X0187250Y0435250D02*
X0187250Y0437750D01*
X0213356Y0463250D02*
X0213884Y0463250D01*
X0213928Y0463252D01*
X0213971Y0463257D01*
X0214014Y0463266D01*
X0214055Y0463279D01*
X0214096Y0463294D01*
X0214135Y0463314D01*
X0214173Y0463336D01*
X0214208Y0463361D01*
X0214242Y0463390D01*
X0214272Y0463420D01*
X0214301Y0463454D01*
X0214326Y0463489D01*
X0214348Y0463527D01*
X0214368Y0463566D01*
X0214383Y0463607D01*
X0214396Y0463648D01*
X0214405Y0463691D01*
X0214410Y0463734D01*
X0214412Y0463778D01*
X0214412Y0464622D01*
X0214410Y0464666D01*
X0214405Y0464709D01*
X0214396Y0464752D01*
X0214383Y0464793D01*
X0214368Y0464834D01*
X0214348Y0464873D01*
X0214326Y0464911D01*
X0214301Y0464946D01*
X0214272Y0464980D01*
X0214242Y0465010D01*
X0214208Y0465039D01*
X0214173Y0465064D01*
X0214135Y0465086D01*
X0214096Y0465106D01*
X0214055Y0465121D01*
X0214014Y0465134D01*
X0213971Y0465143D01*
X0213928Y0465148D01*
X0213884Y0465150D01*
X0213356Y0465150D01*
X0213356Y0463250D01*
X0215588Y0463778D02*
X0215588Y0464306D01*
X0216222Y0464306D01*
X0215589Y0464306D02*
X0215591Y0464364D01*
X0215597Y0464421D01*
X0215607Y0464478D01*
X0215620Y0464534D01*
X0215638Y0464589D01*
X0215659Y0464642D01*
X0215684Y0464694D01*
X0215712Y0464745D01*
X0215743Y0464793D01*
X0215778Y0464839D01*
X0215816Y0464882D01*
X0215857Y0464923D01*
X0215900Y0464961D01*
X0215946Y0464996D01*
X0215994Y0465027D01*
X0216045Y0465055D01*
X0216097Y0465080D01*
X0216150Y0465101D01*
X0216205Y0465119D01*
X0216261Y0465132D01*
X0216318Y0465142D01*
X0216375Y0465148D01*
X0216433Y0465150D01*
X0216644Y0463883D02*
X0216644Y0463778D01*
X0216644Y0463883D02*
X0216642Y0463922D01*
X0216637Y0463961D01*
X0216628Y0463998D01*
X0216616Y0464035D01*
X0216600Y0464071D01*
X0216581Y0464105D01*
X0216559Y0464137D01*
X0216534Y0464167D01*
X0216506Y0464195D01*
X0216476Y0464220D01*
X0216444Y0464242D01*
X0216410Y0464261D01*
X0216374Y0464277D01*
X0216337Y0464289D01*
X0216300Y0464298D01*
X0216261Y0464303D01*
X0216222Y0464305D01*
X0216644Y0463778D02*
X0216642Y0463733D01*
X0216636Y0463689D01*
X0216627Y0463645D01*
X0216614Y0463602D01*
X0216597Y0463561D01*
X0216577Y0463520D01*
X0216553Y0463482D01*
X0216527Y0463446D01*
X0216497Y0463413D01*
X0216465Y0463382D01*
X0216430Y0463353D01*
X0216393Y0463328D01*
X0216354Y0463307D01*
X0216313Y0463288D01*
X0216271Y0463273D01*
X0216227Y0463262D01*
X0216183Y0463254D01*
X0216138Y0463250D01*
X0216094Y0463250D01*
X0216049Y0463254D01*
X0216005Y0463262D01*
X0215961Y0463273D01*
X0215919Y0463288D01*
X0215878Y0463307D01*
X0215839Y0463328D01*
X0215802Y0463353D01*
X0215767Y0463382D01*
X0215735Y0463413D01*
X0215705Y0463446D01*
X0215679Y0463482D01*
X0215655Y0463520D01*
X0215635Y0463561D01*
X0215618Y0463602D01*
X0215605Y0463645D01*
X0215596Y0463689D01*
X0215590Y0463733D01*
X0215588Y0463778D01*
X0427750Y0338500D02*
X0432250Y0338500D01*
X0432250Y0337250D02*
X0432250Y0339750D01*
X0428750Y0337250D02*
X0427750Y0338500D01*
X0432250Y0356250D02*
X0432250Y0358750D01*
X0432250Y0356250D02*
X0429750Y0358375D01*
X0427750Y0357625D02*
X0427752Y0357552D01*
X0427757Y0357480D01*
X0427766Y0357408D01*
X0427779Y0357336D01*
X0427795Y0357265D01*
X0427815Y0357195D01*
X0427839Y0357127D01*
X0427865Y0357059D01*
X0427896Y0356993D01*
X0427929Y0356928D01*
X0427966Y0356866D01*
X0428005Y0356805D01*
X0428048Y0356746D01*
X0428094Y0356689D01*
X0428142Y0356635D01*
X0428193Y0356584D01*
X0428247Y0356534D01*
X0428303Y0356488D01*
X0428361Y0356445D01*
X0428422Y0356404D01*
X0428484Y0356367D01*
X0428548Y0356333D01*
X0428614Y0356302D01*
X0428681Y0356274D01*
X0428750Y0356250D01*
X0429750Y0358375D02*
X0429704Y0358421D01*
X0429655Y0358465D01*
X0429604Y0358505D01*
X0429551Y0358543D01*
X0429496Y0358578D01*
X0429439Y0358610D01*
X0429381Y0358639D01*
X0429321Y0358665D01*
X0429259Y0358687D01*
X0429197Y0358706D01*
X0429134Y0358722D01*
X0429070Y0358734D01*
X0429005Y0358743D01*
X0428940Y0358748D01*
X0428875Y0358750D01*
X0428810Y0358748D01*
X0428744Y0358742D01*
X0428680Y0358733D01*
X0428616Y0358720D01*
X0428552Y0358703D01*
X0428490Y0358682D01*
X0428429Y0358658D01*
X0428370Y0358630D01*
X0428313Y0358599D01*
X0428257Y0358565D01*
X0428203Y0358527D01*
X0428152Y0358487D01*
X0428103Y0358443D01*
X0428057Y0358397D01*
X0428013Y0358348D01*
X0427973Y0358297D01*
X0427935Y0358243D01*
X0427901Y0358188D01*
X0427870Y0358130D01*
X0427842Y0358071D01*
X0427818Y0358010D01*
X0427797Y0357948D01*
X0427780Y0357884D01*
X0427767Y0357820D01*
X0427758Y0357756D01*
X0427752Y0357690D01*
X0427750Y0357625D01*
X0437018Y0318922D02*
X0437018Y0317047D01*
X0433893Y0317047D01*
X0437018Y0317047D02*
X0437018Y0315172D01*
X0437018Y0317047D02*
X0439518Y0318922D01*
X0439518Y0317047D01*
X0442643Y0317047D01*
X0439518Y0317047D02*
X0439518Y0315172D01*
X0437018Y0317047D01*
X0437249Y0305143D02*
X0437874Y0304518D01*
X0437874Y0303268D01*
X0437874Y0302018D01*
X0438499Y0301393D01*
X0440374Y0301393D02*
X0437874Y0303268D01*
X0435374Y0305143D01*
X0435374Y0303268D01*
X0433499Y0303268D01*
X0435374Y0303268D02*
X0435374Y0301393D01*
X0437874Y0303268D01*
X0440374Y0305143D01*
X0440374Y0303268D01*
X0442249Y0303268D01*
X0440374Y0303268D02*
X0440374Y0301393D01*
D12*
X0167700Y0206478D02*
X0167700Y0205200D01*
X0172300Y0205200D01*
X0170256Y0205200D02*
X0170256Y0206478D01*
X0170256Y0206733D02*
X0172300Y0207756D01*
X0172300Y0209671D02*
X0172300Y0212227D01*
X0172300Y0210949D02*
X0167700Y0210949D01*
X0168722Y0209671D01*
X0167700Y0206478D02*
X0167702Y0206548D01*
X0167708Y0206619D01*
X0167717Y0206688D01*
X0167731Y0206757D01*
X0167748Y0206826D01*
X0167769Y0206893D01*
X0167794Y0206959D01*
X0167822Y0207023D01*
X0167854Y0207086D01*
X0167889Y0207147D01*
X0167928Y0207206D01*
X0167969Y0207263D01*
X0168014Y0207317D01*
X0168062Y0207369D01*
X0168112Y0207418D01*
X0168166Y0207465D01*
X0168221Y0207508D01*
X0168279Y0207548D01*
X0168339Y0207585D01*
X0168401Y0207618D01*
X0168465Y0207648D01*
X0168530Y0207675D01*
X0168596Y0207698D01*
X0168664Y0207717D01*
X0168733Y0207732D01*
X0168802Y0207744D01*
X0168872Y0207752D01*
X0168943Y0207756D01*
X0169013Y0207756D01*
X0169084Y0207752D01*
X0169154Y0207744D01*
X0169223Y0207732D01*
X0169292Y0207717D01*
X0169360Y0207698D01*
X0169426Y0207675D01*
X0169491Y0207648D01*
X0169555Y0207618D01*
X0169617Y0207585D01*
X0169677Y0207548D01*
X0169735Y0207508D01*
X0169790Y0207465D01*
X0169844Y0207418D01*
X0169894Y0207369D01*
X0169942Y0207317D01*
X0169987Y0207263D01*
X0170028Y0207206D01*
X0170067Y0207147D01*
X0170102Y0207086D01*
X0170134Y0207023D01*
X0170162Y0206959D01*
X0170187Y0206893D01*
X0170208Y0206826D01*
X0170225Y0206757D01*
X0170239Y0206688D01*
X0170248Y0206619D01*
X0170254Y0206548D01*
X0170256Y0206478D01*
X0184700Y0227773D02*
X0184700Y0229051D01*
X0184700Y0227773D02*
X0189300Y0227773D01*
X0187256Y0227773D02*
X0187256Y0229051D01*
X0187256Y0229307D02*
X0189300Y0230329D01*
X0189300Y0232244D02*
X0189300Y0234800D01*
X0189300Y0232244D02*
X0186744Y0234417D01*
X0184700Y0233650D02*
X0184702Y0233576D01*
X0184707Y0233502D01*
X0184717Y0233428D01*
X0184730Y0233355D01*
X0184746Y0233282D01*
X0184767Y0233211D01*
X0184791Y0233141D01*
X0184818Y0233072D01*
X0184849Y0233004D01*
X0184883Y0232938D01*
X0184920Y0232874D01*
X0184961Y0232812D01*
X0185005Y0232751D01*
X0185051Y0232694D01*
X0185101Y0232638D01*
X0185153Y0232585D01*
X0185208Y0232535D01*
X0185265Y0232488D01*
X0185325Y0232444D01*
X0185387Y0232402D01*
X0185450Y0232364D01*
X0185516Y0232329D01*
X0185583Y0232298D01*
X0185652Y0232270D01*
X0185722Y0232245D01*
X0186744Y0234417D02*
X0186697Y0234464D01*
X0186647Y0234508D01*
X0186595Y0234550D01*
X0186541Y0234589D01*
X0186485Y0234624D01*
X0186427Y0234657D01*
X0186367Y0234687D01*
X0186306Y0234713D01*
X0186243Y0234736D01*
X0186179Y0234755D01*
X0186115Y0234771D01*
X0186049Y0234784D01*
X0185983Y0234793D01*
X0185917Y0234798D01*
X0185850Y0234800D01*
X0185783Y0234798D01*
X0185716Y0234792D01*
X0185650Y0234783D01*
X0185585Y0234769D01*
X0185520Y0234752D01*
X0185457Y0234731D01*
X0185395Y0234706D01*
X0185334Y0234678D01*
X0185275Y0234646D01*
X0185218Y0234611D01*
X0185163Y0234572D01*
X0185111Y0234531D01*
X0185061Y0234486D01*
X0185014Y0234439D01*
X0184969Y0234389D01*
X0184928Y0234337D01*
X0184889Y0234282D01*
X0184854Y0234225D01*
X0184822Y0234166D01*
X0184794Y0234105D01*
X0184769Y0234043D01*
X0184748Y0233980D01*
X0184731Y0233915D01*
X0184717Y0233850D01*
X0184708Y0233784D01*
X0184702Y0233717D01*
X0184700Y0233650D01*
X0184700Y0229051D02*
X0184702Y0229121D01*
X0184708Y0229192D01*
X0184717Y0229261D01*
X0184731Y0229330D01*
X0184748Y0229399D01*
X0184769Y0229466D01*
X0184794Y0229532D01*
X0184822Y0229596D01*
X0184854Y0229659D01*
X0184889Y0229720D01*
X0184928Y0229779D01*
X0184969Y0229836D01*
X0185014Y0229890D01*
X0185062Y0229942D01*
X0185112Y0229991D01*
X0185166Y0230038D01*
X0185221Y0230081D01*
X0185279Y0230121D01*
X0185339Y0230158D01*
X0185401Y0230191D01*
X0185465Y0230221D01*
X0185530Y0230248D01*
X0185596Y0230271D01*
X0185664Y0230290D01*
X0185733Y0230305D01*
X0185802Y0230317D01*
X0185872Y0230325D01*
X0185943Y0230329D01*
X0186013Y0230329D01*
X0186084Y0230325D01*
X0186154Y0230317D01*
X0186223Y0230305D01*
X0186292Y0230290D01*
X0186360Y0230271D01*
X0186426Y0230248D01*
X0186491Y0230221D01*
X0186555Y0230191D01*
X0186617Y0230158D01*
X0186677Y0230121D01*
X0186735Y0230081D01*
X0186790Y0230038D01*
X0186844Y0229991D01*
X0186894Y0229942D01*
X0186942Y0229890D01*
X0186987Y0229836D01*
X0187028Y0229779D01*
X0187067Y0229720D01*
X0187102Y0229659D01*
X0187134Y0229596D01*
X0187162Y0229532D01*
X0187187Y0229466D01*
X0187208Y0229399D01*
X0187225Y0229330D01*
X0187239Y0229261D01*
X0187248Y0229192D01*
X0187254Y0229121D01*
X0187256Y0229051D01*
X0197031Y0228778D02*
X0197031Y0226222D01*
X0197032Y0226222D02*
X0197034Y0226160D01*
X0197039Y0226099D01*
X0197049Y0226038D01*
X0197062Y0225977D01*
X0197078Y0225918D01*
X0197098Y0225860D01*
X0197122Y0225803D01*
X0197149Y0225747D01*
X0197179Y0225693D01*
X0197213Y0225641D01*
X0197249Y0225592D01*
X0197289Y0225544D01*
X0197331Y0225499D01*
X0197376Y0225457D01*
X0197424Y0225417D01*
X0197473Y0225381D01*
X0197525Y0225347D01*
X0197579Y0225317D01*
X0197635Y0225290D01*
X0197692Y0225266D01*
X0197750Y0225246D01*
X0197809Y0225230D01*
X0197870Y0225217D01*
X0197931Y0225207D01*
X0197992Y0225202D01*
X0198054Y0225200D01*
X0199076Y0225200D01*
X0200944Y0226478D02*
X0200944Y0229800D01*
X0199076Y0229800D02*
X0198054Y0229800D01*
X0197992Y0229798D01*
X0197931Y0229793D01*
X0197870Y0229783D01*
X0197809Y0229770D01*
X0197750Y0229754D01*
X0197692Y0229734D01*
X0197635Y0229710D01*
X0197579Y0229683D01*
X0197525Y0229653D01*
X0197473Y0229619D01*
X0197424Y0229582D01*
X0197376Y0229543D01*
X0197331Y0229501D01*
X0197289Y0229456D01*
X0197249Y0229408D01*
X0197213Y0229359D01*
X0197179Y0229307D01*
X0197149Y0229253D01*
X0197122Y0229197D01*
X0197098Y0229140D01*
X0197078Y0229082D01*
X0197062Y0229023D01*
X0197049Y0228962D01*
X0197039Y0228901D01*
X0197034Y0228840D01*
X0197032Y0228778D01*
X0200944Y0226478D02*
X0200946Y0226408D01*
X0200952Y0226337D01*
X0200961Y0226268D01*
X0200975Y0226199D01*
X0200992Y0226130D01*
X0201013Y0226063D01*
X0201038Y0225997D01*
X0201066Y0225933D01*
X0201098Y0225870D01*
X0201133Y0225809D01*
X0201172Y0225750D01*
X0201213Y0225693D01*
X0201258Y0225639D01*
X0201306Y0225587D01*
X0201356Y0225538D01*
X0201410Y0225491D01*
X0201465Y0225448D01*
X0201523Y0225408D01*
X0201583Y0225371D01*
X0201645Y0225338D01*
X0201709Y0225308D01*
X0201774Y0225281D01*
X0201840Y0225258D01*
X0201908Y0225239D01*
X0201977Y0225224D01*
X0202046Y0225212D01*
X0202116Y0225204D01*
X0202187Y0225200D01*
X0202257Y0225200D01*
X0202328Y0225204D01*
X0202398Y0225212D01*
X0202467Y0225224D01*
X0202536Y0225239D01*
X0202604Y0225258D01*
X0202670Y0225281D01*
X0202735Y0225308D01*
X0202799Y0225338D01*
X0202861Y0225371D01*
X0202921Y0225408D01*
X0202979Y0225448D01*
X0203034Y0225491D01*
X0203088Y0225538D01*
X0203138Y0225587D01*
X0203186Y0225639D01*
X0203231Y0225693D01*
X0203272Y0225750D01*
X0203311Y0225809D01*
X0203346Y0225870D01*
X0203378Y0225933D01*
X0203406Y0225997D01*
X0203431Y0226063D01*
X0203452Y0226130D01*
X0203469Y0226199D01*
X0203483Y0226268D01*
X0203492Y0226337D01*
X0203498Y0226408D01*
X0203500Y0226478D01*
X0203500Y0229800D01*
X0205773Y0229800D02*
X0205773Y0225200D01*
X0205773Y0227244D02*
X0207051Y0227244D01*
X0207307Y0227244D02*
X0208329Y0225200D01*
X0210244Y0225200D02*
X0212800Y0225200D01*
X0211522Y0225200D02*
X0211522Y0229800D01*
X0210244Y0228778D01*
X0207051Y0229800D02*
X0207121Y0229798D01*
X0207192Y0229792D01*
X0207261Y0229783D01*
X0207330Y0229769D01*
X0207399Y0229752D01*
X0207466Y0229731D01*
X0207532Y0229706D01*
X0207596Y0229678D01*
X0207659Y0229646D01*
X0207720Y0229611D01*
X0207779Y0229572D01*
X0207836Y0229531D01*
X0207890Y0229486D01*
X0207942Y0229438D01*
X0207991Y0229388D01*
X0208038Y0229334D01*
X0208081Y0229279D01*
X0208121Y0229221D01*
X0208158Y0229161D01*
X0208191Y0229099D01*
X0208221Y0229035D01*
X0208248Y0228970D01*
X0208271Y0228904D01*
X0208290Y0228836D01*
X0208305Y0228767D01*
X0208317Y0228698D01*
X0208325Y0228628D01*
X0208329Y0228557D01*
X0208329Y0228487D01*
X0208325Y0228416D01*
X0208317Y0228346D01*
X0208305Y0228277D01*
X0208290Y0228208D01*
X0208271Y0228140D01*
X0208248Y0228074D01*
X0208221Y0228009D01*
X0208191Y0227945D01*
X0208158Y0227883D01*
X0208121Y0227823D01*
X0208081Y0227765D01*
X0208038Y0227710D01*
X0207991Y0227656D01*
X0207942Y0227606D01*
X0207890Y0227558D01*
X0207836Y0227513D01*
X0207779Y0227472D01*
X0207720Y0227433D01*
X0207659Y0227398D01*
X0207596Y0227366D01*
X0207532Y0227338D01*
X0207466Y0227313D01*
X0207399Y0227292D01*
X0207330Y0227275D01*
X0207261Y0227261D01*
X0207192Y0227252D01*
X0207121Y0227246D01*
X0207051Y0227244D01*
X0207051Y0229800D02*
X0205773Y0229800D01*
X0214744Y0225200D02*
X0217300Y0225200D01*
X0214744Y0225200D02*
X0216917Y0227756D01*
X0216150Y0229800D02*
X0216076Y0229798D01*
X0216002Y0229793D01*
X0215928Y0229783D01*
X0215855Y0229770D01*
X0215782Y0229754D01*
X0215711Y0229733D01*
X0215641Y0229709D01*
X0215572Y0229682D01*
X0215504Y0229651D01*
X0215438Y0229617D01*
X0215374Y0229580D01*
X0215312Y0229539D01*
X0215252Y0229495D01*
X0215194Y0229449D01*
X0215138Y0229399D01*
X0215085Y0229347D01*
X0215035Y0229292D01*
X0214988Y0229235D01*
X0214944Y0229175D01*
X0214902Y0229113D01*
X0214864Y0229050D01*
X0214829Y0228984D01*
X0214798Y0228917D01*
X0214770Y0228848D01*
X0214745Y0228778D01*
X0216917Y0227756D02*
X0216964Y0227803D01*
X0217008Y0227853D01*
X0217050Y0227905D01*
X0217089Y0227959D01*
X0217124Y0228015D01*
X0217157Y0228073D01*
X0217187Y0228133D01*
X0217213Y0228194D01*
X0217236Y0228257D01*
X0217255Y0228321D01*
X0217271Y0228385D01*
X0217284Y0228451D01*
X0217293Y0228517D01*
X0217298Y0228583D01*
X0217300Y0228650D01*
X0217298Y0228717D01*
X0217292Y0228784D01*
X0217283Y0228850D01*
X0217269Y0228915D01*
X0217252Y0228980D01*
X0217231Y0229043D01*
X0217206Y0229105D01*
X0217178Y0229166D01*
X0217146Y0229225D01*
X0217111Y0229282D01*
X0217072Y0229337D01*
X0217031Y0229389D01*
X0216986Y0229439D01*
X0216939Y0229486D01*
X0216889Y0229531D01*
X0216837Y0229572D01*
X0216782Y0229611D01*
X0216725Y0229646D01*
X0216666Y0229678D01*
X0216605Y0229706D01*
X0216543Y0229731D01*
X0216480Y0229752D01*
X0216415Y0229769D01*
X0216350Y0229783D01*
X0216284Y0229792D01*
X0216217Y0229798D01*
X0216150Y0229800D01*
X0216278Y0252700D02*
X0214744Y0252700D01*
X0216278Y0252700D02*
X0216340Y0252702D01*
X0216401Y0252707D01*
X0216462Y0252717D01*
X0216523Y0252730D01*
X0216582Y0252746D01*
X0216640Y0252766D01*
X0216697Y0252790D01*
X0216753Y0252817D01*
X0216807Y0252847D01*
X0216859Y0252881D01*
X0216908Y0252917D01*
X0216956Y0252957D01*
X0217001Y0252999D01*
X0217043Y0253044D01*
X0217083Y0253092D01*
X0217119Y0253141D01*
X0217153Y0253193D01*
X0217183Y0253247D01*
X0217210Y0253303D01*
X0217234Y0253360D01*
X0217254Y0253418D01*
X0217270Y0253477D01*
X0217283Y0253538D01*
X0217293Y0253599D01*
X0217298Y0253660D01*
X0217300Y0253722D01*
X0217300Y0254233D01*
X0217298Y0254295D01*
X0217293Y0254356D01*
X0217283Y0254417D01*
X0217270Y0254478D01*
X0217254Y0254537D01*
X0217234Y0254595D01*
X0217210Y0254652D01*
X0217183Y0254708D01*
X0217153Y0254762D01*
X0217119Y0254814D01*
X0217083Y0254863D01*
X0217043Y0254911D01*
X0217001Y0254956D01*
X0216956Y0254998D01*
X0216908Y0255038D01*
X0216859Y0255074D01*
X0216807Y0255108D01*
X0216753Y0255138D01*
X0216697Y0255165D01*
X0216640Y0255189D01*
X0216582Y0255209D01*
X0216523Y0255225D01*
X0216462Y0255238D01*
X0216401Y0255248D01*
X0216340Y0255253D01*
X0216278Y0255255D01*
X0216278Y0255256D02*
X0214744Y0255256D01*
X0214744Y0257300D01*
X0217300Y0257300D01*
X0211551Y0257300D02*
X0210273Y0257300D01*
X0210273Y0252700D01*
X0210273Y0254744D02*
X0211551Y0254744D01*
X0211807Y0254744D02*
X0212829Y0252700D01*
X0211551Y0254744D02*
X0211621Y0254746D01*
X0211692Y0254752D01*
X0211761Y0254761D01*
X0211830Y0254775D01*
X0211899Y0254792D01*
X0211966Y0254813D01*
X0212032Y0254838D01*
X0212096Y0254866D01*
X0212159Y0254898D01*
X0212220Y0254933D01*
X0212279Y0254972D01*
X0212336Y0255013D01*
X0212390Y0255058D01*
X0212442Y0255106D01*
X0212491Y0255156D01*
X0212538Y0255210D01*
X0212581Y0255265D01*
X0212621Y0255323D01*
X0212658Y0255383D01*
X0212691Y0255445D01*
X0212721Y0255509D01*
X0212748Y0255574D01*
X0212771Y0255640D01*
X0212790Y0255708D01*
X0212805Y0255777D01*
X0212817Y0255846D01*
X0212825Y0255916D01*
X0212829Y0255987D01*
X0212829Y0256057D01*
X0212825Y0256128D01*
X0212817Y0256198D01*
X0212805Y0256267D01*
X0212790Y0256336D01*
X0212771Y0256404D01*
X0212748Y0256470D01*
X0212721Y0256535D01*
X0212691Y0256599D01*
X0212658Y0256661D01*
X0212621Y0256721D01*
X0212581Y0256779D01*
X0212538Y0256834D01*
X0212491Y0256888D01*
X0212442Y0256938D01*
X0212390Y0256986D01*
X0212336Y0257031D01*
X0212279Y0257072D01*
X0212220Y0257111D01*
X0212159Y0257146D01*
X0212096Y0257178D01*
X0212032Y0257206D01*
X0211966Y0257231D01*
X0211899Y0257252D01*
X0211830Y0257269D01*
X0211761Y0257283D01*
X0211692Y0257292D01*
X0211621Y0257298D01*
X0211551Y0257300D01*
X0208000Y0257300D02*
X0208000Y0253978D01*
X0207998Y0253908D01*
X0207992Y0253837D01*
X0207983Y0253768D01*
X0207969Y0253699D01*
X0207952Y0253630D01*
X0207931Y0253563D01*
X0207906Y0253497D01*
X0207878Y0253433D01*
X0207846Y0253370D01*
X0207811Y0253309D01*
X0207772Y0253250D01*
X0207731Y0253193D01*
X0207686Y0253139D01*
X0207638Y0253087D01*
X0207588Y0253038D01*
X0207534Y0252991D01*
X0207479Y0252948D01*
X0207421Y0252908D01*
X0207361Y0252871D01*
X0207299Y0252838D01*
X0207235Y0252808D01*
X0207170Y0252781D01*
X0207104Y0252758D01*
X0207036Y0252739D01*
X0206967Y0252724D01*
X0206898Y0252712D01*
X0206828Y0252704D01*
X0206757Y0252700D01*
X0206687Y0252700D01*
X0206616Y0252704D01*
X0206546Y0252712D01*
X0206477Y0252724D01*
X0206408Y0252739D01*
X0206340Y0252758D01*
X0206274Y0252781D01*
X0206209Y0252808D01*
X0206145Y0252838D01*
X0206083Y0252871D01*
X0206023Y0252908D01*
X0205965Y0252948D01*
X0205910Y0252991D01*
X0205856Y0253038D01*
X0205806Y0253087D01*
X0205758Y0253139D01*
X0205713Y0253193D01*
X0205672Y0253250D01*
X0205633Y0253309D01*
X0205598Y0253370D01*
X0205566Y0253433D01*
X0205538Y0253497D01*
X0205513Y0253563D01*
X0205492Y0253630D01*
X0205475Y0253699D01*
X0205461Y0253768D01*
X0205452Y0253837D01*
X0205446Y0253908D01*
X0205444Y0253978D01*
X0205444Y0257300D01*
X0203576Y0257300D02*
X0202554Y0257300D01*
X0202492Y0257298D01*
X0202431Y0257293D01*
X0202370Y0257283D01*
X0202309Y0257270D01*
X0202250Y0257254D01*
X0202192Y0257234D01*
X0202135Y0257210D01*
X0202079Y0257183D01*
X0202025Y0257153D01*
X0201973Y0257119D01*
X0201924Y0257082D01*
X0201876Y0257043D01*
X0201831Y0257001D01*
X0201789Y0256956D01*
X0201749Y0256908D01*
X0201713Y0256859D01*
X0201679Y0256807D01*
X0201649Y0256753D01*
X0201622Y0256697D01*
X0201598Y0256640D01*
X0201578Y0256582D01*
X0201562Y0256523D01*
X0201549Y0256462D01*
X0201539Y0256401D01*
X0201534Y0256340D01*
X0201532Y0256278D01*
X0201531Y0256278D02*
X0201531Y0253722D01*
X0201532Y0253722D02*
X0201534Y0253660D01*
X0201539Y0253599D01*
X0201549Y0253538D01*
X0201562Y0253477D01*
X0201578Y0253418D01*
X0201598Y0253360D01*
X0201622Y0253303D01*
X0201649Y0253247D01*
X0201679Y0253193D01*
X0201713Y0253141D01*
X0201749Y0253092D01*
X0201789Y0253044D01*
X0201831Y0252999D01*
X0201876Y0252957D01*
X0201924Y0252917D01*
X0201973Y0252881D01*
X0202025Y0252847D01*
X0202079Y0252817D01*
X0202135Y0252790D01*
X0202192Y0252766D01*
X0202250Y0252746D01*
X0202309Y0252730D01*
X0202370Y0252717D01*
X0202431Y0252707D01*
X0202492Y0252702D01*
X0202554Y0252700D01*
X0203576Y0252700D01*
X0211222Y0272700D02*
X0212244Y0272700D01*
X0211222Y0272700D02*
X0211160Y0272702D01*
X0211099Y0272707D01*
X0211038Y0272717D01*
X0210977Y0272730D01*
X0210918Y0272746D01*
X0210860Y0272766D01*
X0210803Y0272790D01*
X0210747Y0272817D01*
X0210693Y0272847D01*
X0210641Y0272881D01*
X0210592Y0272917D01*
X0210544Y0272957D01*
X0210499Y0272999D01*
X0210457Y0273044D01*
X0210417Y0273092D01*
X0210381Y0273141D01*
X0210347Y0273193D01*
X0210317Y0273247D01*
X0210290Y0273303D01*
X0210266Y0273360D01*
X0210246Y0273418D01*
X0210230Y0273477D01*
X0210217Y0273538D01*
X0210207Y0273599D01*
X0210202Y0273660D01*
X0210200Y0273722D01*
X0210200Y0276278D01*
X0210202Y0276340D01*
X0210207Y0276401D01*
X0210217Y0276462D01*
X0210230Y0276523D01*
X0210246Y0276582D01*
X0210266Y0276640D01*
X0210290Y0276697D01*
X0210317Y0276753D01*
X0210347Y0276807D01*
X0210381Y0276859D01*
X0210417Y0276908D01*
X0210457Y0276956D01*
X0210499Y0277001D01*
X0210544Y0277043D01*
X0210592Y0277082D01*
X0210641Y0277119D01*
X0210693Y0277153D01*
X0210747Y0277183D01*
X0210803Y0277210D01*
X0210860Y0277234D01*
X0210918Y0277254D01*
X0210977Y0277270D01*
X0211038Y0277283D01*
X0211099Y0277293D01*
X0211160Y0277298D01*
X0211222Y0277300D01*
X0212244Y0277300D01*
X0213963Y0276022D02*
X0213963Y0275767D01*
X0213965Y0275705D01*
X0213970Y0275644D01*
X0213980Y0275583D01*
X0213993Y0275522D01*
X0214009Y0275463D01*
X0214029Y0275405D01*
X0214053Y0275348D01*
X0214080Y0275292D01*
X0214110Y0275238D01*
X0214144Y0275186D01*
X0214180Y0275137D01*
X0214220Y0275089D01*
X0214262Y0275044D01*
X0214307Y0275002D01*
X0214355Y0274962D01*
X0214404Y0274926D01*
X0214456Y0274892D01*
X0214510Y0274862D01*
X0214566Y0274835D01*
X0214623Y0274811D01*
X0214681Y0274791D01*
X0214740Y0274775D01*
X0214801Y0274762D01*
X0214862Y0274752D01*
X0214923Y0274747D01*
X0214985Y0274745D01*
X0214985Y0274744D02*
X0216519Y0274744D01*
X0216519Y0276022D01*
X0216517Y0276092D01*
X0216511Y0276163D01*
X0216502Y0276232D01*
X0216488Y0276301D01*
X0216471Y0276370D01*
X0216450Y0276437D01*
X0216425Y0276503D01*
X0216397Y0276567D01*
X0216365Y0276630D01*
X0216330Y0276691D01*
X0216291Y0276750D01*
X0216250Y0276807D01*
X0216205Y0276861D01*
X0216157Y0276913D01*
X0216107Y0276962D01*
X0216053Y0277009D01*
X0215998Y0277052D01*
X0215940Y0277092D01*
X0215880Y0277129D01*
X0215818Y0277162D01*
X0215754Y0277192D01*
X0215689Y0277219D01*
X0215623Y0277242D01*
X0215555Y0277261D01*
X0215486Y0277276D01*
X0215417Y0277288D01*
X0215347Y0277296D01*
X0215276Y0277300D01*
X0215206Y0277300D01*
X0215135Y0277296D01*
X0215065Y0277288D01*
X0214996Y0277276D01*
X0214927Y0277261D01*
X0214859Y0277242D01*
X0214793Y0277219D01*
X0214728Y0277192D01*
X0214664Y0277162D01*
X0214602Y0277129D01*
X0214542Y0277092D01*
X0214484Y0277052D01*
X0214429Y0277009D01*
X0214375Y0276962D01*
X0214325Y0276913D01*
X0214277Y0276861D01*
X0214232Y0276807D01*
X0214191Y0276750D01*
X0214152Y0276691D01*
X0214117Y0276630D01*
X0214085Y0276567D01*
X0214057Y0276503D01*
X0214032Y0276437D01*
X0214011Y0276370D01*
X0213994Y0276301D01*
X0213980Y0276232D01*
X0213971Y0276163D01*
X0213965Y0276092D01*
X0213963Y0276022D01*
X0216518Y0274744D02*
X0216516Y0274655D01*
X0216510Y0274566D01*
X0216501Y0274477D01*
X0216487Y0274389D01*
X0216470Y0274302D01*
X0216448Y0274215D01*
X0216423Y0274129D01*
X0216395Y0274045D01*
X0216362Y0273962D01*
X0216326Y0273880D01*
X0216287Y0273800D01*
X0216244Y0273722D01*
X0216198Y0273646D01*
X0216148Y0273572D01*
X0216096Y0273500D01*
X0216040Y0273430D01*
X0215981Y0273363D01*
X0215919Y0273299D01*
X0215855Y0273237D01*
X0215788Y0273178D01*
X0215718Y0273122D01*
X0215646Y0273070D01*
X0215572Y0273020D01*
X0215496Y0272974D01*
X0215418Y0272931D01*
X0215338Y0272892D01*
X0215256Y0272856D01*
X0215173Y0272823D01*
X0215089Y0272795D01*
X0215003Y0272770D01*
X0214916Y0272748D01*
X0214829Y0272731D01*
X0214741Y0272717D01*
X0214652Y0272708D01*
X0214563Y0272702D01*
X0214474Y0272700D01*
X0213963Y0290200D02*
X0216519Y0290200D01*
X0215241Y0290200D02*
X0215241Y0294800D01*
X0213963Y0293778D01*
X0212244Y0294800D02*
X0211222Y0294800D01*
X0211160Y0294798D01*
X0211099Y0294793D01*
X0211038Y0294783D01*
X0210977Y0294770D01*
X0210918Y0294754D01*
X0210860Y0294734D01*
X0210803Y0294710D01*
X0210747Y0294683D01*
X0210693Y0294653D01*
X0210641Y0294619D01*
X0210592Y0294582D01*
X0210544Y0294543D01*
X0210499Y0294501D01*
X0210457Y0294456D01*
X0210417Y0294408D01*
X0210381Y0294359D01*
X0210347Y0294307D01*
X0210317Y0294253D01*
X0210290Y0294197D01*
X0210266Y0294140D01*
X0210246Y0294082D01*
X0210230Y0294023D01*
X0210217Y0293962D01*
X0210207Y0293901D01*
X0210202Y0293840D01*
X0210200Y0293778D01*
X0210200Y0291222D01*
X0210202Y0291160D01*
X0210207Y0291099D01*
X0210217Y0291038D01*
X0210230Y0290977D01*
X0210246Y0290918D01*
X0210266Y0290860D01*
X0210290Y0290803D01*
X0210317Y0290747D01*
X0210347Y0290693D01*
X0210381Y0290641D01*
X0210417Y0290592D01*
X0210457Y0290544D01*
X0210499Y0290499D01*
X0210544Y0290457D01*
X0210592Y0290417D01*
X0210641Y0290381D01*
X0210693Y0290347D01*
X0210747Y0290317D01*
X0210803Y0290290D01*
X0210860Y0290266D01*
X0210918Y0290246D01*
X0210977Y0290230D01*
X0211038Y0290217D01*
X0211099Y0290207D01*
X0211160Y0290202D01*
X0211222Y0290200D01*
X0212244Y0290200D01*
X0220636Y0290839D02*
X0220684Y0290943D01*
X0220730Y0291048D01*
X0220772Y0291154D01*
X0220811Y0291262D01*
X0220847Y0291371D01*
X0220879Y0291481D01*
X0220909Y0291592D01*
X0220934Y0291704D01*
X0220957Y0291816D01*
X0220976Y0291929D01*
X0220991Y0292043D01*
X0221003Y0292157D01*
X0221012Y0292271D01*
X0221017Y0292385D01*
X0221019Y0292500D01*
X0218463Y0292500D02*
X0218465Y0292615D01*
X0218470Y0292729D01*
X0218479Y0292843D01*
X0218491Y0292957D01*
X0218506Y0293071D01*
X0218525Y0293184D01*
X0218548Y0293296D01*
X0218573Y0293408D01*
X0218603Y0293519D01*
X0218635Y0293629D01*
X0218671Y0293738D01*
X0218710Y0293846D01*
X0218752Y0293952D01*
X0218798Y0294057D01*
X0218846Y0294161D01*
X0219741Y0294800D02*
X0219800Y0294798D01*
X0219858Y0294793D01*
X0219916Y0294784D01*
X0219973Y0294771D01*
X0220030Y0294755D01*
X0220085Y0294735D01*
X0220139Y0294712D01*
X0220191Y0294686D01*
X0220242Y0294656D01*
X0220291Y0294624D01*
X0220338Y0294588D01*
X0220382Y0294550D01*
X0220424Y0294509D01*
X0220463Y0294465D01*
X0220500Y0294419D01*
X0220533Y0294371D01*
X0220564Y0294321D01*
X0220591Y0294269D01*
X0220615Y0294216D01*
X0220636Y0294161D01*
X0220763Y0293778D02*
X0218719Y0291222D01*
X0219741Y0290200D02*
X0219800Y0290202D01*
X0219858Y0290207D01*
X0219916Y0290216D01*
X0219973Y0290229D01*
X0220030Y0290245D01*
X0220085Y0290265D01*
X0220139Y0290288D01*
X0220191Y0290314D01*
X0220242Y0290344D01*
X0220291Y0290376D01*
X0220338Y0290412D01*
X0220382Y0290450D01*
X0220424Y0290491D01*
X0220463Y0290535D01*
X0220500Y0290581D01*
X0220533Y0290629D01*
X0220564Y0290679D01*
X0220591Y0290731D01*
X0220615Y0290784D01*
X0220636Y0290839D01*
X0219741Y0290200D02*
X0219682Y0290202D01*
X0219624Y0290207D01*
X0219566Y0290216D01*
X0219509Y0290229D01*
X0219452Y0290245D01*
X0219397Y0290265D01*
X0219343Y0290288D01*
X0219291Y0290314D01*
X0219240Y0290344D01*
X0219191Y0290376D01*
X0219144Y0290412D01*
X0219100Y0290450D01*
X0219058Y0290491D01*
X0219019Y0290535D01*
X0218982Y0290581D01*
X0218949Y0290629D01*
X0218918Y0290679D01*
X0218891Y0290731D01*
X0218867Y0290784D01*
X0218846Y0290839D01*
X0221019Y0292500D02*
X0221017Y0292615D01*
X0221012Y0292729D01*
X0221003Y0292843D01*
X0220991Y0292957D01*
X0220976Y0293071D01*
X0220957Y0293184D01*
X0220934Y0293296D01*
X0220909Y0293408D01*
X0220879Y0293519D01*
X0220847Y0293629D01*
X0220811Y0293738D01*
X0220772Y0293846D01*
X0220730Y0293952D01*
X0220684Y0294057D01*
X0220636Y0294161D01*
X0219741Y0294800D02*
X0219682Y0294798D01*
X0219624Y0294793D01*
X0219566Y0294784D01*
X0219509Y0294771D01*
X0219452Y0294755D01*
X0219397Y0294735D01*
X0219343Y0294712D01*
X0219291Y0294686D01*
X0219240Y0294656D01*
X0219191Y0294624D01*
X0219144Y0294588D01*
X0219100Y0294550D01*
X0219058Y0294509D01*
X0219019Y0294465D01*
X0218982Y0294419D01*
X0218949Y0294371D01*
X0218918Y0294321D01*
X0218891Y0294269D01*
X0218867Y0294216D01*
X0218846Y0294161D01*
X0218463Y0292500D02*
X0218465Y0292385D01*
X0218470Y0292271D01*
X0218479Y0292157D01*
X0218491Y0292043D01*
X0218506Y0291929D01*
X0218525Y0291816D01*
X0218548Y0291704D01*
X0218573Y0291592D01*
X0218603Y0291481D01*
X0218635Y0291371D01*
X0218671Y0291262D01*
X0218710Y0291154D01*
X0218752Y0291048D01*
X0218798Y0290943D01*
X0218846Y0290839D01*
X0218463Y0307700D02*
X0221019Y0307700D01*
X0219741Y0307700D02*
X0219741Y0312300D01*
X0218463Y0311278D01*
X0215241Y0312300D02*
X0215241Y0307700D01*
X0213963Y0307700D02*
X0216519Y0307700D01*
X0212244Y0307700D02*
X0211222Y0307700D01*
X0211160Y0307702D01*
X0211099Y0307707D01*
X0211038Y0307717D01*
X0210977Y0307730D01*
X0210918Y0307746D01*
X0210860Y0307766D01*
X0210803Y0307790D01*
X0210747Y0307817D01*
X0210693Y0307847D01*
X0210641Y0307881D01*
X0210592Y0307917D01*
X0210544Y0307957D01*
X0210499Y0307999D01*
X0210457Y0308044D01*
X0210417Y0308092D01*
X0210381Y0308141D01*
X0210347Y0308193D01*
X0210317Y0308247D01*
X0210290Y0308303D01*
X0210266Y0308360D01*
X0210246Y0308418D01*
X0210230Y0308477D01*
X0210217Y0308538D01*
X0210207Y0308599D01*
X0210202Y0308660D01*
X0210200Y0308722D01*
X0210200Y0311278D01*
X0210202Y0311340D01*
X0210207Y0311401D01*
X0210217Y0311462D01*
X0210230Y0311523D01*
X0210246Y0311582D01*
X0210266Y0311640D01*
X0210290Y0311697D01*
X0210317Y0311753D01*
X0210347Y0311807D01*
X0210381Y0311859D01*
X0210417Y0311908D01*
X0210457Y0311956D01*
X0210499Y0312001D01*
X0210544Y0312043D01*
X0210592Y0312082D01*
X0210641Y0312119D01*
X0210693Y0312153D01*
X0210747Y0312183D01*
X0210803Y0312210D01*
X0210860Y0312234D01*
X0210918Y0312254D01*
X0210977Y0312270D01*
X0211038Y0312283D01*
X0211099Y0312293D01*
X0211160Y0312298D01*
X0211222Y0312300D01*
X0212244Y0312300D01*
X0213963Y0311278D02*
X0215241Y0312300D01*
X0220222Y0325200D02*
X0222778Y0325200D01*
X0222840Y0325202D01*
X0222901Y0325207D01*
X0222962Y0325217D01*
X0223023Y0325230D01*
X0223082Y0325246D01*
X0223140Y0325266D01*
X0223197Y0325290D01*
X0223253Y0325317D01*
X0223307Y0325347D01*
X0223359Y0325381D01*
X0223408Y0325417D01*
X0223456Y0325457D01*
X0223501Y0325499D01*
X0223543Y0325544D01*
X0223583Y0325592D01*
X0223619Y0325641D01*
X0223653Y0325693D01*
X0223683Y0325747D01*
X0223710Y0325803D01*
X0223734Y0325860D01*
X0223754Y0325918D01*
X0223770Y0325977D01*
X0223783Y0326038D01*
X0223793Y0326099D01*
X0223798Y0326160D01*
X0223800Y0326222D01*
X0223800Y0327244D01*
X0223800Y0328963D02*
X0223800Y0331519D01*
X0223800Y0330241D02*
X0219200Y0330241D01*
X0220222Y0328963D01*
X0219200Y0327244D02*
X0219200Y0326222D01*
X0219202Y0326160D01*
X0219207Y0326099D01*
X0219217Y0326038D01*
X0219230Y0325977D01*
X0219246Y0325918D01*
X0219266Y0325860D01*
X0219290Y0325803D01*
X0219317Y0325747D01*
X0219347Y0325693D01*
X0219381Y0325641D01*
X0219418Y0325592D01*
X0219457Y0325544D01*
X0219499Y0325499D01*
X0219544Y0325457D01*
X0219592Y0325417D01*
X0219641Y0325381D01*
X0219693Y0325347D01*
X0219747Y0325317D01*
X0219803Y0325290D01*
X0219860Y0325266D01*
X0219918Y0325246D01*
X0219977Y0325230D01*
X0220038Y0325217D01*
X0220099Y0325207D01*
X0220160Y0325202D01*
X0220222Y0325200D01*
X0220222Y0350200D02*
X0222778Y0350200D01*
X0222840Y0350202D01*
X0222901Y0350207D01*
X0222962Y0350217D01*
X0223023Y0350230D01*
X0223082Y0350246D01*
X0223140Y0350266D01*
X0223197Y0350290D01*
X0223253Y0350317D01*
X0223307Y0350347D01*
X0223359Y0350381D01*
X0223408Y0350417D01*
X0223456Y0350457D01*
X0223501Y0350499D01*
X0223543Y0350544D01*
X0223583Y0350592D01*
X0223619Y0350641D01*
X0223653Y0350693D01*
X0223683Y0350747D01*
X0223710Y0350803D01*
X0223734Y0350860D01*
X0223754Y0350918D01*
X0223770Y0350977D01*
X0223783Y0351038D01*
X0223793Y0351099D01*
X0223798Y0351160D01*
X0223800Y0351222D01*
X0223800Y0352244D01*
X0223800Y0353963D02*
X0223800Y0356519D01*
X0223800Y0353963D02*
X0221244Y0356135D01*
X0219200Y0355369D02*
X0219202Y0355295D01*
X0219207Y0355221D01*
X0219217Y0355147D01*
X0219230Y0355074D01*
X0219246Y0355001D01*
X0219267Y0354930D01*
X0219291Y0354860D01*
X0219318Y0354791D01*
X0219349Y0354723D01*
X0219383Y0354657D01*
X0219420Y0354593D01*
X0219461Y0354531D01*
X0219505Y0354470D01*
X0219551Y0354413D01*
X0219601Y0354357D01*
X0219653Y0354304D01*
X0219708Y0354254D01*
X0219765Y0354207D01*
X0219825Y0354163D01*
X0219887Y0354121D01*
X0219950Y0354083D01*
X0220016Y0354048D01*
X0220083Y0354017D01*
X0220152Y0353989D01*
X0220222Y0353964D01*
X0221244Y0356135D02*
X0221197Y0356182D01*
X0221147Y0356226D01*
X0221095Y0356268D01*
X0221041Y0356307D01*
X0220985Y0356342D01*
X0220927Y0356375D01*
X0220867Y0356405D01*
X0220806Y0356431D01*
X0220743Y0356454D01*
X0220679Y0356473D01*
X0220615Y0356489D01*
X0220549Y0356502D01*
X0220483Y0356511D01*
X0220417Y0356516D01*
X0220350Y0356518D01*
X0220350Y0356519D02*
X0220283Y0356517D01*
X0220216Y0356511D01*
X0220150Y0356502D01*
X0220085Y0356488D01*
X0220020Y0356471D01*
X0219957Y0356450D01*
X0219895Y0356425D01*
X0219834Y0356397D01*
X0219775Y0356365D01*
X0219718Y0356330D01*
X0219663Y0356291D01*
X0219611Y0356250D01*
X0219561Y0356205D01*
X0219514Y0356158D01*
X0219469Y0356108D01*
X0219428Y0356056D01*
X0219389Y0356001D01*
X0219354Y0355944D01*
X0219322Y0355885D01*
X0219294Y0355824D01*
X0219269Y0355762D01*
X0219248Y0355699D01*
X0219231Y0355634D01*
X0219217Y0355569D01*
X0219208Y0355503D01*
X0219202Y0355436D01*
X0219200Y0355369D01*
X0219200Y0352244D02*
X0219200Y0351222D01*
X0219202Y0351160D01*
X0219207Y0351099D01*
X0219217Y0351038D01*
X0219230Y0350977D01*
X0219246Y0350918D01*
X0219266Y0350860D01*
X0219290Y0350803D01*
X0219317Y0350747D01*
X0219347Y0350693D01*
X0219381Y0350641D01*
X0219418Y0350592D01*
X0219457Y0350544D01*
X0219499Y0350499D01*
X0219544Y0350457D01*
X0219592Y0350417D01*
X0219641Y0350381D01*
X0219693Y0350347D01*
X0219747Y0350317D01*
X0219803Y0350290D01*
X0219860Y0350266D01*
X0219918Y0350246D01*
X0219977Y0350230D01*
X0220038Y0350217D01*
X0220099Y0350207D01*
X0220160Y0350202D01*
X0220222Y0350200D01*
X0220222Y0374200D02*
X0222778Y0374200D01*
X0222840Y0374202D01*
X0222901Y0374207D01*
X0222962Y0374217D01*
X0223023Y0374230D01*
X0223082Y0374246D01*
X0223140Y0374266D01*
X0223197Y0374290D01*
X0223253Y0374317D01*
X0223307Y0374347D01*
X0223359Y0374381D01*
X0223408Y0374417D01*
X0223456Y0374457D01*
X0223501Y0374499D01*
X0223543Y0374544D01*
X0223583Y0374592D01*
X0223619Y0374641D01*
X0223653Y0374693D01*
X0223683Y0374747D01*
X0223710Y0374803D01*
X0223734Y0374860D01*
X0223754Y0374918D01*
X0223770Y0374977D01*
X0223783Y0375038D01*
X0223793Y0375099D01*
X0223798Y0375160D01*
X0223800Y0375222D01*
X0223800Y0376244D01*
X0223800Y0377963D02*
X0223800Y0379241D01*
X0223798Y0379311D01*
X0223792Y0379382D01*
X0223783Y0379451D01*
X0223769Y0379520D01*
X0223752Y0379589D01*
X0223731Y0379656D01*
X0223706Y0379722D01*
X0223678Y0379786D01*
X0223646Y0379849D01*
X0223611Y0379910D01*
X0223572Y0379969D01*
X0223531Y0380026D01*
X0223486Y0380080D01*
X0223438Y0380132D01*
X0223388Y0380181D01*
X0223334Y0380228D01*
X0223279Y0380271D01*
X0223221Y0380311D01*
X0223161Y0380348D01*
X0223099Y0380381D01*
X0223035Y0380411D01*
X0222970Y0380438D01*
X0222904Y0380461D01*
X0222836Y0380480D01*
X0222767Y0380495D01*
X0222698Y0380507D01*
X0222628Y0380515D01*
X0222557Y0380519D01*
X0222487Y0380519D01*
X0222416Y0380515D01*
X0222346Y0380507D01*
X0222277Y0380495D01*
X0222208Y0380480D01*
X0222140Y0380461D01*
X0222074Y0380438D01*
X0222009Y0380411D01*
X0221945Y0380381D01*
X0221883Y0380348D01*
X0221823Y0380311D01*
X0221765Y0380271D01*
X0221710Y0380228D01*
X0221656Y0380181D01*
X0221606Y0380132D01*
X0221558Y0380080D01*
X0221513Y0380026D01*
X0221472Y0379969D01*
X0221433Y0379910D01*
X0221398Y0379849D01*
X0221366Y0379786D01*
X0221338Y0379722D01*
X0221313Y0379656D01*
X0221292Y0379589D01*
X0221275Y0379520D01*
X0221261Y0379451D01*
X0221252Y0379382D01*
X0221246Y0379311D01*
X0221244Y0379241D01*
X0221244Y0379496D02*
X0221244Y0378474D01*
X0221244Y0379496D02*
X0221242Y0379559D01*
X0221236Y0379622D01*
X0221227Y0379684D01*
X0221213Y0379745D01*
X0221196Y0379806D01*
X0221175Y0379865D01*
X0221150Y0379923D01*
X0221122Y0379980D01*
X0221091Y0380034D01*
X0221056Y0380086D01*
X0221018Y0380137D01*
X0220977Y0380185D01*
X0220933Y0380230D01*
X0220887Y0380272D01*
X0220838Y0380312D01*
X0220787Y0380348D01*
X0220733Y0380381D01*
X0220678Y0380411D01*
X0220620Y0380437D01*
X0220562Y0380460D01*
X0220502Y0380479D01*
X0220441Y0380494D01*
X0220379Y0380506D01*
X0220316Y0380514D01*
X0220253Y0380518D01*
X0220191Y0380518D01*
X0220128Y0380514D01*
X0220065Y0380506D01*
X0220003Y0380494D01*
X0219942Y0380479D01*
X0219882Y0380460D01*
X0219824Y0380437D01*
X0219766Y0380411D01*
X0219711Y0380381D01*
X0219657Y0380348D01*
X0219606Y0380312D01*
X0219557Y0380272D01*
X0219511Y0380230D01*
X0219467Y0380185D01*
X0219426Y0380137D01*
X0219388Y0380086D01*
X0219353Y0380034D01*
X0219322Y0379980D01*
X0219294Y0379923D01*
X0219269Y0379865D01*
X0219248Y0379806D01*
X0219231Y0379745D01*
X0219217Y0379684D01*
X0219208Y0379622D01*
X0219202Y0379559D01*
X0219200Y0379496D01*
X0219200Y0377963D01*
X0219200Y0376244D02*
X0219200Y0375222D01*
X0219202Y0375160D01*
X0219207Y0375099D01*
X0219217Y0375038D01*
X0219230Y0374977D01*
X0219246Y0374918D01*
X0219266Y0374860D01*
X0219290Y0374803D01*
X0219317Y0374747D01*
X0219347Y0374693D01*
X0219381Y0374641D01*
X0219418Y0374592D01*
X0219457Y0374544D01*
X0219499Y0374499D01*
X0219544Y0374457D01*
X0219592Y0374417D01*
X0219641Y0374381D01*
X0219693Y0374347D01*
X0219747Y0374317D01*
X0219803Y0374290D01*
X0219860Y0374266D01*
X0219918Y0374246D01*
X0219977Y0374230D01*
X0220038Y0374217D01*
X0220099Y0374207D01*
X0220160Y0374202D01*
X0220222Y0374200D01*
X0241222Y0405200D02*
X0242244Y0405200D01*
X0241222Y0405200D02*
X0241160Y0405202D01*
X0241099Y0405207D01*
X0241038Y0405217D01*
X0240977Y0405230D01*
X0240918Y0405246D01*
X0240860Y0405266D01*
X0240803Y0405290D01*
X0240747Y0405317D01*
X0240693Y0405347D01*
X0240641Y0405381D01*
X0240592Y0405417D01*
X0240544Y0405457D01*
X0240499Y0405499D01*
X0240457Y0405544D01*
X0240417Y0405592D01*
X0240381Y0405641D01*
X0240347Y0405693D01*
X0240317Y0405747D01*
X0240290Y0405803D01*
X0240266Y0405860D01*
X0240246Y0405918D01*
X0240230Y0405977D01*
X0240217Y0406038D01*
X0240207Y0406099D01*
X0240202Y0406160D01*
X0240200Y0406222D01*
X0240200Y0408778D01*
X0240202Y0408840D01*
X0240207Y0408901D01*
X0240217Y0408962D01*
X0240230Y0409023D01*
X0240246Y0409082D01*
X0240266Y0409140D01*
X0240290Y0409197D01*
X0240317Y0409253D01*
X0240347Y0409307D01*
X0240381Y0409359D01*
X0240417Y0409408D01*
X0240457Y0409456D01*
X0240499Y0409501D01*
X0240544Y0409543D01*
X0240592Y0409582D01*
X0240641Y0409619D01*
X0240693Y0409653D01*
X0240747Y0409683D01*
X0240803Y0409710D01*
X0240860Y0409734D01*
X0240918Y0409754D01*
X0240977Y0409770D01*
X0241038Y0409783D01*
X0241099Y0409793D01*
X0241160Y0409798D01*
X0241222Y0409800D01*
X0242244Y0409800D01*
X0243481Y0411222D02*
X0243481Y0413778D01*
X0243482Y0413778D02*
X0243484Y0413840D01*
X0243489Y0413901D01*
X0243499Y0413962D01*
X0243512Y0414023D01*
X0243528Y0414082D01*
X0243548Y0414140D01*
X0243572Y0414197D01*
X0243599Y0414253D01*
X0243629Y0414307D01*
X0243663Y0414359D01*
X0243699Y0414408D01*
X0243739Y0414456D01*
X0243781Y0414501D01*
X0243826Y0414543D01*
X0243874Y0414582D01*
X0243923Y0414619D01*
X0243975Y0414653D01*
X0244029Y0414683D01*
X0244085Y0414710D01*
X0244142Y0414734D01*
X0244200Y0414754D01*
X0244259Y0414770D01*
X0244320Y0414783D01*
X0244381Y0414793D01*
X0244442Y0414798D01*
X0244504Y0414800D01*
X0245526Y0414800D01*
X0247244Y0414800D02*
X0249800Y0414800D01*
X0248778Y0412756D02*
X0247244Y0412756D01*
X0247244Y0414800D01*
X0248778Y0412755D02*
X0248840Y0412753D01*
X0248901Y0412748D01*
X0248962Y0412738D01*
X0249023Y0412725D01*
X0249082Y0412709D01*
X0249140Y0412689D01*
X0249197Y0412665D01*
X0249253Y0412638D01*
X0249307Y0412608D01*
X0249359Y0412574D01*
X0249408Y0412538D01*
X0249456Y0412498D01*
X0249501Y0412456D01*
X0249543Y0412411D01*
X0249583Y0412363D01*
X0249619Y0412314D01*
X0249653Y0412262D01*
X0249683Y0412208D01*
X0249710Y0412152D01*
X0249734Y0412095D01*
X0249754Y0412037D01*
X0249770Y0411978D01*
X0249783Y0411917D01*
X0249793Y0411856D01*
X0249798Y0411795D01*
X0249800Y0411733D01*
X0249800Y0411222D01*
X0249798Y0411160D01*
X0249793Y0411099D01*
X0249783Y0411038D01*
X0249770Y0410977D01*
X0249754Y0410918D01*
X0249734Y0410860D01*
X0249710Y0410803D01*
X0249683Y0410747D01*
X0249653Y0410693D01*
X0249619Y0410641D01*
X0249583Y0410592D01*
X0249543Y0410544D01*
X0249501Y0410499D01*
X0249456Y0410457D01*
X0249408Y0410417D01*
X0249359Y0410381D01*
X0249307Y0410347D01*
X0249253Y0410317D01*
X0249197Y0410290D01*
X0249140Y0410266D01*
X0249082Y0410246D01*
X0249023Y0410230D01*
X0248962Y0410217D01*
X0248901Y0410207D01*
X0248840Y0410202D01*
X0248778Y0410200D01*
X0247244Y0410200D01*
X0245526Y0410200D02*
X0244504Y0410200D01*
X0244985Y0409800D02*
X0243963Y0406222D01*
X0246519Y0406222D01*
X0245752Y0407244D02*
X0245752Y0405200D01*
X0244504Y0410200D02*
X0244442Y0410202D01*
X0244381Y0410207D01*
X0244320Y0410217D01*
X0244259Y0410230D01*
X0244200Y0410246D01*
X0244142Y0410266D01*
X0244085Y0410290D01*
X0244029Y0410317D01*
X0243975Y0410347D01*
X0243923Y0410381D01*
X0243874Y0410417D01*
X0243826Y0410457D01*
X0243781Y0410499D01*
X0243739Y0410544D01*
X0243699Y0410592D01*
X0243663Y0410641D01*
X0243629Y0410693D01*
X0243599Y0410747D01*
X0243572Y0410803D01*
X0243548Y0410860D01*
X0243528Y0410918D01*
X0243512Y0410977D01*
X0243499Y0411038D01*
X0243489Y0411099D01*
X0243484Y0411160D01*
X0243482Y0411222D01*
X0244504Y0430200D02*
X0245526Y0430200D01*
X0244504Y0430200D02*
X0244442Y0430202D01*
X0244381Y0430207D01*
X0244320Y0430217D01*
X0244259Y0430230D01*
X0244200Y0430246D01*
X0244142Y0430266D01*
X0244085Y0430290D01*
X0244029Y0430317D01*
X0243975Y0430347D01*
X0243923Y0430381D01*
X0243874Y0430417D01*
X0243826Y0430457D01*
X0243781Y0430499D01*
X0243739Y0430544D01*
X0243699Y0430592D01*
X0243663Y0430641D01*
X0243629Y0430693D01*
X0243599Y0430747D01*
X0243572Y0430803D01*
X0243548Y0430860D01*
X0243528Y0430918D01*
X0243512Y0430977D01*
X0243499Y0431038D01*
X0243489Y0431099D01*
X0243484Y0431160D01*
X0243482Y0431222D01*
X0243481Y0431222D02*
X0243481Y0433778D01*
X0243482Y0433778D02*
X0243484Y0433840D01*
X0243489Y0433901D01*
X0243499Y0433962D01*
X0243512Y0434023D01*
X0243528Y0434082D01*
X0243548Y0434140D01*
X0243572Y0434197D01*
X0243599Y0434253D01*
X0243629Y0434307D01*
X0243663Y0434359D01*
X0243699Y0434408D01*
X0243739Y0434456D01*
X0243781Y0434501D01*
X0243826Y0434543D01*
X0243874Y0434582D01*
X0243923Y0434619D01*
X0243975Y0434653D01*
X0244029Y0434683D01*
X0244085Y0434710D01*
X0244142Y0434734D01*
X0244200Y0434754D01*
X0244259Y0434770D01*
X0244320Y0434783D01*
X0244381Y0434793D01*
X0244442Y0434798D01*
X0244504Y0434800D01*
X0245526Y0434800D01*
X0247244Y0432756D02*
X0247244Y0431478D01*
X0247244Y0432756D02*
X0248778Y0432756D01*
X0247245Y0432756D02*
X0247247Y0432845D01*
X0247253Y0432934D01*
X0247262Y0433023D01*
X0247276Y0433111D01*
X0247293Y0433198D01*
X0247315Y0433285D01*
X0247340Y0433371D01*
X0247368Y0433455D01*
X0247401Y0433538D01*
X0247437Y0433620D01*
X0247476Y0433700D01*
X0247519Y0433778D01*
X0247565Y0433854D01*
X0247615Y0433928D01*
X0247667Y0434000D01*
X0247723Y0434070D01*
X0247782Y0434137D01*
X0247844Y0434201D01*
X0247908Y0434263D01*
X0247975Y0434322D01*
X0248045Y0434378D01*
X0248117Y0434430D01*
X0248191Y0434480D01*
X0248267Y0434526D01*
X0248345Y0434569D01*
X0248425Y0434608D01*
X0248507Y0434644D01*
X0248590Y0434677D01*
X0248674Y0434705D01*
X0248760Y0434730D01*
X0248847Y0434752D01*
X0248934Y0434769D01*
X0249022Y0434783D01*
X0249111Y0434792D01*
X0249200Y0434798D01*
X0249289Y0434800D01*
X0249800Y0431733D02*
X0249800Y0431478D01*
X0249800Y0431733D02*
X0249798Y0431795D01*
X0249793Y0431856D01*
X0249783Y0431917D01*
X0249770Y0431978D01*
X0249754Y0432037D01*
X0249734Y0432095D01*
X0249710Y0432152D01*
X0249683Y0432208D01*
X0249653Y0432262D01*
X0249619Y0432314D01*
X0249583Y0432363D01*
X0249543Y0432411D01*
X0249501Y0432456D01*
X0249456Y0432498D01*
X0249408Y0432538D01*
X0249359Y0432574D01*
X0249307Y0432608D01*
X0249253Y0432638D01*
X0249197Y0432665D01*
X0249140Y0432689D01*
X0249082Y0432709D01*
X0249023Y0432725D01*
X0248962Y0432738D01*
X0248901Y0432748D01*
X0248840Y0432753D01*
X0248778Y0432755D01*
X0249800Y0431478D02*
X0249798Y0431408D01*
X0249792Y0431337D01*
X0249783Y0431268D01*
X0249769Y0431199D01*
X0249752Y0431130D01*
X0249731Y0431063D01*
X0249706Y0430997D01*
X0249678Y0430933D01*
X0249646Y0430870D01*
X0249611Y0430809D01*
X0249572Y0430750D01*
X0249531Y0430693D01*
X0249486Y0430639D01*
X0249438Y0430587D01*
X0249388Y0430538D01*
X0249334Y0430491D01*
X0249279Y0430448D01*
X0249221Y0430408D01*
X0249161Y0430371D01*
X0249099Y0430338D01*
X0249035Y0430308D01*
X0248970Y0430281D01*
X0248904Y0430258D01*
X0248836Y0430239D01*
X0248767Y0430224D01*
X0248698Y0430212D01*
X0248628Y0430204D01*
X0248557Y0430200D01*
X0248487Y0430200D01*
X0248416Y0430204D01*
X0248346Y0430212D01*
X0248277Y0430224D01*
X0248208Y0430239D01*
X0248140Y0430258D01*
X0248074Y0430281D01*
X0248009Y0430308D01*
X0247945Y0430338D01*
X0247883Y0430371D01*
X0247823Y0430408D01*
X0247765Y0430448D01*
X0247710Y0430491D01*
X0247656Y0430538D01*
X0247606Y0430587D01*
X0247558Y0430639D01*
X0247513Y0430693D01*
X0247472Y0430750D01*
X0247433Y0430809D01*
X0247398Y0430870D01*
X0247366Y0430933D01*
X0247338Y0430997D01*
X0247313Y0431063D01*
X0247292Y0431130D01*
X0247275Y0431199D01*
X0247261Y0431268D01*
X0247252Y0431337D01*
X0247246Y0431408D01*
X0247244Y0431478D01*
X0248522Y0450200D02*
X0249800Y0454800D01*
X0247244Y0454800D01*
X0247244Y0454289D01*
X0245526Y0454800D02*
X0244504Y0454800D01*
X0244442Y0454798D01*
X0244381Y0454793D01*
X0244320Y0454783D01*
X0244259Y0454770D01*
X0244200Y0454754D01*
X0244142Y0454734D01*
X0244085Y0454710D01*
X0244029Y0454683D01*
X0243975Y0454653D01*
X0243923Y0454619D01*
X0243874Y0454582D01*
X0243826Y0454543D01*
X0243781Y0454501D01*
X0243739Y0454456D01*
X0243699Y0454408D01*
X0243663Y0454359D01*
X0243629Y0454307D01*
X0243599Y0454253D01*
X0243572Y0454197D01*
X0243548Y0454140D01*
X0243528Y0454082D01*
X0243512Y0454023D01*
X0243499Y0453962D01*
X0243489Y0453901D01*
X0243484Y0453840D01*
X0243482Y0453778D01*
X0243481Y0453778D02*
X0243481Y0451222D01*
X0243482Y0451222D02*
X0243484Y0451160D01*
X0243489Y0451099D01*
X0243499Y0451038D01*
X0243512Y0450977D01*
X0243528Y0450918D01*
X0243548Y0450860D01*
X0243572Y0450803D01*
X0243599Y0450747D01*
X0243629Y0450693D01*
X0243663Y0450641D01*
X0243699Y0450592D01*
X0243739Y0450544D01*
X0243781Y0450499D01*
X0243826Y0450457D01*
X0243874Y0450417D01*
X0243923Y0450381D01*
X0243975Y0450347D01*
X0244029Y0450317D01*
X0244085Y0450290D01*
X0244142Y0450266D01*
X0244200Y0450246D01*
X0244259Y0450230D01*
X0244320Y0450217D01*
X0244381Y0450207D01*
X0244442Y0450202D01*
X0244504Y0450200D01*
X0245526Y0450200D01*
X0320248Y0349800D02*
X0320248Y0345200D01*
X0322292Y0345200D01*
X0324183Y0345200D02*
X0324183Y0349800D01*
X0325717Y0347244D01*
X0327250Y0349800D01*
X0327250Y0345200D01*
X0329389Y0345200D02*
X0331945Y0345200D01*
X0333889Y0345200D02*
X0335422Y0345200D01*
X0335484Y0345202D01*
X0335545Y0345207D01*
X0335606Y0345217D01*
X0335667Y0345230D01*
X0335726Y0345246D01*
X0335784Y0345266D01*
X0335841Y0345290D01*
X0335897Y0345317D01*
X0335951Y0345347D01*
X0336003Y0345381D01*
X0336052Y0345417D01*
X0336100Y0345457D01*
X0336145Y0345499D01*
X0336187Y0345544D01*
X0336227Y0345592D01*
X0336263Y0345641D01*
X0336297Y0345693D01*
X0336327Y0345747D01*
X0336354Y0345803D01*
X0336378Y0345860D01*
X0336398Y0345918D01*
X0336414Y0345977D01*
X0336427Y0346038D01*
X0336437Y0346099D01*
X0336442Y0346160D01*
X0336444Y0346222D01*
X0336444Y0346733D01*
X0336442Y0346795D01*
X0336437Y0346856D01*
X0336427Y0346917D01*
X0336414Y0346978D01*
X0336398Y0347037D01*
X0336378Y0347095D01*
X0336354Y0347152D01*
X0336327Y0347208D01*
X0336297Y0347262D01*
X0336263Y0347314D01*
X0336227Y0347363D01*
X0336187Y0347411D01*
X0336145Y0347456D01*
X0336100Y0347498D01*
X0336052Y0347538D01*
X0336003Y0347574D01*
X0335951Y0347608D01*
X0335897Y0347638D01*
X0335841Y0347665D01*
X0335784Y0347689D01*
X0335726Y0347709D01*
X0335667Y0347725D01*
X0335606Y0347738D01*
X0335545Y0347748D01*
X0335484Y0347753D01*
X0335422Y0347755D01*
X0335422Y0347756D02*
X0333889Y0347756D01*
X0333889Y0349800D01*
X0336444Y0349800D01*
X0338389Y0348522D02*
X0338389Y0348267D01*
X0338391Y0348205D01*
X0338396Y0348144D01*
X0338406Y0348083D01*
X0338419Y0348022D01*
X0338435Y0347963D01*
X0338455Y0347905D01*
X0338479Y0347848D01*
X0338506Y0347792D01*
X0338536Y0347738D01*
X0338570Y0347686D01*
X0338606Y0347637D01*
X0338646Y0347589D01*
X0338688Y0347544D01*
X0338733Y0347502D01*
X0338781Y0347462D01*
X0338830Y0347426D01*
X0338882Y0347392D01*
X0338936Y0347362D01*
X0338992Y0347335D01*
X0339049Y0347311D01*
X0339107Y0347291D01*
X0339166Y0347275D01*
X0339227Y0347262D01*
X0339288Y0347252D01*
X0339349Y0347247D01*
X0339411Y0347245D01*
X0339411Y0347244D02*
X0340944Y0347244D01*
X0340944Y0348522D01*
X0340945Y0348522D02*
X0340943Y0348592D01*
X0340937Y0348663D01*
X0340928Y0348732D01*
X0340914Y0348801D01*
X0340897Y0348870D01*
X0340876Y0348937D01*
X0340851Y0349003D01*
X0340823Y0349067D01*
X0340791Y0349130D01*
X0340756Y0349191D01*
X0340717Y0349250D01*
X0340676Y0349307D01*
X0340631Y0349361D01*
X0340583Y0349413D01*
X0340533Y0349462D01*
X0340479Y0349509D01*
X0340424Y0349552D01*
X0340366Y0349592D01*
X0340306Y0349629D01*
X0340244Y0349662D01*
X0340180Y0349692D01*
X0340115Y0349719D01*
X0340049Y0349742D01*
X0339981Y0349761D01*
X0339912Y0349776D01*
X0339843Y0349788D01*
X0339773Y0349796D01*
X0339702Y0349800D01*
X0339632Y0349800D01*
X0339561Y0349796D01*
X0339491Y0349788D01*
X0339422Y0349776D01*
X0339353Y0349761D01*
X0339285Y0349742D01*
X0339219Y0349719D01*
X0339154Y0349692D01*
X0339090Y0349662D01*
X0339028Y0349629D01*
X0338968Y0349592D01*
X0338910Y0349552D01*
X0338855Y0349509D01*
X0338801Y0349462D01*
X0338751Y0349413D01*
X0338703Y0349361D01*
X0338658Y0349307D01*
X0338617Y0349250D01*
X0338578Y0349191D01*
X0338543Y0349130D01*
X0338511Y0349067D01*
X0338483Y0349003D01*
X0338458Y0348937D01*
X0338437Y0348870D01*
X0338420Y0348801D01*
X0338406Y0348732D01*
X0338397Y0348663D01*
X0338391Y0348592D01*
X0338389Y0348522D01*
X0340944Y0347244D02*
X0340942Y0347155D01*
X0340936Y0347066D01*
X0340927Y0346977D01*
X0340913Y0346889D01*
X0340896Y0346802D01*
X0340874Y0346715D01*
X0340849Y0346629D01*
X0340821Y0346545D01*
X0340788Y0346462D01*
X0340752Y0346380D01*
X0340713Y0346300D01*
X0340670Y0346222D01*
X0340624Y0346146D01*
X0340574Y0346072D01*
X0340522Y0346000D01*
X0340466Y0345930D01*
X0340407Y0345863D01*
X0340345Y0345799D01*
X0340281Y0345737D01*
X0340214Y0345678D01*
X0340144Y0345622D01*
X0340072Y0345570D01*
X0339998Y0345520D01*
X0339922Y0345474D01*
X0339844Y0345431D01*
X0339764Y0345392D01*
X0339682Y0345356D01*
X0339599Y0345323D01*
X0339515Y0345295D01*
X0339429Y0345270D01*
X0339342Y0345248D01*
X0339255Y0345231D01*
X0339167Y0345217D01*
X0339078Y0345208D01*
X0338989Y0345202D01*
X0338900Y0345200D01*
X0342889Y0346478D02*
X0342889Y0347756D01*
X0344422Y0347756D01*
X0342889Y0347756D02*
X0342891Y0347845D01*
X0342897Y0347934D01*
X0342906Y0348023D01*
X0342920Y0348111D01*
X0342937Y0348198D01*
X0342959Y0348285D01*
X0342984Y0348371D01*
X0343012Y0348455D01*
X0343045Y0348538D01*
X0343081Y0348620D01*
X0343120Y0348700D01*
X0343163Y0348778D01*
X0343209Y0348854D01*
X0343259Y0348928D01*
X0343311Y0349000D01*
X0343367Y0349070D01*
X0343426Y0349137D01*
X0343488Y0349201D01*
X0343552Y0349263D01*
X0343619Y0349322D01*
X0343689Y0349378D01*
X0343761Y0349430D01*
X0343835Y0349480D01*
X0343911Y0349526D01*
X0343989Y0349569D01*
X0344069Y0349608D01*
X0344151Y0349644D01*
X0344234Y0349677D01*
X0344318Y0349705D01*
X0344404Y0349730D01*
X0344491Y0349752D01*
X0344578Y0349769D01*
X0344666Y0349783D01*
X0344755Y0349792D01*
X0344844Y0349798D01*
X0344933Y0349800D01*
X0344422Y0347755D02*
X0344484Y0347753D01*
X0344545Y0347748D01*
X0344606Y0347738D01*
X0344667Y0347725D01*
X0344726Y0347709D01*
X0344784Y0347689D01*
X0344841Y0347665D01*
X0344897Y0347638D01*
X0344951Y0347608D01*
X0345003Y0347574D01*
X0345052Y0347538D01*
X0345100Y0347498D01*
X0345145Y0347456D01*
X0345187Y0347411D01*
X0345227Y0347363D01*
X0345263Y0347314D01*
X0345297Y0347262D01*
X0345327Y0347208D01*
X0345354Y0347152D01*
X0345378Y0347095D01*
X0345398Y0347037D01*
X0345414Y0346978D01*
X0345427Y0346917D01*
X0345437Y0346856D01*
X0345442Y0346795D01*
X0345444Y0346733D01*
X0345444Y0346478D01*
X0345445Y0346478D02*
X0345443Y0346408D01*
X0345437Y0346337D01*
X0345428Y0346268D01*
X0345414Y0346199D01*
X0345397Y0346130D01*
X0345376Y0346063D01*
X0345351Y0345997D01*
X0345323Y0345933D01*
X0345291Y0345870D01*
X0345256Y0345809D01*
X0345217Y0345750D01*
X0345176Y0345693D01*
X0345131Y0345639D01*
X0345083Y0345587D01*
X0345033Y0345538D01*
X0344979Y0345491D01*
X0344924Y0345448D01*
X0344866Y0345408D01*
X0344806Y0345371D01*
X0344744Y0345338D01*
X0344680Y0345308D01*
X0344615Y0345281D01*
X0344549Y0345258D01*
X0344481Y0345239D01*
X0344412Y0345224D01*
X0344343Y0345212D01*
X0344273Y0345204D01*
X0344202Y0345200D01*
X0344132Y0345200D01*
X0344061Y0345204D01*
X0343991Y0345212D01*
X0343922Y0345224D01*
X0343853Y0345239D01*
X0343785Y0345258D01*
X0343719Y0345281D01*
X0343654Y0345308D01*
X0343590Y0345338D01*
X0343528Y0345371D01*
X0343468Y0345408D01*
X0343410Y0345448D01*
X0343355Y0345491D01*
X0343301Y0345538D01*
X0343251Y0345587D01*
X0343203Y0345639D01*
X0343158Y0345693D01*
X0343117Y0345750D01*
X0343078Y0345809D01*
X0343043Y0345870D01*
X0343011Y0345933D01*
X0342983Y0345997D01*
X0342958Y0346063D01*
X0342937Y0346130D01*
X0342920Y0346199D01*
X0342906Y0346268D01*
X0342897Y0346337D01*
X0342891Y0346408D01*
X0342889Y0346478D01*
X0347433Y0346989D02*
X0350500Y0346989D01*
X0352489Y0347756D02*
X0352489Y0349800D01*
X0355044Y0349800D01*
X0356733Y0349800D02*
X0358267Y0345200D01*
X0359800Y0349800D01*
X0355044Y0346733D02*
X0355044Y0346222D01*
X0355042Y0346160D01*
X0355037Y0346099D01*
X0355027Y0346038D01*
X0355014Y0345977D01*
X0354998Y0345918D01*
X0354978Y0345860D01*
X0354954Y0345803D01*
X0354927Y0345747D01*
X0354897Y0345693D01*
X0354863Y0345641D01*
X0354827Y0345592D01*
X0354787Y0345544D01*
X0354745Y0345499D01*
X0354700Y0345457D01*
X0354652Y0345417D01*
X0354603Y0345381D01*
X0354551Y0345347D01*
X0354497Y0345317D01*
X0354441Y0345290D01*
X0354384Y0345266D01*
X0354326Y0345246D01*
X0354267Y0345230D01*
X0354206Y0345217D01*
X0354145Y0345207D01*
X0354084Y0345202D01*
X0354022Y0345200D01*
X0352489Y0345200D01*
X0355044Y0346733D02*
X0355042Y0346795D01*
X0355037Y0346856D01*
X0355027Y0346917D01*
X0355014Y0346978D01*
X0354998Y0347037D01*
X0354978Y0347095D01*
X0354954Y0347152D01*
X0354927Y0347208D01*
X0354897Y0347262D01*
X0354863Y0347314D01*
X0354827Y0347363D01*
X0354787Y0347411D01*
X0354745Y0347456D01*
X0354700Y0347498D01*
X0354652Y0347538D01*
X0354603Y0347574D01*
X0354551Y0347608D01*
X0354497Y0347638D01*
X0354441Y0347665D01*
X0354384Y0347689D01*
X0354326Y0347709D01*
X0354267Y0347725D01*
X0354206Y0347738D01*
X0354145Y0347748D01*
X0354084Y0347753D01*
X0354022Y0347755D01*
X0354022Y0347756D02*
X0352489Y0347756D01*
X0331561Y0347756D02*
X0329389Y0345200D01*
X0329390Y0348778D02*
X0329415Y0348848D01*
X0329443Y0348917D01*
X0329474Y0348984D01*
X0329509Y0349050D01*
X0329547Y0349113D01*
X0329589Y0349175D01*
X0329633Y0349235D01*
X0329680Y0349292D01*
X0329730Y0349347D01*
X0329783Y0349399D01*
X0329839Y0349449D01*
X0329897Y0349495D01*
X0329957Y0349539D01*
X0330019Y0349580D01*
X0330083Y0349617D01*
X0330149Y0349651D01*
X0330217Y0349682D01*
X0330286Y0349709D01*
X0330356Y0349733D01*
X0330427Y0349754D01*
X0330500Y0349770D01*
X0330573Y0349783D01*
X0330647Y0349793D01*
X0330721Y0349798D01*
X0330795Y0349800D01*
X0330862Y0349798D01*
X0330929Y0349792D01*
X0330995Y0349783D01*
X0331060Y0349769D01*
X0331125Y0349752D01*
X0331188Y0349731D01*
X0331250Y0349706D01*
X0331311Y0349678D01*
X0331370Y0349646D01*
X0331427Y0349611D01*
X0331482Y0349572D01*
X0331534Y0349531D01*
X0331584Y0349486D01*
X0331631Y0349439D01*
X0331676Y0349389D01*
X0331717Y0349337D01*
X0331756Y0349282D01*
X0331791Y0349225D01*
X0331823Y0349166D01*
X0331851Y0349105D01*
X0331876Y0349043D01*
X0331897Y0348980D01*
X0331914Y0348915D01*
X0331928Y0348850D01*
X0331937Y0348784D01*
X0331943Y0348717D01*
X0331945Y0348650D01*
X0331944Y0348650D02*
X0331942Y0348583D01*
X0331937Y0348517D01*
X0331928Y0348451D01*
X0331915Y0348385D01*
X0331899Y0348321D01*
X0331880Y0348257D01*
X0331857Y0348194D01*
X0331831Y0348133D01*
X0331801Y0348073D01*
X0331768Y0348015D01*
X0331733Y0347959D01*
X0331694Y0347905D01*
X0331652Y0347853D01*
X0331608Y0347803D01*
X0331561Y0347756D01*
X0348694Y0319800D02*
X0348694Y0316478D01*
X0348696Y0316408D01*
X0348702Y0316337D01*
X0348711Y0316268D01*
X0348725Y0316199D01*
X0348742Y0316130D01*
X0348763Y0316063D01*
X0348788Y0315997D01*
X0348816Y0315933D01*
X0348848Y0315870D01*
X0348883Y0315809D01*
X0348922Y0315750D01*
X0348963Y0315693D01*
X0349008Y0315639D01*
X0349056Y0315587D01*
X0349106Y0315538D01*
X0349160Y0315491D01*
X0349215Y0315448D01*
X0349273Y0315408D01*
X0349333Y0315371D01*
X0349395Y0315338D01*
X0349459Y0315308D01*
X0349524Y0315281D01*
X0349590Y0315258D01*
X0349658Y0315239D01*
X0349727Y0315224D01*
X0349796Y0315212D01*
X0349866Y0315204D01*
X0349937Y0315200D01*
X0350007Y0315200D01*
X0350078Y0315204D01*
X0350148Y0315212D01*
X0350217Y0315224D01*
X0350286Y0315239D01*
X0350354Y0315258D01*
X0350420Y0315281D01*
X0350485Y0315308D01*
X0350549Y0315338D01*
X0350611Y0315371D01*
X0350671Y0315408D01*
X0350729Y0315448D01*
X0350784Y0315491D01*
X0350838Y0315538D01*
X0350888Y0315587D01*
X0350936Y0315639D01*
X0350981Y0315693D01*
X0351022Y0315750D01*
X0351061Y0315809D01*
X0351096Y0315870D01*
X0351128Y0315933D01*
X0351156Y0315997D01*
X0351181Y0316063D01*
X0351202Y0316130D01*
X0351219Y0316199D01*
X0351233Y0316268D01*
X0351242Y0316337D01*
X0351248Y0316408D01*
X0351250Y0316478D01*
X0351250Y0319800D01*
X0354322Y0319800D02*
X0354322Y0315200D01*
X0354705Y0315711D02*
X0354758Y0315723D01*
X0354810Y0315738D01*
X0354861Y0315758D01*
X0354910Y0315780D01*
X0354958Y0315806D01*
X0355004Y0315836D01*
X0355047Y0315868D01*
X0355088Y0315904D01*
X0355127Y0315942D01*
X0355162Y0315983D01*
X0355195Y0316027D01*
X0355224Y0316072D01*
X0355250Y0316120D01*
X0355273Y0316170D01*
X0355292Y0316220D01*
X0355307Y0316272D01*
X0355319Y0316326D01*
X0355326Y0316379D01*
X0355330Y0316433D01*
X0355331Y0316488D01*
X0355327Y0316542D01*
X0355319Y0316596D01*
X0355308Y0316649D01*
X0355293Y0316701D01*
X0355274Y0316752D01*
X0355251Y0316801D01*
X0355226Y0316849D01*
X0355196Y0316895D01*
X0355164Y0316938D01*
X0355129Y0316980D01*
X0355090Y0317018D01*
X0355049Y0317054D01*
X0355006Y0317087D01*
X0354961Y0317116D01*
X0354961Y0317117D02*
X0354322Y0317500D01*
X0353683Y0317883D01*
X0353300Y0315967D02*
X0353375Y0315924D01*
X0353451Y0315885D01*
X0353529Y0315848D01*
X0353608Y0315816D01*
X0353689Y0315786D01*
X0353771Y0315760D01*
X0353854Y0315738D01*
X0353938Y0315719D01*
X0354022Y0315703D01*
X0354107Y0315692D01*
X0354193Y0315684D01*
X0354278Y0315679D01*
X0354364Y0315678D01*
X0354450Y0315681D01*
X0354536Y0315687D01*
X0354621Y0315697D01*
X0354706Y0315711D01*
X0355345Y0319033D02*
X0355270Y0319076D01*
X0355194Y0319115D01*
X0355116Y0319152D01*
X0355037Y0319184D01*
X0354956Y0319214D01*
X0354874Y0319240D01*
X0354791Y0319262D01*
X0354707Y0319281D01*
X0354623Y0319297D01*
X0354538Y0319308D01*
X0354452Y0319316D01*
X0354367Y0319321D01*
X0354281Y0319322D01*
X0354195Y0319319D01*
X0354109Y0319313D01*
X0354024Y0319303D01*
X0353939Y0319289D01*
X0353886Y0319277D01*
X0353834Y0319262D01*
X0353783Y0319242D01*
X0353734Y0319220D01*
X0353686Y0319194D01*
X0353640Y0319164D01*
X0353597Y0319132D01*
X0353556Y0319096D01*
X0353517Y0319058D01*
X0353482Y0319017D01*
X0353449Y0318973D01*
X0353420Y0318928D01*
X0353394Y0318880D01*
X0353371Y0318830D01*
X0353352Y0318780D01*
X0353337Y0318728D01*
X0353325Y0318674D01*
X0353318Y0318621D01*
X0353314Y0318567D01*
X0353313Y0318512D01*
X0353317Y0318458D01*
X0353325Y0318404D01*
X0353336Y0318351D01*
X0353351Y0318299D01*
X0353370Y0318248D01*
X0353393Y0318199D01*
X0353418Y0318151D01*
X0353448Y0318105D01*
X0353480Y0318062D01*
X0353515Y0318020D01*
X0353554Y0317982D01*
X0353595Y0317946D01*
X0353638Y0317913D01*
X0353683Y0317884D01*
X0357244Y0315200D02*
X0359800Y0315200D01*
X0357244Y0315200D02*
X0359417Y0317756D01*
X0358650Y0319800D02*
X0358576Y0319798D01*
X0358502Y0319793D01*
X0358428Y0319783D01*
X0358355Y0319770D01*
X0358282Y0319754D01*
X0358211Y0319733D01*
X0358141Y0319709D01*
X0358072Y0319682D01*
X0358004Y0319651D01*
X0357938Y0319617D01*
X0357874Y0319580D01*
X0357812Y0319539D01*
X0357752Y0319495D01*
X0357694Y0319449D01*
X0357638Y0319399D01*
X0357585Y0319347D01*
X0357535Y0319292D01*
X0357488Y0319235D01*
X0357444Y0319175D01*
X0357402Y0319113D01*
X0357364Y0319050D01*
X0357329Y0318984D01*
X0357298Y0318917D01*
X0357270Y0318848D01*
X0357245Y0318778D01*
X0359417Y0317756D02*
X0359464Y0317803D01*
X0359508Y0317853D01*
X0359550Y0317905D01*
X0359589Y0317959D01*
X0359624Y0318015D01*
X0359657Y0318073D01*
X0359687Y0318133D01*
X0359713Y0318194D01*
X0359736Y0318257D01*
X0359755Y0318321D01*
X0359771Y0318385D01*
X0359784Y0318451D01*
X0359793Y0318517D01*
X0359798Y0318583D01*
X0359800Y0318650D01*
X0359798Y0318717D01*
X0359792Y0318784D01*
X0359783Y0318850D01*
X0359769Y0318915D01*
X0359752Y0318980D01*
X0359731Y0319043D01*
X0359706Y0319105D01*
X0359678Y0319166D01*
X0359646Y0319225D01*
X0359611Y0319282D01*
X0359572Y0319337D01*
X0359531Y0319389D01*
X0359486Y0319439D01*
X0359439Y0319486D01*
X0359389Y0319531D01*
X0359337Y0319572D01*
X0359282Y0319611D01*
X0359225Y0319646D01*
X0359166Y0319678D01*
X0359105Y0319706D01*
X0359043Y0319731D01*
X0358980Y0319752D01*
X0358915Y0319769D01*
X0358850Y0319783D01*
X0358784Y0319792D01*
X0358717Y0319798D01*
X0358650Y0319800D01*
X0359920Y0262300D02*
X0362476Y0262300D01*
X0361454Y0260256D02*
X0359920Y0260256D01*
X0359920Y0262300D01*
X0357593Y0260256D02*
X0355420Y0257700D01*
X0357976Y0257700D01*
X0359920Y0257700D02*
X0361454Y0257700D01*
X0361516Y0257702D01*
X0361577Y0257707D01*
X0361638Y0257717D01*
X0361699Y0257730D01*
X0361758Y0257746D01*
X0361816Y0257766D01*
X0361873Y0257790D01*
X0361929Y0257817D01*
X0361983Y0257847D01*
X0362035Y0257881D01*
X0362084Y0257917D01*
X0362132Y0257957D01*
X0362177Y0257999D01*
X0362219Y0258044D01*
X0362259Y0258092D01*
X0362295Y0258141D01*
X0362329Y0258193D01*
X0362359Y0258247D01*
X0362386Y0258303D01*
X0362410Y0258360D01*
X0362430Y0258418D01*
X0362446Y0258477D01*
X0362459Y0258538D01*
X0362469Y0258599D01*
X0362474Y0258660D01*
X0362476Y0258722D01*
X0362476Y0259233D01*
X0362474Y0259295D01*
X0362469Y0259356D01*
X0362459Y0259417D01*
X0362446Y0259478D01*
X0362430Y0259537D01*
X0362410Y0259595D01*
X0362386Y0259652D01*
X0362359Y0259708D01*
X0362329Y0259762D01*
X0362295Y0259814D01*
X0362259Y0259863D01*
X0362219Y0259911D01*
X0362177Y0259956D01*
X0362132Y0259998D01*
X0362084Y0260038D01*
X0362035Y0260074D01*
X0361983Y0260108D01*
X0361929Y0260138D01*
X0361873Y0260165D01*
X0361816Y0260189D01*
X0361758Y0260209D01*
X0361699Y0260225D01*
X0361638Y0260238D01*
X0361577Y0260248D01*
X0361516Y0260253D01*
X0361454Y0260255D01*
X0364420Y0260767D02*
X0364420Y0261022D01*
X0364421Y0260767D02*
X0364423Y0260705D01*
X0364428Y0260644D01*
X0364438Y0260583D01*
X0364451Y0260522D01*
X0364467Y0260463D01*
X0364487Y0260405D01*
X0364511Y0260348D01*
X0364538Y0260292D01*
X0364568Y0260238D01*
X0364602Y0260186D01*
X0364638Y0260137D01*
X0364678Y0260089D01*
X0364720Y0260044D01*
X0364765Y0260002D01*
X0364813Y0259962D01*
X0364862Y0259926D01*
X0364914Y0259892D01*
X0364968Y0259862D01*
X0365024Y0259835D01*
X0365081Y0259811D01*
X0365139Y0259791D01*
X0365198Y0259775D01*
X0365259Y0259762D01*
X0365320Y0259752D01*
X0365381Y0259747D01*
X0365443Y0259745D01*
X0365443Y0259744D02*
X0366976Y0259744D01*
X0366976Y0261022D01*
X0366974Y0261092D01*
X0366968Y0261163D01*
X0366959Y0261232D01*
X0366945Y0261301D01*
X0366928Y0261370D01*
X0366907Y0261437D01*
X0366882Y0261503D01*
X0366854Y0261567D01*
X0366822Y0261630D01*
X0366787Y0261691D01*
X0366748Y0261750D01*
X0366707Y0261807D01*
X0366662Y0261861D01*
X0366614Y0261913D01*
X0366564Y0261962D01*
X0366510Y0262009D01*
X0366455Y0262052D01*
X0366397Y0262092D01*
X0366337Y0262129D01*
X0366275Y0262162D01*
X0366211Y0262192D01*
X0366146Y0262219D01*
X0366080Y0262242D01*
X0366012Y0262261D01*
X0365943Y0262276D01*
X0365874Y0262288D01*
X0365804Y0262296D01*
X0365733Y0262300D01*
X0365663Y0262300D01*
X0365592Y0262296D01*
X0365522Y0262288D01*
X0365453Y0262276D01*
X0365384Y0262261D01*
X0365316Y0262242D01*
X0365250Y0262219D01*
X0365185Y0262192D01*
X0365121Y0262162D01*
X0365059Y0262129D01*
X0364999Y0262092D01*
X0364941Y0262052D01*
X0364886Y0262009D01*
X0364832Y0261962D01*
X0364782Y0261913D01*
X0364734Y0261861D01*
X0364689Y0261807D01*
X0364648Y0261750D01*
X0364609Y0261691D01*
X0364574Y0261630D01*
X0364542Y0261567D01*
X0364514Y0261503D01*
X0364489Y0261437D01*
X0364468Y0261370D01*
X0364451Y0261301D01*
X0364437Y0261232D01*
X0364428Y0261163D01*
X0364422Y0261092D01*
X0364420Y0261022D01*
X0366976Y0259744D02*
X0366974Y0259655D01*
X0366968Y0259566D01*
X0366959Y0259477D01*
X0366945Y0259389D01*
X0366928Y0259302D01*
X0366906Y0259215D01*
X0366881Y0259129D01*
X0366853Y0259045D01*
X0366820Y0258962D01*
X0366784Y0258880D01*
X0366745Y0258800D01*
X0366702Y0258722D01*
X0366656Y0258646D01*
X0366606Y0258572D01*
X0366554Y0258500D01*
X0366498Y0258430D01*
X0366439Y0258363D01*
X0366377Y0258299D01*
X0366313Y0258237D01*
X0366246Y0258178D01*
X0366176Y0258122D01*
X0366104Y0258070D01*
X0366030Y0258020D01*
X0365954Y0257974D01*
X0365876Y0257931D01*
X0365796Y0257892D01*
X0365714Y0257856D01*
X0365631Y0257823D01*
X0365547Y0257795D01*
X0365461Y0257770D01*
X0365374Y0257748D01*
X0365287Y0257731D01*
X0365199Y0257717D01*
X0365110Y0257708D01*
X0365021Y0257702D01*
X0364932Y0257700D01*
X0368920Y0258978D02*
X0368920Y0260256D01*
X0370454Y0260256D01*
X0368921Y0260256D02*
X0368923Y0260345D01*
X0368929Y0260434D01*
X0368938Y0260523D01*
X0368952Y0260611D01*
X0368969Y0260698D01*
X0368991Y0260785D01*
X0369016Y0260871D01*
X0369044Y0260955D01*
X0369077Y0261038D01*
X0369113Y0261120D01*
X0369152Y0261200D01*
X0369195Y0261278D01*
X0369241Y0261354D01*
X0369291Y0261428D01*
X0369343Y0261500D01*
X0369399Y0261570D01*
X0369458Y0261637D01*
X0369520Y0261701D01*
X0369584Y0261763D01*
X0369651Y0261822D01*
X0369721Y0261878D01*
X0369793Y0261930D01*
X0369867Y0261980D01*
X0369943Y0262026D01*
X0370021Y0262069D01*
X0370101Y0262108D01*
X0370183Y0262144D01*
X0370266Y0262177D01*
X0370350Y0262205D01*
X0370436Y0262230D01*
X0370523Y0262252D01*
X0370610Y0262269D01*
X0370698Y0262283D01*
X0370787Y0262292D01*
X0370876Y0262298D01*
X0370965Y0262300D01*
X0371476Y0259233D02*
X0371476Y0258978D01*
X0371476Y0259233D02*
X0371474Y0259295D01*
X0371469Y0259356D01*
X0371459Y0259417D01*
X0371446Y0259478D01*
X0371430Y0259537D01*
X0371410Y0259595D01*
X0371386Y0259652D01*
X0371359Y0259708D01*
X0371329Y0259762D01*
X0371295Y0259814D01*
X0371259Y0259863D01*
X0371219Y0259911D01*
X0371177Y0259956D01*
X0371132Y0259998D01*
X0371084Y0260038D01*
X0371035Y0260074D01*
X0370983Y0260108D01*
X0370929Y0260138D01*
X0370873Y0260165D01*
X0370816Y0260189D01*
X0370758Y0260209D01*
X0370699Y0260225D01*
X0370638Y0260238D01*
X0370577Y0260248D01*
X0370516Y0260253D01*
X0370454Y0260255D01*
X0371476Y0258978D02*
X0371474Y0258908D01*
X0371468Y0258837D01*
X0371459Y0258768D01*
X0371445Y0258699D01*
X0371428Y0258630D01*
X0371407Y0258563D01*
X0371382Y0258497D01*
X0371354Y0258433D01*
X0371322Y0258370D01*
X0371287Y0258309D01*
X0371248Y0258250D01*
X0371207Y0258193D01*
X0371162Y0258139D01*
X0371114Y0258087D01*
X0371064Y0258038D01*
X0371010Y0257991D01*
X0370955Y0257948D01*
X0370897Y0257908D01*
X0370837Y0257871D01*
X0370775Y0257838D01*
X0370711Y0257808D01*
X0370646Y0257781D01*
X0370580Y0257758D01*
X0370512Y0257739D01*
X0370443Y0257724D01*
X0370374Y0257712D01*
X0370304Y0257704D01*
X0370233Y0257700D01*
X0370163Y0257700D01*
X0370092Y0257704D01*
X0370022Y0257712D01*
X0369953Y0257724D01*
X0369884Y0257739D01*
X0369816Y0257758D01*
X0369750Y0257781D01*
X0369685Y0257808D01*
X0369621Y0257838D01*
X0369559Y0257871D01*
X0369499Y0257908D01*
X0369441Y0257948D01*
X0369386Y0257991D01*
X0369332Y0258038D01*
X0369282Y0258087D01*
X0369234Y0258139D01*
X0369189Y0258193D01*
X0369148Y0258250D01*
X0369109Y0258309D01*
X0369074Y0258370D01*
X0369042Y0258433D01*
X0369014Y0258497D01*
X0368989Y0258563D01*
X0368968Y0258630D01*
X0368951Y0258699D01*
X0368937Y0258768D01*
X0368928Y0258837D01*
X0368922Y0258908D01*
X0368920Y0258978D01*
X0373465Y0259489D02*
X0376532Y0259489D01*
X0378520Y0261278D02*
X0379798Y0262300D01*
X0379798Y0257700D01*
X0378520Y0257700D02*
X0381076Y0257700D01*
X0383020Y0257700D02*
X0385576Y0257700D01*
X0383020Y0257700D02*
X0385193Y0260256D01*
X0384426Y0262300D02*
X0384352Y0262298D01*
X0384278Y0262293D01*
X0384204Y0262283D01*
X0384131Y0262270D01*
X0384058Y0262254D01*
X0383987Y0262233D01*
X0383917Y0262209D01*
X0383848Y0262182D01*
X0383780Y0262151D01*
X0383714Y0262117D01*
X0383650Y0262080D01*
X0383588Y0262039D01*
X0383528Y0261995D01*
X0383470Y0261949D01*
X0383414Y0261899D01*
X0383361Y0261847D01*
X0383311Y0261792D01*
X0383264Y0261735D01*
X0383220Y0261675D01*
X0383178Y0261613D01*
X0383140Y0261550D01*
X0383105Y0261484D01*
X0383074Y0261417D01*
X0383046Y0261348D01*
X0383021Y0261278D01*
X0385193Y0260256D02*
X0385240Y0260303D01*
X0385284Y0260353D01*
X0385326Y0260405D01*
X0385365Y0260459D01*
X0385400Y0260515D01*
X0385433Y0260573D01*
X0385463Y0260633D01*
X0385489Y0260694D01*
X0385512Y0260757D01*
X0385531Y0260821D01*
X0385547Y0260885D01*
X0385560Y0260951D01*
X0385569Y0261017D01*
X0385574Y0261083D01*
X0385576Y0261150D01*
X0385574Y0261217D01*
X0385568Y0261284D01*
X0385559Y0261350D01*
X0385545Y0261415D01*
X0385528Y0261480D01*
X0385507Y0261543D01*
X0385482Y0261605D01*
X0385454Y0261666D01*
X0385422Y0261725D01*
X0385387Y0261782D01*
X0385348Y0261837D01*
X0385307Y0261889D01*
X0385262Y0261939D01*
X0385215Y0261986D01*
X0385165Y0262031D01*
X0385113Y0262072D01*
X0385058Y0262111D01*
X0385001Y0262146D01*
X0384942Y0262178D01*
X0384881Y0262206D01*
X0384819Y0262231D01*
X0384756Y0262252D01*
X0384691Y0262269D01*
X0384626Y0262283D01*
X0384560Y0262292D01*
X0384493Y0262298D01*
X0384426Y0262300D01*
X0387265Y0262300D02*
X0388798Y0257700D01*
X0390331Y0262300D01*
X0389054Y0232300D02*
X0389054Y0227700D01*
X0390331Y0227700D02*
X0387776Y0227700D01*
X0384854Y0227700D02*
X0384854Y0232300D01*
X0384471Y0231789D02*
X0384418Y0231777D01*
X0384366Y0231762D01*
X0384315Y0231742D01*
X0384266Y0231720D01*
X0384218Y0231694D01*
X0384172Y0231664D01*
X0384129Y0231632D01*
X0384088Y0231596D01*
X0384049Y0231558D01*
X0384014Y0231517D01*
X0383981Y0231473D01*
X0383952Y0231428D01*
X0383926Y0231380D01*
X0383903Y0231330D01*
X0383884Y0231280D01*
X0383869Y0231228D01*
X0383857Y0231174D01*
X0383850Y0231121D01*
X0383846Y0231067D01*
X0383845Y0231012D01*
X0383849Y0230958D01*
X0383857Y0230904D01*
X0383868Y0230851D01*
X0383883Y0230799D01*
X0383902Y0230748D01*
X0383925Y0230699D01*
X0383950Y0230651D01*
X0383980Y0230605D01*
X0384012Y0230562D01*
X0384047Y0230520D01*
X0384086Y0230482D01*
X0384127Y0230446D01*
X0384170Y0230413D01*
X0384215Y0230384D01*
X0384215Y0230383D02*
X0384854Y0230000D01*
X0385493Y0229617D01*
X0385876Y0231533D02*
X0385801Y0231576D01*
X0385725Y0231615D01*
X0385647Y0231652D01*
X0385568Y0231684D01*
X0385487Y0231714D01*
X0385405Y0231740D01*
X0385322Y0231762D01*
X0385238Y0231781D01*
X0385154Y0231797D01*
X0385069Y0231808D01*
X0384983Y0231816D01*
X0384898Y0231821D01*
X0384812Y0231822D01*
X0384726Y0231819D01*
X0384640Y0231813D01*
X0384555Y0231803D01*
X0384470Y0231789D01*
X0383831Y0228467D02*
X0383906Y0228424D01*
X0383982Y0228385D01*
X0384060Y0228348D01*
X0384139Y0228316D01*
X0384220Y0228286D01*
X0384302Y0228260D01*
X0384385Y0228238D01*
X0384469Y0228219D01*
X0384553Y0228203D01*
X0384638Y0228192D01*
X0384724Y0228184D01*
X0384809Y0228179D01*
X0384895Y0228178D01*
X0384981Y0228181D01*
X0385067Y0228187D01*
X0385152Y0228197D01*
X0385237Y0228211D01*
X0385290Y0228223D01*
X0385342Y0228238D01*
X0385393Y0228258D01*
X0385442Y0228280D01*
X0385490Y0228306D01*
X0385536Y0228336D01*
X0385579Y0228368D01*
X0385620Y0228404D01*
X0385659Y0228442D01*
X0385694Y0228483D01*
X0385727Y0228527D01*
X0385756Y0228572D01*
X0385782Y0228620D01*
X0385805Y0228670D01*
X0385824Y0228720D01*
X0385839Y0228772D01*
X0385851Y0228826D01*
X0385858Y0228879D01*
X0385862Y0228933D01*
X0385863Y0228988D01*
X0385859Y0229042D01*
X0385851Y0229096D01*
X0385840Y0229149D01*
X0385825Y0229201D01*
X0385806Y0229252D01*
X0385783Y0229301D01*
X0385758Y0229349D01*
X0385728Y0229395D01*
X0385696Y0229438D01*
X0385661Y0229480D01*
X0385622Y0229518D01*
X0385581Y0229554D01*
X0385538Y0229587D01*
X0385493Y0229616D01*
X0387776Y0231278D02*
X0389054Y0232300D01*
X0381782Y0232300D02*
X0381782Y0228978D01*
X0381780Y0228908D01*
X0381774Y0228837D01*
X0381765Y0228768D01*
X0381751Y0228699D01*
X0381734Y0228630D01*
X0381713Y0228563D01*
X0381688Y0228497D01*
X0381660Y0228433D01*
X0381628Y0228370D01*
X0381593Y0228309D01*
X0381554Y0228250D01*
X0381513Y0228193D01*
X0381468Y0228139D01*
X0381420Y0228087D01*
X0381370Y0228038D01*
X0381316Y0227991D01*
X0381261Y0227948D01*
X0381203Y0227908D01*
X0381143Y0227871D01*
X0381081Y0227838D01*
X0381017Y0227808D01*
X0380952Y0227781D01*
X0380886Y0227758D01*
X0380818Y0227739D01*
X0380749Y0227724D01*
X0380680Y0227712D01*
X0380610Y0227704D01*
X0380539Y0227700D01*
X0380469Y0227700D01*
X0380398Y0227704D01*
X0380328Y0227712D01*
X0380259Y0227724D01*
X0380190Y0227739D01*
X0380122Y0227758D01*
X0380056Y0227781D01*
X0379991Y0227808D01*
X0379927Y0227838D01*
X0379865Y0227871D01*
X0379805Y0227908D01*
X0379747Y0227948D01*
X0379692Y0227991D01*
X0379638Y0228038D01*
X0379588Y0228087D01*
X0379540Y0228139D01*
X0379495Y0228193D01*
X0379454Y0228250D01*
X0379415Y0228309D01*
X0379380Y0228370D01*
X0379348Y0228433D01*
X0379320Y0228497D01*
X0379295Y0228563D01*
X0379274Y0228630D01*
X0379257Y0228699D01*
X0379243Y0228768D01*
X0379234Y0228837D01*
X0379228Y0228908D01*
X0379226Y0228978D01*
X0379226Y0232300D01*
X0356826Y0262300D02*
X0356752Y0262298D01*
X0356678Y0262293D01*
X0356604Y0262283D01*
X0356531Y0262270D01*
X0356458Y0262254D01*
X0356387Y0262233D01*
X0356317Y0262209D01*
X0356248Y0262182D01*
X0356180Y0262151D01*
X0356114Y0262117D01*
X0356050Y0262080D01*
X0355988Y0262039D01*
X0355928Y0261995D01*
X0355870Y0261949D01*
X0355814Y0261899D01*
X0355761Y0261847D01*
X0355711Y0261792D01*
X0355664Y0261735D01*
X0355620Y0261675D01*
X0355578Y0261613D01*
X0355540Y0261550D01*
X0355505Y0261484D01*
X0355474Y0261417D01*
X0355446Y0261348D01*
X0355421Y0261278D01*
X0357593Y0260256D02*
X0357640Y0260303D01*
X0357684Y0260353D01*
X0357726Y0260405D01*
X0357765Y0260459D01*
X0357800Y0260515D01*
X0357833Y0260573D01*
X0357863Y0260633D01*
X0357889Y0260694D01*
X0357912Y0260757D01*
X0357931Y0260821D01*
X0357947Y0260885D01*
X0357960Y0260951D01*
X0357969Y0261017D01*
X0357974Y0261083D01*
X0357976Y0261150D01*
X0357974Y0261217D01*
X0357968Y0261284D01*
X0357959Y0261350D01*
X0357945Y0261415D01*
X0357928Y0261480D01*
X0357907Y0261543D01*
X0357882Y0261605D01*
X0357854Y0261666D01*
X0357822Y0261725D01*
X0357787Y0261782D01*
X0357748Y0261837D01*
X0357707Y0261889D01*
X0357662Y0261939D01*
X0357615Y0261986D01*
X0357565Y0262031D01*
X0357513Y0262072D01*
X0357458Y0262111D01*
X0357401Y0262146D01*
X0357342Y0262178D01*
X0357281Y0262206D01*
X0357219Y0262231D01*
X0357156Y0262252D01*
X0357091Y0262269D01*
X0357026Y0262283D01*
X0356960Y0262292D01*
X0356893Y0262298D01*
X0356826Y0262300D01*
X0353282Y0262300D02*
X0353282Y0257700D01*
X0351748Y0259744D02*
X0353282Y0262300D01*
X0351748Y0259744D02*
X0350215Y0262300D01*
X0350215Y0257700D01*
X0348324Y0257700D02*
X0346279Y0257700D01*
X0346279Y0262300D01*
X0266670Y0267354D02*
X0266670Y0268376D01*
X0266670Y0267865D02*
X0262070Y0267865D01*
X0262070Y0267354D02*
X0262070Y0268376D01*
X0263092Y0270174D02*
X0265648Y0270174D01*
X0265648Y0270175D02*
X0265710Y0270177D01*
X0265771Y0270182D01*
X0265832Y0270192D01*
X0265893Y0270205D01*
X0265952Y0270221D01*
X0266010Y0270241D01*
X0266067Y0270265D01*
X0266123Y0270292D01*
X0266177Y0270322D01*
X0266229Y0270356D01*
X0266278Y0270392D01*
X0266326Y0270432D01*
X0266371Y0270474D01*
X0266413Y0270519D01*
X0266453Y0270567D01*
X0266489Y0270616D01*
X0266523Y0270668D01*
X0266553Y0270722D01*
X0266580Y0270778D01*
X0266604Y0270835D01*
X0266624Y0270893D01*
X0266640Y0270952D01*
X0266653Y0271013D01*
X0266663Y0271074D01*
X0266668Y0271135D01*
X0266670Y0271197D01*
X0266670Y0272219D01*
X0266670Y0273937D02*
X0266670Y0276493D01*
X0266670Y0273937D02*
X0264115Y0276110D01*
X0262071Y0275343D02*
X0262073Y0275269D01*
X0262078Y0275195D01*
X0262088Y0275121D01*
X0262101Y0275048D01*
X0262117Y0274975D01*
X0262138Y0274904D01*
X0262162Y0274834D01*
X0262189Y0274765D01*
X0262220Y0274697D01*
X0262254Y0274631D01*
X0262291Y0274567D01*
X0262332Y0274505D01*
X0262376Y0274444D01*
X0262422Y0274387D01*
X0262472Y0274331D01*
X0262524Y0274278D01*
X0262579Y0274228D01*
X0262636Y0274181D01*
X0262696Y0274137D01*
X0262758Y0274095D01*
X0262821Y0274057D01*
X0262887Y0274022D01*
X0262954Y0273991D01*
X0263023Y0273963D01*
X0263093Y0273938D01*
X0264114Y0276110D02*
X0264067Y0276157D01*
X0264017Y0276201D01*
X0263965Y0276243D01*
X0263911Y0276282D01*
X0263855Y0276317D01*
X0263797Y0276350D01*
X0263737Y0276380D01*
X0263676Y0276406D01*
X0263613Y0276429D01*
X0263549Y0276448D01*
X0263485Y0276464D01*
X0263419Y0276477D01*
X0263353Y0276486D01*
X0263287Y0276491D01*
X0263220Y0276493D01*
X0263153Y0276491D01*
X0263086Y0276485D01*
X0263020Y0276476D01*
X0262955Y0276462D01*
X0262890Y0276445D01*
X0262827Y0276424D01*
X0262765Y0276399D01*
X0262704Y0276371D01*
X0262645Y0276339D01*
X0262588Y0276304D01*
X0262533Y0276265D01*
X0262481Y0276224D01*
X0262431Y0276179D01*
X0262384Y0276132D01*
X0262339Y0276082D01*
X0262298Y0276030D01*
X0262259Y0275975D01*
X0262224Y0275918D01*
X0262192Y0275859D01*
X0262164Y0275798D01*
X0262139Y0275736D01*
X0262118Y0275673D01*
X0262101Y0275608D01*
X0262087Y0275543D01*
X0262078Y0275477D01*
X0262072Y0275410D01*
X0262070Y0275343D01*
X0262070Y0272219D02*
X0262070Y0271197D01*
X0262072Y0271135D01*
X0262077Y0271074D01*
X0262087Y0271013D01*
X0262100Y0270952D01*
X0262116Y0270893D01*
X0262136Y0270835D01*
X0262160Y0270778D01*
X0262187Y0270722D01*
X0262217Y0270668D01*
X0262251Y0270616D01*
X0262288Y0270567D01*
X0262327Y0270519D01*
X0262369Y0270474D01*
X0262414Y0270432D01*
X0262462Y0270392D01*
X0262511Y0270356D01*
X0262563Y0270322D01*
X0262617Y0270292D01*
X0262673Y0270265D01*
X0262730Y0270241D01*
X0262788Y0270221D01*
X0262847Y0270205D01*
X0262908Y0270192D01*
X0262969Y0270182D01*
X0263030Y0270177D01*
X0263092Y0270175D01*
X0266670Y0231493D02*
X0266670Y0228937D01*
X0266670Y0230215D02*
X0262070Y0230215D01*
X0263092Y0228937D01*
X0262070Y0227219D02*
X0262070Y0226197D01*
X0262072Y0226135D01*
X0262077Y0226074D01*
X0262087Y0226013D01*
X0262100Y0225952D01*
X0262116Y0225893D01*
X0262136Y0225835D01*
X0262160Y0225778D01*
X0262187Y0225722D01*
X0262217Y0225668D01*
X0262251Y0225616D01*
X0262288Y0225567D01*
X0262327Y0225519D01*
X0262369Y0225474D01*
X0262414Y0225432D01*
X0262462Y0225392D01*
X0262511Y0225356D01*
X0262563Y0225322D01*
X0262617Y0225292D01*
X0262673Y0225265D01*
X0262730Y0225241D01*
X0262788Y0225221D01*
X0262847Y0225205D01*
X0262908Y0225192D01*
X0262969Y0225182D01*
X0263030Y0225177D01*
X0263092Y0225175D01*
X0263092Y0225174D02*
X0265648Y0225174D01*
X0265648Y0225175D02*
X0265710Y0225177D01*
X0265771Y0225182D01*
X0265832Y0225192D01*
X0265893Y0225205D01*
X0265952Y0225221D01*
X0266010Y0225241D01*
X0266067Y0225265D01*
X0266123Y0225292D01*
X0266177Y0225322D01*
X0266229Y0225356D01*
X0266278Y0225392D01*
X0266326Y0225432D01*
X0266371Y0225474D01*
X0266413Y0225519D01*
X0266453Y0225567D01*
X0266489Y0225616D01*
X0266523Y0225668D01*
X0266553Y0225722D01*
X0266580Y0225778D01*
X0266604Y0225835D01*
X0266624Y0225893D01*
X0266640Y0225952D01*
X0266653Y0226013D01*
X0266663Y0226074D01*
X0266668Y0226135D01*
X0266670Y0226197D01*
X0266670Y0227219D01*
X0266670Y0223376D02*
X0266670Y0222354D01*
X0266670Y0222865D02*
X0262070Y0222865D01*
X0262070Y0222354D02*
X0262070Y0223376D01*
X0193522Y0307700D02*
X0192244Y0307700D01*
X0193522Y0307700D02*
X0193592Y0307702D01*
X0193663Y0307708D01*
X0193732Y0307717D01*
X0193801Y0307731D01*
X0193870Y0307748D01*
X0193937Y0307769D01*
X0194003Y0307794D01*
X0194067Y0307822D01*
X0194130Y0307854D01*
X0194191Y0307889D01*
X0194250Y0307928D01*
X0194307Y0307969D01*
X0194361Y0308014D01*
X0194413Y0308062D01*
X0194462Y0308112D01*
X0194509Y0308166D01*
X0194552Y0308221D01*
X0194592Y0308279D01*
X0194629Y0308339D01*
X0194662Y0308401D01*
X0194692Y0308465D01*
X0194719Y0308530D01*
X0194742Y0308596D01*
X0194761Y0308664D01*
X0194776Y0308733D01*
X0194788Y0308802D01*
X0194796Y0308872D01*
X0194800Y0308943D01*
X0194800Y0309013D01*
X0194796Y0309084D01*
X0194788Y0309154D01*
X0194776Y0309223D01*
X0194761Y0309292D01*
X0194742Y0309360D01*
X0194719Y0309426D01*
X0194692Y0309491D01*
X0194662Y0309555D01*
X0194629Y0309617D01*
X0194592Y0309677D01*
X0194552Y0309735D01*
X0194509Y0309790D01*
X0194462Y0309844D01*
X0194413Y0309894D01*
X0194361Y0309942D01*
X0194307Y0309987D01*
X0194250Y0310028D01*
X0194191Y0310067D01*
X0194130Y0310102D01*
X0194067Y0310134D01*
X0194003Y0310162D01*
X0193937Y0310187D01*
X0193870Y0310208D01*
X0193801Y0310225D01*
X0193732Y0310239D01*
X0193663Y0310248D01*
X0193592Y0310254D01*
X0193522Y0310256D01*
X0193778Y0310256D02*
X0192756Y0310256D01*
X0193778Y0310256D02*
X0193841Y0310258D01*
X0193904Y0310264D01*
X0193966Y0310273D01*
X0194027Y0310287D01*
X0194088Y0310304D01*
X0194147Y0310325D01*
X0194205Y0310350D01*
X0194262Y0310378D01*
X0194316Y0310409D01*
X0194368Y0310444D01*
X0194419Y0310482D01*
X0194467Y0310523D01*
X0194512Y0310567D01*
X0194554Y0310613D01*
X0194594Y0310662D01*
X0194630Y0310713D01*
X0194663Y0310767D01*
X0194693Y0310822D01*
X0194719Y0310880D01*
X0194742Y0310938D01*
X0194761Y0310998D01*
X0194776Y0311059D01*
X0194788Y0311121D01*
X0194796Y0311184D01*
X0194800Y0311247D01*
X0194800Y0311309D01*
X0194796Y0311372D01*
X0194788Y0311435D01*
X0194776Y0311497D01*
X0194761Y0311558D01*
X0194742Y0311618D01*
X0194719Y0311676D01*
X0194693Y0311734D01*
X0194663Y0311789D01*
X0194630Y0311843D01*
X0194594Y0311894D01*
X0194554Y0311943D01*
X0194512Y0311989D01*
X0194467Y0312033D01*
X0194419Y0312074D01*
X0194368Y0312112D01*
X0194316Y0312147D01*
X0194262Y0312178D01*
X0194205Y0312206D01*
X0194147Y0312231D01*
X0194088Y0312252D01*
X0194027Y0312269D01*
X0193966Y0312283D01*
X0193904Y0312292D01*
X0193841Y0312298D01*
X0193778Y0312300D01*
X0192244Y0312300D01*
X0189051Y0312300D02*
X0187773Y0312300D01*
X0187773Y0307700D01*
X0187773Y0309744D02*
X0189051Y0309744D01*
X0189307Y0309744D02*
X0190329Y0307700D01*
X0189051Y0309744D02*
X0189121Y0309746D01*
X0189192Y0309752D01*
X0189261Y0309761D01*
X0189330Y0309775D01*
X0189399Y0309792D01*
X0189466Y0309813D01*
X0189532Y0309838D01*
X0189596Y0309866D01*
X0189659Y0309898D01*
X0189720Y0309933D01*
X0189779Y0309972D01*
X0189836Y0310013D01*
X0189890Y0310058D01*
X0189942Y0310106D01*
X0189991Y0310156D01*
X0190038Y0310210D01*
X0190081Y0310265D01*
X0190121Y0310323D01*
X0190158Y0310383D01*
X0190191Y0310445D01*
X0190221Y0310509D01*
X0190248Y0310574D01*
X0190271Y0310640D01*
X0190290Y0310708D01*
X0190305Y0310777D01*
X0190317Y0310846D01*
X0190325Y0310916D01*
X0190329Y0310987D01*
X0190329Y0311057D01*
X0190325Y0311128D01*
X0190317Y0311198D01*
X0190305Y0311267D01*
X0190290Y0311336D01*
X0190271Y0311404D01*
X0190248Y0311470D01*
X0190221Y0311535D01*
X0190191Y0311599D01*
X0190158Y0311661D01*
X0190121Y0311721D01*
X0190081Y0311779D01*
X0190038Y0311834D01*
X0189991Y0311888D01*
X0189942Y0311938D01*
X0189890Y0311986D01*
X0189836Y0312031D01*
X0189779Y0312072D01*
X0189720Y0312111D01*
X0189659Y0312146D01*
X0189596Y0312178D01*
X0189532Y0312206D01*
X0189466Y0312231D01*
X0189399Y0312252D01*
X0189330Y0312269D01*
X0189261Y0312283D01*
X0189192Y0312292D01*
X0189121Y0312298D01*
X0189051Y0312300D01*
X0185500Y0312300D02*
X0185500Y0308978D01*
X0185498Y0308908D01*
X0185492Y0308837D01*
X0185483Y0308768D01*
X0185469Y0308699D01*
X0185452Y0308630D01*
X0185431Y0308563D01*
X0185406Y0308497D01*
X0185378Y0308433D01*
X0185346Y0308370D01*
X0185311Y0308309D01*
X0185272Y0308250D01*
X0185231Y0308193D01*
X0185186Y0308139D01*
X0185138Y0308087D01*
X0185088Y0308038D01*
X0185034Y0307991D01*
X0184979Y0307948D01*
X0184921Y0307908D01*
X0184861Y0307871D01*
X0184799Y0307838D01*
X0184735Y0307808D01*
X0184670Y0307781D01*
X0184604Y0307758D01*
X0184536Y0307739D01*
X0184467Y0307724D01*
X0184398Y0307712D01*
X0184328Y0307704D01*
X0184257Y0307700D01*
X0184187Y0307700D01*
X0184116Y0307704D01*
X0184046Y0307712D01*
X0183977Y0307724D01*
X0183908Y0307739D01*
X0183840Y0307758D01*
X0183774Y0307781D01*
X0183709Y0307808D01*
X0183645Y0307838D01*
X0183583Y0307871D01*
X0183523Y0307908D01*
X0183465Y0307948D01*
X0183410Y0307991D01*
X0183356Y0308038D01*
X0183306Y0308087D01*
X0183258Y0308139D01*
X0183213Y0308193D01*
X0183172Y0308250D01*
X0183133Y0308309D01*
X0183098Y0308370D01*
X0183066Y0308433D01*
X0183038Y0308497D01*
X0183013Y0308563D01*
X0182992Y0308630D01*
X0182975Y0308699D01*
X0182961Y0308768D01*
X0182952Y0308837D01*
X0182946Y0308908D01*
X0182944Y0308978D01*
X0182944Y0312300D01*
X0181076Y0312300D02*
X0180054Y0312300D01*
X0179992Y0312298D01*
X0179931Y0312293D01*
X0179870Y0312283D01*
X0179809Y0312270D01*
X0179750Y0312254D01*
X0179692Y0312234D01*
X0179635Y0312210D01*
X0179579Y0312183D01*
X0179525Y0312153D01*
X0179473Y0312119D01*
X0179424Y0312082D01*
X0179376Y0312043D01*
X0179331Y0312001D01*
X0179289Y0311956D01*
X0179249Y0311908D01*
X0179213Y0311859D01*
X0179179Y0311807D01*
X0179149Y0311753D01*
X0179122Y0311697D01*
X0179098Y0311640D01*
X0179078Y0311582D01*
X0179062Y0311523D01*
X0179049Y0311462D01*
X0179039Y0311401D01*
X0179034Y0311340D01*
X0179032Y0311278D01*
X0179031Y0311278D02*
X0179031Y0308722D01*
X0179032Y0308722D02*
X0179034Y0308660D01*
X0179039Y0308599D01*
X0179049Y0308538D01*
X0179062Y0308477D01*
X0179078Y0308418D01*
X0179098Y0308360D01*
X0179122Y0308303D01*
X0179149Y0308247D01*
X0179179Y0308193D01*
X0179213Y0308141D01*
X0179249Y0308092D01*
X0179289Y0308044D01*
X0179331Y0307999D01*
X0179376Y0307957D01*
X0179424Y0307917D01*
X0179473Y0307881D01*
X0179525Y0307847D01*
X0179579Y0307817D01*
X0179635Y0307790D01*
X0179692Y0307766D01*
X0179750Y0307746D01*
X0179809Y0307730D01*
X0179870Y0307717D01*
X0179931Y0307707D01*
X0179992Y0307702D01*
X0180054Y0307700D01*
X0181076Y0307700D01*
X0167300Y0298522D02*
X0167300Y0297244D01*
X0167300Y0298522D02*
X0167298Y0298592D01*
X0167292Y0298663D01*
X0167283Y0298732D01*
X0167269Y0298801D01*
X0167252Y0298870D01*
X0167231Y0298937D01*
X0167206Y0299003D01*
X0167178Y0299067D01*
X0167146Y0299130D01*
X0167111Y0299191D01*
X0167072Y0299250D01*
X0167031Y0299307D01*
X0166986Y0299361D01*
X0166938Y0299413D01*
X0166888Y0299462D01*
X0166834Y0299509D01*
X0166779Y0299552D01*
X0166721Y0299592D01*
X0166661Y0299629D01*
X0166599Y0299662D01*
X0166535Y0299692D01*
X0166470Y0299719D01*
X0166404Y0299742D01*
X0166336Y0299761D01*
X0166267Y0299776D01*
X0166198Y0299788D01*
X0166128Y0299796D01*
X0166057Y0299800D01*
X0165987Y0299800D01*
X0165916Y0299796D01*
X0165846Y0299788D01*
X0165777Y0299776D01*
X0165708Y0299761D01*
X0165640Y0299742D01*
X0165574Y0299719D01*
X0165509Y0299692D01*
X0165445Y0299662D01*
X0165383Y0299629D01*
X0165323Y0299592D01*
X0165265Y0299552D01*
X0165210Y0299509D01*
X0165156Y0299462D01*
X0165106Y0299413D01*
X0165058Y0299361D01*
X0165013Y0299307D01*
X0164972Y0299250D01*
X0164933Y0299191D01*
X0164898Y0299130D01*
X0164866Y0299067D01*
X0164838Y0299003D01*
X0164813Y0298937D01*
X0164792Y0298870D01*
X0164775Y0298801D01*
X0164761Y0298732D01*
X0164752Y0298663D01*
X0164746Y0298592D01*
X0164744Y0298522D01*
X0164744Y0298778D02*
X0164744Y0297756D01*
X0164744Y0298778D02*
X0164742Y0298841D01*
X0164736Y0298904D01*
X0164727Y0298966D01*
X0164713Y0299027D01*
X0164696Y0299088D01*
X0164675Y0299147D01*
X0164650Y0299205D01*
X0164622Y0299262D01*
X0164591Y0299316D01*
X0164556Y0299368D01*
X0164518Y0299419D01*
X0164477Y0299467D01*
X0164433Y0299512D01*
X0164387Y0299554D01*
X0164338Y0299594D01*
X0164287Y0299630D01*
X0164233Y0299663D01*
X0164178Y0299693D01*
X0164120Y0299719D01*
X0164062Y0299742D01*
X0164002Y0299761D01*
X0163941Y0299776D01*
X0163879Y0299788D01*
X0163816Y0299796D01*
X0163753Y0299800D01*
X0163691Y0299800D01*
X0163628Y0299796D01*
X0163565Y0299788D01*
X0163503Y0299776D01*
X0163442Y0299761D01*
X0163382Y0299742D01*
X0163324Y0299719D01*
X0163266Y0299693D01*
X0163211Y0299663D01*
X0163157Y0299630D01*
X0163106Y0299594D01*
X0163057Y0299554D01*
X0163011Y0299512D01*
X0162967Y0299467D01*
X0162926Y0299419D01*
X0162888Y0299368D01*
X0162853Y0299316D01*
X0162822Y0299262D01*
X0162794Y0299205D01*
X0162769Y0299147D01*
X0162748Y0299088D01*
X0162731Y0299027D01*
X0162717Y0298966D01*
X0162708Y0298904D01*
X0162702Y0298841D01*
X0162700Y0298778D01*
X0162700Y0297244D01*
X0162700Y0294051D02*
X0162700Y0292773D01*
X0167300Y0292773D01*
X0165256Y0292773D02*
X0165256Y0294051D01*
X0165256Y0294307D02*
X0167300Y0295329D01*
X0165256Y0294051D02*
X0165254Y0294121D01*
X0165248Y0294192D01*
X0165239Y0294261D01*
X0165225Y0294330D01*
X0165208Y0294399D01*
X0165187Y0294466D01*
X0165162Y0294532D01*
X0165134Y0294596D01*
X0165102Y0294659D01*
X0165067Y0294720D01*
X0165028Y0294779D01*
X0164987Y0294836D01*
X0164942Y0294890D01*
X0164894Y0294942D01*
X0164844Y0294991D01*
X0164790Y0295038D01*
X0164735Y0295081D01*
X0164677Y0295121D01*
X0164617Y0295158D01*
X0164555Y0295191D01*
X0164491Y0295221D01*
X0164426Y0295248D01*
X0164360Y0295271D01*
X0164292Y0295290D01*
X0164223Y0295305D01*
X0164154Y0295317D01*
X0164084Y0295325D01*
X0164013Y0295329D01*
X0163943Y0295329D01*
X0163872Y0295325D01*
X0163802Y0295317D01*
X0163733Y0295305D01*
X0163664Y0295290D01*
X0163596Y0295271D01*
X0163530Y0295248D01*
X0163465Y0295221D01*
X0163401Y0295191D01*
X0163339Y0295158D01*
X0163279Y0295121D01*
X0163221Y0295081D01*
X0163166Y0295038D01*
X0163112Y0294991D01*
X0163062Y0294942D01*
X0163014Y0294890D01*
X0162969Y0294836D01*
X0162928Y0294779D01*
X0162889Y0294720D01*
X0162854Y0294659D01*
X0162822Y0294596D01*
X0162794Y0294532D01*
X0162769Y0294466D01*
X0162748Y0294399D01*
X0162731Y0294330D01*
X0162717Y0294261D01*
X0162708Y0294192D01*
X0162702Y0294121D01*
X0162700Y0294051D01*
X0346003Y0435200D02*
X0348048Y0435200D01*
X0349939Y0435200D02*
X0349939Y0439800D01*
X0351472Y0437244D01*
X0353006Y0439800D01*
X0353006Y0435200D01*
X0355145Y0435200D02*
X0357700Y0435200D01*
X0359645Y0435200D02*
X0361178Y0435200D01*
X0361240Y0435202D01*
X0361301Y0435207D01*
X0361362Y0435217D01*
X0361423Y0435230D01*
X0361482Y0435246D01*
X0361540Y0435266D01*
X0361597Y0435290D01*
X0361653Y0435317D01*
X0361707Y0435347D01*
X0361759Y0435381D01*
X0361808Y0435417D01*
X0361856Y0435457D01*
X0361901Y0435499D01*
X0361943Y0435544D01*
X0361983Y0435592D01*
X0362019Y0435641D01*
X0362053Y0435693D01*
X0362083Y0435747D01*
X0362110Y0435803D01*
X0362134Y0435860D01*
X0362154Y0435918D01*
X0362170Y0435977D01*
X0362183Y0436038D01*
X0362193Y0436099D01*
X0362198Y0436160D01*
X0362200Y0436222D01*
X0362200Y0436733D01*
X0362198Y0436795D01*
X0362193Y0436856D01*
X0362183Y0436917D01*
X0362170Y0436978D01*
X0362154Y0437037D01*
X0362134Y0437095D01*
X0362110Y0437152D01*
X0362083Y0437208D01*
X0362053Y0437262D01*
X0362019Y0437314D01*
X0361983Y0437363D01*
X0361943Y0437411D01*
X0361901Y0437456D01*
X0361856Y0437498D01*
X0361808Y0437538D01*
X0361759Y0437574D01*
X0361707Y0437608D01*
X0361653Y0437638D01*
X0361597Y0437665D01*
X0361540Y0437689D01*
X0361482Y0437709D01*
X0361423Y0437725D01*
X0361362Y0437738D01*
X0361301Y0437748D01*
X0361240Y0437753D01*
X0361178Y0437755D01*
X0361178Y0437756D02*
X0359645Y0437756D01*
X0359645Y0439800D01*
X0362200Y0439800D01*
X0364144Y0438522D02*
X0364144Y0438267D01*
X0364145Y0438267D02*
X0364147Y0438205D01*
X0364152Y0438144D01*
X0364162Y0438083D01*
X0364175Y0438022D01*
X0364191Y0437963D01*
X0364211Y0437905D01*
X0364235Y0437848D01*
X0364262Y0437792D01*
X0364292Y0437738D01*
X0364326Y0437686D01*
X0364362Y0437637D01*
X0364402Y0437589D01*
X0364444Y0437544D01*
X0364489Y0437502D01*
X0364537Y0437462D01*
X0364586Y0437426D01*
X0364638Y0437392D01*
X0364692Y0437362D01*
X0364748Y0437335D01*
X0364805Y0437311D01*
X0364863Y0437291D01*
X0364922Y0437275D01*
X0364983Y0437262D01*
X0365044Y0437252D01*
X0365105Y0437247D01*
X0365167Y0437245D01*
X0365167Y0437244D02*
X0366700Y0437244D01*
X0366700Y0438522D01*
X0366698Y0438592D01*
X0366692Y0438663D01*
X0366683Y0438732D01*
X0366669Y0438801D01*
X0366652Y0438870D01*
X0366631Y0438937D01*
X0366606Y0439003D01*
X0366578Y0439067D01*
X0366546Y0439130D01*
X0366511Y0439191D01*
X0366472Y0439250D01*
X0366431Y0439307D01*
X0366386Y0439361D01*
X0366338Y0439413D01*
X0366288Y0439462D01*
X0366234Y0439509D01*
X0366179Y0439552D01*
X0366121Y0439592D01*
X0366061Y0439629D01*
X0365999Y0439662D01*
X0365935Y0439692D01*
X0365870Y0439719D01*
X0365804Y0439742D01*
X0365736Y0439761D01*
X0365667Y0439776D01*
X0365598Y0439788D01*
X0365528Y0439796D01*
X0365457Y0439800D01*
X0365387Y0439800D01*
X0365316Y0439796D01*
X0365246Y0439788D01*
X0365177Y0439776D01*
X0365108Y0439761D01*
X0365040Y0439742D01*
X0364974Y0439719D01*
X0364909Y0439692D01*
X0364845Y0439662D01*
X0364783Y0439629D01*
X0364723Y0439592D01*
X0364665Y0439552D01*
X0364610Y0439509D01*
X0364556Y0439462D01*
X0364506Y0439413D01*
X0364458Y0439361D01*
X0364413Y0439307D01*
X0364372Y0439250D01*
X0364333Y0439191D01*
X0364298Y0439130D01*
X0364266Y0439067D01*
X0364238Y0439003D01*
X0364213Y0438937D01*
X0364192Y0438870D01*
X0364175Y0438801D01*
X0364161Y0438732D01*
X0364152Y0438663D01*
X0364146Y0438592D01*
X0364144Y0438522D01*
X0366700Y0437244D02*
X0366698Y0437155D01*
X0366692Y0437066D01*
X0366683Y0436977D01*
X0366669Y0436889D01*
X0366652Y0436802D01*
X0366630Y0436715D01*
X0366605Y0436629D01*
X0366577Y0436545D01*
X0366544Y0436462D01*
X0366508Y0436380D01*
X0366469Y0436300D01*
X0366426Y0436222D01*
X0366380Y0436146D01*
X0366330Y0436072D01*
X0366278Y0436000D01*
X0366222Y0435930D01*
X0366163Y0435863D01*
X0366101Y0435799D01*
X0366037Y0435737D01*
X0365970Y0435678D01*
X0365900Y0435622D01*
X0365828Y0435570D01*
X0365754Y0435520D01*
X0365678Y0435474D01*
X0365600Y0435431D01*
X0365520Y0435392D01*
X0365438Y0435356D01*
X0365355Y0435323D01*
X0365271Y0435295D01*
X0365185Y0435270D01*
X0365098Y0435248D01*
X0365011Y0435231D01*
X0364923Y0435217D01*
X0364834Y0435208D01*
X0364745Y0435202D01*
X0364656Y0435200D01*
X0368644Y0436478D02*
X0368644Y0437756D01*
X0370178Y0437756D01*
X0368645Y0437756D02*
X0368647Y0437845D01*
X0368653Y0437934D01*
X0368662Y0438023D01*
X0368676Y0438111D01*
X0368693Y0438198D01*
X0368715Y0438285D01*
X0368740Y0438371D01*
X0368768Y0438455D01*
X0368801Y0438538D01*
X0368837Y0438620D01*
X0368876Y0438700D01*
X0368919Y0438778D01*
X0368965Y0438854D01*
X0369015Y0438928D01*
X0369067Y0439000D01*
X0369123Y0439070D01*
X0369182Y0439137D01*
X0369244Y0439201D01*
X0369308Y0439263D01*
X0369375Y0439322D01*
X0369445Y0439378D01*
X0369517Y0439430D01*
X0369591Y0439480D01*
X0369667Y0439526D01*
X0369745Y0439569D01*
X0369825Y0439608D01*
X0369907Y0439644D01*
X0369990Y0439677D01*
X0370074Y0439705D01*
X0370160Y0439730D01*
X0370247Y0439752D01*
X0370334Y0439769D01*
X0370422Y0439783D01*
X0370511Y0439792D01*
X0370600Y0439798D01*
X0370689Y0439800D01*
X0371200Y0436733D02*
X0371200Y0436478D01*
X0371200Y0436733D02*
X0371198Y0436795D01*
X0371193Y0436856D01*
X0371183Y0436917D01*
X0371170Y0436978D01*
X0371154Y0437037D01*
X0371134Y0437095D01*
X0371110Y0437152D01*
X0371083Y0437208D01*
X0371053Y0437262D01*
X0371019Y0437314D01*
X0370983Y0437363D01*
X0370943Y0437411D01*
X0370901Y0437456D01*
X0370856Y0437498D01*
X0370808Y0437538D01*
X0370759Y0437574D01*
X0370707Y0437608D01*
X0370653Y0437638D01*
X0370597Y0437665D01*
X0370540Y0437689D01*
X0370482Y0437709D01*
X0370423Y0437725D01*
X0370362Y0437738D01*
X0370301Y0437748D01*
X0370240Y0437753D01*
X0370178Y0437755D01*
X0371200Y0436478D02*
X0371198Y0436408D01*
X0371192Y0436337D01*
X0371183Y0436268D01*
X0371169Y0436199D01*
X0371152Y0436130D01*
X0371131Y0436063D01*
X0371106Y0435997D01*
X0371078Y0435933D01*
X0371046Y0435870D01*
X0371011Y0435809D01*
X0370972Y0435750D01*
X0370931Y0435693D01*
X0370886Y0435639D01*
X0370838Y0435587D01*
X0370788Y0435538D01*
X0370734Y0435491D01*
X0370679Y0435448D01*
X0370621Y0435408D01*
X0370561Y0435371D01*
X0370499Y0435338D01*
X0370435Y0435308D01*
X0370370Y0435281D01*
X0370304Y0435258D01*
X0370236Y0435239D01*
X0370167Y0435224D01*
X0370098Y0435212D01*
X0370028Y0435204D01*
X0369957Y0435200D01*
X0369887Y0435200D01*
X0369816Y0435204D01*
X0369746Y0435212D01*
X0369677Y0435224D01*
X0369608Y0435239D01*
X0369540Y0435258D01*
X0369474Y0435281D01*
X0369409Y0435308D01*
X0369345Y0435338D01*
X0369283Y0435371D01*
X0369223Y0435408D01*
X0369165Y0435448D01*
X0369110Y0435491D01*
X0369056Y0435538D01*
X0369006Y0435587D01*
X0368958Y0435639D01*
X0368913Y0435693D01*
X0368872Y0435750D01*
X0368833Y0435809D01*
X0368798Y0435870D01*
X0368766Y0435933D01*
X0368738Y0435997D01*
X0368713Y0436063D01*
X0368692Y0436130D01*
X0368675Y0436199D01*
X0368661Y0436268D01*
X0368652Y0436337D01*
X0368646Y0436408D01*
X0368644Y0436478D01*
X0373189Y0436989D02*
X0376256Y0436989D01*
X0378756Y0437756D02*
X0379778Y0437756D01*
X0379841Y0437758D01*
X0379904Y0437764D01*
X0379966Y0437773D01*
X0380027Y0437787D01*
X0380088Y0437804D01*
X0380147Y0437825D01*
X0380205Y0437850D01*
X0380262Y0437878D01*
X0380316Y0437909D01*
X0380368Y0437944D01*
X0380419Y0437982D01*
X0380467Y0438023D01*
X0380512Y0438067D01*
X0380554Y0438113D01*
X0380594Y0438162D01*
X0380630Y0438213D01*
X0380663Y0438267D01*
X0380693Y0438322D01*
X0380719Y0438380D01*
X0380742Y0438438D01*
X0380761Y0438498D01*
X0380776Y0438559D01*
X0380788Y0438621D01*
X0380796Y0438684D01*
X0380800Y0438747D01*
X0380800Y0438809D01*
X0380796Y0438872D01*
X0380788Y0438935D01*
X0380776Y0438997D01*
X0380761Y0439058D01*
X0380742Y0439118D01*
X0380719Y0439176D01*
X0380693Y0439234D01*
X0380663Y0439289D01*
X0380630Y0439343D01*
X0380594Y0439394D01*
X0380554Y0439443D01*
X0380512Y0439489D01*
X0380467Y0439533D01*
X0380419Y0439574D01*
X0380368Y0439612D01*
X0380316Y0439647D01*
X0380262Y0439678D01*
X0380205Y0439706D01*
X0380147Y0439731D01*
X0380088Y0439752D01*
X0380027Y0439769D01*
X0379966Y0439783D01*
X0379904Y0439792D01*
X0379841Y0439798D01*
X0379778Y0439800D01*
X0378244Y0439800D01*
X0379522Y0437756D02*
X0379592Y0437754D01*
X0379663Y0437748D01*
X0379732Y0437739D01*
X0379801Y0437725D01*
X0379870Y0437708D01*
X0379937Y0437687D01*
X0380003Y0437662D01*
X0380067Y0437634D01*
X0380130Y0437602D01*
X0380191Y0437567D01*
X0380250Y0437528D01*
X0380307Y0437487D01*
X0380361Y0437442D01*
X0380413Y0437394D01*
X0380462Y0437344D01*
X0380509Y0437290D01*
X0380552Y0437235D01*
X0380592Y0437177D01*
X0380629Y0437117D01*
X0380662Y0437055D01*
X0380692Y0436991D01*
X0380719Y0436926D01*
X0380742Y0436860D01*
X0380761Y0436792D01*
X0380776Y0436723D01*
X0380788Y0436654D01*
X0380796Y0436584D01*
X0380800Y0436513D01*
X0380800Y0436443D01*
X0380796Y0436372D01*
X0380788Y0436302D01*
X0380776Y0436233D01*
X0380761Y0436164D01*
X0380742Y0436096D01*
X0380719Y0436030D01*
X0380692Y0435965D01*
X0380662Y0435901D01*
X0380629Y0435839D01*
X0380592Y0435779D01*
X0380552Y0435721D01*
X0380509Y0435666D01*
X0380462Y0435612D01*
X0380413Y0435562D01*
X0380361Y0435514D01*
X0380307Y0435469D01*
X0380250Y0435428D01*
X0380191Y0435389D01*
X0380130Y0435354D01*
X0380067Y0435322D01*
X0380003Y0435294D01*
X0379937Y0435269D01*
X0379870Y0435248D01*
X0379801Y0435231D01*
X0379732Y0435217D01*
X0379663Y0435208D01*
X0379592Y0435202D01*
X0379522Y0435200D01*
X0378244Y0435200D01*
X0384022Y0435200D02*
X0385556Y0439800D01*
X0387244Y0439800D02*
X0388778Y0439800D01*
X0388841Y0439798D01*
X0388904Y0439792D01*
X0388966Y0439783D01*
X0389027Y0439769D01*
X0389088Y0439752D01*
X0389147Y0439731D01*
X0389205Y0439706D01*
X0389262Y0439678D01*
X0389316Y0439647D01*
X0389368Y0439612D01*
X0389419Y0439574D01*
X0389467Y0439533D01*
X0389512Y0439489D01*
X0389554Y0439443D01*
X0389594Y0439394D01*
X0389630Y0439343D01*
X0389663Y0439289D01*
X0389693Y0439234D01*
X0389719Y0439176D01*
X0389742Y0439118D01*
X0389761Y0439058D01*
X0389776Y0438997D01*
X0389788Y0438935D01*
X0389796Y0438872D01*
X0389800Y0438809D01*
X0389800Y0438747D01*
X0389796Y0438684D01*
X0389788Y0438621D01*
X0389776Y0438559D01*
X0389761Y0438498D01*
X0389742Y0438438D01*
X0389719Y0438380D01*
X0389693Y0438322D01*
X0389663Y0438267D01*
X0389630Y0438213D01*
X0389594Y0438162D01*
X0389554Y0438113D01*
X0389512Y0438067D01*
X0389467Y0438023D01*
X0389419Y0437982D01*
X0389368Y0437944D01*
X0389316Y0437909D01*
X0389262Y0437878D01*
X0389205Y0437850D01*
X0389147Y0437825D01*
X0389088Y0437804D01*
X0389027Y0437787D01*
X0388966Y0437773D01*
X0388904Y0437764D01*
X0388841Y0437758D01*
X0388778Y0437756D01*
X0387756Y0437756D01*
X0388522Y0437756D02*
X0388592Y0437754D01*
X0388663Y0437748D01*
X0388732Y0437739D01*
X0388801Y0437725D01*
X0388870Y0437708D01*
X0388937Y0437687D01*
X0389003Y0437662D01*
X0389067Y0437634D01*
X0389130Y0437602D01*
X0389191Y0437567D01*
X0389250Y0437528D01*
X0389307Y0437487D01*
X0389361Y0437442D01*
X0389413Y0437394D01*
X0389462Y0437344D01*
X0389509Y0437290D01*
X0389552Y0437235D01*
X0389592Y0437177D01*
X0389629Y0437117D01*
X0389662Y0437055D01*
X0389692Y0436991D01*
X0389719Y0436926D01*
X0389742Y0436860D01*
X0389761Y0436792D01*
X0389776Y0436723D01*
X0389788Y0436654D01*
X0389796Y0436584D01*
X0389800Y0436513D01*
X0389800Y0436443D01*
X0389796Y0436372D01*
X0389788Y0436302D01*
X0389776Y0436233D01*
X0389761Y0436164D01*
X0389742Y0436096D01*
X0389719Y0436030D01*
X0389692Y0435965D01*
X0389662Y0435901D01*
X0389629Y0435839D01*
X0389592Y0435779D01*
X0389552Y0435721D01*
X0389509Y0435666D01*
X0389462Y0435612D01*
X0389413Y0435562D01*
X0389361Y0435514D01*
X0389307Y0435469D01*
X0389250Y0435428D01*
X0389191Y0435389D01*
X0389130Y0435354D01*
X0389067Y0435322D01*
X0389003Y0435294D01*
X0388937Y0435269D01*
X0388870Y0435248D01*
X0388801Y0435231D01*
X0388732Y0435217D01*
X0388663Y0435208D01*
X0388592Y0435202D01*
X0388522Y0435200D01*
X0387244Y0435200D01*
X0384022Y0435200D02*
X0382489Y0439800D01*
X0381250Y0409800D02*
X0381250Y0406478D01*
X0381248Y0406408D01*
X0381242Y0406337D01*
X0381233Y0406268D01*
X0381219Y0406199D01*
X0381202Y0406130D01*
X0381181Y0406063D01*
X0381156Y0405997D01*
X0381128Y0405933D01*
X0381096Y0405870D01*
X0381061Y0405809D01*
X0381022Y0405750D01*
X0380981Y0405693D01*
X0380936Y0405639D01*
X0380888Y0405587D01*
X0380838Y0405538D01*
X0380784Y0405491D01*
X0380729Y0405448D01*
X0380671Y0405408D01*
X0380611Y0405371D01*
X0380549Y0405338D01*
X0380485Y0405308D01*
X0380420Y0405281D01*
X0380354Y0405258D01*
X0380286Y0405239D01*
X0380217Y0405224D01*
X0380148Y0405212D01*
X0380078Y0405204D01*
X0380007Y0405200D01*
X0379937Y0405200D01*
X0379866Y0405204D01*
X0379796Y0405212D01*
X0379727Y0405224D01*
X0379658Y0405239D01*
X0379590Y0405258D01*
X0379524Y0405281D01*
X0379459Y0405308D01*
X0379395Y0405338D01*
X0379333Y0405371D01*
X0379273Y0405408D01*
X0379215Y0405448D01*
X0379160Y0405491D01*
X0379106Y0405538D01*
X0379056Y0405587D01*
X0379008Y0405639D01*
X0378963Y0405693D01*
X0378922Y0405750D01*
X0378883Y0405809D01*
X0378848Y0405870D01*
X0378816Y0405933D01*
X0378788Y0405997D01*
X0378763Y0406063D01*
X0378742Y0406130D01*
X0378725Y0406199D01*
X0378711Y0406268D01*
X0378702Y0406337D01*
X0378696Y0406408D01*
X0378694Y0406478D01*
X0378694Y0409800D01*
X0383683Y0407883D02*
X0384322Y0407500D01*
X0384961Y0407117D01*
X0385345Y0409033D02*
X0385270Y0409076D01*
X0385194Y0409115D01*
X0385116Y0409152D01*
X0385037Y0409184D01*
X0384956Y0409214D01*
X0384874Y0409240D01*
X0384791Y0409262D01*
X0384707Y0409281D01*
X0384623Y0409297D01*
X0384538Y0409308D01*
X0384452Y0409316D01*
X0384367Y0409321D01*
X0384281Y0409322D01*
X0384195Y0409319D01*
X0384109Y0409313D01*
X0384024Y0409303D01*
X0383939Y0409289D01*
X0384322Y0409800D02*
X0384322Y0405200D01*
X0384705Y0405711D02*
X0384758Y0405723D01*
X0384810Y0405738D01*
X0384861Y0405758D01*
X0384910Y0405780D01*
X0384958Y0405806D01*
X0385004Y0405836D01*
X0385047Y0405868D01*
X0385088Y0405904D01*
X0385127Y0405942D01*
X0385162Y0405983D01*
X0385195Y0406027D01*
X0385224Y0406072D01*
X0385250Y0406120D01*
X0385273Y0406170D01*
X0385292Y0406220D01*
X0385307Y0406272D01*
X0385319Y0406326D01*
X0385326Y0406379D01*
X0385330Y0406433D01*
X0385331Y0406488D01*
X0385327Y0406542D01*
X0385319Y0406596D01*
X0385308Y0406649D01*
X0385293Y0406701D01*
X0385274Y0406752D01*
X0385251Y0406801D01*
X0385226Y0406849D01*
X0385196Y0406895D01*
X0385164Y0406938D01*
X0385129Y0406980D01*
X0385090Y0407018D01*
X0385049Y0407054D01*
X0385006Y0407087D01*
X0384961Y0407116D01*
X0384706Y0405711D02*
X0384621Y0405697D01*
X0384536Y0405687D01*
X0384450Y0405681D01*
X0384364Y0405678D01*
X0384278Y0405679D01*
X0384193Y0405684D01*
X0384107Y0405692D01*
X0384022Y0405703D01*
X0383938Y0405719D01*
X0383854Y0405738D01*
X0383771Y0405760D01*
X0383689Y0405786D01*
X0383608Y0405816D01*
X0383529Y0405848D01*
X0383451Y0405885D01*
X0383375Y0405924D01*
X0383300Y0405967D01*
X0383683Y0407884D02*
X0383638Y0407913D01*
X0383595Y0407946D01*
X0383554Y0407982D01*
X0383515Y0408020D01*
X0383480Y0408062D01*
X0383448Y0408105D01*
X0383418Y0408151D01*
X0383393Y0408199D01*
X0383370Y0408248D01*
X0383351Y0408299D01*
X0383336Y0408351D01*
X0383325Y0408404D01*
X0383317Y0408458D01*
X0383313Y0408512D01*
X0383314Y0408567D01*
X0383318Y0408621D01*
X0383325Y0408674D01*
X0383337Y0408728D01*
X0383352Y0408780D01*
X0383371Y0408830D01*
X0383394Y0408880D01*
X0383420Y0408928D01*
X0383449Y0408973D01*
X0383482Y0409017D01*
X0383517Y0409058D01*
X0383556Y0409096D01*
X0383597Y0409132D01*
X0383640Y0409164D01*
X0383686Y0409194D01*
X0383734Y0409220D01*
X0383783Y0409242D01*
X0383834Y0409262D01*
X0383886Y0409277D01*
X0383939Y0409289D01*
X0387244Y0409800D02*
X0388778Y0409800D01*
X0388841Y0409798D01*
X0388904Y0409792D01*
X0388966Y0409783D01*
X0389027Y0409769D01*
X0389088Y0409752D01*
X0389147Y0409731D01*
X0389205Y0409706D01*
X0389262Y0409678D01*
X0389316Y0409647D01*
X0389368Y0409612D01*
X0389419Y0409574D01*
X0389467Y0409533D01*
X0389512Y0409489D01*
X0389554Y0409443D01*
X0389594Y0409394D01*
X0389630Y0409343D01*
X0389663Y0409289D01*
X0389693Y0409234D01*
X0389719Y0409176D01*
X0389742Y0409118D01*
X0389761Y0409058D01*
X0389776Y0408997D01*
X0389788Y0408935D01*
X0389796Y0408872D01*
X0389800Y0408809D01*
X0389800Y0408747D01*
X0389796Y0408684D01*
X0389788Y0408621D01*
X0389776Y0408559D01*
X0389761Y0408498D01*
X0389742Y0408438D01*
X0389719Y0408380D01*
X0389693Y0408322D01*
X0389663Y0408267D01*
X0389630Y0408213D01*
X0389594Y0408162D01*
X0389554Y0408113D01*
X0389512Y0408067D01*
X0389467Y0408023D01*
X0389419Y0407982D01*
X0389368Y0407944D01*
X0389316Y0407909D01*
X0389262Y0407878D01*
X0389205Y0407850D01*
X0389147Y0407825D01*
X0389088Y0407804D01*
X0389027Y0407787D01*
X0388966Y0407773D01*
X0388904Y0407764D01*
X0388841Y0407758D01*
X0388778Y0407756D01*
X0387756Y0407756D01*
X0388522Y0407756D02*
X0388592Y0407754D01*
X0388663Y0407748D01*
X0388732Y0407739D01*
X0388801Y0407725D01*
X0388870Y0407708D01*
X0388937Y0407687D01*
X0389003Y0407662D01*
X0389067Y0407634D01*
X0389130Y0407602D01*
X0389191Y0407567D01*
X0389250Y0407528D01*
X0389307Y0407487D01*
X0389361Y0407442D01*
X0389413Y0407394D01*
X0389462Y0407344D01*
X0389509Y0407290D01*
X0389552Y0407235D01*
X0389592Y0407177D01*
X0389629Y0407117D01*
X0389662Y0407055D01*
X0389692Y0406991D01*
X0389719Y0406926D01*
X0389742Y0406860D01*
X0389761Y0406792D01*
X0389776Y0406723D01*
X0389788Y0406654D01*
X0389796Y0406584D01*
X0389800Y0406513D01*
X0389800Y0406443D01*
X0389796Y0406372D01*
X0389788Y0406302D01*
X0389776Y0406233D01*
X0389761Y0406164D01*
X0389742Y0406096D01*
X0389719Y0406030D01*
X0389692Y0405965D01*
X0389662Y0405901D01*
X0389629Y0405839D01*
X0389592Y0405779D01*
X0389552Y0405721D01*
X0389509Y0405666D01*
X0389462Y0405612D01*
X0389413Y0405562D01*
X0389361Y0405514D01*
X0389307Y0405469D01*
X0389250Y0405428D01*
X0389191Y0405389D01*
X0389130Y0405354D01*
X0389067Y0405322D01*
X0389003Y0405294D01*
X0388937Y0405269D01*
X0388870Y0405248D01*
X0388801Y0405231D01*
X0388732Y0405217D01*
X0388663Y0405208D01*
X0388592Y0405202D01*
X0388522Y0405200D01*
X0387244Y0405200D01*
X0355145Y0435200D02*
X0357317Y0437756D01*
X0356550Y0439800D02*
X0356476Y0439798D01*
X0356402Y0439793D01*
X0356328Y0439783D01*
X0356255Y0439770D01*
X0356182Y0439754D01*
X0356111Y0439733D01*
X0356041Y0439709D01*
X0355972Y0439682D01*
X0355904Y0439651D01*
X0355838Y0439617D01*
X0355774Y0439580D01*
X0355712Y0439539D01*
X0355652Y0439495D01*
X0355594Y0439449D01*
X0355538Y0439399D01*
X0355485Y0439347D01*
X0355435Y0439292D01*
X0355388Y0439235D01*
X0355344Y0439175D01*
X0355302Y0439113D01*
X0355264Y0439050D01*
X0355229Y0438984D01*
X0355198Y0438917D01*
X0355170Y0438848D01*
X0355145Y0438778D01*
X0357317Y0437756D02*
X0357364Y0437803D01*
X0357408Y0437853D01*
X0357450Y0437905D01*
X0357489Y0437959D01*
X0357524Y0438015D01*
X0357557Y0438073D01*
X0357587Y0438133D01*
X0357613Y0438194D01*
X0357636Y0438257D01*
X0357655Y0438321D01*
X0357671Y0438385D01*
X0357684Y0438451D01*
X0357693Y0438517D01*
X0357698Y0438583D01*
X0357700Y0438650D01*
X0357698Y0438717D01*
X0357692Y0438784D01*
X0357683Y0438850D01*
X0357669Y0438915D01*
X0357652Y0438980D01*
X0357631Y0439043D01*
X0357606Y0439105D01*
X0357578Y0439166D01*
X0357546Y0439225D01*
X0357511Y0439282D01*
X0357472Y0439337D01*
X0357431Y0439389D01*
X0357386Y0439439D01*
X0357339Y0439486D01*
X0357289Y0439531D01*
X0357237Y0439572D01*
X0357182Y0439611D01*
X0357125Y0439646D01*
X0357066Y0439678D01*
X0357005Y0439706D01*
X0356943Y0439731D01*
X0356880Y0439752D01*
X0356815Y0439769D01*
X0356750Y0439783D01*
X0356684Y0439792D01*
X0356617Y0439798D01*
X0356550Y0439800D01*
X0346003Y0439800D02*
X0346003Y0435200D01*
X0443362Y0310597D02*
X0444640Y0310597D01*
X0444709Y0310595D01*
X0444778Y0310590D01*
X0444847Y0310580D01*
X0444915Y0310567D01*
X0444982Y0310550D01*
X0445048Y0310530D01*
X0445113Y0310506D01*
X0445177Y0310479D01*
X0445239Y0310448D01*
X0445299Y0310414D01*
X0445357Y0310377D01*
X0445413Y0310336D01*
X0445467Y0310293D01*
X0445519Y0310247D01*
X0445568Y0310198D01*
X0445614Y0310146D01*
X0445657Y0310092D01*
X0445698Y0310036D01*
X0445735Y0309978D01*
X0445769Y0309918D01*
X0445800Y0309856D01*
X0445827Y0309792D01*
X0445851Y0309727D01*
X0445871Y0309661D01*
X0445888Y0309594D01*
X0445901Y0309526D01*
X0445911Y0309457D01*
X0445916Y0309388D01*
X0445918Y0309319D01*
X0445918Y0307275D01*
X0445916Y0307206D01*
X0445911Y0307137D01*
X0445901Y0307068D01*
X0445888Y0307000D01*
X0445871Y0306933D01*
X0445851Y0306867D01*
X0445827Y0306802D01*
X0445800Y0306738D01*
X0445769Y0306676D01*
X0445735Y0306616D01*
X0445698Y0306558D01*
X0445657Y0306502D01*
X0445614Y0306448D01*
X0445568Y0306396D01*
X0445519Y0306347D01*
X0445467Y0306301D01*
X0445413Y0306258D01*
X0445357Y0306217D01*
X0445299Y0306180D01*
X0445239Y0306146D01*
X0445177Y0306115D01*
X0445113Y0306088D01*
X0445048Y0306064D01*
X0444982Y0306044D01*
X0444915Y0306027D01*
X0444847Y0306014D01*
X0444778Y0306004D01*
X0444709Y0305999D01*
X0444640Y0305997D01*
X0443362Y0305997D01*
X0443362Y0310597D01*
X0448268Y0309575D02*
X0448270Y0309512D01*
X0448276Y0309449D01*
X0448285Y0309387D01*
X0448299Y0309326D01*
X0448316Y0309265D01*
X0448337Y0309206D01*
X0448362Y0309148D01*
X0448390Y0309091D01*
X0448421Y0309037D01*
X0448456Y0308985D01*
X0448494Y0308934D01*
X0448535Y0308886D01*
X0448579Y0308841D01*
X0448625Y0308799D01*
X0448674Y0308759D01*
X0448725Y0308723D01*
X0448779Y0308690D01*
X0448834Y0308660D01*
X0448892Y0308634D01*
X0448950Y0308611D01*
X0449010Y0308592D01*
X0449071Y0308577D01*
X0449133Y0308565D01*
X0449196Y0308557D01*
X0449259Y0308553D01*
X0449321Y0308553D01*
X0449384Y0308557D01*
X0449447Y0308565D01*
X0449509Y0308577D01*
X0449570Y0308592D01*
X0449630Y0308611D01*
X0449688Y0308634D01*
X0449746Y0308660D01*
X0449801Y0308690D01*
X0449855Y0308723D01*
X0449906Y0308759D01*
X0449955Y0308799D01*
X0450001Y0308841D01*
X0450045Y0308886D01*
X0450086Y0308934D01*
X0450124Y0308985D01*
X0450159Y0309037D01*
X0450190Y0309091D01*
X0450218Y0309148D01*
X0450243Y0309206D01*
X0450264Y0309265D01*
X0450281Y0309326D01*
X0450295Y0309387D01*
X0450304Y0309449D01*
X0450310Y0309512D01*
X0450312Y0309575D01*
X0450310Y0309638D01*
X0450304Y0309701D01*
X0450295Y0309763D01*
X0450281Y0309824D01*
X0450264Y0309885D01*
X0450243Y0309944D01*
X0450218Y0310002D01*
X0450190Y0310059D01*
X0450159Y0310113D01*
X0450124Y0310165D01*
X0450086Y0310216D01*
X0450045Y0310264D01*
X0450001Y0310309D01*
X0449955Y0310351D01*
X0449906Y0310391D01*
X0449855Y0310427D01*
X0449801Y0310460D01*
X0449746Y0310490D01*
X0449688Y0310516D01*
X0449630Y0310539D01*
X0449570Y0310558D01*
X0449509Y0310573D01*
X0449447Y0310585D01*
X0449384Y0310593D01*
X0449321Y0310597D01*
X0449259Y0310597D01*
X0449196Y0310593D01*
X0449133Y0310585D01*
X0449071Y0310573D01*
X0449010Y0310558D01*
X0448950Y0310539D01*
X0448892Y0310516D01*
X0448834Y0310490D01*
X0448779Y0310460D01*
X0448725Y0310427D01*
X0448674Y0310391D01*
X0448625Y0310351D01*
X0448579Y0310309D01*
X0448535Y0310264D01*
X0448494Y0310216D01*
X0448456Y0310165D01*
X0448421Y0310113D01*
X0448390Y0310059D01*
X0448362Y0310002D01*
X0448337Y0309944D01*
X0448316Y0309885D01*
X0448299Y0309824D01*
X0448285Y0309763D01*
X0448276Y0309701D01*
X0448270Y0309638D01*
X0448268Y0309575D01*
X0448012Y0307275D02*
X0448014Y0307205D01*
X0448020Y0307134D01*
X0448029Y0307065D01*
X0448043Y0306996D01*
X0448060Y0306927D01*
X0448081Y0306860D01*
X0448106Y0306794D01*
X0448134Y0306730D01*
X0448166Y0306667D01*
X0448201Y0306606D01*
X0448240Y0306547D01*
X0448281Y0306490D01*
X0448326Y0306436D01*
X0448374Y0306384D01*
X0448424Y0306335D01*
X0448478Y0306288D01*
X0448533Y0306245D01*
X0448591Y0306205D01*
X0448651Y0306168D01*
X0448713Y0306135D01*
X0448777Y0306105D01*
X0448842Y0306078D01*
X0448908Y0306055D01*
X0448976Y0306036D01*
X0449045Y0306021D01*
X0449114Y0306009D01*
X0449184Y0306001D01*
X0449255Y0305997D01*
X0449325Y0305997D01*
X0449396Y0306001D01*
X0449466Y0306009D01*
X0449535Y0306021D01*
X0449604Y0306036D01*
X0449672Y0306055D01*
X0449738Y0306078D01*
X0449803Y0306105D01*
X0449867Y0306135D01*
X0449929Y0306168D01*
X0449989Y0306205D01*
X0450047Y0306245D01*
X0450102Y0306288D01*
X0450156Y0306335D01*
X0450206Y0306384D01*
X0450254Y0306436D01*
X0450299Y0306490D01*
X0450340Y0306547D01*
X0450379Y0306606D01*
X0450414Y0306667D01*
X0450446Y0306730D01*
X0450474Y0306794D01*
X0450499Y0306860D01*
X0450520Y0306927D01*
X0450537Y0306996D01*
X0450551Y0307065D01*
X0450560Y0307134D01*
X0450566Y0307205D01*
X0450568Y0307275D01*
X0450566Y0307345D01*
X0450560Y0307416D01*
X0450551Y0307485D01*
X0450537Y0307554D01*
X0450520Y0307623D01*
X0450499Y0307690D01*
X0450474Y0307756D01*
X0450446Y0307820D01*
X0450414Y0307883D01*
X0450379Y0307944D01*
X0450340Y0308003D01*
X0450299Y0308060D01*
X0450254Y0308114D01*
X0450206Y0308166D01*
X0450156Y0308215D01*
X0450102Y0308262D01*
X0450047Y0308305D01*
X0449989Y0308345D01*
X0449929Y0308382D01*
X0449867Y0308415D01*
X0449803Y0308445D01*
X0449738Y0308472D01*
X0449672Y0308495D01*
X0449604Y0308514D01*
X0449535Y0308529D01*
X0449466Y0308541D01*
X0449396Y0308549D01*
X0449325Y0308553D01*
X0449255Y0308553D01*
X0449184Y0308549D01*
X0449114Y0308541D01*
X0449045Y0308529D01*
X0448976Y0308514D01*
X0448908Y0308495D01*
X0448842Y0308472D01*
X0448777Y0308445D01*
X0448713Y0308415D01*
X0448651Y0308382D01*
X0448591Y0308345D01*
X0448533Y0308305D01*
X0448478Y0308262D01*
X0448424Y0308215D01*
X0448374Y0308166D01*
X0448326Y0308114D01*
X0448281Y0308060D01*
X0448240Y0308003D01*
X0448201Y0307944D01*
X0448166Y0307883D01*
X0448134Y0307820D01*
X0448106Y0307756D01*
X0448081Y0307690D01*
X0448060Y0307623D01*
X0448043Y0307554D01*
X0448029Y0307485D01*
X0448020Y0307416D01*
X0448014Y0307345D01*
X0448012Y0307275D01*
X0448896Y0296818D02*
X0448896Y0292218D01*
X0447618Y0292218D02*
X0450174Y0292218D01*
X0447618Y0295795D02*
X0448896Y0296818D01*
X0444425Y0296818D02*
X0443147Y0296818D01*
X0443147Y0292218D01*
X0443147Y0294262D02*
X0444425Y0294262D01*
X0444681Y0294262D02*
X0445703Y0292218D01*
X0444425Y0294262D02*
X0444495Y0294264D01*
X0444566Y0294270D01*
X0444635Y0294279D01*
X0444704Y0294293D01*
X0444773Y0294310D01*
X0444840Y0294331D01*
X0444906Y0294356D01*
X0444970Y0294384D01*
X0445033Y0294416D01*
X0445094Y0294451D01*
X0445153Y0294490D01*
X0445210Y0294531D01*
X0445264Y0294576D01*
X0445316Y0294624D01*
X0445365Y0294674D01*
X0445412Y0294728D01*
X0445455Y0294783D01*
X0445495Y0294841D01*
X0445532Y0294901D01*
X0445565Y0294963D01*
X0445595Y0295027D01*
X0445622Y0295092D01*
X0445645Y0295158D01*
X0445664Y0295226D01*
X0445679Y0295295D01*
X0445691Y0295364D01*
X0445699Y0295434D01*
X0445703Y0295505D01*
X0445703Y0295575D01*
X0445699Y0295646D01*
X0445691Y0295716D01*
X0445679Y0295785D01*
X0445664Y0295854D01*
X0445645Y0295922D01*
X0445622Y0295988D01*
X0445595Y0296053D01*
X0445565Y0296117D01*
X0445532Y0296179D01*
X0445495Y0296239D01*
X0445455Y0296297D01*
X0445412Y0296352D01*
X0445365Y0296406D01*
X0445316Y0296456D01*
X0445264Y0296504D01*
X0445210Y0296549D01*
X0445153Y0296590D01*
X0445094Y0296629D01*
X0445033Y0296664D01*
X0444970Y0296696D01*
X0444906Y0296724D01*
X0444840Y0296749D01*
X0444773Y0296770D01*
X0444704Y0296787D01*
X0444635Y0296801D01*
X0444566Y0296810D01*
X0444495Y0296816D01*
X0444425Y0296818D01*
X0441324Y0296818D02*
X0438768Y0296818D01*
X0440046Y0296818D02*
X0440046Y0292218D01*
D13*
X0457500Y0331000D02*
X0422000Y0331000D01*
X0422000Y0342500D01*
X0422000Y0347500D02*
X0422000Y0362500D01*
X0422000Y0367500D02*
X0422000Y0379000D01*
X0457500Y0379000D01*
X0469500Y0379000D01*
X0469500Y0368500D01*
X0469500Y0361500D01*
X0464500Y0363000D01*
X0464500Y0367000D01*
X0469500Y0368500D01*
X0469500Y0361500D02*
X0469500Y0348500D01*
X0469500Y0341500D01*
X0464500Y0343000D01*
X0464500Y0347000D01*
X0469500Y0348500D01*
X0469500Y0341500D02*
X0469500Y0331000D01*
X0457500Y0331000D01*
X0457500Y0379000D01*
X0260295Y0276890D02*
X0260295Y0263110D01*
X0254626Y0263110D01*
X0253957Y0276890D02*
X0250098Y0276890D01*
X0244902Y0276890D02*
X0241043Y0276890D01*
X0235846Y0276890D02*
X0234705Y0276890D01*
X0234705Y0263110D01*
X0240374Y0263110D01*
X0259154Y0276890D02*
X0260295Y0276890D01*
X0260295Y0231890D02*
X0260295Y0218110D01*
X0254626Y0218110D01*
X0253957Y0231890D02*
X0250098Y0231890D01*
X0244902Y0231890D02*
X0241043Y0231890D01*
X0235846Y0231890D02*
X0234705Y0231890D01*
X0234705Y0218110D01*
X0240374Y0218110D01*
X0259154Y0231890D02*
X0260295Y0231890D01*
X0193000Y0316000D02*
X0193000Y0327500D01*
X0193000Y0332500D02*
X0193000Y0347500D01*
X0193000Y0352500D02*
X0193000Y0367500D01*
X0193000Y0372500D02*
X0193000Y0387500D01*
X0193000Y0392500D02*
X0193000Y0407500D01*
X0193000Y0412500D02*
X0193000Y0427500D01*
X0193000Y0432500D02*
X0193000Y0444000D01*
X0157500Y0444000D01*
X0145500Y0444000D01*
X0145500Y0433500D01*
X0145500Y0426500D01*
X0145500Y0413500D01*
X0145500Y0406500D01*
X0145500Y0393500D01*
X0150500Y0392000D01*
X0150500Y0388000D01*
X0145500Y0386500D01*
X0145500Y0373500D01*
X0150500Y0372000D01*
X0150500Y0368000D01*
X0145500Y0366500D01*
X0145500Y0353500D01*
X0150500Y0352000D01*
X0150500Y0348000D01*
X0145500Y0346500D01*
X0145500Y0333500D01*
X0150500Y0332000D01*
X0150500Y0328000D01*
X0145500Y0326500D01*
X0145500Y0316000D01*
X0157500Y0316000D01*
X0193000Y0316000D01*
X0157500Y0316000D02*
X0157500Y0444000D01*
X0150500Y0432000D02*
X0145500Y0433500D01*
X0150500Y0432000D02*
X0150500Y0428000D01*
X0145500Y0426500D01*
X0145500Y0413500D02*
X0150500Y0412000D01*
X0150500Y0408000D01*
X0145500Y0406500D01*
X0145500Y0393500D02*
X0145500Y0386500D01*
X0145500Y0373500D02*
X0145500Y0366500D01*
X0145500Y0353500D02*
X0145500Y0346500D01*
X0145500Y0333500D02*
X0145500Y0326500D01*
X0155000Y0277500D02*
X0160000Y0277500D01*
X0162500Y0275000D01*
X0162500Y0270000D01*
X0160000Y0267500D01*
X0162500Y0265000D01*
X0162500Y0260000D01*
X0160000Y0257500D01*
X0162500Y0255000D01*
X0162500Y0250000D01*
X0160000Y0247500D01*
X0162500Y0245000D01*
X0162500Y0240000D01*
X0160000Y0237500D01*
X0155000Y0237500D01*
X0152500Y0240000D01*
X0152500Y0245000D01*
X0155000Y0247500D01*
X0152500Y0250000D01*
X0152500Y0255000D01*
X0155000Y0257500D01*
X0160000Y0257500D01*
X0155000Y0257500D02*
X0152500Y0260000D01*
X0152500Y0265000D01*
X0155000Y0267500D01*
X0152500Y0270000D01*
X0152500Y0275000D01*
X0155000Y0277500D01*
X0155000Y0267500D02*
X0160000Y0267500D01*
X0160000Y0247500D02*
X0155000Y0247500D01*
D14*
X0195350Y0433646D02*
X0201650Y0437846D01*
X0201650Y0440150D02*
X0201650Y0443650D01*
X0201650Y0440150D02*
X0198150Y0443125D01*
X0195350Y0442075D02*
X0195352Y0441987D01*
X0195358Y0441900D01*
X0195367Y0441813D01*
X0195380Y0441726D01*
X0195397Y0441640D01*
X0195418Y0441555D01*
X0195442Y0441470D01*
X0195471Y0441387D01*
X0195502Y0441305D01*
X0195537Y0441225D01*
X0195576Y0441146D01*
X0195618Y0441069D01*
X0195663Y0440994D01*
X0195712Y0440921D01*
X0195763Y0440850D01*
X0195818Y0440781D01*
X0195875Y0440715D01*
X0195936Y0440651D01*
X0195999Y0440590D01*
X0196064Y0440532D01*
X0196132Y0440477D01*
X0196203Y0440425D01*
X0196276Y0440376D01*
X0196350Y0440330D01*
X0196427Y0440287D01*
X0196505Y0440248D01*
X0196585Y0440212D01*
X0196667Y0440179D01*
X0196750Y0440150D01*
X0198150Y0443125D02*
X0198093Y0443182D01*
X0198034Y0443236D01*
X0197972Y0443287D01*
X0197907Y0443336D01*
X0197840Y0443381D01*
X0197772Y0443423D01*
X0197701Y0443462D01*
X0197628Y0443497D01*
X0197554Y0443529D01*
X0197479Y0443557D01*
X0197402Y0443581D01*
X0197324Y0443602D01*
X0197245Y0443619D01*
X0197166Y0443633D01*
X0197086Y0443642D01*
X0197006Y0443648D01*
X0196925Y0443650D01*
X0196848Y0443648D01*
X0196771Y0443642D01*
X0196694Y0443633D01*
X0196618Y0443620D01*
X0196542Y0443603D01*
X0196468Y0443582D01*
X0196394Y0443558D01*
X0196322Y0443530D01*
X0196252Y0443499D01*
X0196183Y0443464D01*
X0196115Y0443426D01*
X0196050Y0443385D01*
X0195987Y0443340D01*
X0195926Y0443292D01*
X0195867Y0443242D01*
X0195811Y0443189D01*
X0195758Y0443133D01*
X0195708Y0443074D01*
X0195660Y0443013D01*
X0195615Y0442950D01*
X0195574Y0442885D01*
X0195536Y0442817D01*
X0195501Y0442748D01*
X0195470Y0442678D01*
X0195442Y0442606D01*
X0195418Y0442532D01*
X0195397Y0442458D01*
X0195380Y0442382D01*
X0195367Y0442306D01*
X0195358Y0442229D01*
X0195352Y0442152D01*
X0195350Y0442075D01*
X0195350Y0437846D02*
X0201650Y0433646D01*
X0414750Y0340654D02*
X0414823Y0340652D01*
X0414896Y0340646D01*
X0414969Y0340637D01*
X0415041Y0340623D01*
X0415112Y0340606D01*
X0415183Y0340585D01*
X0415252Y0340561D01*
X0415319Y0340533D01*
X0415386Y0340501D01*
X0415450Y0340466D01*
X0415512Y0340428D01*
X0415573Y0340387D01*
X0415631Y0340342D01*
X0415687Y0340294D01*
X0415740Y0340244D01*
X0415790Y0340191D01*
X0415838Y0340135D01*
X0415883Y0340077D01*
X0415924Y0340016D01*
X0415962Y0339954D01*
X0415997Y0339890D01*
X0416029Y0339823D01*
X0416057Y0339756D01*
X0416081Y0339687D01*
X0416102Y0339616D01*
X0416119Y0339545D01*
X0416133Y0339473D01*
X0416142Y0339400D01*
X0416148Y0339327D01*
X0416150Y0339254D01*
X0416148Y0339181D01*
X0416142Y0339108D01*
X0416133Y0339035D01*
X0416119Y0338963D01*
X0416102Y0338892D01*
X0416081Y0338821D01*
X0416057Y0338752D01*
X0416029Y0338685D01*
X0415997Y0338618D01*
X0415962Y0338554D01*
X0415924Y0338492D01*
X0415883Y0338431D01*
X0415838Y0338373D01*
X0415790Y0338317D01*
X0415740Y0338264D01*
X0415687Y0338214D01*
X0415631Y0338166D01*
X0415573Y0338121D01*
X0415512Y0338080D01*
X0415450Y0338042D01*
X0415386Y0338007D01*
X0415319Y0337975D01*
X0415252Y0337947D01*
X0415183Y0337923D01*
X0415112Y0337902D01*
X0415041Y0337885D01*
X0414969Y0337871D01*
X0414896Y0337862D01*
X0414823Y0337856D01*
X0414750Y0337854D01*
X0414677Y0337856D01*
X0414604Y0337862D01*
X0414531Y0337871D01*
X0414459Y0337885D01*
X0414388Y0337902D01*
X0414317Y0337923D01*
X0414248Y0337947D01*
X0414181Y0337975D01*
X0414114Y0338007D01*
X0414050Y0338042D01*
X0413988Y0338080D01*
X0413927Y0338121D01*
X0413869Y0338166D01*
X0413813Y0338214D01*
X0413760Y0338264D01*
X0413710Y0338317D01*
X0413662Y0338373D01*
X0413617Y0338431D01*
X0413576Y0338492D01*
X0413538Y0338554D01*
X0413503Y0338618D01*
X0413471Y0338685D01*
X0413443Y0338752D01*
X0413419Y0338821D01*
X0413398Y0338892D01*
X0413381Y0338963D01*
X0413367Y0339035D01*
X0413358Y0339108D01*
X0413352Y0339181D01*
X0413350Y0339254D01*
X0413352Y0339327D01*
X0413358Y0339400D01*
X0413367Y0339473D01*
X0413381Y0339545D01*
X0413398Y0339616D01*
X0413419Y0339687D01*
X0413443Y0339756D01*
X0413471Y0339823D01*
X0413503Y0339890D01*
X0413538Y0339954D01*
X0413576Y0340016D01*
X0413617Y0340077D01*
X0413662Y0340135D01*
X0413710Y0340191D01*
X0413760Y0340244D01*
X0413813Y0340294D01*
X0413869Y0340342D01*
X0413927Y0340387D01*
X0413988Y0340428D01*
X0414050Y0340466D01*
X0414114Y0340501D01*
X0414181Y0340533D01*
X0414248Y0340561D01*
X0414317Y0340585D01*
X0414388Y0340606D01*
X0414459Y0340623D01*
X0414531Y0340637D01*
X0414604Y0340646D01*
X0414677Y0340652D01*
X0414750Y0340654D01*
X0417900Y0341004D02*
X0417982Y0341002D01*
X0418064Y0340996D01*
X0418145Y0340987D01*
X0418226Y0340973D01*
X0418307Y0340956D01*
X0418386Y0340935D01*
X0418464Y0340911D01*
X0418541Y0340882D01*
X0418617Y0340850D01*
X0418691Y0340815D01*
X0418763Y0340776D01*
X0418834Y0340734D01*
X0418902Y0340689D01*
X0418968Y0340640D01*
X0419032Y0340589D01*
X0419093Y0340534D01*
X0419152Y0340477D01*
X0419208Y0340417D01*
X0419261Y0340354D01*
X0419311Y0340289D01*
X0419358Y0340222D01*
X0419402Y0340153D01*
X0419442Y0340081D01*
X0419479Y0340008D01*
X0419513Y0339933D01*
X0419543Y0339857D01*
X0419569Y0339779D01*
X0419592Y0339700D01*
X0419611Y0339621D01*
X0419626Y0339540D01*
X0419638Y0339459D01*
X0419646Y0339377D01*
X0419650Y0339295D01*
X0419650Y0339213D01*
X0419646Y0339131D01*
X0419638Y0339049D01*
X0419626Y0338968D01*
X0419611Y0338887D01*
X0419592Y0338808D01*
X0419569Y0338729D01*
X0419543Y0338651D01*
X0419513Y0338575D01*
X0419479Y0338500D01*
X0419442Y0338427D01*
X0419402Y0338355D01*
X0419358Y0338286D01*
X0419311Y0338219D01*
X0419261Y0338154D01*
X0419208Y0338091D01*
X0419152Y0338031D01*
X0419093Y0337974D01*
X0419032Y0337919D01*
X0418968Y0337868D01*
X0418902Y0337819D01*
X0418834Y0337774D01*
X0418763Y0337732D01*
X0418691Y0337693D01*
X0418617Y0337658D01*
X0418541Y0337626D01*
X0418464Y0337597D01*
X0418386Y0337573D01*
X0418307Y0337552D01*
X0418226Y0337535D01*
X0418145Y0337521D01*
X0418064Y0337512D01*
X0417982Y0337506D01*
X0417900Y0337504D01*
X0417818Y0337506D01*
X0417736Y0337512D01*
X0417655Y0337521D01*
X0417574Y0337535D01*
X0417493Y0337552D01*
X0417414Y0337573D01*
X0417336Y0337597D01*
X0417259Y0337626D01*
X0417183Y0337658D01*
X0417109Y0337693D01*
X0417037Y0337732D01*
X0416966Y0337774D01*
X0416898Y0337819D01*
X0416832Y0337868D01*
X0416768Y0337919D01*
X0416707Y0337974D01*
X0416648Y0338031D01*
X0416592Y0338091D01*
X0416539Y0338154D01*
X0416489Y0338219D01*
X0416442Y0338286D01*
X0416398Y0338355D01*
X0416358Y0338427D01*
X0416321Y0338500D01*
X0416287Y0338575D01*
X0416257Y0338651D01*
X0416231Y0338729D01*
X0416208Y0338808D01*
X0416189Y0338887D01*
X0416174Y0338968D01*
X0416162Y0339049D01*
X0416154Y0339131D01*
X0416150Y0339213D01*
X0416150Y0339295D01*
X0416154Y0339377D01*
X0416162Y0339459D01*
X0416174Y0339540D01*
X0416189Y0339621D01*
X0416208Y0339700D01*
X0416231Y0339779D01*
X0416257Y0339857D01*
X0416287Y0339933D01*
X0416321Y0340008D01*
X0416358Y0340081D01*
X0416398Y0340153D01*
X0416442Y0340222D01*
X0416489Y0340289D01*
X0416539Y0340354D01*
X0416592Y0340417D01*
X0416648Y0340477D01*
X0416707Y0340534D01*
X0416768Y0340589D01*
X0416832Y0340640D01*
X0416898Y0340689D01*
X0416966Y0340734D01*
X0417037Y0340776D01*
X0417109Y0340815D01*
X0417183Y0340850D01*
X0417259Y0340882D01*
X0417336Y0340911D01*
X0417414Y0340935D01*
X0417493Y0340956D01*
X0417574Y0340973D01*
X0417655Y0340987D01*
X0417736Y0340996D01*
X0417818Y0341002D01*
X0417900Y0341004D01*
X0419650Y0334850D02*
X0419650Y0331350D01*
X0416150Y0334325D01*
X0413350Y0333275D02*
X0413352Y0333187D01*
X0413358Y0333100D01*
X0413367Y0333013D01*
X0413380Y0332926D01*
X0413397Y0332840D01*
X0413418Y0332755D01*
X0413442Y0332670D01*
X0413471Y0332587D01*
X0413502Y0332505D01*
X0413537Y0332425D01*
X0413576Y0332346D01*
X0413618Y0332269D01*
X0413663Y0332194D01*
X0413712Y0332121D01*
X0413763Y0332050D01*
X0413818Y0331981D01*
X0413875Y0331915D01*
X0413936Y0331851D01*
X0413999Y0331790D01*
X0414064Y0331732D01*
X0414132Y0331677D01*
X0414203Y0331625D01*
X0414276Y0331576D01*
X0414350Y0331530D01*
X0414427Y0331487D01*
X0414505Y0331448D01*
X0414585Y0331412D01*
X0414667Y0331379D01*
X0414750Y0331350D01*
X0416150Y0334325D02*
X0416093Y0334382D01*
X0416034Y0334436D01*
X0415972Y0334487D01*
X0415907Y0334536D01*
X0415840Y0334581D01*
X0415772Y0334623D01*
X0415701Y0334662D01*
X0415628Y0334697D01*
X0415554Y0334729D01*
X0415479Y0334757D01*
X0415402Y0334781D01*
X0415324Y0334802D01*
X0415245Y0334819D01*
X0415166Y0334833D01*
X0415086Y0334842D01*
X0415006Y0334848D01*
X0414925Y0334850D01*
X0414848Y0334848D01*
X0414771Y0334842D01*
X0414694Y0334833D01*
X0414618Y0334820D01*
X0414542Y0334803D01*
X0414468Y0334782D01*
X0414394Y0334758D01*
X0414322Y0334730D01*
X0414252Y0334699D01*
X0414183Y0334664D01*
X0414115Y0334626D01*
X0414050Y0334585D01*
X0413987Y0334540D01*
X0413926Y0334492D01*
X0413867Y0334442D01*
X0413811Y0334389D01*
X0413758Y0334333D01*
X0413708Y0334274D01*
X0413660Y0334213D01*
X0413615Y0334150D01*
X0413574Y0334085D01*
X0413536Y0334017D01*
X0413501Y0333948D01*
X0413470Y0333878D01*
X0413442Y0333806D01*
X0413418Y0333732D01*
X0413397Y0333658D01*
X0413380Y0333582D01*
X0413367Y0333506D01*
X0413358Y0333429D01*
X0413352Y0333352D01*
X0413350Y0333275D01*
M02*
