G75*
%MOIN*%
%OFA0B0*%
%FSLAX25Y25*%
%IPPOS*%
%LPD*%
%AMOC8*
5,1,8,0,0,1.08239X$1,22.5*
%
%ADD10C,0.14186*%
%ADD11R,0.03280X0.04068*%
%ADD12C,0.10800*%
%ADD13R,0.04540X0.09265*%
%ADD14R,0.13595X0.09265*%
%ADD15R,0.06706X0.05918*%
%ADD16R,0.05918X0.06706*%
%ADD17C,0.09050*%
%ADD18R,0.07690X0.03359*%
%ADD19C,0.06800*%
%ADD20R,0.07887X0.07493*%
%ADD21C,0.03778*%
D10*
X0157559Y0206811D03*
X0157559Y0462717D03*
X0456772Y0462717D03*
X0456772Y0206811D03*
D11*
X0219528Y0397500D03*
X0210472Y0397500D03*
X0210472Y0410000D03*
X0219528Y0410000D03*
X0219528Y0422500D03*
X0210472Y0422500D03*
X0210472Y0435000D03*
X0210472Y0447500D03*
X0219528Y0447500D03*
X0219528Y0435000D03*
X0219528Y0460000D03*
X0210472Y0460000D03*
D12*
X0274000Y0459000D02*
X0284000Y0459000D01*
X0284000Y0392000D02*
X0274000Y0392000D01*
X0254000Y0369000D02*
X0244000Y0369000D01*
X0244000Y0302000D02*
X0254000Y0302000D01*
X0274531Y0281500D02*
X0284531Y0281500D01*
X0284531Y0214500D02*
X0274531Y0214500D01*
X0399000Y0302000D02*
X0409000Y0302000D01*
X0429531Y0281500D02*
X0439531Y0281500D01*
X0439531Y0214500D02*
X0429531Y0214500D01*
X0409000Y0369000D02*
X0399000Y0369000D01*
X0429000Y0392000D02*
X0439000Y0392000D01*
X0439000Y0459000D02*
X0429000Y0459000D01*
D13*
X0256555Y0281417D03*
X0247500Y0281417D03*
X0238445Y0281417D03*
X0238445Y0236417D03*
X0247500Y0236417D03*
X0256555Y0236417D03*
D14*
X0247500Y0258583D03*
X0247500Y0213583D03*
D15*
X0179500Y0228760D03*
X0179500Y0236240D03*
X0177500Y0211240D03*
X0177500Y0203760D03*
X0157500Y0293760D03*
X0157500Y0301240D03*
X0229000Y0326260D03*
X0229000Y0333740D03*
X0229000Y0351260D03*
X0229000Y0358740D03*
X0229000Y0375260D03*
X0229000Y0382740D03*
D16*
X0241260Y0400000D03*
X0248740Y0400000D03*
X0248740Y0420000D03*
X0241260Y0420000D03*
X0241260Y0440000D03*
X0248740Y0440000D03*
X0248740Y0460000D03*
X0241260Y0460000D03*
X0218740Y0302500D03*
X0211260Y0302500D03*
X0211260Y0285000D03*
X0218740Y0285000D03*
X0218740Y0267500D03*
X0211260Y0267500D03*
D17*
X0189125Y0330000D02*
X0180875Y0330000D01*
X0180875Y0350000D02*
X0189125Y0350000D01*
X0189125Y0370000D02*
X0180875Y0370000D01*
X0180875Y0390000D02*
X0189125Y0390000D01*
X0189125Y0410000D02*
X0180875Y0410000D01*
X0180875Y0430000D02*
X0189125Y0430000D01*
X0425875Y0365000D02*
X0434125Y0365000D01*
X0434125Y0345000D02*
X0425875Y0345000D01*
D18*
X0218524Y0249980D03*
X0218524Y0244980D03*
X0218524Y0239980D03*
X0218524Y0234980D03*
X0218524Y0222480D03*
X0218524Y0217480D03*
X0218524Y0212480D03*
X0218524Y0207480D03*
X0196476Y0207480D03*
X0196476Y0212480D03*
X0196476Y0217480D03*
X0196476Y0222480D03*
X0196476Y0234980D03*
X0196476Y0239980D03*
X0196476Y0244980D03*
X0196476Y0249980D03*
X0196024Y0289980D03*
X0196024Y0294980D03*
X0196024Y0299980D03*
X0196024Y0304980D03*
X0173976Y0304980D03*
X0173976Y0299980D03*
X0173976Y0294980D03*
X0173976Y0289980D03*
D19*
X0160500Y0272500D02*
X0154500Y0272500D01*
X0154500Y0262500D02*
X0160500Y0262500D01*
X0160500Y0252500D02*
X0154500Y0252500D01*
X0154500Y0242500D02*
X0160500Y0242500D01*
D20*
X0429803Y0303268D03*
X0430197Y0317047D03*
X0446339Y0317047D03*
X0445945Y0303268D03*
D21*
X0252500Y0242500D03*
X0225000Y0240000D03*
X0217500Y0257500D03*
X0197500Y0282500D03*
X0180000Y0295000D03*
X0180000Y0320000D03*
X0212500Y0365000D03*
X0220000Y0415000D03*
X0215000Y0441319D03*
X0190000Y0240000D03*
X0187500Y0212500D03*
M02*
